<svg width="112" height="112" viewBox="0 0 112 112" fill="none" xmlns="http://www.w3.org/2000/svg">
<path d="M78.7075 58.0985C78.6918 56.7022 78.363 55.3233 77.8506 54.0282C77.4553 53.0255 76.9962 52.0492 76.5479 51.0693C72.9805 43.3423 69.2369 35.697 65.32 28.1391C64.7691 27.0831 64.2298 26.0207 63.648 24.9809C63.0762 23.9667 62.4107 22.9904 61.549 22.1966C60.1741 20.8939 58.3293 20.1172 56.436 20H55.5644C53.6153 20.0956 51.7128 20.9086 50.3143 22.2635C49.4843 23.045 48.842 23.9978 48.2854 24.9837C47.7113 26.0063 47.1796 27.052 46.6391 28.0913C44.0108 33.162 41.4599 38.272 38.9873 43.4195C37.5134 46.5 36.0519 49.5856 34.6462 52.6964C34.0632 53.9923 33.5359 55.3325 33.3374 56.7472C32.9698 59.1359 33.497 61.6429 34.7809 63.694C35.8875 65.4757 37.5487 66.9115 39.4849 67.7408C40.9985 68.3901 42.6436 68.6795 44.2895 68.5861C46.4879 68.4701 48.6078 67.685 50.4678 66.5393C52.5428 65.2737 54.3174 63.5904 55.9697 61.8282C57.5062 63.474 59.1505 65.0445 61.0486 66.2755C62.8818 67.4742 64.972 68.3422 67.1704 68.5486C69.5581 68.7965 72.032 68.2083 74.0359 66.8872C75.8084 65.7199 77.181 64.0437 77.9709 62.0816C78.4796 60.8156 78.7299 59.4616 78.7075 58.0985ZM55.9797 57.1772C55.3803 56.4758 54.8523 55.7171 54.3218 54.9639C53.4293 53.6627 52.6177 52.3026 51.965 50.8656C51.4301 49.6733 51.0007 48.4216 50.8331 47.1216C50.7108 46.0903 50.7401 45.0143 51.121 44.0352C51.4618 43.117 52.117 42.3216 52.9469 41.796C54.9244 40.5275 57.7431 40.6646 59.535 42.2033C60.442 42.9712 60.9837 44.1065 61.12 45.2734C61.2984 46.8244 60.9436 48.3821 60.3987 49.8287C59.3698 52.5131 57.7411 54.9192 55.9797 57.1772ZM75.3832 60.4669C74.8547 62.2797 73.5845 63.8634 71.9225 64.7771C70.4494 65.5961 68.6912 65.8766 67.0305 65.6008C64.9154 65.2737 63.0177 64.1582 61.3734 62.8416C60.1649 61.8764 59.0767 60.7733 58.0342 59.6364C59.6802 57.5673 61.2307 55.4026 62.4151 53.0363C63.4487 50.9641 64.2342 48.7189 64.3088 46.3888C64.3509 44.9103 64.071 43.4048 63.3762 42.0885C62.4664 40.3299 60.8365 38.9789 58.9681 38.3254C57.2227 37.7057 55.2825 37.6503 53.5018 38.1548C51.8226 38.6271 50.289 39.6301 49.2381 41.0205C48.3131 42.2327 47.7858 43.7232 47.6635 45.2347C47.4755 47.4118 48.0244 49.5836 48.8548 51.5849C50.0893 54.5092 51.9012 57.1561 53.9024 59.6113C53.0001 60.6471 52.0209 61.6142 50.973 62.5044C49.3484 63.8709 47.4895 65.0605 45.3837 65.5132C43.6813 65.893 41.8445 65.7041 40.2832 64.919C38.4544 64.0132 37.0503 62.3072 36.5206 60.3461C36.1156 58.9055 36.2055 57.3501 36.687 55.939C37.0876 54.7714 37.6309 53.6588 38.1393 52.5354C41.6685 44.8917 45.3701 37.3278 49.2413 29.8495C49.8187 28.7365 50.3872 27.6183 50.9983 26.5236C51.4971 25.6417 52.0773 24.7757 52.8972 24.1564C53.7838 23.47 54.8805 23.1066 56.0042 23.1271C57.159 23.1135 58.3069 23.5364 59.1902 24.274C60.0627 24.9941 60.6521 25.9792 61.1813 26.9611C62.3778 29.1948 63.5269 31.4543 64.6765 33.7115C67.9572 40.1652 71.1096 46.6826 74.1318 53.2599C74.5885 54.2816 75.0772 55.2954 75.3848 56.3738C75.7604 57.7036 75.7729 59.1398 75.3832 60.4669ZM38.859 74.6111C39.8469 74.3887 40.9263 75.0363 41.1829 76.0111C41.5017 77.0085 40.8682 78.1682 39.8594 78.4567C38.8738 78.801 37.7034 78.2025 37.3771 77.2245C37.0675 76.4004 37.3987 75.4057 38.1341 74.9184C38.3533 74.7701 38.5995 74.6657 38.859 74.6111ZM45.5317 81.0498C46.1267 80.407 46.9651 80.0041 47.8287 79.8758C48.4049 79.8198 48.9864 79.8564 49.5508 79.9842C49.5436 80.8892 49.5492 81.793 49.5476 82.6984C48.6619 82.4709 47.7028 82.4239 46.8336 82.7419C46.3614 82.9127 45.9358 83.1907 45.5906 83.5536C45.516 83.617 45.5341 83.7194 45.5273 83.8075C45.5325 86.336 45.5233 88.8649 45.5309 91.3931C45.522 91.4903 45.5457 91.5999 45.5024 91.6912C44.5201 91.7139 43.5365 91.6955 42.5538 91.6991C42.5542 87.8444 42.5506 83.9888 42.5562 80.134C43.3838 80.1376 44.2117 80.1308 45.0397 80.1356C45.2217 80.1253 45.4158 80.2181 45.4824 80.3947C45.5477 80.6059 45.5269 80.831 45.5317 81.0498ZM66.7133 81.0602C67.4996 80.2516 68.6391 79.8539 69.7574 79.8515C70.939 79.822 72.1499 80.1691 73.0628 80.931C73.67 81.4044 74.1079 82.0592 74.3118 82.7989C74.5716 83.6999 74.5484 84.6463 74.5452 85.5745C74.546 87.6164 74.5452 89.6588 74.546 91.7011C73.5552 91.6995 72.5648 91.7075 71.5741 91.6967C71.5749 89.656 71.5741 87.6152 71.5749 85.5737C71.5749 84.8153 71.611 83.9972 71.2052 83.3217C70.9225 82.8371 70.3632 82.5956 69.8239 82.5394C68.7967 82.376 67.7237 82.7821 67.0156 83.5265C66.9402 83.6014 66.8757 83.6963 66.8841 83.8095C66.8745 84.1251 66.9226 84.4419 66.8953 84.7579C66.8564 85.1871 66.917 85.6163 66.903 86.0467C66.8903 86.8581 66.8892 87.6697 66.8998 88.4812C66.8436 89.5544 66.9415 90.6311 66.8769 91.7031C65.8901 91.6999 64.9042 91.7023 63.9175 91.7019C63.9171 87.8452 63.9102 83.9892 63.9211 80.1328C64.6841 80.1388 65.4487 80.1328 66.2113 80.1352C66.4086 80.1229 66.6243 80.2325 66.6752 80.4317C66.7217 80.6365 66.7077 80.8497 66.7133 81.0602ZM37.7724 91.7015C37.772 87.8452 37.7664 83.9892 37.7744 80.1332C38.7575 80.1356 39.7403 80.1348 40.723 80.134C40.7306 83.99 40.725 87.846 40.7258 91.7011C39.7415 91.7011 38.7571 91.7003 37.7724 91.7015ZM35.9412 80.1344C35.1622 80.1328 34.3831 80.1368 33.6033 80.13C33.3972 80.1288 33.1342 80.1388 33.0335 80.354C32.9433 80.5752 32.9778 80.8207 32.9698 81.0534C32.3214 80.3676 31.4076 79.9603 30.4702 79.8718C29.0228 79.7427 27.5228 80.1416 26.3604 81.0151C25.4029 81.7181 24.6953 82.7347 24.3248 83.8545C24.1463 84.3793 24.0569 84.9301 24 85.4804V86.2722C24.083 87.9296 24.8248 89.5691 26.1186 90.6375C27.0946 91.4592 28.3488 91.9183 29.6194 91.9984H30.2818C31.289 91.9311 32.2833 91.517 32.9706 90.771C32.977 91.0049 32.9437 91.2528 33.0319 91.4768C33.1237 91.6581 33.3402 91.7079 33.5283 91.7007C34.3322 91.6987 35.1373 91.7015 35.942 91.6971C35.942 87.844 35.9444 83.9892 35.9412 80.1344ZM32.8787 88.0978C32.2773 88.8135 31.3379 89.2367 30.3996 89.2073C29.394 89.2148 28.3504 88.8319 27.6988 88.048C27.0633 87.2996 26.8712 86.2587 27.0156 85.3075C27.1234 84.5375 27.5184 83.7991 28.1423 83.3213C28.708 82.8774 29.4213 82.6486 30.1354 82.5992C31.1991 82.5067 32.3206 82.973 32.9605 83.8266C32.9966 85.0835 32.9613 86.3436 32.9774 87.6025C32.967 87.7682 33.0131 87.9679 32.8787 88.0978ZM62.219 83.4432C61.7611 82.3302 60.9488 81.3626 59.9191 80.7314C58.8586 80.0754 57.5868 79.779 56.3434 79.863C55.3615 79.9272 54.402 80.3436 53.7204 81.0554C53.7164 78.8951 53.7204 76.736 53.7184 74.5756C52.7272 74.576 51.7352 74.5713 50.7441 74.5784C50.7493 80.2843 50.7357 85.9929 50.7513 91.6983C51.5721 91.7003 52.3936 91.7023 53.2148 91.7003C53.4189 91.7163 53.639 91.6047 53.6951 91.3994C53.7356 91.1906 53.7208 90.975 53.722 90.7634C54.4108 91.525 55.4228 91.9382 56.4404 91.9992H57.0475C58.695 91.9171 60.3105 91.1496 61.3445 89.8628C62.7928 88.0978 63.0754 85.5322 62.219 83.4432ZM58.7528 88.3106C58.0888 88.9231 57.1698 89.2168 56.2724 89.2081C55.3362 89.2296 54.4008 88.802 53.8078 88.0819C53.7344 88.0069 53.7103 87.9057 53.7164 87.8061C53.7172 86.4823 53.7184 85.1588 53.7164 83.8358C54.2857 83.0977 55.1971 82.6379 56.1293 82.5904C57.0744 82.5629 58.0659 82.8387 58.7596 83.501C59.4203 84.1103 59.7427 85.0241 59.7219 85.9092C59.7411 86.7931 59.4099 87.7009 58.7528 88.3106ZM86.6744 82.0118C85.4138 80.4162 83.2587 79.6112 81.2495 79.9097C80.4103 80.0412 79.6152 80.4413 79.0286 81.055C79.0222 78.8959 79.0286 76.7367 79.0254 74.5768C78.0359 74.5756 77.0471 74.5748 76.0584 74.5776C76.0576 80.2839 76.0584 85.9917 76.0584 91.6987C76.8382 91.7047 77.6201 91.6975 78.3999 91.7047C78.6048 91.7079 78.861 91.6916 78.9661 91.4835C79.0571 91.2588 79.023 91.0081 79.0294 90.7718C79.7131 91.5162 80.703 91.9275 81.7046 92H82.3726C84.0021 91.9119 85.5951 91.156 86.6271 89.8887C87.4699 88.8781 87.9246 87.5837 88 86.2802V85.5067C87.9066 84.2482 87.4792 82.9985 86.6744 82.0118ZM84.3585 87.9783C83.5739 88.9821 82.1894 89.3555 80.9612 89.1606C80.2135 89.0124 79.4881 88.6111 79.0459 87.9846C78.9966 87.4989 79.0411 87.0075 79.0262 86.5193C79.0366 85.6215 79.0038 84.7209 79.0411 83.8246C79.4909 83.2081 80.211 82.8128 80.952 82.6494C82.3233 82.3976 83.9175 82.9375 84.6107 84.196C85.2418 85.3609 85.1789 86.9174 84.3585 87.9783Z" fill="#BDBDBD"/>
</svg>
