<svg width="168" height="48" viewBox="0 0 168 48" fill="none" xmlns="http://www.w3.org/2000/svg">
<rect x="0.5" y="0.5" width="167" height="47" stroke="white"/>
<path d="M15.296 28V17.408H20.048C20.88 17.408 21.536 17.552 22.016 17.84C22.5067 18.128 22.8587 18.4907 23.072 18.928C23.2853 19.3547 23.392 19.7813 23.392 20.208C23.392 20.8907 23.248 21.4187 22.96 21.792C22.672 22.1547 22.3413 22.4213 21.968 22.592C22.2667 22.688 22.5653 22.8427 22.864 23.056C23.1733 23.2587 23.4293 23.536 23.632 23.888C23.8347 24.24 23.936 24.6827 23.936 25.216C23.936 26.0053 23.632 26.6667 23.024 27.2C22.4267 27.7333 21.5253 28 20.32 28H15.296ZM16.496 22.144H20.048C20.4213 22.144 20.768 22.08 21.088 21.952C21.4187 21.824 21.6853 21.6267 21.888 21.36C22.0907 21.0827 22.192 20.7307 22.192 20.304C22.192 20.0053 22.1227 19.7227 21.984 19.456C21.856 19.1893 21.6427 18.9707 21.344 18.8C21.056 18.6293 20.6667 18.544 20.176 18.544H16.496V22.144ZM16.496 26.864H20.448C21.1733 26.864 21.7333 26.7147 22.128 26.416C22.5333 26.1067 22.736 25.6747 22.736 25.12C22.736 24.6187 22.544 24.1813 22.16 23.808C21.776 23.424 21.1627 23.232 20.32 23.232H16.496V26.864ZM29.1858 28.128C28.3751 28.128 27.6658 27.9467 27.0578 27.584C26.4498 27.2107 25.9751 26.7093 25.6338 26.08C25.3031 25.4507 25.1378 24.7573 25.1378 24C25.1378 23.232 25.2978 22.5387 25.6178 21.92C25.9378 21.2907 26.3964 20.7947 26.9938 20.432C27.5911 20.0587 28.2951 19.872 29.1058 19.872C29.9271 19.872 30.6311 20.0587 31.2178 20.432C31.8151 20.7947 32.2738 21.2907 32.5938 21.92C32.9138 22.5387 33.0738 23.232 33.0738 24V24.48H26.3698C26.4338 24.9493 26.5831 25.3813 26.8178 25.776C27.0631 26.16 27.3884 26.4693 27.7938 26.704C28.1991 26.928 28.6684 27.04 29.2018 27.04C29.7671 27.04 30.2418 26.9173 30.6258 26.672C31.0098 26.416 31.3084 26.0907 31.5218 25.696H32.8338C32.5564 26.4107 32.1138 26.9973 31.5058 27.456C30.9084 27.904 30.1351 28.128 29.1858 28.128ZM26.3858 23.36H31.8258C31.7191 22.6773 31.4311 22.1067 30.9618 21.648C30.4924 21.1893 29.8738 20.96 29.1058 20.96C28.3378 20.96 27.7191 21.1893 27.2498 21.648C26.7911 22.1067 26.5031 22.6773 26.3858 23.36ZM37.98 28.128C37.18 28.128 36.4867 27.9467 35.9 27.584C35.3133 27.2107 34.8547 26.7093 34.524 26.08C34.204 25.4507 34.044 24.7573 34.044 24C34.044 23.232 34.204 22.5387 34.524 21.92C34.8547 21.2907 35.3133 20.7947 35.9 20.432C36.4867 20.0587 37.18 19.872 37.98 19.872C38.9293 19.872 39.7347 20.1173 40.396 20.608C41.068 21.0987 41.5213 21.7333 41.756 22.512H40.46C40.2787 22.0533 39.9853 21.68 39.58 21.392C39.1853 21.104 38.7053 20.96 38.14 20.96C37.5533 20.96 37.0413 21.0987 36.604 21.376C36.1667 21.6533 35.8307 22.0213 35.596 22.48C35.3613 22.9387 35.244 23.4453 35.244 24C35.244 24.544 35.3613 25.0507 35.596 25.52C35.8307 25.9787 36.1667 26.3467 36.604 26.624C37.0413 26.9013 37.5533 27.04 38.14 27.04C38.7053 27.04 39.1853 26.896 39.58 26.608C39.9853 26.32 40.2787 25.9467 40.46 25.488H41.756C41.5213 26.2667 41.068 26.9013 40.396 27.392C39.7347 27.8827 38.9293 28.128 37.98 28.128ZM46.7151 28.128C45.9045 28.128 45.2005 27.9467 44.6031 27.584C44.0058 27.2107 43.5471 26.7093 43.2271 26.08C42.9071 25.4507 42.7471 24.7573 42.7471 24C42.7471 23.232 42.9071 22.5387 43.2271 21.92C43.5471 21.2907 44.0058 20.7947 44.6031 20.432C45.2005 20.0587 45.9045 19.872 46.7151 19.872C47.5365 19.872 48.2405 20.0587 48.8271 20.432C49.4245 20.7947 49.8831 21.2907 50.2031 21.92C50.5231 22.5387 50.6831 23.232 50.6831 24C50.6831 24.7573 50.5231 25.4507 50.2031 26.08C49.8831 26.7093 49.4245 27.2107 48.8271 27.584C48.2405 27.9467 47.5365 28.128 46.7151 28.128ZM46.7151 27.04C47.3125 27.04 47.8138 26.9013 48.2191 26.624C48.6351 26.3467 48.9498 25.9787 49.1631 25.52C49.3765 25.0507 49.4831 24.544 49.4831 24C49.4831 23.4453 49.3765 22.9387 49.1631 22.48C48.9498 22.0213 48.6351 21.6533 48.2191 21.376C47.8138 21.0987 47.3125 20.96 46.7151 20.96C46.1285 20.96 45.6271 21.0987 45.2111 21.376C44.7951 21.6533 44.4805 22.0213 44.2671 22.48C44.0538 22.9387 43.9471 23.4453 43.9471 24C43.9471 24.544 44.0538 25.0507 44.2671 25.52C44.4805 25.9787 44.7951 26.3467 45.2111 26.624C45.6271 26.9013 46.1285 27.04 46.7151 27.04ZM52.2744 28V20H53.4744V21.216C53.6557 20.896 53.9437 20.592 54.3384 20.304C54.733 20.016 55.2557 19.872 55.9064 19.872C56.4397 19.872 56.9304 20.016 57.3784 20.304C57.837 20.5813 58.1944 20.976 58.4504 21.488C58.557 21.3067 58.7224 21.088 58.9464 20.832C59.181 20.576 59.485 20.352 59.8584 20.16C60.2317 19.968 60.6797 19.872 61.2024 19.872C61.7144 19.872 62.1944 20.0053 62.6424 20.272C63.0904 20.5387 63.453 20.9227 63.7304 21.424C64.0184 21.9147 64.1624 22.496 64.1624 23.168V28H62.9624V23.2C62.9624 22.528 62.7704 21.9893 62.3864 21.584C62.013 21.168 61.5437 20.96 60.9784 20.96C60.3917 20.96 59.885 21.1573 59.4584 21.552C59.0317 21.9467 58.8184 22.5013 58.8184 23.216V28H57.6184V23.2C57.6184 22.528 57.4264 21.9893 57.0424 21.584C56.669 21.168 56.1997 20.96 55.6344 20.96C55.0477 20.96 54.541 21.1573 54.1144 21.552C53.6877 21.9467 53.4744 22.5013 53.4744 23.216V28H52.2744ZM69.717 28.128C68.9063 28.128 68.197 27.9467 67.589 27.584C66.981 27.2107 66.5063 26.7093 66.165 26.08C65.8343 25.4507 65.669 24.7573 65.669 24C65.669 23.232 65.829 22.5387 66.149 21.92C66.469 21.2907 66.9277 20.7947 67.525 20.432C68.1223 20.0587 68.8263 19.872 69.637 19.872C70.4583 19.872 71.1623 20.0587 71.749 20.432C72.3463 20.7947 72.805 21.2907 73.125 21.92C73.445 22.5387 73.605 23.232 73.605 24V24.48H66.901C66.965 24.9493 67.1143 25.3813 67.349 25.776C67.5943 26.16 67.9197 26.4693 68.325 26.704C68.7303 26.928 69.1997 27.04 69.733 27.04C70.2983 27.04 70.773 26.9173 71.157 26.672C71.541 26.416 71.8397 26.0907 72.053 25.696H73.365C73.0877 26.4107 72.645 26.9973 72.037 27.456C71.4397 27.904 70.6663 28.128 69.717 28.128ZM66.917 23.36H72.357C72.2503 22.6773 71.9623 22.1067 71.493 21.648C71.0237 21.1893 70.405 20.96 69.637 20.96C68.869 20.96 68.2503 21.1893 67.781 21.648C67.3223 22.1067 67.0343 22.6773 66.917 23.36ZM85.2598 28.128C84.4811 28.128 83.7984 27.9467 83.2118 27.584C82.6358 27.2107 82.1878 26.7093 81.8678 26.08C81.5478 25.4507 81.3878 24.7573 81.3878 24C81.3878 23.232 81.5478 22.5387 81.8678 21.92C82.1878 21.2907 82.6358 20.7947 83.2118 20.432C83.7984 20.0587 84.4811 19.872 85.2598 19.872C85.9211 19.872 86.4864 20 86.9558 20.256C87.4358 20.512 87.8251 20.8587 88.1238 21.296V20H89.3238V28H88.1238V26.72C87.8251 27.1467 87.4358 27.488 86.9558 27.744C86.4864 28 85.9211 28.128 85.2598 28.128ZM85.4198 27.04C86.0171 27.04 86.5184 26.9013 86.9238 26.624C87.3398 26.3467 87.6544 25.9787 87.8678 25.52C88.0811 25.0507 88.1878 24.544 88.1878 24C88.1878 23.4453 88.0811 22.9387 87.8678 22.48C87.6544 22.0213 87.3398 21.6533 86.9238 21.376C86.5184 21.0987 86.0171 20.96 85.4198 20.96C84.8331 20.96 84.3264 21.0987 83.8998 21.376C83.4731 21.6533 83.1478 22.0213 82.9238 22.48C82.6998 22.9387 82.5878 23.4453 82.5878 24C82.5878 24.544 82.6998 25.0507 82.9238 25.52C83.1478 25.9787 83.4731 26.3467 83.8998 26.624C84.3264 26.9013 84.8331 27.04 85.4198 27.04ZM95.0616 28V17.408H96.4536L100.246 22.432L103.974 17.408H105.366V28H104.166V19.232L100.246 24.272L96.2616 19.232V28H95.0616ZM111.248 28.128C110.438 28.128 109.728 27.9467 109.12 27.584C108.512 27.2107 108.038 26.7093 107.696 26.08C107.366 25.4507 107.2 24.7573 107.2 24C107.2 23.232 107.36 22.5387 107.68 21.92C108 21.2907 108.459 20.7947 109.056 20.432C109.654 20.0587 110.358 19.872 111.168 19.872C111.99 19.872 112.694 20.0587 113.28 20.432C113.878 20.7947 114.336 21.2907 114.656 21.92C114.976 22.5387 115.136 23.232 115.136 24V24.48H108.432C108.496 24.9493 108.646 25.3813 108.88 25.776C109.126 26.16 109.451 26.4693 109.856 26.704C110.262 26.928 110.731 27.04 111.264 27.04C111.83 27.04 112.304 26.9173 112.688 26.672C113.072 26.416 113.371 26.0907 113.584 25.696H114.896C114.619 26.4107 114.176 26.9973 113.568 27.456C112.971 27.904 112.198 28.128 111.248 28.128ZM108.448 23.36H113.888C113.782 22.6773 113.494 22.1067 113.024 21.648C112.555 21.1893 111.936 20.96 111.168 20.96C110.4 20.96 109.782 21.1893 109.312 21.648C108.854 22.1067 108.566 22.6773 108.448 23.36ZM116.603 28V20H117.803V21.216C117.984 20.896 118.272 20.592 118.667 20.304C119.061 20.016 119.584 19.872 120.235 19.872C120.768 19.872 121.259 20.016 121.707 20.304C122.165 20.5813 122.523 20.976 122.779 21.488C122.885 21.3067 123.051 21.088 123.275 20.832C123.509 20.576 123.813 20.352 124.187 20.16C124.56 19.968 125.008 19.872 125.531 19.872C126.043 19.872 126.523 20.0053 126.971 20.272C127.419 20.5387 127.781 20.9227 128.059 21.424C128.347 21.9147 128.491 22.496 128.491 23.168V28H127.291V23.2C127.291 22.528 127.099 21.9893 126.715 21.584C126.341 21.168 125.872 20.96 125.307 20.96C124.72 20.96 124.213 21.1573 123.786 21.552C123.36 21.9467 123.147 22.5013 123.147 23.216V28H121.947V23.2C121.947 22.528 121.755 21.9893 121.371 21.584C120.997 21.168 120.528 20.96 119.963 20.96C119.376 20.96 118.869 21.1573 118.443 21.552C118.016 21.9467 117.803 22.5013 117.803 23.216V28H116.603ZM134.557 28.128C133.896 28.128 133.325 28 132.845 27.744C132.376 27.488 131.992 27.1467 131.693 26.72V28H130.493V16.8H131.693V21.296C131.992 20.8587 132.376 20.512 132.845 20.256C133.325 20 133.896 19.872 134.557 19.872C135.336 19.872 136.013 20.0587 136.589 20.432C137.176 20.7947 137.629 21.2907 137.949 21.92C138.269 22.5387 138.429 23.232 138.429 24C138.429 24.7573 138.269 25.4507 137.949 26.08C137.629 26.7093 137.176 27.2107 136.589 27.584C136.013 27.9467 135.336 28.128 134.557 28.128ZM134.397 27.04C134.994 27.04 135.501 26.9013 135.917 26.624C136.344 26.3467 136.669 25.9787 136.893 25.52C137.117 25.0507 137.229 24.544 137.229 24C137.229 23.4453 137.117 22.9387 136.893 22.48C136.669 22.0213 136.344 21.6533 135.917 21.376C135.501 21.0987 134.994 20.96 134.397 20.96C133.81 20.96 133.309 21.0987 132.893 21.376C132.477 21.6533 132.162 22.0213 131.949 22.48C131.736 22.9387 131.629 23.4453 131.629 24C131.629 24.544 131.736 25.0507 131.949 25.52C132.162 25.9787 132.477 26.3467 132.893 26.624C133.309 26.9013 133.81 27.04 134.397 27.04ZM143.561 28.128C142.75 28.128 142.041 27.9467 141.433 27.584C140.825 27.2107 140.35 26.7093 140.009 26.08C139.678 25.4507 139.513 24.7573 139.513 24C139.513 23.232 139.673 22.5387 139.993 21.92C140.313 21.2907 140.771 20.7947 141.369 20.432C141.966 20.0587 142.67 19.872 143.481 19.872C144.302 19.872 145.006 20.0587 145.593 20.432C146.19 20.7947 146.649 21.2907 146.969 21.92C147.289 22.5387 147.449 23.232 147.449 24V24.48H140.745C140.809 24.9493 140.958 25.3813 141.193 25.776C141.438 26.16 141.763 26.4693 142.169 26.704C142.574 26.928 143.043 27.04 143.577 27.04C144.142 27.04 144.617 26.9173 145.001 26.672C145.385 26.416 145.683 26.0907 145.897 25.696H147.209C146.931 26.4107 146.489 26.9973 145.881 27.456C145.283 27.904 144.51 28.128 143.561 28.128ZM140.761 23.36H146.201C146.094 22.6773 145.806 22.1067 145.337 21.648C144.867 21.1893 144.249 20.96 143.481 20.96C142.713 20.96 142.094 21.1893 141.625 21.648C141.166 22.1067 140.878 22.6773 140.761 23.36ZM148.915 28V20H150.115V21.968C150.158 21.8293 150.238 21.648 150.355 21.424C150.483 21.1893 150.664 20.9547 150.899 20.72C151.134 20.4853 151.427 20.288 151.779 20.128C152.142 19.9573 152.568 19.872 153.059 19.872H153.139V21.072H152.995C152.398 21.072 151.88 21.2373 151.443 21.568C151.016 21.888 150.686 22.3093 150.451 22.832C150.227 23.344 150.115 23.8933 150.115 24.48V28H148.915Z" fill="white"/>
<path d="M15.296 28H15.046V28.25H15.296V28ZM15.296 17.408V17.158H15.046V17.408H15.296ZM22.016 17.84L21.8874 18.0544L21.8895 18.0556L22.016 17.84ZM23.072 18.928L22.8473 19.0376L22.8484 19.0398L23.072 18.928ZM22.96 21.792L23.1558 21.9475L23.1579 21.9447L22.96 21.792ZM21.968 22.592L21.8641 22.3646L21.2777 22.6327L21.8915 22.83L21.968 22.592ZM22.864 23.056L22.7186 23.2596L22.727 23.2651L22.864 23.056ZM23.632 23.888L23.8487 23.7633L23.8487 23.7633L23.632 23.888ZM23.024 27.2L22.8591 27.0121L22.8575 27.0135L23.024 27.2ZM16.496 22.144H16.246V22.394H16.496V22.144ZM21.088 21.952L20.9977 21.7188L20.9952 21.7199L21.088 21.952ZM21.888 21.36L22.0871 21.5113L22.0898 21.5075L21.888 21.36ZM21.984 19.456L21.7585 19.5642L21.7622 19.5713L21.984 19.456ZM21.344 18.8L21.2165 19.0151L21.22 19.0171L21.344 18.8ZM16.496 18.544V18.294H16.246V18.544H16.496ZM16.496 26.864H16.246V27.114H16.496V26.864ZM22.128 26.416L22.2789 26.6154L22.2797 26.6147L22.128 26.416ZM22.16 23.808L21.9832 23.9848L21.9857 23.9872L22.16 23.808ZM16.496 23.232V22.982H16.246V23.232H16.496ZM15.546 28V17.408H15.046V28H15.546ZM15.296 17.658H20.048V17.158H15.296V17.658ZM20.048 17.658C20.8552 17.658 21.4607 17.7984 21.8874 18.0544L22.1446 17.6256C21.6113 17.3056 20.9048 17.158 20.048 17.158V17.658ZM21.8895 18.0556C22.345 18.323 22.659 18.6516 22.8473 19.0376L23.2967 18.8184C23.0583 18.3298 22.6683 17.933 22.1426 17.6244L21.8895 18.0556ZM22.8484 19.0398C23.0464 19.4359 23.142 19.8245 23.142 20.208H23.642C23.642 19.7381 23.5242 19.2734 23.2956 18.8162L22.8484 19.0398ZM23.142 20.208C23.142 20.8593 23.0041 21.3255 22.7621 21.6393L23.1579 21.9447C23.4919 21.5118 23.642 20.922 23.642 20.208H23.142ZM22.7642 21.6365C22.4976 21.9723 22.1972 22.2124 21.8641 22.3646L22.0719 22.8194C22.4855 22.6303 22.8464 22.337 23.1558 21.9475L22.7642 21.6365ZM21.8915 22.83C22.1618 22.9169 22.4376 23.0586 22.7187 23.2594L23.0093 22.8526C22.6931 22.6267 22.3715 22.4591 22.0445 22.354L21.8915 22.83ZM22.727 23.2651C23.0004 23.4442 23.2303 23.6913 23.4153 24.0127L23.8487 23.7633C23.6284 23.3807 23.3463 23.0731 23.001 22.8469L22.727 23.2651ZM23.4153 24.0127C23.5904 24.3167 23.686 24.7131 23.686 25.216H24.186C24.186 24.6522 24.079 24.1633 23.8487 23.7633L23.4153 24.0127ZM23.686 25.216C23.686 25.9313 23.4146 26.5249 22.8591 27.0121L23.1889 27.3879C23.8494 26.8085 24.186 26.0793 24.186 25.216H23.686ZM22.8575 27.0135C22.3243 27.4896 21.494 27.75 20.32 27.75V28.25C21.5566 28.25 22.529 27.9771 23.1905 27.3865L22.8575 27.0135ZM20.32 27.75H15.296V28.25H20.32V27.75ZM16.496 22.394H20.048V21.894H16.496V22.394ZM20.048 22.394C20.4505 22.394 20.8289 22.3249 21.1808 22.1841L20.9952 21.7199C20.7071 21.8351 20.3922 21.894 20.048 21.894V22.394ZM21.1782 22.1851C21.5494 22.0415 21.8547 21.817 22.087 21.5113L21.689 21.2087C21.5159 21.4364 21.2879 21.6065 20.9978 21.7189L21.1782 22.1851ZM22.0898 21.5075C22.3307 21.1779 22.442 20.7707 22.442 20.304H21.942C21.942 20.6907 21.8506 20.9874 21.6862 21.2125L22.0898 21.5075ZM22.442 20.304C22.442 19.9649 22.3629 19.6427 22.2058 19.3407L21.7622 19.5713C21.8825 19.8026 21.942 20.0458 21.942 20.304H22.442ZM22.2094 19.3478C22.056 19.0283 21.8034 18.7746 21.468 18.5829L21.22 19.0171C21.482 19.1668 21.656 19.3504 21.7586 19.5642L22.2094 19.3478ZM21.4715 18.5849C21.131 18.3831 20.692 18.294 20.176 18.294V18.794C20.6414 18.794 20.9811 18.8755 21.2165 19.0151L21.4715 18.5849ZM20.176 18.294H16.496V18.794H20.176V18.294ZM16.246 18.544V22.144H16.746V18.544H16.246ZM16.496 27.114H20.448V26.614H16.496V27.114ZM20.448 27.114C21.2035 27.114 21.8247 26.959 22.2789 26.6154L21.9771 26.2166C21.642 26.4703 21.1432 26.614 20.448 26.614V27.114ZM22.2797 26.6147C22.753 26.2535 22.986 25.7447 22.986 25.12H22.486C22.486 25.6046 22.3137 25.9598 21.9763 26.2173L22.2797 26.6147ZM22.986 25.12C22.986 24.5462 22.763 24.0456 22.3343 23.6288L21.9857 23.9872C22.325 24.3171 22.486 24.6912 22.486 25.12H22.986ZM22.3368 23.6312C21.8856 23.18 21.1933 22.982 20.32 22.982V23.482C21.132 23.482 21.6664 23.668 21.9832 23.9848L22.3368 23.6312ZM20.32 22.982H16.496V23.482H20.32V22.982ZM16.246 23.232V26.864H16.746V23.232H16.246ZM27.0578 27.584L26.9269 27.7971L26.9297 27.7987L27.0578 27.584ZM25.6338 26.08L25.4124 26.1963L25.414 26.1992L25.6338 26.08ZM25.6178 21.92L25.8398 22.0349L25.8406 22.0333L25.6178 21.92ZM26.9938 20.432L27.1235 20.6457L27.1262 20.644L26.9938 20.432ZM31.2178 20.432L31.0835 20.643L31.088 20.6457L31.2178 20.432ZM32.5938 21.92L32.3709 22.0333L32.3717 22.0349L32.5938 21.92ZM33.0738 24.48V24.73H33.3238V24.48H33.0738ZM26.3698 24.48V24.23H26.0833L26.122 24.5138L26.3698 24.48ZM26.8178 25.776L26.6028 25.9038L26.6071 25.9106L26.8178 25.776ZM27.7938 26.704L27.6685 26.9204L27.6728 26.9228L27.7938 26.704ZM30.6258 26.672L30.7604 26.8827L30.7644 26.88L30.6258 26.672ZM31.5218 25.696V25.446H31.3727L31.3018 25.5771L31.5218 25.696ZM32.8338 25.696L33.0668 25.7864L33.1989 25.446H32.8338V25.696ZM31.5058 27.456L31.6558 27.656L31.6563 27.6556L31.5058 27.456ZM26.3858 23.36L26.1394 23.3177L26.0891 23.61H26.3858V23.36ZM31.8258 23.36V23.61H32.1178L32.0728 23.3214L31.8258 23.36ZM30.9618 21.648L31.1365 21.4692L31.1365 21.4692L30.9618 21.648ZM27.2498 21.648L27.075 21.4692L27.073 21.4712L27.2498 21.648ZM29.1858 27.878C28.4135 27.878 27.7497 27.7057 27.1858 27.3693L26.9297 27.7987C27.5818 28.1877 28.3367 28.378 29.1858 28.378V27.878ZM27.1886 27.371C26.6181 27.0207 26.174 26.5517 25.8535 25.9608L25.414 26.1992C25.7762 26.8669 26.2814 27.4007 26.9269 27.797L27.1886 27.371ZM25.8551 25.9637C25.5445 25.3726 25.3878 24.7195 25.3878 24H24.8878C24.8878 24.7951 25.0617 25.5288 25.4124 26.1963L25.8551 25.9637ZM25.3878 24C25.3878 23.2678 25.54 22.6145 25.8398 22.0349L25.3957 21.8051C25.0555 22.4628 24.8878 23.1962 24.8878 24H25.3878ZM25.8406 22.0333C26.1397 21.445 26.5664 20.984 27.1235 20.6457L26.864 20.2183C26.2265 20.6054 25.7358 21.1363 25.3949 21.8067L25.8406 22.0333ZM27.1262 20.644C27.6781 20.2991 28.3347 20.122 29.1058 20.122V19.622C28.2554 19.622 27.504 19.8183 26.8613 20.22L27.1262 20.644ZM29.1058 20.122C29.8883 20.122 30.5438 20.2994 31.0835 20.6429L31.352 20.2211C30.7184 19.8179 29.9659 19.622 29.1058 19.622V20.122ZM31.088 20.6457C31.6451 20.984 32.0718 21.445 32.3709 22.0333L32.8166 21.8067C32.4757 21.1363 31.985 20.6054 31.3475 20.2183L31.088 20.6457ZM32.3717 22.0349C32.6715 22.6145 32.8238 23.2678 32.8238 24H33.3238C33.3238 23.1962 33.156 22.4628 32.8158 21.8051L32.3717 22.0349ZM32.8238 24V24.48H33.3238V24H32.8238ZM33.0738 24.23H26.3698V24.73H33.0738V24.23ZM26.122 24.5138C26.1904 25.0153 26.3505 25.4794 26.6029 25.9038L27.0326 25.6482C26.8156 25.2833 26.6771 24.8834 26.6175 24.4462L26.122 24.5138ZM26.6071 25.9106C26.8745 26.3292 27.2296 26.6662 27.6685 26.9204L27.919 26.4876C27.5473 26.2724 27.2516 25.9908 27.0284 25.6414L26.6071 25.9106ZM27.6728 26.9228C28.1205 27.1702 28.6326 27.29 29.2018 27.29V26.79C28.7042 26.79 28.2777 26.6858 27.9147 26.4852L27.6728 26.9228ZM29.2018 27.29C29.8033 27.29 30.3275 27.1592 30.7603 26.8827L30.4912 26.4613C30.156 26.6754 29.7309 26.79 29.2018 26.79V27.29ZM30.7644 26.88C31.1814 26.6021 31.5084 26.2465 31.7417 25.8149L31.3018 25.5771C31.1085 25.9348 30.8381 26.2299 30.4871 26.464L30.7644 26.88ZM31.5218 25.946H32.8338V25.446H31.5218V25.946ZM32.6007 25.6056C32.3401 26.2772 31.9258 26.8259 31.3552 27.2564L31.6563 27.6556C32.3017 27.1687 32.7728 26.5442 33.0668 25.7864L32.6007 25.6056ZM31.3558 27.256C30.8122 27.6637 30.0958 27.878 29.1858 27.878V28.378C30.1744 28.378 31.0046 28.1443 31.6558 27.656L31.3558 27.256ZM26.3858 23.61H31.8258V23.11H26.3858V23.61ZM32.0728 23.3214C31.9582 22.5884 31.6465 21.9677 31.1365 21.4692L30.787 21.8268C31.2156 22.2457 31.4799 22.7662 31.5787 23.3986L32.0728 23.3214ZM31.1365 21.4692C30.6125 20.9572 29.9271 20.71 29.1058 20.71V21.21C29.8204 21.21 30.3723 21.4215 30.787 21.8268L31.1365 21.4692ZM29.1058 20.71C28.2844 20.71 27.599 20.9572 27.075 21.4692L27.4245 21.8268C27.8392 21.4215 28.3911 21.21 29.1058 21.21V20.71ZM27.073 21.4712C26.5752 21.969 26.2648 22.5877 26.1394 23.3177L26.6321 23.4023C26.7413 22.767 27.0069 22.2444 27.4265 21.8248L27.073 21.4712ZM35.9 27.584L35.7658 27.7949L35.7685 27.7966L35.9 27.584ZM34.524 26.08L34.3011 26.1933L34.3027 26.1963L34.524 26.08ZM34.524 21.92L34.3027 21.8037L34.3019 21.8051L34.524 21.92ZM35.9 20.432L36.0315 20.6447L36.0342 20.6429L35.9 20.432ZM40.396 20.608L40.247 20.8088L40.2486 20.8099L40.396 20.608ZM41.756 22.512V22.762H42.0924L41.9954 22.4399L41.756 22.512ZM40.46 22.512L40.2275 22.6039L40.29 22.762H40.46V22.512ZM39.58 21.392L39.4326 21.594L39.4352 21.5958L39.58 21.392ZM36.604 21.376L36.4701 21.1649L36.4701 21.1649L36.604 21.376ZM35.596 22.48L35.3734 22.3661L35.3734 22.3661L35.596 22.48ZM35.596 25.52L35.3724 25.6318L35.3734 25.6339L35.596 25.52ZM36.604 26.624L36.4701 26.8351L36.4701 26.8351L36.604 26.624ZM39.58 26.608L39.4352 26.4042L39.4326 26.4061L39.58 26.608ZM40.46 25.488V25.238H40.29L40.2275 25.3961L40.46 25.488ZM41.756 25.488L41.9954 25.5601L42.0924 25.238H41.756V25.488ZM40.396 27.392L40.2486 27.1901L40.247 27.1912L40.396 27.392ZM37.98 27.878C37.2189 27.878 36.5727 27.7059 36.0315 27.3714L35.7685 27.7966C36.4007 28.1874 37.1411 28.378 37.98 28.378V27.878ZM36.0342 27.3731C35.4852 27.0237 35.0562 26.5554 34.7453 25.9637L34.3027 26.1963C34.6532 26.8633 35.1415 27.3976 35.7658 27.7949L36.0342 27.3731ZM34.7468 25.9667C34.446 25.375 34.294 24.7209 34.294 24H33.794C33.794 24.7938 33.962 25.5264 34.3012 26.1933L34.7468 25.9667ZM34.294 24C34.294 23.2678 34.4462 22.6145 34.7461 22.0349L34.3019 21.8051C33.9618 22.4628 33.794 23.1962 33.794 24H34.294ZM34.7453 22.0363C35.0559 21.4453 35.484 20.9831 36.0315 20.6446L35.7685 20.2194C35.1426 20.6063 34.6535 21.1361 34.3027 21.8037L34.7453 22.0363ZM36.0342 20.6429C36.575 20.2988 37.2202 20.122 37.98 20.122V19.622C37.1398 19.622 36.3983 19.8186 35.7658 20.2211L36.0342 20.6429ZM37.98 20.122C38.8842 20.122 39.6352 20.3548 40.247 20.8088L40.545 20.4072C39.8342 19.8799 38.9745 19.622 37.98 19.622V20.122ZM40.2486 20.8099C40.8777 21.2693 41.2981 21.8589 41.5166 22.5841L41.9954 22.4399C41.7446 21.6078 41.2583 20.9281 40.5434 20.4061L40.2486 20.8099ZM41.756 22.262H40.46V22.762H41.756V22.262ZM40.6925 22.4201C40.4932 21.916 40.1692 21.504 39.7248 21.1882L39.4352 21.5958C39.8014 21.856 40.0641 22.1906 40.2275 22.6039L40.6925 22.4201ZM39.7274 21.1901C39.2834 20.8661 38.7497 20.71 38.14 20.71V21.21C38.661 21.21 39.0872 21.3419 39.4326 21.5939L39.7274 21.1901ZM38.14 20.71C37.5124 20.71 36.9526 20.8589 36.4701 21.1649L36.7379 21.5871C37.13 21.3384 37.5943 21.21 38.14 21.21V20.71ZM36.4701 21.1649C35.9953 21.466 35.6286 21.8675 35.3734 22.3661L35.8186 22.5939C36.0328 22.1752 36.3381 21.8407 36.7379 21.5871L36.4701 21.1649ZM35.3734 22.3661C35.1194 22.8627 34.994 23.4088 34.994 24H35.494C35.494 23.4818 35.6033 23.0146 35.8186 22.5939L35.3734 22.3661ZM34.994 24C34.994 24.5813 35.1197 25.1265 35.3724 25.6318L35.8196 25.4082C35.6029 24.9749 35.494 24.5067 35.494 24H34.994ZM35.3734 25.6339C35.6286 26.1325 35.9953 26.534 36.4701 26.8351L36.7379 26.4129C36.3381 26.1593 36.0328 25.8248 35.8186 25.4061L35.3734 25.6339ZM36.4701 26.8351C36.9526 27.1411 37.5124 27.29 38.14 27.29V26.79C37.5943 26.79 37.13 26.6616 36.7379 26.4129L36.4701 26.8351ZM38.14 27.29C38.7497 27.29 39.2834 27.1339 39.7274 26.8099L39.4326 26.4061C39.0872 26.6581 38.661 26.79 38.14 26.79V27.29ZM39.7248 26.8118C40.1692 26.496 40.4932 26.084 40.6925 25.5799L40.2275 25.3961C40.0641 25.8094 39.8014 26.144 39.4352 26.4042L39.7248 26.8118ZM40.46 25.738H41.756V25.238H40.46V25.738ZM41.5166 25.4159C41.2981 26.1411 40.8777 26.7307 40.2486 27.1901L40.5434 27.5939C41.2583 27.0719 41.7446 26.3922 41.9954 25.5601L41.5166 25.4159ZM40.247 27.1912C39.6352 27.6452 38.8842 27.878 37.98 27.878V28.378C38.9745 28.378 39.8342 28.1201 40.545 27.5928L40.247 27.1912ZM44.6031 27.584L44.4706 27.796L44.4734 27.7977L44.6031 27.584ZM43.2271 21.92L43.4492 22.0349L43.45 22.0333L43.2271 21.92ZM44.6031 20.432L44.7329 20.6457L44.7356 20.644L44.6031 20.432ZM48.8271 20.432L48.6929 20.643L48.6974 20.6457L48.8271 20.432ZM50.2031 21.92L49.9803 22.0333L49.9811 22.0349L50.2031 21.92ZM50.2031 26.08L49.9803 25.9667L49.9803 25.9667L50.2031 26.08ZM48.8271 27.584L48.9586 27.7967L48.9596 27.796L48.8271 27.584ZM48.2191 26.624L48.0804 26.416L48.078 26.4177L48.2191 26.624ZM49.1631 25.52L49.3898 25.6254L49.3907 25.6235L49.1631 25.52ZM49.1631 22.48L49.3898 22.3746L49.3898 22.3746L49.1631 22.48ZM48.2191 21.376L48.0779 21.5823L48.0805 21.584L48.2191 21.376ZM45.2111 21.376L45.0725 21.168L45.0725 21.168L45.2111 21.376ZM44.2671 22.48L44.0404 22.3746L44.0404 22.3746L44.2671 22.48ZM44.2671 25.52L44.0395 25.6235L44.0404 25.6254L44.2671 25.52ZM46.7151 27.878C45.9428 27.878 45.2852 27.7056 44.7329 27.3703L44.4734 27.7977C45.1157 28.1877 45.8661 28.378 46.7151 28.378V27.878ZM44.7356 27.372C44.1769 27.0228 43.7494 26.5556 43.45 25.9667L43.0043 26.1933C43.3448 26.863 43.8347 27.3985 44.4706 27.796L44.7356 27.372ZM43.45 25.9667C43.1491 25.375 42.9971 24.7209 42.9971 24H42.4971C42.4971 24.7938 42.6651 25.5264 43.0043 26.1933L43.45 25.9667ZM42.9971 24C42.9971 23.2678 43.1494 22.6145 43.4492 22.0349L43.0051 21.8051C42.6649 22.4628 42.4971 23.1962 42.4971 24H42.9971ZM43.45 22.0333C43.7491 21.445 44.1757 20.984 44.7329 20.6457L44.4734 20.2183C43.8358 20.6054 43.3451 21.1363 43.0043 21.8067L43.45 22.0333ZM44.7356 20.644C45.2875 20.2991 45.9441 20.122 46.7151 20.122V19.622C45.8648 19.622 45.1134 19.8183 44.4706 20.22L44.7356 20.644ZM46.7151 20.122C47.4977 20.122 48.1531 20.2994 48.6929 20.6429L48.9613 20.2211C48.3278 19.8179 47.5753 19.622 46.7151 19.622V20.122ZM48.6974 20.6457C49.2545 20.984 49.6811 21.445 49.9803 22.0333L50.426 21.8067C50.0851 21.1363 49.5944 20.6054 48.9569 20.2183L48.6974 20.6457ZM49.9811 22.0349C50.2809 22.6145 50.4331 23.2678 50.4331 24H50.9331C50.9331 23.1962 50.7654 22.4628 50.4252 21.8051L49.9811 22.0349ZM50.4331 24C50.4331 24.7209 50.2811 25.375 49.9803 25.9667L50.426 26.1933C50.7651 25.5264 50.9331 24.7938 50.9331 24H50.4331ZM49.9803 25.9667C49.6808 26.5556 49.2533 27.0228 48.6946 27.372L48.9596 27.796C49.5956 27.3985 50.0854 26.863 50.426 26.1933L49.9803 25.9667ZM48.6957 27.3714C48.1555 27.7053 47.499 27.878 46.7151 27.878V28.378C47.5739 28.378 48.3254 28.188 48.9586 27.7966L48.6957 27.3714ZM46.7151 27.29C47.3518 27.29 47.9051 27.1418 48.3603 26.8303L48.078 26.4177C47.7225 26.6609 47.2731 26.79 46.7151 26.79V27.29ZM48.3578 26.832C48.8125 26.5289 49.1574 26.1252 49.3898 25.6254L48.9364 25.4146C48.7422 25.8321 48.4578 26.1644 48.0805 26.416L48.3578 26.832ZM49.3907 25.6235C49.6196 25.1198 49.7331 24.5777 49.7331 24H49.2331C49.2331 24.5103 49.1333 24.9815 48.9355 25.4165L49.3907 25.6235ZM49.7331 24C49.7331 23.4125 49.6199 22.8693 49.3898 22.3746L48.9364 22.5854C49.133 23.008 49.2331 23.4782 49.2331 24H49.7331ZM49.3898 22.3746C49.1574 21.8748 48.8125 21.4711 48.3578 21.168L48.0805 21.584C48.4578 21.8356 48.7422 22.1679 48.9364 22.5854L49.3898 22.3746ZM48.3603 21.1697C47.9051 20.8582 47.3518 20.71 46.7151 20.71V21.21C47.2731 21.21 47.7225 21.3391 48.078 21.5823L48.3603 21.1697ZM46.7151 20.71C46.0878 20.71 45.5362 20.8588 45.0725 21.168L45.3498 21.584C45.718 21.3385 46.1691 21.21 46.7151 21.21V20.71ZM45.0725 21.168C44.6178 21.4711 44.2729 21.8748 44.0404 22.3746L44.4938 22.5854C44.688 22.1679 44.9725 21.8356 45.3498 21.584L45.0725 21.168ZM44.0404 22.3746C43.8103 22.8693 43.6971 23.4125 43.6971 24H44.1971C44.1971 23.4782 44.2973 23.008 44.4938 22.5854L44.0404 22.3746ZM43.6971 24C43.6971 24.5777 43.8106 25.1198 44.0395 25.6235L44.4947 25.4165C44.297 24.9815 44.1971 24.5103 44.1971 24H43.6971ZM44.0404 25.6254C44.2729 26.1252 44.6178 26.5289 45.0725 26.832L45.3498 26.416C44.9725 26.1644 44.688 25.8321 44.4938 25.4146L44.0404 25.6254ZM45.0725 26.832C45.5362 27.1412 46.0878 27.29 46.7151 27.29V26.79C46.1691 26.79 45.718 26.6615 45.3498 26.416L45.0725 26.832ZM52.2744 28H52.0244V28.25H52.2744V28ZM52.2744 20V19.75H52.0244V20H52.2744ZM53.4744 20H53.7244V19.75H53.4744V20ZM53.4744 21.216H53.2244V22.1643L53.6919 21.3393L53.4744 21.216ZM54.3384 20.304L54.191 20.1021L54.191 20.1021L54.3384 20.304ZM57.3784 20.304L57.2431 20.5144L57.249 20.5179L57.3784 20.304ZM58.4504 21.488L58.2268 21.5998L58.4326 22.0114L58.6659 21.6148L58.4504 21.488ZM58.9464 20.832L58.762 20.663L58.7582 20.6674L58.9464 20.832ZM59.8584 20.16L59.9727 20.3823L59.9727 20.3823L59.8584 20.16ZM62.6424 20.272L62.7702 20.0572L62.7702 20.0572L62.6424 20.272ZM63.7304 21.424L63.5115 21.5451L63.5148 21.5505L63.7304 21.424ZM64.1624 28V28.25H64.4124V28H64.1624ZM62.9624 28H62.7124V28.25H62.9624V28ZM62.3864 21.584L62.2002 21.751L62.2049 21.7559L62.3864 21.584ZM59.4584 21.552L59.2886 21.3685L59.2886 21.3685L59.4584 21.552ZM58.8184 28V28.25H59.0684V28H58.8184ZM57.6184 28H57.3684V28.25H57.6184V28ZM57.0424 21.584L56.8562 21.751L56.8609 21.7559L57.0424 21.584ZM53.4744 28V28.25H53.7244V28H53.4744ZM52.5244 28V20H52.0244V28H52.5244ZM52.2744 20.25H53.4744V19.75H52.2744V20.25ZM53.2244 20V21.216H53.7244V20H53.2244ZM53.6919 21.3393C53.8509 21.0586 54.1108 20.7795 54.4857 20.5059L54.191 20.1021C53.7766 20.4045 53.4605 20.7334 53.2569 21.0927L53.6919 21.3393ZM54.4857 20.5059C54.8254 20.2581 55.2913 20.122 55.9064 20.122V19.622C55.2201 19.622 54.6407 19.7739 54.191 20.1021L54.4857 20.5059ZM55.9064 20.122C56.3918 20.122 56.8356 20.2523 57.2432 20.5143L57.5136 20.0937C57.0252 19.7797 56.4876 19.622 55.9064 19.622V20.122ZM57.249 20.5179C57.6645 20.7691 57.9904 21.1271 58.2268 21.5998L58.674 21.3762C58.3983 20.8249 58.0096 20.3935 57.5077 20.0901L57.249 20.5179ZM58.6659 21.6148C58.7613 21.4525 58.9153 21.2471 59.1345 20.9966L58.7582 20.6674C58.5294 20.9289 58.3528 21.1608 58.2349 21.3612L58.6659 21.6148ZM59.1307 21.0009C59.3417 20.7707 59.6203 20.5635 59.9727 20.3823L59.744 19.9377C59.3497 20.1405 59.0204 20.3813 58.7621 20.6631L59.1307 21.0009ZM59.9727 20.3823C60.3031 20.2124 60.7099 20.122 61.2024 20.122V19.622C60.6495 19.622 60.1604 19.7236 59.744 19.9377L59.9727 20.3823ZM61.2024 20.122C61.6685 20.122 62.1044 20.2427 62.5145 20.4868L62.7702 20.0572C62.2843 19.7679 61.7602 19.622 61.2024 19.622V20.122ZM62.5145 20.4868C62.9207 20.7286 63.2535 21.0785 63.5116 21.545L63.9491 21.303C63.6525 20.7668 63.26 20.3487 62.7702 20.0572L62.5145 20.4868ZM63.5148 21.5505C63.7765 21.9964 63.9124 22.5324 63.9124 23.168H64.4124C64.4124 22.4596 64.2603 21.8329 63.946 21.2974L63.5148 21.5505ZM63.9124 23.168V28H64.4124V23.168H63.9124ZM64.1624 27.75H62.9624V28.25H64.1624V27.75ZM63.2124 28V23.2H62.7124V28H63.2124ZM63.2124 23.2C63.2124 22.4778 63.0045 21.873 62.5679 21.4121L62.2049 21.7559C62.5362 22.1057 62.7124 22.5782 62.7124 23.2H63.2124ZM62.5724 21.417C62.1511 20.9475 61.6138 20.71 60.9784 20.71V21.21C61.4736 21.21 61.875 21.3885 62.2003 21.751L62.5724 21.417ZM60.9784 20.71C60.3294 20.71 59.762 20.9306 59.2886 21.3685L59.6281 21.7355C60.0081 21.384 60.454 21.21 60.9784 21.21V20.71ZM59.2886 21.3685C58.7994 21.821 58.5684 22.4489 58.5684 23.216H59.0684C59.0684 22.5538 59.264 22.0723 59.6281 21.7355L59.2886 21.3685ZM58.5684 23.216V28H59.0684V23.216H58.5684ZM58.8184 27.75H57.6184V28.25H58.8184V27.75ZM57.8684 28V23.2H57.3684V28H57.8684ZM57.8684 23.2C57.8684 22.4778 57.6605 21.873 57.2239 21.4121L56.8609 21.7559C57.1922 22.1057 57.3684 22.5782 57.3684 23.2H57.8684ZM57.2284 21.417C56.8071 20.9475 56.2698 20.71 55.6344 20.71V21.21C56.1296 21.21 56.531 21.3885 56.8563 21.751L57.2284 21.417ZM55.6344 20.71C54.9854 20.71 54.418 20.9306 53.9446 21.3685L54.2841 21.7355C54.6641 21.384 55.11 21.21 55.6344 21.21V20.71ZM53.9446 21.3685C53.4554 21.821 53.2244 22.4489 53.2244 23.216H53.7244C53.7244 22.5538 53.92 22.0723 54.2841 21.7355L53.9446 21.3685ZM53.2244 23.216V28H53.7244V23.216H53.2244ZM53.4744 27.75H52.2744V28.25H53.4744V27.75ZM67.589 27.584L67.4582 27.7971L67.4609 27.7987L67.589 27.584ZM66.165 26.08L65.9437 26.1963L65.9452 26.1992L66.165 26.08ZM66.149 21.92L66.3711 22.0349L66.3718 22.0333L66.149 21.92ZM67.525 20.432L67.6548 20.6457L67.6575 20.644L67.525 20.432ZM71.749 20.432L71.6148 20.643L71.6193 20.6457L71.749 20.432ZM73.125 21.92L72.9021 22.0333L72.9029 22.0349L73.125 21.92ZM73.605 24.48V24.73H73.855V24.48H73.605ZM66.901 24.48V24.23H66.6146L66.6533 24.5138L66.901 24.48ZM67.349 25.776L67.134 25.9038L67.1383 25.9106L67.349 25.776ZM68.325 26.704L68.1997 26.9204L68.2041 26.9228L68.325 26.704ZM71.157 26.672L71.2916 26.8827L71.2957 26.88L71.157 26.672ZM72.053 25.696V25.446H71.9039L71.8331 25.5771L72.053 25.696ZM73.365 25.696L73.5981 25.7864L73.7302 25.446H73.365V25.696ZM72.037 27.456L72.187 27.656L72.1876 27.6556L72.037 27.456ZM66.917 23.36L66.6706 23.3177L66.6204 23.61H66.917V23.36ZM72.357 23.36V23.61H72.6491L72.604 23.3214L72.357 23.36ZM71.493 21.648L71.6677 21.4692L71.6677 21.4692L71.493 21.648ZM67.781 21.648L67.6063 21.4692L67.6042 21.4712L67.781 21.648ZM69.717 27.878C68.9448 27.878 68.281 27.7057 67.7171 27.3693L67.4609 27.7987C68.113 28.1877 68.8679 28.378 69.717 28.378V27.878ZM67.7198 27.371C67.1493 27.0207 66.7053 26.5517 66.3848 25.9608L65.9452 26.1992C66.3074 26.8669 66.8127 27.4007 67.4582 27.797L67.7198 27.371ZM66.3863 25.9637C66.0757 25.3726 65.919 24.7195 65.919 24H65.419C65.419 24.7951 65.593 25.5288 65.9437 26.1963L66.3863 25.9637ZM65.919 24C65.919 23.2678 66.0712 22.6145 66.3711 22.0349L65.9269 21.8051C65.5868 22.4628 65.419 23.1962 65.419 24H65.919ZM66.3718 22.0333C66.671 21.445 67.0976 20.984 67.6547 20.6457L67.3953 20.2183C66.7577 20.6054 66.267 21.1363 65.9262 21.8067L66.3718 22.0333ZM67.6575 20.644C68.2094 20.2991 68.866 20.122 69.637 20.122V19.622C68.7867 19.622 68.0353 19.8183 67.3925 20.22L67.6575 20.644ZM69.637 20.122C70.4195 20.122 71.075 20.2994 71.6148 20.6429L71.8832 20.2211C71.2497 19.8179 70.4971 19.622 69.637 19.622V20.122ZM71.6193 20.6457C72.1764 20.984 72.603 21.445 72.9022 22.0333L73.3478 21.8067C73.007 21.1363 72.5163 20.6054 71.8787 20.2183L71.6193 20.6457ZM72.9029 22.0349C73.2028 22.6145 73.355 23.2678 73.355 24H73.855C73.855 23.1962 73.6872 22.4628 73.3471 21.8051L72.9029 22.0349ZM73.355 24V24.48H73.855V24H73.355ZM73.605 24.23H66.901V24.73H73.605V24.23ZM66.6533 24.5138C66.7217 25.0153 66.8818 25.4794 67.1341 25.9038L67.5639 25.6482C67.3469 25.2833 67.2083 24.8834 67.1487 24.4462L66.6533 24.5138ZM67.1383 25.9106C67.4058 26.3292 67.7608 26.6662 68.1997 26.9204L68.4503 26.4876C68.0785 26.2724 67.7829 25.9908 67.5597 25.6414L67.1383 25.9106ZM68.2041 26.9228C68.6517 27.1702 69.1638 27.29 69.733 27.29V26.79C69.2355 26.79 68.809 26.6858 68.4459 26.4852L68.2041 26.9228ZM69.733 27.29C70.3346 27.29 70.8587 27.1592 71.2916 26.8827L71.0224 26.4613C70.6873 26.6754 70.2621 26.79 69.733 26.79V27.29ZM71.2957 26.88C71.7126 26.6021 72.0396 26.2465 72.2729 25.8149L71.8331 25.5771C71.6397 25.9348 71.3694 26.2299 71.0183 26.464L71.2957 26.88ZM72.053 25.946H73.365V25.446H72.053V25.946ZM73.1319 25.6056C72.8713 26.2772 72.4571 26.8259 71.8864 27.2564L72.1876 27.6556C72.8329 27.1687 73.304 26.5442 73.5981 25.7864L73.1319 25.6056ZM71.887 27.256C71.3435 27.6637 70.6271 27.878 69.717 27.878V28.378C70.7056 28.378 71.5359 28.1443 72.187 27.656L71.887 27.256ZM66.917 23.61H72.357V23.11H66.917V23.61ZM72.604 23.3214C72.4895 22.5884 72.1778 21.9677 71.6677 21.4692L71.3183 21.8268C71.7469 22.2457 72.0112 22.7662 72.11 23.3986L72.604 23.3214ZM71.6677 21.4692C71.1438 20.9572 70.4584 20.71 69.637 20.71V21.21C70.3516 21.21 70.9035 21.4215 71.3183 21.8268L71.6677 21.4692ZM69.637 20.71C68.8156 20.71 68.1302 20.9572 67.6063 21.4692L67.9557 21.8268C68.3705 21.4215 68.9224 21.21 69.637 21.21V20.71ZM67.6042 21.4712C67.1065 21.969 66.7961 22.5877 66.6706 23.3177L67.1634 23.4023C67.2726 22.767 67.5382 22.2444 67.9578 21.8248L67.6042 21.4712ZM83.2118 27.584L83.0757 27.7938L83.0803 27.7966L83.2118 27.584ZM81.8678 21.92L82.0898 22.0349L82.0906 22.0333L81.8678 21.92ZM83.2118 20.432L83.345 20.6436L83.346 20.6429L83.2118 20.432ZM86.9558 20.256L86.836 20.4755L86.8381 20.4766L86.9558 20.256ZM88.1238 21.296L87.9173 21.437L88.3738 22.1054V21.296H88.1238ZM88.1238 20V19.75H87.8738V20H88.1238ZM89.3238 20H89.5738V19.75H89.3238V20ZM89.3238 28V28.25H89.5738V28H89.3238ZM88.1238 28H87.8738V28.25H88.1238V28ZM88.1238 26.72H88.3738V25.9269L87.9189 26.5766L88.1238 26.72ZM86.9558 27.744L86.8381 27.5234L86.836 27.5245L86.9558 27.744ZM86.9238 26.624L86.7851 26.416L86.7826 26.4177L86.9238 26.624ZM87.8678 25.52L88.0944 25.6254L88.0953 25.6235L87.8678 25.52ZM87.8678 22.48L87.6411 22.5854L87.6411 22.5854L87.8678 22.48ZM86.9238 21.376L86.7826 21.5823L86.7851 21.584L86.9238 21.376ZM83.8998 21.376L83.7635 21.1664L83.7635 21.1664L83.8998 21.376ZM82.9238 22.48L82.6991 22.3703L82.6991 22.3703L82.9238 22.48ZM82.9238 25.52L82.6981 25.6277L82.6991 25.6297L82.9238 25.52ZM83.8998 26.624L84.036 26.4144L84.036 26.4144L83.8998 26.624ZM85.2598 27.878C84.5214 27.878 83.8855 27.7066 83.3432 27.3714L83.0803 27.7966C83.7114 28.1868 84.4408 28.378 85.2598 28.378V27.878ZM83.3477 27.3742C82.8098 27.0255 82.3912 26.5579 82.0906 25.9667L81.6449 26.1933C81.9843 26.8607 82.4617 27.3958 83.0758 27.7938L83.3477 27.3742ZM82.0906 25.9667C81.7897 25.375 81.6378 24.7209 81.6378 24H81.1378C81.1378 24.7938 81.3058 25.5264 81.6449 26.1933L82.0906 25.9667ZM81.6378 24C81.6378 23.2678 81.79 22.6145 82.0898 22.0349L81.6457 21.8051C81.3055 22.4628 81.1378 23.1962 81.1378 24H81.6378ZM82.0906 22.0333C82.3909 21.4427 82.8086 20.9812 83.345 20.6436L83.0785 20.2204C82.4629 20.6081 81.9846 21.1387 81.6449 21.8067L82.0906 22.0333ZM83.346 20.6429C83.8878 20.2981 84.5228 20.122 85.2598 20.122V19.622C84.4394 19.622 83.709 19.8192 83.0775 20.2211L83.346 20.6429ZM85.2598 20.122C85.889 20.122 86.4112 20.2437 86.836 20.4755L87.0755 20.0365C86.5617 19.7563 85.9531 19.622 85.2598 19.622V20.122ZM86.8381 20.4766C87.2835 20.7141 87.642 21.0339 87.9173 21.437L88.3302 21.155C88.0082 20.6834 87.588 20.3099 87.0734 20.0354L86.8381 20.4766ZM88.3738 21.296V20H87.8738V21.296H88.3738ZM88.1238 20.25H89.3238V19.75H88.1238V20.25ZM89.0738 20V28H89.5738V20H89.0738ZM89.3238 27.75H88.1238V28.25H89.3238V27.75ZM88.3738 28V26.72H87.8738V28H88.3738ZM87.9189 26.5766C87.6439 26.9696 87.285 27.2851 86.8381 27.5234L87.0734 27.9646C87.5865 27.6909 88.0063 27.3237 88.3286 26.8634L87.9189 26.5766ZM86.836 27.5245C86.4112 27.7563 85.889 27.878 85.2598 27.878V28.378C85.9531 28.378 86.5617 28.2437 87.0755 27.9635L86.836 27.5245ZM85.4198 27.29C86.0564 27.29 86.6097 27.1418 87.0649 26.8303L86.7826 26.4177C86.4271 26.6609 85.9777 26.79 85.4198 26.79V27.29ZM87.0624 26.832C87.5171 26.5289 87.862 26.1252 88.0944 25.6254L87.6411 25.4146C87.4469 25.8321 87.1624 26.1644 86.7851 26.416L87.0624 26.832ZM88.0953 25.6235C88.3243 25.1198 88.4378 24.5777 88.4378 24H87.9378C87.9378 24.5103 87.8379 24.9815 87.6402 25.4165L88.0953 25.6235ZM88.4378 24C88.4378 23.4125 88.3246 22.8693 88.0944 22.3746L87.6411 22.5854C87.8376 23.008 87.9378 23.4782 87.9378 24H88.4378ZM88.0944 22.3746C87.862 21.8748 87.5171 21.4711 87.0624 21.168L86.7851 21.584C87.1624 21.8356 87.4469 22.1679 87.6411 22.5854L88.0944 22.3746ZM87.0649 21.1697C86.6097 20.8582 86.0564 20.71 85.4198 20.71V21.21C85.9777 21.21 86.4271 21.3391 86.7826 21.5823L87.0649 21.1697ZM85.4198 20.71C84.7923 20.71 84.2366 20.8589 83.7635 21.1664L84.036 21.5856C84.4162 21.3385 84.8739 21.21 85.4198 21.21V20.71ZM83.7635 21.1664C83.2987 21.4685 82.9429 21.8711 82.6991 22.3703L83.1484 22.5897C83.3526 22.1716 83.6474 21.8382 84.036 21.5856L83.7635 21.1664ZM82.6991 22.3703C82.457 22.866 82.3378 23.4107 82.3378 24H82.8378C82.8378 23.48 82.9425 23.0113 83.1484 22.5897L82.6991 22.3703ZM82.3378 24C82.3378 24.5795 82.4573 25.1232 82.6981 25.6277L83.1494 25.4123C82.9422 24.9782 82.8378 24.5085 82.8378 24H82.3378ZM82.6991 25.6297C82.9429 26.1289 83.2987 26.5315 83.7635 26.8336L84.036 26.4144C83.6474 26.1618 83.3526 25.8284 83.1484 25.4103L82.6991 25.6297ZM83.7635 26.8336C84.2366 27.1411 84.7923 27.29 85.4198 27.29V26.79C84.8739 26.79 84.4162 26.6615 84.036 26.4144L83.7635 26.8336ZM95.0616 28H94.8116V28.25H95.0616V28ZM95.0616 17.408V17.158H94.8116V17.408H95.0616ZM96.4536 17.408L96.6532 17.2574L96.5781 17.158H96.4536V17.408ZM100.246 22.432L100.046 22.5826L100.247 22.8492L100.446 22.581L100.246 22.432ZM103.974 17.408V17.158H103.848L103.773 17.259L103.974 17.408ZM105.366 17.408H105.616V17.158H105.366V17.408ZM105.366 28V28.25H105.616V28H105.366ZM104.166 28H103.916V28.25H104.166V28ZM104.166 19.232H104.416V18.5034L103.968 19.0785L104.166 19.232ZM100.246 24.272L100.05 24.427L100.247 24.6772L100.443 24.4255L100.246 24.272ZM96.2616 19.232L96.4578 19.077L96.0116 18.5126V19.232H96.2616ZM96.2616 28V28.25H96.5116V28H96.2616ZM95.3116 28V17.408H94.8116V28H95.3116ZM95.0616 17.658H96.4536V17.158H95.0616V17.658ZM96.2541 17.5586L100.046 22.5826L100.445 22.2814L96.6532 17.2574L96.2541 17.5586ZM100.446 22.581L104.174 17.557L103.773 17.259L100.045 22.283L100.446 22.581ZM103.974 17.658H105.366V17.158H103.974V17.658ZM105.116 17.408V28H105.616V17.408H105.116ZM105.366 27.75H104.166V28.25H105.366V27.75ZM104.416 28V19.232H103.916V28H104.416ZM103.968 19.0785L100.048 24.1185L100.443 24.4255L104.363 19.3855L103.968 19.0785ZM100.442 24.117L96.4578 19.077L96.0655 19.387L100.05 24.427L100.442 24.117ZM96.0116 19.232V28H96.5116V19.232H96.0116ZM96.2616 27.75H95.0616V28.25H96.2616V27.75ZM109.12 27.584L108.989 27.7971L108.992 27.7987L109.12 27.584ZM107.696 26.08L107.475 26.1963L107.476 26.1992L107.696 26.08ZM107.68 21.92L107.902 22.0349L107.903 22.0333L107.68 21.92ZM109.056 20.432L109.186 20.6457L109.189 20.644L109.056 20.432ZM113.28 20.432L113.146 20.643L113.151 20.6457L113.28 20.432ZM114.656 21.92L114.433 22.0333L114.434 22.0349L114.656 21.92ZM115.136 24.48V24.73H115.386V24.48H115.136ZM108.432 24.48V24.23H108.146L108.185 24.5138L108.432 24.48ZM108.88 25.776L108.665 25.9038L108.67 25.9106L108.88 25.776ZM109.856 26.704L109.731 26.9204L109.735 26.9228L109.856 26.704ZM112.688 26.672L112.823 26.8827L112.827 26.88L112.688 26.672ZM113.584 25.696V25.446H113.435L113.364 25.5771L113.584 25.696ZM114.896 25.696L115.129 25.7864L115.261 25.446H114.896V25.696ZM113.568 27.456L113.718 27.656L113.719 27.6556L113.568 27.456ZM108.448 23.36L108.202 23.3177L108.152 23.61H108.448V23.36ZM113.888 23.36V23.61H114.18L114.135 23.3214L113.888 23.36ZM113.024 21.648L113.199 21.4692L113.199 21.4692L113.024 21.648ZM109.312 21.648L109.138 21.4692L109.135 21.4712L109.312 21.648ZM111.248 27.878C110.476 27.878 109.812 27.7057 109.248 27.3693L108.992 27.7987C109.644 28.1877 110.399 28.378 111.248 28.378V27.878ZM109.251 27.371C108.681 27.0207 108.237 26.5517 107.916 25.9608L107.476 26.1992C107.839 26.8669 108.344 27.4007 108.989 27.797L109.251 27.371ZM107.918 25.9637C107.607 25.3726 107.45 24.7195 107.45 24H106.95C106.95 24.7951 107.124 25.5288 107.475 26.1963L107.918 25.9637ZM107.45 24C107.45 23.2678 107.602 22.6145 107.902 22.0349L107.458 21.8051C107.118 22.4628 106.95 23.1962 106.95 24H107.45ZM107.903 22.0333C108.202 21.445 108.629 20.984 109.186 20.6457L108.927 20.2183C108.289 20.6054 107.798 21.1363 107.457 21.8067L107.903 22.0333ZM109.189 20.644C109.741 20.2991 110.397 20.122 111.168 20.122V19.622C110.318 19.622 109.567 19.8183 108.924 20.22L109.189 20.644ZM111.168 20.122C111.951 20.122 112.606 20.2994 113.146 20.6429L113.414 20.2211C112.781 19.8179 112.028 19.622 111.168 19.622V20.122ZM113.151 20.6457C113.708 20.984 114.134 21.445 114.433 22.0333L114.879 21.8067C114.538 21.1363 114.048 20.6054 113.41 20.2183L113.151 20.6457ZM114.434 22.0349C114.734 22.6145 114.886 23.2678 114.886 24H115.386C115.386 23.1962 115.218 22.4628 114.878 21.8051L114.434 22.0349ZM114.886 24V24.48H115.386V24H114.886ZM115.136 24.23H108.432V24.73H115.136V24.23ZM108.185 24.5138C108.253 25.0153 108.413 25.4794 108.665 25.9038L109.095 25.6482C108.878 25.2833 108.74 24.8834 108.68 24.4462L108.185 24.5138ZM108.67 25.9106C108.937 26.3292 109.292 26.6662 109.731 26.9204L109.982 26.4876C109.61 26.2724 109.314 25.9908 109.091 25.6414L108.67 25.9106ZM109.735 26.9228C110.183 27.1702 110.695 27.29 111.264 27.29V26.79C110.767 26.79 110.34 26.6858 109.977 26.4852L109.735 26.9228ZM111.264 27.29C111.866 27.29 112.39 27.1592 112.823 26.8827L112.554 26.4613C112.219 26.6754 111.793 26.79 111.264 26.79V27.29ZM112.827 26.88C113.244 26.6021 113.571 26.2465 113.804 25.8149L113.364 25.5771C113.171 25.9348 112.901 26.2299 112.55 26.464L112.827 26.88ZM113.584 25.946H114.896V25.446H113.584V25.946ZM114.663 25.6056C114.403 26.2772 113.988 26.8259 113.418 27.2564L113.719 27.6556C114.364 27.1687 114.835 26.5442 115.129 25.7864L114.663 25.6056ZM113.418 27.256C112.875 27.6637 112.158 27.878 111.248 27.878V28.378C112.237 28.378 113.067 28.1443 113.718 27.656L113.418 27.256ZM108.448 23.61H113.888V23.11H108.448V23.61ZM114.135 23.3214C114.021 22.5884 113.709 21.9677 113.199 21.4692L112.85 21.8268C113.278 22.2457 113.542 22.7662 113.641 23.3986L114.135 23.3214ZM113.199 21.4692C112.675 20.9572 111.99 20.71 111.168 20.71V21.21C111.883 21.21 112.435 21.4215 112.85 21.8268L113.199 21.4692ZM111.168 20.71C110.347 20.71 109.661 20.9572 109.138 21.4692L109.487 21.8268C109.902 21.4215 110.454 21.21 111.168 21.21V20.71ZM109.135 21.4712C108.638 21.969 108.327 22.5877 108.202 23.3177L108.695 23.4023C108.804 22.767 109.069 22.2444 109.489 21.8248L109.135 21.4712ZM116.603 28H116.353V28.25H116.603V28ZM116.603 20V19.75H116.353V20H116.603ZM117.803 20H118.053V19.75H117.803V20ZM117.803 21.216H117.553V22.1643L118.02 21.3393L117.803 21.216ZM118.667 20.304L118.519 20.1021L118.519 20.1021L118.667 20.304ZM121.707 20.304L121.571 20.5144L121.577 20.5179L121.707 20.304ZM122.779 21.488L122.555 21.5998L122.761 22.0114L122.994 21.6148L122.779 21.488ZM123.275 20.832L123.09 20.663L123.086 20.6674L123.275 20.832ZM124.187 20.16L124.301 20.3823L124.301 20.3823L124.187 20.16ZM126.971 20.272L127.098 20.0572L127.098 20.0572L126.971 20.272ZM128.059 21.424L127.84 21.5451L127.843 21.5505L128.059 21.424ZM128.491 28V28.25H128.741V28H128.491ZM127.291 28H127.041V28.25H127.291V28ZM126.715 21.584L126.528 21.751L126.533 21.7559L126.715 21.584ZM123.786 21.552L123.617 21.3685L123.617 21.3685L123.786 21.552ZM123.147 28V28.25H123.397V28H123.147ZM121.947 28H121.697V28.25H121.947V28ZM121.371 21.584L121.184 21.751L121.189 21.7559L121.371 21.584ZM117.803 28V28.25H118.053V28H117.803ZM116.853 28V20H116.353V28H116.853ZM116.603 20.25H117.803V19.75H116.603V20.25ZM117.553 20V21.216H118.053V20H117.553ZM118.02 21.3393C118.179 21.0586 118.439 20.7795 118.814 20.5059L118.519 20.1021C118.105 20.4045 117.789 20.7334 117.585 21.0927L118.02 21.3393ZM118.814 20.5059C119.154 20.2581 119.619 20.122 120.235 20.122V19.622C119.548 19.622 118.969 19.7739 118.519 20.1021L118.814 20.5059ZM120.235 20.122C120.72 20.122 121.164 20.2523 121.571 20.5143L121.842 20.0937C121.353 19.7797 120.816 19.622 120.235 19.622V20.122ZM121.577 20.5179C121.993 20.7691 122.319 21.1271 122.555 21.5998L123.002 21.3762C122.726 20.8249 122.338 20.3935 121.836 20.0901L121.577 20.5179ZM122.994 21.6148C123.089 21.4525 123.243 21.2471 123.463 20.9966L123.086 20.6674C122.858 20.9289 122.681 21.1608 122.563 21.3612L122.994 21.6148ZM123.459 21.0009C123.67 20.7707 123.948 20.5635 124.301 20.3823L124.072 19.9377C123.678 20.1405 123.349 20.3813 123.09 20.6631L123.459 21.0009ZM124.301 20.3823C124.631 20.2124 125.038 20.122 125.531 20.122V19.622C124.978 19.622 124.488 19.7236 124.072 19.9377L124.301 20.3823ZM125.531 20.122C125.997 20.122 126.433 20.2427 126.843 20.4868L127.098 20.0572C126.612 19.7679 126.088 19.622 125.531 19.622V20.122ZM126.843 20.4868C127.249 20.7286 127.582 21.0785 127.84 21.545L128.277 21.303C127.981 20.7668 127.588 20.3487 127.098 20.0572L126.843 20.4868ZM127.843 21.5505C128.105 21.9964 128.241 22.5324 128.241 23.168H128.741C128.741 22.4596 128.588 21.8329 128.274 21.2974L127.843 21.5505ZM128.241 23.168V28H128.741V23.168H128.241ZM128.491 27.75H127.291V28.25H128.491V27.75ZM127.541 28V23.2H127.041V28H127.541ZM127.541 23.2C127.541 22.4778 127.333 21.873 126.896 21.4121L126.533 21.7559C126.864 22.1057 127.041 22.5782 127.041 23.2H127.541ZM126.901 21.417C126.479 20.9475 125.942 20.71 125.307 20.71V21.21C125.802 21.21 126.203 21.3885 126.528 21.751L126.901 21.417ZM125.307 20.71C124.658 20.71 124.09 20.9306 123.617 21.3685L123.956 21.7355C124.336 21.384 124.782 21.21 125.307 21.21V20.71ZM123.617 21.3685C123.128 21.821 122.897 22.4489 122.897 23.216H123.397C123.397 22.5538 123.592 22.0723 123.956 21.7355L123.617 21.3685ZM122.897 23.216V28H123.397V23.216H122.897ZM123.147 27.75H121.947V28.25H123.147V27.75ZM122.197 28V23.2H121.697V28H122.197ZM122.197 23.2C122.197 22.4778 121.989 21.873 121.552 21.4121L121.189 21.7559C121.52 22.1057 121.697 22.5782 121.697 23.2H122.197ZM121.557 21.417C121.135 20.9475 120.598 20.71 119.963 20.71V21.21C120.458 21.21 120.859 21.3885 121.184 21.751L121.557 21.417ZM119.963 20.71C119.314 20.71 118.746 20.9306 118.273 21.3685L118.612 21.7355C118.992 21.384 119.438 21.21 119.963 21.21V20.71ZM118.273 21.3685C117.784 21.821 117.553 22.4489 117.553 23.216H118.053C118.053 22.5538 118.248 22.0723 118.612 21.7355L118.273 21.3685ZM117.553 23.216V28H118.053V23.216H117.553ZM117.803 27.75H116.603V28.25H117.803V27.75ZM132.845 27.744L132.725 27.9635L132.727 27.9646L132.845 27.744ZM131.693 26.72L131.898 26.5766L131.443 25.9269V26.72H131.693ZM131.693 28V28.25H131.943V28H131.693ZM130.493 28H130.243V28.25H130.493V28ZM130.493 16.8V16.55H130.243V16.8H130.493ZM131.693 16.8H131.943V16.55H131.693V16.8ZM131.693 21.296H131.443V22.1054L131.9 21.437L131.693 21.296ZM132.845 20.256L132.727 20.0354L132.725 20.0365L132.845 20.256ZM136.589 20.432L136.453 20.6418L136.458 20.6446L136.589 20.432ZM137.949 21.92L137.726 22.0333L137.727 22.0349L137.949 21.92ZM137.949 26.08L137.726 25.9667L137.726 25.9667L137.949 26.08ZM136.589 27.584L136.722 27.7956L136.723 27.7949L136.589 27.584ZM135.917 26.624L135.781 26.4144L135.778 26.416L135.917 26.624ZM136.893 25.52L137.118 25.6297L137.119 25.6277L136.893 25.52ZM136.893 22.48L137.118 22.3703L137.118 22.3703L136.893 22.48ZM135.917 21.376L135.778 21.584L135.781 21.5856L135.917 21.376ZM132.893 21.376L132.754 21.168L132.754 21.168L132.893 21.376ZM131.949 22.48L131.722 22.3746L131.722 22.3746L131.949 22.48ZM131.949 25.52L131.722 25.6235L131.722 25.6254L131.949 25.52ZM132.893 26.624L132.754 26.832L132.754 26.832L132.893 26.624ZM134.557 27.878C133.928 27.878 133.4 27.7564 132.963 27.5234L132.727 27.9646C133.251 28.2436 133.864 28.378 134.557 28.378V27.878ZM132.965 27.5245C132.528 27.2865 132.174 26.9709 131.898 26.5766L131.488 26.8634C131.81 27.3225 132.223 27.6895 132.725 27.9635L132.965 27.5245ZM131.443 26.72V28H131.943V26.72H131.443ZM131.693 27.75H130.493V28.25H131.693V27.75ZM130.743 28V16.8H130.243V28H130.743ZM130.493 17.05H131.693V16.55H130.493V17.05ZM131.443 16.8V21.296H131.943V16.8H131.443ZM131.9 21.437C132.176 21.0326 132.53 20.7127 132.965 20.4755L132.725 20.0365C132.222 20.3113 131.808 20.6847 131.487 21.155L131.9 21.437ZM132.963 20.4766C133.4 20.2436 133.928 20.122 134.557 20.122V19.622C133.864 19.622 133.251 19.7564 132.727 20.0354L132.963 20.4766ZM134.557 20.122C135.294 20.122 135.923 20.2981 136.453 20.6418L136.725 20.2222C136.103 19.8192 135.377 19.622 134.557 19.622V20.122ZM136.458 20.6446C137.004 20.9826 137.427 21.4438 137.726 22.0333L138.172 21.8067C137.832 21.1375 137.347 20.6067 136.721 20.2194L136.458 20.6446ZM137.727 22.0349C138.027 22.6145 138.179 23.2678 138.179 24H138.679C138.679 23.1962 138.511 22.4628 138.171 21.8051L137.727 22.0349ZM138.179 24C138.179 24.7209 138.027 25.375 137.726 25.9667L138.172 26.1933C138.511 25.5264 138.679 24.7938 138.679 24H138.179ZM137.726 25.9667C137.426 26.5568 137.003 27.0242 136.455 27.3731L136.723 27.7949C137.348 27.3972 137.832 26.8619 138.172 26.1933L137.726 25.9667ZM136.456 27.3724C135.925 27.7065 135.296 27.878 134.557 27.878V28.378C135.376 28.378 136.101 28.1868 136.722 27.7956L136.456 27.3724ZM134.397 27.29C135.034 27.29 135.591 27.1417 136.056 26.832L135.778 26.416C135.411 26.661 134.955 26.79 134.397 26.79V27.29ZM136.053 26.8336C136.518 26.5315 136.874 26.1289 137.118 25.6297L136.668 25.4103C136.464 25.8284 136.169 26.1618 135.781 26.4144L136.053 26.8336ZM137.119 25.6277C137.36 25.1232 137.479 24.5795 137.479 24H136.979C136.979 24.5085 136.875 24.9782 136.668 25.4123L137.119 25.6277ZM137.479 24C137.479 23.4107 137.36 22.866 137.118 22.3703L136.668 22.5897C136.874 23.0113 136.979 23.48 136.979 24H137.479ZM137.118 22.3703C136.874 21.8711 136.518 21.4685 136.053 21.1664L135.781 21.5856C136.169 21.8382 136.464 22.1716 136.668 22.5897L137.118 22.3703ZM136.056 21.168C135.591 20.8583 135.034 20.71 134.397 20.71V21.21C134.955 21.21 135.411 21.339 135.778 21.584L136.056 21.168ZM134.397 20.71C133.77 20.71 133.218 20.8588 132.754 21.168L133.032 21.584C133.4 21.3385 133.851 21.21 134.397 21.21V20.71ZM132.754 21.168C132.3 21.4711 131.955 21.8748 131.722 22.3746L132.176 22.5854C132.37 22.1679 132.654 21.8356 133.032 21.584L132.754 21.168ZM131.722 22.3746C131.492 22.8693 131.379 23.4125 131.379 24H131.879C131.879 23.4782 131.979 23.008 132.176 22.5854L131.722 22.3746ZM131.379 24C131.379 24.5777 131.493 25.1198 131.722 25.6235L132.177 25.4165C131.979 24.9815 131.879 24.5103 131.879 24H131.379ZM131.722 25.6254C131.955 26.1252 132.3 26.5289 132.754 26.832L133.032 26.416C132.654 26.1644 132.37 25.8321 132.176 25.4146L131.722 25.6254ZM132.754 26.832C133.218 27.1412 133.77 27.29 134.397 27.29V26.79C133.851 26.79 133.4 26.6615 133.032 26.416L132.754 26.832ZM141.433 27.584L141.302 27.7971L141.305 27.7987L141.433 27.584ZM140.009 26.08L139.787 26.1963L139.789 26.1992L140.009 26.08ZM139.993 21.92L140.215 22.0349L140.216 22.0333L139.993 21.92ZM141.369 20.432L141.499 20.6457L141.501 20.644L141.369 20.432ZM145.593 20.432L145.459 20.643L145.463 20.6457L145.593 20.432ZM146.969 21.92L146.746 22.0333L146.747 22.0349L146.969 21.92ZM147.449 24.48V24.73H147.699V24.48H147.449ZM140.745 24.48V24.23H140.458L140.497 24.5138L140.745 24.48ZM141.193 25.776L140.978 25.9038L140.982 25.9106L141.193 25.776ZM142.169 26.704L142.043 26.9204L142.048 26.9228L142.169 26.704ZM145.001 26.672L145.135 26.8827L145.139 26.88L145.001 26.672ZM145.897 25.696V25.446H145.748L145.677 25.5771L145.897 25.696ZM147.209 25.696L147.442 25.7864L147.574 25.446H147.209V25.696ZM145.881 27.456L146.031 27.656L146.031 27.6556L145.881 27.456ZM140.761 23.36L140.514 23.3177L140.464 23.61H140.761V23.36ZM146.201 23.36V23.61H146.493L146.448 23.3214L146.201 23.36ZM145.337 21.648L145.511 21.4692L145.511 21.4692L145.337 21.648ZM141.625 21.648L141.45 21.4692L141.448 21.4712L141.625 21.648ZM143.561 27.878C142.789 27.878 142.125 27.7057 141.561 27.3693L141.305 27.7987C141.957 28.1877 142.712 28.378 143.561 28.378V27.878ZM141.564 27.371C140.993 27.0207 140.549 26.5517 140.229 25.9608L139.789 26.1992C140.151 26.8669 140.656 27.4007 141.302 27.797L141.564 27.371ZM140.23 25.9637C139.919 25.3726 139.763 24.7195 139.763 24H139.263C139.263 24.7951 139.437 25.5288 139.787 26.1963L140.23 25.9637ZM139.763 24C139.763 23.2678 139.915 22.6145 140.215 22.0349L139.771 21.8051C139.431 22.4628 139.263 23.1962 139.263 24H139.763ZM140.216 22.0333C140.515 21.445 140.941 20.984 141.498 20.6457L141.239 20.2183C140.601 20.6054 140.111 21.1363 139.77 21.8067L140.216 22.0333ZM141.501 20.644C142.053 20.2991 142.71 20.122 143.481 20.122V19.622C142.63 19.622 141.879 19.8183 141.236 20.22L141.501 20.644ZM143.481 20.122C144.263 20.122 144.919 20.2994 145.459 20.6429L145.727 20.2211C145.093 19.8179 144.341 19.622 143.481 19.622V20.122ZM145.463 20.6457C146.02 20.984 146.447 21.445 146.746 22.0333L147.192 21.8067C146.851 21.1363 146.36 20.6054 145.722 20.2183L145.463 20.6457ZM146.747 22.0349C147.047 22.6145 147.199 23.2678 147.199 24H147.699C147.699 23.1962 147.531 22.4628 147.191 21.8051L146.747 22.0349ZM147.199 24V24.48H147.699V24H147.199ZM147.449 24.23H140.745V24.73H147.449V24.23ZM140.497 24.5138C140.565 25.0153 140.726 25.4794 140.978 25.9038L141.408 25.6482C141.191 25.2833 141.052 24.8834 140.992 24.4462L140.497 24.5138ZM140.982 25.9106C141.25 26.3292 141.605 26.6662 142.043 26.9204L142.294 26.4876C141.922 26.2724 141.627 25.9908 141.403 25.6414L140.982 25.9106ZM142.048 26.9228C142.495 27.1702 143.008 27.29 143.577 27.29V26.79C143.079 26.79 142.653 26.6858 142.29 26.4852L142.048 26.9228ZM143.577 27.29C144.178 27.29 144.702 27.1592 145.135 26.8827L144.866 26.4613C144.531 26.6754 144.106 26.79 143.577 26.79V27.29ZM145.139 26.88C145.556 26.6021 145.883 26.2465 146.117 25.8149L145.677 25.5771C145.483 25.9348 145.213 26.2299 144.862 26.464L145.139 26.88ZM145.897 25.946H147.209V25.446H145.897V25.946ZM146.976 25.6056C146.715 26.2772 146.301 26.8259 145.73 27.2564L146.031 27.6556C146.677 27.1687 147.148 26.5442 147.442 25.7864L146.976 25.6056ZM145.731 27.256C145.187 27.6637 144.471 27.878 143.561 27.878V28.378C144.549 28.378 145.38 28.1443 146.031 27.656L145.731 27.256ZM140.761 23.61H146.201V23.11H140.761V23.61ZM146.448 23.3214C146.333 22.5884 146.022 21.9677 145.511 21.4692L145.162 21.8268C145.591 22.2457 145.855 22.7662 145.954 23.3986L146.448 23.3214ZM145.511 21.4692C144.988 20.9572 144.302 20.71 143.481 20.71V21.21C144.195 21.21 144.747 21.4215 145.162 21.8268L145.511 21.4692ZM143.481 20.71C142.659 20.71 141.974 20.9572 141.45 21.4692L141.799 21.8268C142.214 21.4215 142.766 21.21 143.481 21.21V20.71ZM141.448 21.4712C140.95 21.969 140.64 22.5877 140.514 23.3177L141.007 23.4023C141.116 22.767 141.382 22.2444 141.802 21.8248L141.448 21.4712ZM148.915 28H148.665V28.25H148.915V28ZM148.915 20V19.75H148.665V20H148.915ZM150.115 20H150.365V19.75H150.115V20ZM150.115 21.968H149.865L150.354 22.0415L150.115 21.968ZM150.355 21.424L150.135 21.3043L150.134 21.308L150.355 21.424ZM150.899 20.72L151.076 20.8968L151.076 20.8968L150.899 20.72ZM151.779 20.128L151.882 20.3556L151.885 20.3542L151.779 20.128ZM153.139 19.872H153.389V19.622H153.139V19.872ZM153.139 21.072V21.322H153.389V21.072H153.139ZM151.443 21.568L151.593 21.768L151.594 21.7674L151.443 21.568ZM150.451 22.832L150.223 22.7296L150.222 22.7318L150.451 22.832ZM150.115 28V28.25H150.365V28H150.115ZM149.165 28V20H148.665V28H149.165ZM148.915 20.25H150.115V19.75H148.915V20.25ZM149.865 20V21.968H150.365V20H149.865ZM150.354 22.0415C150.39 21.9244 150.462 21.7588 150.576 21.54L150.134 21.308C150.013 21.5372 149.925 21.7342 149.876 21.8945L150.354 22.0415ZM150.574 21.5437C150.689 21.3343 150.854 21.1185 151.076 20.8968L150.722 20.5432C150.475 20.7909 150.277 21.0443 150.136 21.3043L150.574 21.5437ZM151.076 20.8968C151.286 20.6865 151.553 20.5052 151.882 20.3556L151.676 19.9004C151.301 20.0708 150.981 20.2842 150.722 20.5432L151.076 20.8968ZM151.885 20.3542C152.208 20.2023 152.597 20.122 153.059 20.122V19.622C152.54 19.622 152.075 19.7123 151.673 19.9018L151.885 20.3542ZM153.059 20.122H153.139V19.622H153.059V20.122ZM152.889 19.872V21.072H153.389V19.872H152.889ZM153.139 20.822H152.995V21.322H153.139V20.822ZM152.995 20.822C152.348 20.822 151.777 21.0021 151.292 21.3686L151.594 21.7674C151.984 21.4726 152.447 21.322 152.995 21.322V20.822ZM151.293 21.368C150.83 21.7153 150.474 22.1713 150.223 22.7296L150.679 22.9344C150.898 22.4474 151.203 22.0607 151.593 21.768L151.293 21.368ZM150.222 22.7318C149.983 23.277 149.865 23.8606 149.865 24.48H150.365C150.365 23.9261 150.471 23.411 150.68 22.9322L150.222 22.7318ZM149.865 24.48V28H150.365V24.48H149.865ZM150.115 27.75H148.915V28.25H150.115V27.75Z" fill="white"/>
</svg>
