<svg width="192" height="48" viewBox="0 0 192 48" fill="none" xmlns="http://www.w3.org/2000/svg">
<rect x="0.5" y="0.5" width="191" height="47" stroke="white"/>
<path d="M67.296 28.6943V18.1023H72.048C72.88 18.1023 73.536 18.2463 74.016 18.5343C74.5067 18.8223 74.8587 19.185 75.072 19.6223C75.2853 20.049 75.392 20.4757 75.392 20.9023C75.392 21.585 75.248 22.113 74.96 22.4863C74.672 22.849 74.3413 23.1157 73.968 23.2863C74.2667 23.3823 74.5653 23.537 74.864 23.7503C75.1733 23.953 75.4293 24.2303 75.632 24.5823C75.8347 24.9343 75.936 25.377 75.936 25.9103C75.936 26.6997 75.632 27.361 75.024 27.8943C74.4267 28.4277 73.5253 28.6943 72.32 28.6943H67.296ZM68.496 22.8383H72.048C72.4213 22.8383 72.768 22.7743 73.088 22.6463C73.4187 22.5183 73.6853 22.321 73.888 22.0543C74.0907 21.777 74.192 21.425 74.192 20.9983C74.192 20.6997 74.1227 20.417 73.984 20.1503C73.856 19.8837 73.6427 19.665 73.344 19.4943C73.056 19.3237 72.6667 19.2383 72.176 19.2383H68.496V22.8383ZM68.496 27.5583H72.448C73.1733 27.5583 73.7333 27.409 74.128 27.1103C74.5333 26.801 74.736 26.369 74.736 25.8143C74.736 25.313 74.544 24.8757 74.16 24.5023C73.776 24.1183 73.1627 23.9263 72.32 23.9263H68.496V27.5583ZM81.1058 28.8223C80.2951 28.8223 79.5911 28.641 78.9938 28.2783C78.3964 27.905 77.9378 27.4037 77.6178 26.7743C77.2978 26.145 77.1378 25.4517 77.1378 24.6943C77.1378 23.9263 77.2978 23.233 77.6178 22.6143C77.9378 21.985 78.3964 21.489 78.9938 21.1263C79.5911 20.753 80.2951 20.5663 81.1058 20.5663C81.9271 20.5663 82.6311 20.753 83.2178 21.1263C83.8151 21.489 84.2738 21.985 84.5938 22.6143C84.9138 23.233 85.0738 23.9263 85.0738 24.6943C85.0738 25.4517 84.9138 26.145 84.5938 26.7743C84.2738 27.4037 83.8151 27.905 83.2178 28.2783C82.6311 28.641 81.9271 28.8223 81.1058 28.8223ZM81.1058 27.7343C81.7031 27.7343 82.2044 27.5957 82.6098 27.3183C83.0258 27.041 83.3404 26.673 83.5538 26.2143C83.7671 25.745 83.8738 25.2383 83.8738 24.6943C83.8738 24.1397 83.7671 23.633 83.5538 23.1743C83.3404 22.7157 83.0258 22.3477 82.6098 22.0703C82.2044 21.793 81.7031 21.6543 81.1058 21.6543C80.5191 21.6543 80.0178 21.793 79.6018 22.0703C79.1858 22.3477 78.8711 22.7157 78.6578 23.1743C78.4444 23.633 78.3378 24.1397 78.3378 24.6943C78.3378 25.2383 78.4444 25.745 78.6578 26.2143C78.8711 26.673 79.1858 27.041 79.6018 27.3183C80.0178 27.5957 80.5191 27.7343 81.1058 27.7343ZM90.137 28.8223C89.3263 28.8223 88.6223 28.641 88.025 28.2783C87.4277 27.905 86.969 27.4037 86.649 26.7743C86.329 26.145 86.169 25.4517 86.169 24.6943C86.169 23.9263 86.329 23.233 86.649 22.6143C86.969 21.985 87.4277 21.489 88.025 21.1263C88.6223 20.753 89.3263 20.5663 90.137 20.5663C90.9583 20.5663 91.6623 20.753 92.249 21.1263C92.8463 21.489 93.305 21.985 93.625 22.6143C93.945 23.233 94.105 23.9263 94.105 24.6943C94.105 25.4517 93.945 26.145 93.625 26.7743C93.305 27.4037 92.8463 27.905 92.249 28.2783C91.6623 28.641 90.9583 28.8223 90.137 28.8223ZM90.137 27.7343C90.7343 27.7343 91.2357 27.5957 91.641 27.3183C92.057 27.041 92.3717 26.673 92.585 26.2143C92.7983 25.745 92.905 25.2383 92.905 24.6943C92.905 24.1397 92.7983 23.633 92.585 23.1743C92.3717 22.7157 92.057 22.3477 91.641 22.0703C91.2357 21.793 90.7343 21.6543 90.137 21.6543C89.5503 21.6543 89.049 21.793 88.633 22.0703C88.217 22.3477 87.9023 22.7157 87.689 23.1743C87.4757 23.633 87.369 24.1397 87.369 24.6943C87.369 25.2383 87.4757 25.745 87.689 26.2143C87.9023 26.673 88.217 27.041 88.633 27.3183C89.049 27.5957 89.5503 27.7343 90.137 27.7343ZM95.6963 28.6943V17.4943H96.8963V24.6623L100.752 20.6943H102.432L99.2163 23.8463L102.672 28.6943H101.2L98.4003 24.6783L96.8963 26.1663V28.6943H95.6963ZM103.68 19.3503V17.7823H104.976V19.3503H103.68ZM103.728 28.6943V20.6943H104.928V28.6943H103.728ZM107.009 28.6943V20.6943H108.209V21.9423C108.497 21.5583 108.849 21.233 109.265 20.9663C109.681 20.6997 110.214 20.5663 110.865 20.5663C111.419 20.5663 111.937 20.6997 112.417 20.9663C112.907 21.2223 113.302 21.6117 113.601 22.1343C113.91 22.6463 114.065 23.281 114.065 24.0383V28.6943H112.865V24.0703C112.865 23.345 112.657 22.7637 112.241 22.3263C111.825 21.8783 111.286 21.6543 110.625 21.6543C110.177 21.6543 109.771 21.7557 109.409 21.9583C109.046 22.161 108.753 22.449 108.529 22.8223C108.315 23.185 108.209 23.6063 108.209 24.0863V28.6943H107.009ZM119.735 31.9903C118.733 31.9903 117.917 31.7717 117.287 31.3343C116.658 30.9077 116.231 30.3477 116.007 29.6543H117.335C117.495 30.049 117.773 30.353 118.167 30.5663C118.562 30.7903 119.063 30.9023 119.671 30.9023C120.589 30.9023 121.255 30.6837 121.671 30.2463C122.098 29.8197 122.311 29.1957 122.311 28.3743V27.2703C122.013 27.697 121.623 28.0437 121.143 28.3103C120.674 28.5663 120.109 28.6943 119.447 28.6943C118.669 28.6943 117.986 28.5183 117.399 28.1663C116.823 27.8037 116.375 27.313 116.055 26.6943C115.735 26.0757 115.575 25.3877 115.575 24.6303C115.575 23.8623 115.735 23.1743 116.055 22.5663C116.375 21.9477 116.823 21.4623 117.399 21.1103C117.986 20.7477 118.669 20.5663 119.447 20.5663C120.109 20.5663 120.674 20.6943 121.143 20.9503C121.623 21.1957 122.013 21.537 122.311 21.9743V20.6943H123.511V28.4543C123.511 29.5957 123.181 30.4703 122.519 31.0783C121.869 31.6863 120.941 31.9903 119.735 31.9903ZM119.607 27.6063C120.194 27.6063 120.69 27.473 121.095 27.2063C121.511 26.9397 121.826 26.5823 122.039 26.1343C122.263 25.6757 122.375 25.1743 122.375 24.6303C122.375 24.0757 122.263 23.5743 122.039 23.1263C121.826 22.6783 121.511 22.321 121.095 22.0543C120.69 21.7877 120.194 21.6543 119.607 21.6543C119.021 21.6543 118.514 21.7877 118.087 22.0543C117.661 22.321 117.335 22.6783 117.111 23.1263C116.887 23.5743 116.775 24.0757 116.775 24.6303C116.775 25.1743 116.887 25.6757 117.111 26.1343C117.335 26.5823 117.661 26.9397 118.087 27.2063C118.514 27.473 119.021 27.6063 119.607 27.6063Z" fill="white"/>
<path d="M67.296 28.6943H67.046V28.9443H67.296V28.6943ZM67.296 18.1023V17.8523H67.046V18.1023H67.296ZM74.016 18.5343L73.8874 18.7487L73.8895 18.7499L74.016 18.5343ZM75.072 19.6223L74.8473 19.7319L74.8484 19.7341L75.072 19.6223ZM74.96 22.4863L75.1558 22.6418L75.1579 22.639L74.96 22.4863ZM73.968 23.2863L73.8641 23.059L73.2777 23.327L73.8915 23.5243L73.968 23.2863ZM74.864 23.7503L74.7186 23.9539L74.727 23.9595L74.864 23.7503ZM75.632 24.5823L75.8487 24.4576L75.8487 24.4576L75.632 24.5823ZM75.024 27.8943L74.8591 27.7064L74.8575 27.7079L75.024 27.8943ZM68.496 22.8383H68.246V23.0883H68.496V22.8383ZM73.088 22.6463L72.9977 22.4132L72.9952 22.4142L73.088 22.6463ZM73.888 22.0543L74.0871 22.2056L74.0898 22.2018L73.888 22.0543ZM73.984 20.1503L73.7585 20.2586L73.7622 20.2657L73.984 20.1503ZM73.344 19.4943L73.2165 19.7094L73.22 19.7114L73.344 19.4943ZM68.496 19.2383V18.9883H68.246V19.2383H68.496ZM68.496 27.5583H68.246V27.8083H68.496V27.5583ZM74.128 27.1103L74.2789 27.3097L74.2797 27.3091L74.128 27.1103ZM74.16 24.5023L73.9832 24.6791L73.9857 24.6816L74.16 24.5023ZM68.496 23.9263V23.6763H68.246V23.9263H68.496ZM67.546 28.6943V18.1023H67.046V28.6943H67.546ZM67.296 18.3523H72.048V17.8523H67.296V18.3523ZM72.048 18.3523C72.8552 18.3523 73.4607 18.4927 73.8874 18.7487L74.1446 18.32C73.6113 18 72.9048 17.8523 72.048 17.8523V18.3523ZM73.8895 18.7499C74.345 19.0173 74.659 19.3459 74.8473 19.7319L75.2967 19.5127C75.0583 19.0241 74.6683 18.6273 74.1426 18.3187L73.8895 18.7499ZM74.8484 19.7341C75.0464 20.1302 75.142 20.5189 75.142 20.9023H75.642C75.642 20.4325 75.5242 19.9678 75.2956 19.5105L74.8484 19.7341ZM75.142 20.9023C75.142 21.5537 75.0041 22.0198 74.7621 22.3336L75.1579 22.639C75.4919 22.2062 75.642 21.6163 75.642 20.9023H75.142ZM74.7642 22.3309C74.4976 22.6667 74.1972 22.9067 73.8641 23.059L74.0719 23.5137C74.4855 23.3247 74.8464 23.0313 75.1558 22.6418L74.7642 22.3309ZM73.8915 23.5243C74.1618 23.6112 74.4376 23.753 74.7187 23.9538L75.0093 23.5469C74.6931 23.321 74.3715 23.1534 74.0445 23.0483L73.8915 23.5243ZM74.727 23.9595C75.0004 24.1386 75.2303 24.3857 75.4153 24.7071L75.8487 24.4576C75.6284 24.075 75.3463 23.7674 75.001 23.5412L74.727 23.9595ZM75.4153 24.7071C75.5904 25.0111 75.686 25.4075 75.686 25.9103H76.186C76.186 25.3465 76.079 24.8576 75.8487 24.4576L75.4153 24.7071ZM75.686 25.9103C75.686 26.6257 75.4146 27.2192 74.8591 27.7064L75.1889 28.0823C75.8494 27.5028 76.186 26.7737 76.186 25.9103H75.686ZM74.8575 27.7079C74.3243 28.1839 73.494 28.4443 72.32 28.4443V28.9443C73.5566 28.9443 74.529 28.6714 75.1905 28.0808L74.8575 27.7079ZM72.32 28.4443H67.296V28.9443H72.32V28.4443ZM68.496 23.0883H72.048V22.5883H68.496V23.0883ZM72.048 23.0883C72.4505 23.0883 72.8289 23.0192 73.1808 22.8785L72.9952 22.4142C72.7071 22.5295 72.3922 22.5883 72.048 22.5883V23.0883ZM73.1782 22.8795C73.5494 22.7358 73.8547 22.5113 74.087 22.2056L73.689 21.9031C73.5159 22.1307 73.2879 22.3009 72.9978 22.4132L73.1782 22.8795ZM74.0898 22.2018C74.3307 21.8723 74.442 21.465 74.442 20.9983H73.942C73.942 21.385 73.8506 21.6818 73.6862 21.9068L74.0898 22.2018ZM74.442 20.9983C74.442 20.6593 74.3629 20.3371 74.2058 20.035L73.7622 20.2657C73.8825 20.497 73.942 20.7401 73.942 20.9983H74.442ZM74.2094 20.0422C74.056 19.7226 73.8034 19.4689 73.468 19.2773L73.22 19.7114C73.482 19.8611 73.656 20.0447 73.7586 20.2585L74.2094 20.0422ZM73.4715 19.2793C73.131 19.0775 72.692 18.9883 72.176 18.9883V19.4883C72.6414 19.4883 72.9811 19.5699 73.2165 19.7094L73.4715 19.2793ZM72.176 18.9883H68.496V19.4883H72.176V18.9883ZM68.246 19.2383V22.8383H68.746V19.2383H68.246ZM68.496 27.8083H72.448V27.3083H68.496V27.8083ZM72.448 27.8083C73.2035 27.8083 73.8247 27.6534 74.2789 27.3097L73.9771 26.911C73.642 27.1646 73.1432 27.3083 72.448 27.3083V27.8083ZM74.2797 27.3091C74.753 26.9479 74.986 26.4391 74.986 25.8143H74.486C74.486 26.299 74.3137 26.6542 73.9763 26.9116L74.2797 27.3091ZM74.986 25.8143C74.986 25.2405 74.763 24.7399 74.3343 24.3231L73.9857 24.6816C74.325 25.0114 74.486 25.3855 74.486 25.8143H74.986ZM74.3368 24.3256C73.8856 23.8744 73.1933 23.6763 72.32 23.6763V24.1763C73.132 24.1763 73.6664 24.3623 73.9832 24.6791L74.3368 24.3256ZM72.32 23.6763H68.496V24.1763H72.32V23.6763ZM68.246 23.9263V27.5583H68.746V23.9263H68.246ZM78.9938 28.2783L78.8612 28.4904L78.864 28.492L78.9938 28.2783ZM77.6178 22.6143L77.8398 22.7292L77.8406 22.7276L77.6178 22.6143ZM78.9938 21.1263L79.1235 21.3401L79.1262 21.3383L78.9938 21.1263ZM83.2178 21.1263L83.0835 21.3373L83.088 21.34L83.2178 21.1263ZM84.5938 22.6143L84.3709 22.7276L84.3717 22.7292L84.5938 22.6143ZM84.5938 26.7743L84.3709 26.661L84.3709 26.661L84.5938 26.7743ZM83.2178 28.2783L83.3492 28.491L83.3503 28.4903L83.2178 28.2783ZM82.6098 27.3183L82.4711 27.1103L82.4686 27.112L82.6098 27.3183ZM83.5538 26.2143L83.7804 26.3198L83.7813 26.3178L83.5538 26.2143ZM83.5538 23.1743L83.7804 23.0689L83.7804 23.0689L83.5538 23.1743ZM82.6098 22.0703L82.4686 22.2767L82.4711 22.2783L82.6098 22.0703ZM79.6018 22.0703L79.4631 21.8623L79.4631 21.8623L79.6018 22.0703ZM78.6578 23.1743L78.4311 23.0689L78.4311 23.0689L78.6578 23.1743ZM78.6578 26.2143L78.4301 26.3178L78.4311 26.3198L78.6578 26.2143ZM81.1058 28.5723C80.3334 28.5723 79.6758 28.4 79.1235 28.0646L78.864 28.492C79.5064 28.882 80.2568 29.0723 81.1058 29.0723V28.5723ZM79.1262 28.0663C78.5675 27.7171 78.1401 27.25 77.8406 26.661L77.3949 26.8876C77.7354 27.5574 78.2253 28.0929 78.8613 28.4903L79.1262 28.0663ZM77.8406 26.661C77.5397 26.0693 77.3878 25.4152 77.3878 24.6943H76.8878C76.8878 25.4881 77.0558 26.2207 77.3949 26.8876L77.8406 26.661ZM77.3878 24.6943C77.3878 23.9621 77.54 23.3088 77.8398 22.7292L77.3957 22.4995C77.0555 23.1572 76.8878 23.8905 76.8878 24.6943H77.3878ZM77.8406 22.7276C78.1397 22.1393 78.5664 21.6783 79.1235 21.34L78.864 20.9126C78.2265 21.2997 77.7358 21.8307 77.3949 22.501L77.8406 22.7276ZM79.1262 21.3383C79.6781 20.9934 80.3347 20.8163 81.1058 20.8163V20.3163C80.2554 20.3163 79.504 20.5126 78.8613 20.9143L79.1262 21.3383ZM81.1058 20.8163C81.8883 20.8163 82.5438 20.9938 83.0835 21.3373L83.352 20.9154C82.7184 20.5122 81.9659 20.3163 81.1058 20.3163V20.8163ZM83.088 21.34C83.6451 21.6783 84.0718 22.1393 84.3709 22.7276L84.8166 22.501C84.4757 21.8307 83.985 21.2997 83.3475 20.9126L83.088 21.34ZM84.3717 22.7292C84.6715 23.3088 84.8238 23.9621 84.8238 24.6943H85.3238C85.3238 23.8905 85.156 23.1572 84.8158 22.4995L84.3717 22.7292ZM84.8238 24.6943C84.8238 25.4152 84.6718 26.0693 84.3709 26.661L84.8166 26.8876C85.1557 26.2207 85.3238 25.4881 85.3238 24.6943H84.8238ZM84.3709 26.661C84.0714 27.25 83.644 27.7171 83.0853 28.0663L83.3503 28.4903C83.9862 28.0929 84.4761 27.5574 84.8166 26.8876L84.3709 26.661ZM83.0863 28.0657C82.5461 28.3996 81.8896 28.5723 81.1058 28.5723V29.0723C81.9646 29.0723 82.7161 28.8824 83.3492 28.491L83.0863 28.0657ZM81.1058 27.9843C81.7424 27.9843 82.2957 27.8361 82.7509 27.5247L82.4686 27.112C82.1131 27.3552 81.6637 27.4843 81.1058 27.4843V27.9843ZM82.7484 27.5263C83.2031 27.2232 83.548 26.8195 83.7804 26.3198L83.3271 26.1089C83.1329 26.5265 82.8484 26.8588 82.4711 27.1103L82.7484 27.5263ZM83.7813 26.3178C84.0103 25.8142 84.1238 25.272 84.1238 24.6943H83.6238C83.6238 25.2047 83.5239 25.6758 83.3262 26.1109L83.7813 26.3178ZM84.1238 24.6943C84.1238 24.1068 84.0106 23.5637 83.7804 23.0689L83.3271 23.2798C83.5236 23.7023 83.6238 24.1725 83.6238 24.6943H84.1238ZM83.7804 23.0689C83.548 22.5691 83.2031 22.1654 82.7484 21.8623L82.4711 22.2783C82.8484 22.5299 83.1329 22.8622 83.3271 23.2798L83.7804 23.0689ZM82.7509 21.864C82.2957 21.5526 81.7424 21.4043 81.1058 21.4043V21.9043C81.6637 21.9043 82.1131 22.0334 82.4686 22.2767L82.7509 21.864ZM81.1058 21.4043C80.4785 21.4043 79.9269 21.5531 79.4631 21.8623L79.7404 22.2783C80.1086 22.0329 80.5597 21.9043 81.1058 21.9043V21.4043ZM79.4631 21.8623C79.0084 22.1654 78.6635 22.5691 78.4311 23.0689L78.8844 23.2798C79.0786 22.8622 79.3631 22.5299 79.7404 22.2783L79.4631 21.8623ZM78.4311 23.0689C78.2009 23.5637 78.0878 24.1068 78.0878 24.6943H78.5878C78.5878 24.1725 78.6879 23.7023 78.8844 23.2798L78.4311 23.0689ZM78.0878 24.6943C78.0878 25.272 78.2012 25.8142 78.4302 26.3178L78.8853 26.1109C78.6876 25.6758 78.5878 25.2047 78.5878 24.6943H78.0878ZM78.4311 26.3198C78.6635 26.8195 79.0084 27.2232 79.4631 27.5263L79.7404 27.1103C79.3631 26.8588 79.0786 26.5265 78.8844 26.1089L78.4311 26.3198ZM79.4631 27.5263C79.9269 27.8355 80.4785 27.9843 81.1058 27.9843V27.4843C80.5597 27.4843 80.1086 27.3558 79.7404 27.1103L79.4631 27.5263ZM88.025 28.2783L87.8925 28.4904L87.8953 28.492L88.025 28.2783ZM86.649 22.6143L86.8711 22.7292L86.8718 22.7276L86.649 22.6143ZM88.025 21.1263L88.1548 21.3401L88.1575 21.3383L88.025 21.1263ZM92.249 21.1263L92.1148 21.3373L92.1193 21.34L92.249 21.1263ZM93.625 22.6143L93.4021 22.7276L93.4029 22.7292L93.625 22.6143ZM93.625 26.7743L93.4022 26.661L93.4022 26.661L93.625 26.7743ZM92.249 28.2783L92.3805 28.491L92.3815 28.4903L92.249 28.2783ZM91.641 27.3183L91.5023 27.1103L91.4998 27.112L91.641 27.3183ZM92.585 26.2143L92.8117 26.3198L92.8126 26.3178L92.585 26.2143ZM92.585 23.1743L92.8117 23.0689L92.8117 23.0689L92.585 23.1743ZM91.641 22.0703L91.4998 22.2767L91.5023 22.2783L91.641 22.0703ZM88.633 22.0703L88.4943 21.8623L88.4943 21.8623L88.633 22.0703ZM87.689 23.1743L87.4623 23.0689L87.4623 23.0689L87.689 23.1743ZM87.689 26.2143L87.4614 26.3178L87.4623 26.3198L87.689 26.2143ZM90.137 28.5723C89.3646 28.5723 88.7071 28.4 88.1547 28.0646L87.8953 28.492C88.5376 28.882 89.288 29.0723 90.137 29.0723V28.5723ZM88.1575 28.0663C87.5988 27.7171 87.1713 27.25 86.8718 26.661L86.4262 26.8876C86.7667 27.5574 87.2566 28.0929 87.8925 28.4903L88.1575 28.0663ZM86.8718 26.661C86.571 26.0693 86.419 25.4152 86.419 24.6943H85.919C85.919 25.4881 86.087 26.2207 86.4262 26.8876L86.8718 26.661ZM86.419 24.6943C86.419 23.9621 86.5712 23.3088 86.8711 22.7292L86.4269 22.4995C86.0868 23.1572 85.919 23.8905 85.919 24.6943H86.419ZM86.8718 22.7276C87.171 22.1393 87.5976 21.6783 88.1547 21.34L87.8953 20.9126C87.2577 21.2997 86.767 21.8307 86.4262 22.501L86.8718 22.7276ZM88.1575 21.3383C88.7094 20.9934 89.366 20.8163 90.137 20.8163V20.3163C89.2867 20.3163 88.5353 20.5126 87.8925 20.9143L88.1575 21.3383ZM90.137 20.8163C90.9195 20.8163 91.575 20.9938 92.1148 21.3373L92.3832 20.9154C91.7497 20.5122 90.9971 20.3163 90.137 20.3163V20.8163ZM92.1193 21.34C92.6764 21.6783 93.103 22.1393 93.4022 22.7276L93.8478 22.501C93.507 21.8307 93.0163 21.2997 92.3787 20.9126L92.1193 21.34ZM93.4029 22.7292C93.7028 23.3088 93.855 23.9621 93.855 24.6943H94.355C94.355 23.8905 94.1872 23.1572 93.8471 22.4995L93.4029 22.7292ZM93.855 24.6943C93.855 25.4152 93.703 26.0693 93.4022 26.661L93.8478 26.8876C94.187 26.2207 94.355 25.4881 94.355 24.6943H93.855ZM93.4022 26.661C93.1027 27.25 92.6752 27.7171 92.1165 28.0663L92.3815 28.4903C93.0174 28.0929 93.5073 27.5574 93.8478 26.8876L93.4022 26.661ZM92.1175 28.0657C91.5774 28.3996 90.9208 28.5723 90.137 28.5723V29.0723C90.9958 29.0723 91.7473 28.8824 92.3805 28.491L92.1175 28.0657ZM90.137 27.9843C90.7737 27.9843 91.327 27.8361 91.7822 27.5247L91.4998 27.112C91.1443 27.3552 90.695 27.4843 90.137 27.4843V27.9843ZM91.7797 27.5263C92.2343 27.2232 92.5792 26.8195 92.8117 26.3198L92.3583 26.1089C92.1641 26.5265 91.8797 26.8588 91.5023 27.1103L91.7797 27.5263ZM92.8126 26.3178C93.0415 25.8142 93.155 25.272 93.155 24.6943H92.655C92.655 25.2047 92.5552 25.6758 92.3574 26.1109L92.8126 26.3178ZM93.155 24.6943C93.155 24.1068 93.0418 23.5637 92.8117 23.0689L92.3583 23.2798C92.5549 23.7023 92.655 24.1725 92.655 24.6943H93.155ZM92.8117 23.0689C92.5792 22.5691 92.2343 22.1654 91.7797 21.8623L91.5023 22.2783C91.8797 22.5299 92.1641 22.8622 92.3583 23.2798L92.8117 23.0689ZM91.7822 21.864C91.327 21.5526 90.7737 21.4043 90.137 21.4043V21.9043C90.695 21.9043 91.1443 22.0334 91.4998 22.2767L91.7822 21.864ZM90.137 21.4043C89.5097 21.4043 88.9581 21.5531 88.4943 21.8623L88.7717 22.2783C89.1399 22.0329 89.5909 21.9043 90.137 21.9043V21.4043ZM88.4943 21.8623C88.0397 22.1654 87.6948 22.5691 87.4623 23.0689L87.9157 23.2798C88.1099 22.8622 88.3943 22.5299 88.7717 22.2783L88.4943 21.8623ZM87.4623 23.0689C87.2322 23.5637 87.119 24.1068 87.119 24.6943H87.619C87.619 24.1725 87.7191 23.7023 87.9157 23.2798L87.4623 23.0689ZM87.119 24.6943C87.119 25.272 87.2325 25.8142 87.4614 26.3178L87.9166 26.1109C87.7188 25.6758 87.619 25.2047 87.619 24.6943H87.119ZM87.4623 26.3198C87.6948 26.8195 88.0397 27.2232 88.4943 27.5263L88.7717 27.1103C88.3943 26.8588 88.1099 26.5265 87.9157 26.1089L87.4623 26.3198ZM88.4943 27.5263C88.9581 27.8355 89.5097 27.9843 90.137 27.9843V27.4843C89.5909 27.4843 89.1399 27.3558 88.7717 27.1103L88.4943 27.5263ZM95.6963 28.6943H95.4463V28.9443H95.6963V28.6943ZM95.6963 17.4943V17.2443H95.4463V17.4943H95.6963ZM96.8963 17.4943H97.1463V17.2443H96.8963V17.4943ZM96.8963 24.6623H96.6463V25.2783L97.0755 24.8366L96.8963 24.6623ZM100.752 20.6943V20.4443H100.647L100.573 20.5201L100.752 20.6943ZM102.432 20.6943L102.607 20.8729L103.044 20.4443H102.432V20.6943ZM99.2163 23.8463L99.0413 23.6678L98.8886 23.8174L99.0127 23.9915L99.2163 23.8463ZM102.672 28.6943V28.9443H103.157L102.876 28.5492L102.672 28.6943ZM101.2 28.6943L100.995 28.8373L101.07 28.9443H101.2V28.6943ZM98.4003 24.6783L98.6053 24.5354L98.4355 24.2918L98.2244 24.5006L98.4003 24.6783ZM96.8963 26.1663L96.7204 25.9886L96.6463 26.062V26.1663H96.8963ZM96.8963 28.6943V28.9443H97.1463V28.6943H96.8963ZM95.9463 28.6943V17.4943H95.4463V28.6943H95.9463ZM95.6963 17.7443H96.8963V17.2443H95.6963V17.7443ZM96.6463 17.4943V24.6623H97.1463V17.4943H96.6463ZM97.0755 24.8366L100.932 20.8686L100.573 20.5201L96.717 24.4881L97.0755 24.8366ZM100.752 20.9443H102.432V20.4443H100.752V20.9443ZM102.257 20.5158L99.0413 23.6678L99.3912 24.0249L102.607 20.8729L102.257 20.5158ZM99.0127 23.9915L102.469 28.8395L102.876 28.5492L99.4198 23.7012L99.0127 23.9915ZM102.672 28.4443H101.2V28.9443H102.672V28.4443ZM101.405 28.5514L98.6053 24.5354L98.1952 24.8213L100.995 28.8373L101.405 28.5514ZM98.2244 24.5006L96.7204 25.9886L97.0721 26.3441L98.5761 24.8561L98.2244 24.5006ZM96.6463 26.1663V28.6943H97.1463V26.1663H96.6463ZM96.8963 28.4443H95.6963V28.9443H96.8963V28.4443ZM103.68 19.3503H103.43V19.6003H103.68V19.3503ZM103.68 17.7823V17.5323H103.43V17.7823H103.68ZM104.976 17.7823H105.226V17.5323H104.976V17.7823ZM104.976 19.3503V19.6003H105.226V19.3503H104.976ZM103.728 28.6943H103.478V28.9443H103.728V28.6943ZM103.728 20.6943V20.4443H103.478V20.6943H103.728ZM104.928 20.6943H105.178V20.4443H104.928V20.6943ZM104.928 28.6943V28.9443H105.178V28.6943H104.928ZM103.93 19.3503V17.7823H103.43V19.3503H103.93ZM103.68 18.0323H104.976V17.5323H103.68V18.0323ZM104.726 17.7823V19.3503H105.226V17.7823H104.726ZM104.976 19.1003H103.68V19.6003H104.976V19.1003ZM103.978 28.6943V20.6943H103.478V28.6943H103.978ZM103.728 20.9443H104.928V20.4443H103.728V20.9443ZM104.678 20.6943V28.6943H105.178V20.6943H104.678ZM104.928 28.4443H103.728V28.9443H104.928V28.4443ZM107.009 28.6943H106.759V28.9443H107.009V28.6943ZM107.009 20.6943V20.4443H106.759V20.6943H107.009ZM108.209 20.6943H108.459V20.4443H108.209V20.6943ZM108.209 21.9423H107.959V22.6923L108.409 22.0923L108.209 21.9423ZM109.265 20.9663L109.4 21.1768L109.4 21.1768L109.265 20.9663ZM112.417 20.9663L112.295 21.185L112.301 21.188L112.417 20.9663ZM113.601 22.1343L113.384 22.2584L113.387 22.2636L113.601 22.1343ZM114.065 28.6943V28.9443H114.315V28.6943H114.065ZM112.865 28.6943H112.615V28.9443H112.865V28.6943ZM112.241 22.3263L112.058 22.4965L112.06 22.4986L112.241 22.3263ZM109.409 21.9583L109.287 21.7401L109.287 21.7401L109.409 21.9583ZM108.529 22.8223L108.314 22.6937L108.313 22.6956L108.529 22.8223ZM108.209 28.6943V28.9443H108.459V28.6943H108.209ZM107.259 28.6943V20.6943H106.759V28.6943H107.259ZM107.009 20.9443H108.209V20.4443H107.009V20.9443ZM107.959 20.6943V21.9423H108.459V20.6943H107.959ZM108.409 22.0923C108.678 21.7329 109.008 21.4278 109.4 21.1768L109.13 20.7559C108.689 21.0382 108.315 21.3838 108.009 21.7923L108.409 22.0923ZM109.4 21.1768C109.764 20.9429 110.247 20.8163 110.865 20.8163V20.3163C110.181 20.3163 109.597 20.4564 109.13 20.7559L109.4 21.1768ZM110.865 20.8163C111.377 20.8163 111.853 20.9391 112.295 21.1849L112.538 20.7478C112.021 20.4603 111.461 20.3163 110.865 20.3163V20.8163ZM112.301 21.188C112.746 21.4199 113.107 21.7735 113.384 22.2584L113.818 22.0103C113.498 21.4499 113.069 21.0248 112.532 20.7447L112.301 21.188ZM113.387 22.2636C113.667 22.7275 113.815 23.3146 113.815 24.0383H114.315C114.315 23.2474 114.153 22.5652 113.815 22.0051L113.387 22.2636ZM113.815 24.0383V28.6943H114.315V24.0383H113.815ZM114.065 28.4443H112.865V28.9443H114.065V28.4443ZM113.115 28.6943V24.0703H112.615V28.6943H113.115ZM113.115 24.0703C113.115 23.2946 112.891 22.6469 112.422 22.154L112.06 22.4986C112.423 22.8804 112.615 23.3954 112.615 24.0703H113.115ZM112.424 22.1562C111.956 21.6528 111.349 21.4043 110.625 21.4043V21.9043C111.223 21.9043 111.693 22.1039 112.058 22.4964L112.424 22.1562ZM110.625 21.4043C110.137 21.4043 109.69 21.515 109.287 21.7401L109.531 22.1766C109.853 21.9964 110.216 21.9043 110.625 21.9043V21.4043ZM109.287 21.7401C108.884 21.9651 108.56 22.2848 108.314 22.6937L108.743 22.951C108.946 22.6132 109.208 22.3569 109.531 22.1766L109.287 21.7401ZM108.313 22.6956C108.074 23.1018 107.959 23.5682 107.959 24.0863H108.459C108.459 23.6445 108.557 23.2682 108.744 22.9491L108.313 22.6956ZM107.959 24.0863V28.6943H108.459V24.0863H107.959ZM108.209 28.4443H107.009V28.9443H108.209V28.4443ZM117.287 31.3343L117.43 31.129L117.428 31.1274L117.287 31.3343ZM116.007 29.6543V29.4043H115.664L115.769 29.7312L116.007 29.6543ZM117.335 29.6543L117.567 29.5604L117.504 29.4043H117.335V29.6543ZM118.167 30.5663L118.291 30.3489L118.286 30.3464L118.167 30.5663ZM121.671 30.2463L121.494 30.0695L121.49 30.074L121.671 30.2463ZM122.311 27.2703H122.561V26.4772L122.106 27.127L122.311 27.2703ZM121.143 28.3103L121.263 28.5298L121.265 28.5289L121.143 28.3103ZM117.399 28.1663L117.266 28.3779L117.271 28.3807L117.399 28.1663ZM116.055 26.6943L115.833 26.8092L115.833 26.8092L116.055 26.6943ZM116.055 22.5663L116.276 22.6828L116.277 22.6812L116.055 22.5663ZM117.399 21.1103L117.53 21.3237L117.531 21.323L117.399 21.1103ZM121.143 20.9503L121.023 21.1699L121.029 21.1729L121.143 20.9503ZM122.311 21.9743L122.105 22.1153L122.561 22.7837V21.9743H122.311ZM122.311 20.6943V20.4443H122.061V20.6943H122.311ZM123.511 20.6943H123.761V20.4443H123.511V20.6943ZM122.519 31.0783L122.35 30.8943L122.349 30.8957L122.519 31.0783ZM121.095 27.2063L120.96 26.9959L120.958 26.9975L121.095 27.2063ZM122.039 26.1343L121.815 26.0246L121.814 26.0269L122.039 26.1343ZM122.039 23.1263L121.813 23.2338L121.816 23.2381L122.039 23.1263ZM121.095 22.0543L120.958 22.2632L120.96 22.2648L121.095 22.0543ZM118.087 22.0543L118.22 22.2663L118.22 22.2663L118.087 22.0543ZM117.111 23.1263L117.335 23.2381L117.335 23.2381L117.111 23.1263ZM117.111 26.1343L116.887 26.244L116.888 26.2461L117.111 26.1343ZM118.087 27.2063L118.22 26.9943L118.22 26.9943L118.087 27.2063ZM119.735 31.7403C118.768 31.7403 118.006 31.5295 117.43 31.129L117.145 31.5396C117.827 32.0139 118.697 32.2403 119.735 32.2403V31.7403ZM117.428 31.1274C116.842 30.7305 116.451 30.2154 116.245 29.5775L115.769 29.7312C116.011 30.48 116.474 31.0848 117.147 31.5413L117.428 31.1274ZM116.007 29.9043H117.335V29.4043H116.007V29.9043ZM117.104 29.7483C117.287 30.1998 117.606 30.5469 118.048 30.7863L118.286 30.3464C117.94 30.1591 117.704 29.8982 117.567 29.5604L117.104 29.7483ZM118.044 30.7838C118.487 31.0352 119.034 31.1523 119.671 31.1523V30.6523C119.092 30.6523 118.637 30.5455 118.291 30.3489L118.044 30.7838ZM119.671 31.1523C120.622 31.1523 121.369 30.9264 121.852 30.4186L121.49 30.074C121.141 30.441 120.555 30.6523 119.671 30.6523V31.1523ZM121.848 30.4231C122.336 29.9347 122.561 29.2374 122.561 28.3743H122.061C122.061 29.1539 121.859 29.7047 121.494 30.0696L121.848 30.4231ZM122.561 28.3743V27.2703H122.061V28.3743H122.561ZM122.106 27.127C121.831 27.5209 121.471 27.8425 121.022 28.0918L121.265 28.5289C121.776 28.2448 122.194 27.8731 122.516 27.4137L122.106 27.127ZM121.024 28.0909C120.599 28.3226 120.077 28.4443 119.447 28.4443V28.9443C120.141 28.9443 120.749 28.8101 121.263 28.5298L121.024 28.0909ZM119.447 28.4443C118.708 28.4443 118.071 28.2776 117.528 27.952L117.271 28.3807C117.901 28.7591 118.63 28.9443 119.447 28.9443V28.4443ZM117.532 27.9548C116.995 27.6164 116.577 27.1595 116.277 26.5795L115.833 26.8092C116.173 27.4665 116.651 27.9909 117.266 28.3779L117.532 27.9548ZM116.277 26.5795C115.977 25.9994 115.825 25.3513 115.825 24.6303H115.325C115.325 25.4241 115.493 26.152 115.833 26.8092L116.277 26.5795ZM115.825 24.6303C115.825 23.8981 115.978 23.2508 116.276 22.6828L115.834 22.4499C115.493 23.0979 115.325 23.8266 115.325 24.6303H115.825ZM116.277 22.6812C116.577 22.1018 116.994 21.651 117.53 21.3237L117.269 20.897C116.653 21.2736 116.173 21.7936 115.833 22.4515L116.277 22.6812ZM117.531 21.323C118.073 20.9878 118.709 20.8163 119.447 20.8163V20.3163C118.628 20.3163 117.899 20.5076 117.268 20.8977L117.531 21.323ZM119.447 20.8163C120.077 20.8163 120.599 20.9381 121.024 21.1698L121.263 20.7309C120.749 20.4506 120.141 20.3163 119.447 20.3163V20.8163ZM121.029 21.1729C121.473 21.3996 121.83 21.7132 122.105 22.1153L122.518 21.8333C122.195 21.3608 121.774 20.9917 121.257 20.7277L121.029 21.1729ZM122.561 21.9743V20.6943H122.061V21.9743H122.561ZM122.311 20.9443H123.511V20.4443H122.311V20.9443ZM123.261 20.6943V28.4543H123.761V20.6943H123.261ZM123.261 28.4543C123.261 29.5459 122.947 30.3457 122.35 30.8943L122.688 31.2624C123.414 30.5949 123.761 29.6455 123.761 28.4543H123.261ZM122.349 30.8957C121.759 31.447 120.9 31.7403 119.735 31.7403V32.2403C120.981 32.2403 121.979 31.9257 122.69 31.261L122.349 30.8957ZM119.607 27.8563C120.232 27.8563 120.779 27.7139 121.233 27.4152L120.958 26.9975C120.601 27.2321 120.155 27.3563 119.607 27.3563V27.8563ZM121.23 27.4168C121.686 27.1248 122.032 26.7318 122.265 26.2418L121.814 26.0269C121.62 26.4329 121.337 26.7545 120.96 26.9959L121.23 27.4168ZM122.264 26.244C122.506 25.749 122.625 25.2098 122.625 24.6303H122.125C122.125 25.1389 122.021 25.6024 121.815 26.0246L122.264 26.244ZM122.625 24.6303C122.625 24.0411 122.506 23.5008 122.263 23.0145L121.816 23.2381C122.02 23.6478 122.125 24.1103 122.125 24.6303H122.625ZM122.265 23.0189C122.032 22.5289 121.686 22.1358 121.23 21.8439L120.96 22.2648C121.337 22.5062 121.62 22.8278 121.814 23.2338L122.265 23.0189ZM121.233 21.8455C120.779 21.5468 120.232 21.4043 119.607 21.4043V21.9043C120.155 21.9043 120.601 22.0285 120.958 22.2632L121.233 21.8455ZM119.607 21.4043C118.982 21.4043 118.427 21.547 117.955 21.8423L118.22 22.2663C118.6 22.0284 119.06 21.9043 119.607 21.9043V21.4043ZM117.955 21.8423C117.489 22.1333 117.132 22.5252 116.888 23.0145L117.335 23.2381C117.538 22.8315 117.832 22.5087 118.22 22.2663L117.955 21.8423ZM116.888 23.0145C116.644 23.5008 116.525 24.0411 116.525 24.6303H117.025C117.025 24.1103 117.13 23.6478 117.335 23.2381L116.888 23.0145ZM116.525 24.6303C116.525 25.2098 116.645 25.749 116.887 26.244L117.336 26.0246C117.13 25.6024 117.025 25.1389 117.025 24.6303H116.525ZM116.888 26.2461C117.132 26.7355 117.489 27.1274 117.955 27.4183L118.22 26.9943C117.832 26.7519 117.538 26.4292 117.335 26.0225L116.888 26.2461ZM117.955 27.4183C118.427 27.7137 118.982 27.8563 119.607 27.8563V27.3563C119.06 27.3563 118.6 27.2323 118.22 26.9943L117.955 27.4183Z" fill="white"/>
</svg>
