<svg width="168" height="48" viewBox="0 0 168 48" fill="none" xmlns="http://www.w3.org/2000/svg">
<path d="M38.296 31V20.408H46.088V21.56H39.496V25.112H45.384V26.28H39.496V29.848H46.088V31H38.296ZM46.7984 31L49.8864 26.872L46.9904 23H48.5264L50.5904 26.024L52.6384 23H54.1744L51.2784 26.872L54.3824 31H52.8464L50.5904 27.736L48.3184 31H46.7984ZM55.4931 34.168V23H56.6931V24.28C56.9918 23.8427 57.3758 23.5013 57.8451 23.256C58.3251 23 58.8958 22.872 59.5571 22.872C60.3358 22.872 61.0131 23.0587 61.5891 23.432C62.1758 23.7947 62.6291 24.2907 62.9491 24.92C63.2691 25.5387 63.4291 26.232 63.4291 27C63.4291 27.7573 63.2691 28.4507 62.9491 29.08C62.6291 29.7093 62.1758 30.2107 61.5891 30.584C61.0131 30.9467 60.3358 31.128 59.5571 31.128C58.8958 31.128 58.3251 31 57.8451 30.744C57.3758 30.4773 56.9918 30.1307 56.6931 29.704V34.168H55.4931ZM59.3971 30.04C59.9945 30.04 60.5011 29.9013 60.9171 29.624C61.3438 29.3467 61.6691 28.9787 61.8931 28.52C62.1171 28.0507 62.2291 27.544 62.2291 27C62.2291 26.4453 62.1171 25.9387 61.8931 25.48C61.6691 25.0213 61.3438 24.6533 60.9171 24.376C60.5011 24.0987 59.9945 23.96 59.3971 23.96C58.8105 23.96 58.3091 24.0987 57.8931 24.376C57.4771 24.6533 57.1625 25.0213 56.9491 25.48C56.7358 25.9387 56.6291 26.4453 56.6291 27C56.6291 27.544 56.7358 28.0507 56.9491 28.52C57.1625 28.9787 57.4771 29.3467 57.8931 29.624C58.3091 29.9013 58.8105 30.04 59.3971 30.04ZM65.0088 31V19.8H66.2088V31H65.0088ZM71.762 31.128C70.9513 31.128 70.2473 30.9467 69.65 30.584C69.0527 30.2107 68.594 29.7093 68.274 29.08C67.954 28.4507 67.794 27.7573 67.794 27C67.794 26.232 67.954 25.5387 68.274 24.92C68.594 24.2907 69.0527 23.7947 69.65 23.432C70.2473 23.0587 70.9513 22.872 71.762 22.872C72.5833 22.872 73.2873 23.0587 73.874 23.432C74.4713 23.7947 74.93 24.2907 75.25 24.92C75.57 25.5387 75.73 26.232 75.73 27C75.73 27.7573 75.57 28.4507 75.25 29.08C74.93 29.7093 74.4713 30.2107 73.874 30.584C73.2873 30.9467 72.5833 31.128 71.762 31.128ZM71.762 30.04C72.3593 30.04 72.8607 29.9013 73.266 29.624C73.682 29.3467 73.9967 28.9787 74.21 28.52C74.4233 28.0507 74.53 27.544 74.53 27C74.53 26.4453 74.4233 25.9387 74.21 25.48C73.9967 25.0213 73.682 24.6533 73.266 24.376C72.8607 24.0987 72.3593 23.96 71.762 23.96C71.1753 23.96 70.674 24.0987 70.258 24.376C69.842 24.6533 69.5273 25.0213 69.314 25.48C69.1007 25.9387 68.994 26.4453 68.994 27C68.994 27.544 69.1007 28.0507 69.314 28.52C69.5273 28.9787 69.842 29.3467 70.258 29.624C70.674 29.9013 71.1753 30.04 71.762 30.04ZM77.3213 31V23H78.5213V24.968C78.5639 24.8293 78.6439 24.648 78.7613 24.424C78.8893 24.1893 79.0706 23.9547 79.3053 23.72C79.5399 23.4853 79.8333 23.288 80.1853 23.128C80.5479 22.9573 80.9746 22.872 81.4653 22.872H81.5453V24.072H81.4013C80.8039 24.072 80.2866 24.2373 79.8493 24.568C79.4226 24.888 79.0919 25.3093 78.8573 25.832C78.6333 26.344 78.5213 26.8933 78.5213 27.48V31H77.3213ZM86.1858 31.128C85.3751 31.128 84.6658 30.9467 84.0578 30.584C83.4498 30.2107 82.9751 29.7093 82.6338 29.08C82.3031 28.4507 82.1378 27.7573 82.1378 27C82.1378 26.232 82.2978 25.5387 82.6178 24.92C82.9378 24.2907 83.3964 23.7947 83.9938 23.432C84.5911 23.0587 85.2951 22.872 86.1058 22.872C86.9271 22.872 87.6311 23.0587 88.2178 23.432C88.8151 23.7947 89.2738 24.2907 89.5938 24.92C89.9138 25.5387 90.0738 26.232 90.0738 27V27.48H83.3698C83.4338 27.9493 83.5831 28.3813 83.8178 28.776C84.0631 29.16 84.3884 29.4693 84.7938 29.704C85.1991 29.928 85.6684 30.04 86.2018 30.04C86.7671 30.04 87.2418 29.9173 87.6258 29.672C88.0098 29.416 88.3084 29.0907 88.5218 28.696H89.8338C89.5564 29.4107 89.1138 29.9973 88.5058 30.456C87.9084 30.904 87.1351 31.128 86.1858 31.128ZM83.3858 26.36H88.8258C88.7191 25.6773 88.4311 25.1067 87.9618 24.648C87.4924 24.1893 86.8738 23.96 86.1058 23.96C85.3378 23.96 84.7191 24.1893 84.2498 24.648C83.7911 25.1067 83.5031 25.6773 83.3858 26.36ZM95.2023 31V20.408H96.5943L100.386 25.432L104.114 20.408H105.506V31H104.306V22.232L100.386 27.272L96.4023 22.232V31H95.2023ZM111.309 31.128C110.498 31.128 109.794 30.9467 109.197 30.584C108.6 30.2107 108.141 29.7093 107.821 29.08C107.501 28.4507 107.341 27.7573 107.341 27C107.341 26.232 107.501 25.5387 107.821 24.92C108.141 24.2907 108.6 23.7947 109.197 23.432C109.794 23.0587 110.498 22.872 111.309 22.872C112.13 22.872 112.834 23.0587 113.421 23.432C114.018 23.7947 114.477 24.2907 114.797 24.92C115.117 25.5387 115.277 26.232 115.277 27C115.277 27.7573 115.117 28.4507 114.797 29.08C114.477 29.7093 114.018 30.2107 113.421 30.584C112.834 30.9467 112.13 31.128 111.309 31.128ZM111.309 30.04C111.906 30.04 112.408 29.9013 112.813 29.624C113.229 29.3467 113.544 28.9787 113.757 28.52C113.97 28.0507 114.077 27.544 114.077 27C114.077 26.4453 113.97 25.9387 113.757 25.48C113.544 25.0213 113.229 24.6533 112.813 24.376C112.408 24.0987 111.906 23.96 111.309 23.96C110.722 23.96 110.221 24.0987 109.805 24.376C109.389 24.6533 109.074 25.0213 108.861 25.48C108.648 25.9387 108.541 26.4453 108.541 27C108.541 27.544 108.648 28.0507 108.861 28.52C109.074 28.9787 109.389 29.3467 109.805 29.624C110.221 29.9013 110.722 30.04 111.309 30.04ZM116.868 31V23H118.068V24.968C118.111 24.8293 118.191 24.648 118.308 24.424C118.436 24.1893 118.617 23.9547 118.852 23.72C119.087 23.4853 119.38 23.288 119.732 23.128C120.095 22.9573 120.521 22.872 121.012 22.872H121.092V24.072H120.948C120.351 24.072 119.833 24.2373 119.396 24.568C118.969 24.888 118.639 25.3093 118.404 25.832C118.18 26.344 118.068 26.8933 118.068 27.48V31H116.868ZM125.733 31.128C124.922 31.128 124.213 30.9467 123.605 30.584C122.997 30.2107 122.522 29.7093 122.181 29.08C121.85 28.4507 121.685 27.7573 121.685 27C121.685 26.232 121.845 25.5387 122.165 24.92C122.485 24.2907 122.943 23.7947 123.541 23.432C124.138 23.0587 124.842 22.872 125.653 22.872C126.474 22.872 127.178 23.0587 127.765 23.432C128.362 23.7947 128.821 24.2907 129.141 24.92C129.461 25.5387 129.621 26.232 129.621 27V27.48H122.917C122.981 27.9493 123.13 28.3813 123.365 28.776C123.61 29.16 123.935 29.4693 124.341 29.704C124.746 29.928 125.215 30.04 125.749 30.04C126.314 30.04 126.789 29.9173 127.173 29.672C127.557 29.416 127.855 29.0907 128.069 28.696H129.381C129.103 29.4107 128.661 29.9973 128.053 30.456C127.455 30.904 126.682 31.128 125.733 31.128ZM122.933 26.36H128.373C128.266 25.6773 127.978 25.1067 127.509 24.648C127.039 24.1893 126.421 23.96 125.653 23.96C124.885 23.96 124.266 24.1893 123.797 24.648C123.338 25.1067 123.05 25.6773 122.933 26.36Z" fill="white"/>
<path d="M38.296 31H38.046V31.25H38.296V31ZM38.296 20.408V20.158H38.046V20.408H38.296ZM46.088 20.408H46.338V20.158H46.088V20.408ZM46.088 21.56V21.81H46.338V21.56H46.088ZM39.496 21.56V21.31H39.246V21.56H39.496ZM39.496 25.112H39.246V25.362H39.496V25.112ZM45.384 25.112H45.634V24.862H45.384V25.112ZM45.384 26.28V26.53H45.634V26.28H45.384ZM39.496 26.28V26.03H39.246V26.28H39.496ZM39.496 29.848H39.246V30.098H39.496V29.848ZM46.088 29.848H46.338V29.598H46.088V29.848ZM46.088 31V31.25H46.338V31H46.088ZM38.546 31V20.408H38.046V31H38.546ZM38.296 20.658H46.088V20.158H38.296V20.658ZM45.838 20.408V21.56H46.338V20.408H45.838ZM46.088 21.31H39.496V21.81H46.088V21.31ZM39.246 21.56V25.112H39.746V21.56H39.246ZM39.496 25.362H45.384V24.862H39.496V25.362ZM45.134 25.112V26.28H45.634V25.112H45.134ZM45.384 26.03H39.496V26.53H45.384V26.03ZM39.246 26.28V29.848H39.746V26.28H39.246ZM39.496 30.098H46.088V29.598H39.496V30.098ZM45.838 29.848V31H46.338V29.848H45.838ZM46.088 30.75H38.296V31.25H46.088V30.75ZM46.7984 31L46.5982 30.8502L46.2991 31.25H46.7984V31ZM49.8864 26.872L50.0866 27.0218L50.1986 26.872L50.0866 26.7223L49.8864 26.872ZM46.9904 23V22.75H46.4912L46.7902 23.1497L46.9904 23ZM48.5264 23L48.7329 22.8591L48.6584 22.75H48.5264V23ZM50.5904 26.024L50.3839 26.1649L50.5912 26.4686L50.7974 26.1642L50.5904 26.024ZM52.6384 23V22.75H52.5057L52.4314 22.8598L52.6384 23ZM54.1744 23L54.3746 23.1497L54.6735 22.75H54.1744V23ZM51.2784 26.872L51.0782 26.7223L50.9659 26.8724L51.0786 27.0222L51.2784 26.872ZM54.3824 31V31.25H54.8832L54.5822 30.8498L54.3824 31ZM52.8464 31L52.6407 31.1421L52.7153 31.25H52.8464V31ZM50.5904 27.736L50.796 27.5939L50.5911 27.2974L50.3852 27.5932L50.5904 27.736ZM48.3184 31V31.25H48.449L48.5236 31.1428L48.3184 31ZM46.9986 31.1498L50.0866 27.0218L49.6862 26.7222L46.5982 30.8502L46.9986 31.1498ZM50.0866 26.7223L47.1906 22.8503L46.7902 23.1497L49.6862 27.0217L50.0866 26.7223ZM46.9904 23.25H48.5264V22.75H46.9904V23.25ZM48.3199 23.1409L50.3839 26.1649L50.7969 25.8831L48.7329 22.8591L48.3199 23.1409ZM50.7974 26.1642L52.8454 23.1402L52.4314 22.8598L50.3834 25.8838L50.7974 26.1642ZM52.6384 23.25H54.1744V22.75H52.6384V23.25ZM53.9742 22.8503L51.0782 26.7223L51.4786 27.0217L54.3746 23.1497L53.9742 22.8503ZM51.0786 27.0222L54.1826 31.1502L54.5822 30.8498L51.4782 26.7218L51.0786 27.0222ZM54.3824 30.75H52.8464V31.25H54.3824V30.75ZM53.052 30.8579L50.796 27.5939L50.3847 27.8781L52.6407 31.1421L53.052 30.8579ZM50.3852 27.5932L48.1132 30.8572L48.5236 31.1428L50.7956 27.8788L50.3852 27.5932ZM48.3184 30.75H46.7984V31.25H48.3184V30.75ZM55.4931 34.168H55.2431V34.418H55.4931V34.168ZM55.4931 23V22.75H55.2431V23H55.4931ZM56.6931 23H56.9431V22.75H56.6931V23ZM56.6931 24.28H56.4431V25.0894L56.8996 24.421L56.6931 24.28ZM57.8451 23.256L57.9609 23.4776L57.9628 23.4766L57.8451 23.256ZM61.5891 23.432L61.4531 23.6418L61.4577 23.6446L61.5891 23.432ZM62.9491 24.92L62.7263 25.0333L62.7271 25.0349L62.9491 24.92ZM62.9491 29.08L62.7263 28.9667L62.7263 28.9667L62.9491 29.08ZM61.5891 30.584L61.7223 30.7956L61.7233 30.7949L61.5891 30.584ZM57.8451 30.744L57.7216 30.9614L57.7275 30.9646L57.8451 30.744ZM56.6931 29.704L56.8979 29.5606L56.4431 28.9109V29.704H56.6931ZM56.6931 34.168V34.418H56.9431V34.168H56.6931ZM60.9171 29.624L60.7809 29.4144L60.7785 29.416L60.9171 29.624ZM61.8931 28.52L62.1178 28.6297L62.1187 28.6277L61.8931 28.52ZM61.8931 25.48L62.1178 25.3703L62.1178 25.3703L61.8931 25.48ZM60.9171 24.376L60.7784 24.584L60.7809 24.5856L60.9171 24.376ZM57.8931 24.376L57.7545 24.168L57.7544 24.168L57.8931 24.376ZM56.9491 25.48L56.7224 25.3746L56.7224 25.3746L56.9491 25.48ZM56.9491 28.52L56.7215 28.6235L56.7224 28.6254L56.9491 28.52ZM57.8931 29.624L57.7544 29.832L57.7545 29.832L57.8931 29.624ZM55.7431 34.168V23H55.2431V34.168H55.7431ZM55.4931 23.25H56.6931V22.75H55.4931V23.25ZM56.4431 23V24.28H56.9431V23H56.4431ZM56.8996 24.421C57.1751 24.0175 57.528 23.7039 57.9609 23.4776L57.7293 23.0344C57.2236 23.2988 56.8085 23.6678 56.4867 24.139L56.8996 24.421ZM57.9628 23.4766C58.3995 23.2436 58.9281 23.122 59.5571 23.122V22.622C58.8635 22.622 58.2507 22.7564 57.7275 23.0354L57.9628 23.4766ZM59.5571 23.122C60.2942 23.122 60.9229 23.2981 61.4532 23.6418L61.7251 23.2222C61.1033 22.8192 60.3774 22.622 59.5571 22.622V23.122ZM61.4577 23.6446C62.0044 23.9826 62.4265 24.4438 62.7263 25.0333L63.172 24.8067C62.8317 24.1375 62.3472 23.6067 61.7206 23.2194L61.4577 23.6446ZM62.7271 25.0349C63.0269 25.6145 63.1791 26.2678 63.1791 27H63.6791C63.6791 26.1962 63.5114 25.4628 63.1712 24.8051L62.7271 25.0349ZM63.1791 27C63.1791 27.7209 63.0271 28.375 62.7263 28.9667L63.172 29.1933C63.5111 28.5264 63.6791 27.7938 63.6791 27H63.1791ZM62.7263 28.9667C62.4262 29.5568 62.0032 30.0242 61.4549 30.3731L61.7233 30.7949C62.3484 30.3972 62.832 29.8619 63.172 29.1933L62.7263 28.9667ZM61.4559 30.3724C60.9253 30.7065 60.2956 30.878 59.5571 30.878V31.378C60.376 31.378 61.1009 31.1868 61.7223 30.7956L61.4559 30.3724ZM59.5571 30.878C58.9281 30.878 58.3995 30.7564 57.9628 30.5234L57.7275 30.9646C58.2507 31.2436 58.8635 31.378 59.5571 31.378V30.878ZM57.9686 30.5266C57.5303 30.2776 57.1745 29.9558 56.8979 29.5606L56.4883 29.8474C56.809 30.3055 57.2212 30.6771 57.7216 30.9614L57.9686 30.5266ZM56.4431 29.704V34.168H56.9431V29.704H56.4431ZM56.6931 33.918H55.4931V34.418H56.6931V33.918ZM59.3971 30.29C60.034 30.29 60.5913 30.1417 61.0558 29.832L60.7785 29.416C60.411 29.661 59.9549 29.79 59.3971 29.79V30.29ZM61.0534 29.8336C61.5181 29.5315 61.874 29.1289 62.1178 28.6297L61.6685 28.4103C61.4643 28.8284 61.1695 29.1618 60.7809 29.4144L61.0534 29.8336ZM62.1187 28.6277C62.3595 28.1232 62.4791 27.5795 62.4791 27H61.9791C61.9791 27.5085 61.8747 27.9782 61.6675 28.4123L62.1187 28.6277ZM62.4791 27C62.4791 26.4107 62.3599 25.866 62.1178 25.3703L61.6685 25.5897C61.8744 26.0113 61.9791 26.48 61.9791 27H62.4791ZM62.1178 25.3703C61.874 24.8711 61.5181 24.4685 61.0534 24.1664L60.7809 24.5856C61.1695 24.8382 61.4643 25.1716 61.6685 25.5897L62.1178 25.3703ZM61.0558 24.168C60.5913 23.8583 60.034 23.71 59.3971 23.71V24.21C59.9549 24.21 60.411 24.339 60.7785 24.584L61.0558 24.168ZM59.3971 23.71C58.7698 23.71 58.2182 23.8588 57.7545 24.168L58.0318 24.584C58.4 24.3385 58.8511 24.21 59.3971 24.21V23.71ZM57.7544 24.168C57.2998 24.4711 56.9549 24.8748 56.7224 25.3746L57.1758 25.5854C57.37 25.1679 57.6545 24.8356 58.0318 24.584L57.7544 24.168ZM56.7224 25.3746C56.4923 25.8693 56.3791 26.4125 56.3791 27H56.8791C56.8791 26.4782 56.9793 26.008 57.1758 25.5854L56.7224 25.3746ZM56.3791 27C56.3791 27.5777 56.4926 28.1198 56.7215 28.6235L57.1767 28.4165C56.979 27.9815 56.8791 27.5103 56.8791 27H56.3791ZM56.7224 28.6254C56.9549 29.1252 57.2998 29.5289 57.7544 29.832L58.0318 29.416C57.6545 29.1644 57.37 28.8321 57.1758 28.4146L56.7224 28.6254ZM57.7545 29.832C58.2182 30.1412 58.7698 30.29 59.3971 30.29V29.79C58.8511 29.79 58.4 29.6615 58.0318 29.416L57.7545 29.832ZM65.0088 31H64.7588V31.25H65.0088V31ZM65.0088 19.8V19.55H64.7588V19.8H65.0088ZM66.2088 19.8H66.4588V19.55H66.2088V19.8ZM66.2088 31V31.25H66.4588V31H66.2088ZM65.2588 31V19.8H64.7588V31H65.2588ZM65.0088 20.05H66.2088V19.55H65.0088V20.05ZM65.9588 19.8V31H66.4588V19.8H65.9588ZM66.2088 30.75H65.0088V31.25H66.2088V30.75ZM69.65 30.584L69.5175 30.796L69.5203 30.7977L69.65 30.584ZM68.274 24.92L68.4961 25.0349L68.4968 25.0333L68.274 24.92ZM69.65 23.432L69.7798 23.6457L69.7825 23.644L69.65 23.432ZM73.874 23.432L73.7398 23.643L73.7443 23.6457L73.874 23.432ZM75.25 24.92L75.0271 25.0333L75.0279 25.0349L75.25 24.92ZM75.25 29.08L75.0272 28.9667L75.0272 28.9667L75.25 29.08ZM73.874 30.584L74.0055 30.7967L74.0065 30.796L73.874 30.584ZM73.266 29.624L73.1273 29.416L73.1248 29.4177L73.266 29.624ZM74.21 28.52L74.4367 28.6254L74.4376 28.6235L74.21 28.52ZM74.21 25.48L74.4367 25.3746L74.4367 25.3746L74.21 25.48ZM73.266 24.376L73.1248 24.5823L73.1273 24.584L73.266 24.376ZM70.258 24.376L70.1193 24.168L70.1193 24.168L70.258 24.376ZM69.314 25.48L69.0873 25.3746L69.0873 25.3746L69.314 25.48ZM69.314 28.52L69.0864 28.6235L69.0873 28.6254L69.314 28.52ZM71.762 30.878C70.9896 30.878 70.3321 30.7056 69.7797 30.3703L69.5203 30.7977C70.1626 31.1877 70.913 31.378 71.762 31.378V30.878ZM69.7825 30.372C69.2238 30.0228 68.7963 29.5556 68.4968 28.9667L68.0512 29.1933C68.3917 29.863 68.8816 30.3985 69.5175 30.796L69.7825 30.372ZM68.4968 28.9667C68.196 28.375 68.044 27.7209 68.044 27H67.544C67.544 27.7938 67.712 28.5264 68.0512 29.1933L68.4968 28.9667ZM68.044 27C68.044 26.2678 68.1962 25.6145 68.4961 25.0349L68.0519 24.8051C67.7118 25.4628 67.544 26.1962 67.544 27H68.044ZM68.4968 25.0333C68.796 24.445 69.2226 23.984 69.7797 23.6457L69.5203 23.2183C68.8827 23.6054 68.392 24.1363 68.0512 24.8067L68.4968 25.0333ZM69.7825 23.644C70.3344 23.2991 70.991 23.122 71.762 23.122V22.622C70.9117 22.622 70.1603 22.8183 69.5175 23.22L69.7825 23.644ZM71.762 23.122C72.5445 23.122 73.2 23.2994 73.7398 23.6429L74.0082 23.2211C73.3747 22.8179 72.6221 22.622 71.762 22.622V23.122ZM73.7443 23.6457C74.3014 23.984 74.728 24.445 75.0272 25.0333L75.4728 24.8067C75.132 24.1363 74.6413 23.6054 74.0037 23.2183L73.7443 23.6457ZM75.0279 25.0349C75.3278 25.6145 75.48 26.2678 75.48 27H75.98C75.98 26.1962 75.8122 25.4628 75.4721 24.8051L75.0279 25.0349ZM75.48 27C75.48 27.7209 75.328 28.375 75.0272 28.9667L75.4728 29.1933C75.812 28.5264 75.98 27.7938 75.98 27H75.48ZM75.0272 28.9667C74.7277 29.5556 74.3002 30.0228 73.7415 30.372L74.0065 30.796C74.6424 30.3985 75.1323 29.863 75.4728 29.1933L75.0272 28.9667ZM73.7425 30.3714C73.2024 30.7053 72.5458 30.878 71.762 30.878V31.378C72.6208 31.378 73.3723 31.188 74.0055 30.7966L73.7425 30.3714ZM71.762 30.29C72.3987 30.29 72.952 30.1418 73.4072 29.8303L73.1248 29.4177C72.7693 29.6609 72.32 29.79 71.762 29.79V30.29ZM73.4047 29.832C73.8593 29.5289 74.2042 29.1252 74.4367 28.6254L73.9833 28.4146C73.7891 28.8321 73.5047 29.1644 73.1273 29.416L73.4047 29.832ZM74.4376 28.6235C74.6665 28.1198 74.78 27.5777 74.78 27H74.28C74.28 27.5103 74.1802 27.9815 73.9824 28.4165L74.4376 28.6235ZM74.78 27C74.78 26.4125 74.6668 25.8693 74.4367 25.3746L73.9833 25.5854C74.1799 26.008 74.28 26.4782 74.28 27H74.78ZM74.4367 25.3746C74.2042 24.8748 73.8593 24.4711 73.4047 24.168L73.1273 24.584C73.5047 24.8356 73.7891 25.1679 73.9833 25.5854L74.4367 25.3746ZM73.4072 24.1697C72.952 23.8582 72.3987 23.71 71.762 23.71V24.21C72.32 24.21 72.7693 24.3391 73.1248 24.5823L73.4072 24.1697ZM71.762 23.71C71.1347 23.71 70.5831 23.8588 70.1193 24.168L70.3967 24.584C70.7649 24.3385 71.2159 24.21 71.762 24.21V23.71ZM70.1193 24.168C69.6647 24.4711 69.3198 24.8748 69.0873 25.3746L69.5407 25.5854C69.7349 25.1679 70.0193 24.8356 70.3967 24.584L70.1193 24.168ZM69.0873 25.3746C68.8572 25.8693 68.744 26.4125 68.744 27H69.244C69.244 26.4782 69.3441 26.008 69.5407 25.5854L69.0873 25.3746ZM68.744 27C68.744 27.5777 68.8575 28.1198 69.0864 28.6235L69.5416 28.4165C69.3438 27.9815 69.244 27.5103 69.244 27H68.744ZM69.0873 28.6254C69.3198 29.1252 69.6647 29.5289 70.1193 29.832L70.3967 29.416C70.0193 29.1644 69.7349 28.8321 69.5407 28.4146L69.0873 28.6254ZM70.1193 29.832C70.5831 30.1412 71.1347 30.29 71.762 30.29V29.79C71.2159 29.79 70.7649 29.6615 70.3967 29.416L70.1193 29.832ZM77.3213 31H77.0713V31.25H77.3213V31ZM77.3213 23V22.75H77.0713V23H77.3213ZM78.5213 23H78.7713V22.75H78.5213V23ZM78.5213 24.968H78.2713L78.7602 25.0415L78.5213 24.968ZM78.7613 24.424L78.5417 24.3043L78.5398 24.308L78.7613 24.424ZM79.3053 23.72L79.482 23.8968L79.482 23.8968L79.3053 23.72ZM80.1853 23.128L80.2887 23.3556L80.2917 23.3542L80.1853 23.128ZM81.5453 22.872H81.7953V22.622H81.5453V22.872ZM81.5453 24.072V24.322H81.7953V24.072H81.5453ZM79.8493 24.568L79.9993 24.768L80 24.7674L79.8493 24.568ZM78.8573 25.832L78.6292 25.7296L78.6282 25.7318L78.8573 25.832ZM78.5213 31V31.25H78.7713V31H78.5213ZM77.5713 31V23H77.0713V31H77.5713ZM77.3213 23.25H78.5213V22.75H77.3213V23.25ZM78.2713 23V24.968H78.7713V23H78.2713ZM78.7602 25.0415C78.7962 24.9244 78.8681 24.7588 78.9827 24.54L78.5398 24.308C78.4197 24.5372 78.3316 24.7342 78.2823 24.8945L78.7602 25.0415ZM78.9807 24.5437C79.0949 24.3343 79.2604 24.1185 79.482 23.8968L79.1285 23.5432C78.8808 23.7909 78.6836 24.0443 78.5418 24.3043L78.9807 24.5437ZM79.482 23.8968C79.6923 23.6865 79.9596 23.5052 80.2887 23.3556L80.0818 22.9004C79.7069 23.0708 79.3875 23.2842 79.1285 23.5432L79.482 23.8968ZM80.2917 23.3542C80.6145 23.2023 81.0033 23.122 81.4653 23.122V22.622C80.9459 22.622 80.4814 22.7123 80.0788 22.9018L80.2917 23.3542ZM81.4653 23.122H81.5453V22.622H81.4653V23.122ZM81.2953 22.872V24.072H81.7953V22.872H81.2953ZM81.5453 23.822H81.4013V24.322H81.5453V23.822ZM81.4013 23.822C80.7547 23.822 80.1832 24.0021 79.6985 24.3686L80 24.7674C80.39 24.4726 80.8532 24.322 81.4013 24.322V23.822ZM79.6993 24.368C79.2362 24.7153 78.8799 25.1713 78.6292 25.7296L79.0853 25.9344C79.304 25.4474 79.6089 25.0607 79.9993 24.768L79.6993 24.368ZM78.6282 25.7318C78.3897 26.277 78.2713 26.8606 78.2713 27.48H78.7713C78.7713 26.9261 78.8768 26.411 79.0863 25.9322L78.6282 25.7318ZM78.2713 27.48V31H78.7713V27.48H78.2713ZM78.5213 30.75H77.3213V31.25H78.5213V30.75ZM84.0578 30.584L83.9269 30.7971L83.9297 30.7987L84.0578 30.584ZM82.6338 29.08L82.4124 29.1963L82.414 29.1992L82.6338 29.08ZM82.6178 24.92L82.8398 25.0349L82.8406 25.0333L82.6178 24.92ZM83.9938 23.432L84.1235 23.6457L84.1262 23.644L83.9938 23.432ZM88.2178 23.432L88.0835 23.643L88.088 23.6457L88.2178 23.432ZM89.5938 24.92L89.3709 25.0333L89.3717 25.0349L89.5938 24.92ZM90.0738 27.48V27.73H90.3238V27.48H90.0738ZM83.3698 27.48V27.23H83.0833L83.122 27.5138L83.3698 27.48ZM83.8178 28.776L83.6028 28.9038L83.6071 28.9106L83.8178 28.776ZM84.7938 29.704L84.6685 29.9204L84.6728 29.9228L84.7938 29.704ZM87.6258 29.672L87.7604 29.8827L87.7644 29.88L87.6258 29.672ZM88.5218 28.696V28.446H88.3727L88.3018 28.5771L88.5218 28.696ZM89.8338 28.696L90.0668 28.7864L90.1989 28.446H89.8338V28.696ZM88.5058 30.456L88.6558 30.656L88.6563 30.6556L88.5058 30.456ZM83.3858 26.36L83.1394 26.3177L83.0891 26.61H83.3858V26.36ZM88.8258 26.36V26.61H89.1178L89.0728 26.3214L88.8258 26.36ZM87.9618 24.648L88.1365 24.4692L88.1365 24.4692L87.9618 24.648ZM84.2498 24.648L84.075 24.4692L84.073 24.4712L84.2498 24.648ZM86.1858 30.878C85.4135 30.878 84.7497 30.7057 84.1858 30.3693L83.9297 30.7987C84.5818 31.1877 85.3367 31.378 86.1858 31.378V30.878ZM84.1886 30.371C83.6181 30.0207 83.174 29.5517 82.8535 28.9608L82.414 29.1992C82.7762 29.8669 83.2814 30.4007 83.9269 30.797L84.1886 30.371ZM82.8551 28.9637C82.5445 28.3726 82.3878 27.7195 82.3878 27H81.8878C81.8878 27.7951 82.0617 28.5288 82.4124 29.1963L82.8551 28.9637ZM82.3878 27C82.3878 26.2678 82.54 25.6145 82.8398 25.0349L82.3957 24.8051C82.0555 25.4628 81.8878 26.1962 81.8878 27H82.3878ZM82.8406 25.0333C83.1397 24.445 83.5664 23.984 84.1235 23.6457L83.864 23.2183C83.2265 23.6054 82.7358 24.1363 82.3949 24.8067L82.8406 25.0333ZM84.1262 23.644C84.6781 23.2991 85.3347 23.122 86.1058 23.122V22.622C85.2554 22.622 84.504 22.8183 83.8613 23.22L84.1262 23.644ZM86.1058 23.122C86.8883 23.122 87.5438 23.2994 88.0835 23.6429L88.352 23.2211C87.7184 22.8179 86.9659 22.622 86.1058 22.622V23.122ZM88.088 23.6457C88.6451 23.984 89.0718 24.445 89.3709 25.0333L89.8166 24.8067C89.4757 24.1363 88.985 23.6054 88.3475 23.2183L88.088 23.6457ZM89.3717 25.0349C89.6715 25.6145 89.8238 26.2678 89.8238 27H90.3238C90.3238 26.1962 90.156 25.4628 89.8158 24.8051L89.3717 25.0349ZM89.8238 27V27.48H90.3238V27H89.8238ZM90.0738 27.23H83.3698V27.73H90.0738V27.23ZM83.122 27.5138C83.1904 28.0153 83.3505 28.4794 83.6029 28.9038L84.0326 28.6482C83.8156 28.2833 83.6771 27.8834 83.6175 27.4462L83.122 27.5138ZM83.6071 28.9106C83.8745 29.3292 84.2296 29.6662 84.6685 29.9204L84.919 29.4876C84.5473 29.2724 84.2516 28.9908 84.0284 28.6414L83.6071 28.9106ZM84.6728 29.9228C85.1205 30.1702 85.6326 30.29 86.2018 30.29V29.79C85.7042 29.79 85.2777 29.6858 84.9147 29.4852L84.6728 29.9228ZM86.2018 30.29C86.8033 30.29 87.3275 30.1592 87.7603 29.8827L87.4912 29.4613C87.156 29.6754 86.7309 29.79 86.2018 29.79V30.29ZM87.7644 29.88C88.1814 29.6021 88.5084 29.2465 88.7417 28.8149L88.3018 28.5771C88.1085 28.9348 87.8381 29.2299 87.4871 29.464L87.7644 29.88ZM88.5218 28.946H89.8338V28.446H88.5218V28.946ZM89.6007 28.6056C89.3401 29.2772 88.9258 29.8259 88.3552 30.2564L88.6563 30.6556C89.3017 30.1687 89.7728 29.5442 90.0668 28.7864L89.6007 28.6056ZM88.3558 30.256C87.8122 30.6637 87.0958 30.878 86.1858 30.878V31.378C87.1744 31.378 88.0046 31.1443 88.6558 30.656L88.3558 30.256ZM83.3858 26.61H88.8258V26.11H83.3858V26.61ZM89.0728 26.3214C88.9582 25.5884 88.6465 24.9677 88.1365 24.4692L87.787 24.8268C88.2156 25.2457 88.4799 25.7662 88.5787 26.3986L89.0728 26.3214ZM88.1365 24.4692C87.6125 23.9572 86.9271 23.71 86.1058 23.71V24.21C86.8204 24.21 87.3723 24.4215 87.787 24.8268L88.1365 24.4692ZM86.1058 23.71C85.2844 23.71 84.599 23.9572 84.075 24.4692L84.4245 24.8268C84.8392 24.4215 85.3911 24.21 86.1058 24.21V23.71ZM84.073 24.4712C83.5752 24.969 83.2648 25.5877 83.1394 26.3177L83.6321 26.4023C83.7413 25.767 84.0069 25.2444 84.4265 24.8248L84.073 24.4712ZM95.2023 31H94.9523V31.25H95.2023V31ZM95.2023 20.408V20.158H94.9523V20.408H95.2023ZM96.5943 20.408L96.7938 20.2574L96.7188 20.158H96.5943V20.408ZM100.386 25.432L100.187 25.5826L100.388 25.8492L100.587 25.581L100.386 25.432ZM104.114 20.408V20.158H103.988L103.913 20.259L104.114 20.408ZM105.506 20.408H105.756V20.158H105.506V20.408ZM105.506 31V31.25H105.756V31H105.506ZM104.306 31H104.056V31.25H104.306V31ZM104.306 22.232H104.556V21.5034L104.109 22.0785L104.306 22.232ZM100.386 27.272L100.19 27.427L100.388 27.6772L100.584 27.4255L100.386 27.272ZM96.4023 22.232L96.5984 22.077L96.1523 21.5126V22.232H96.4023ZM96.4023 31V31.25H96.6523V31H96.4023ZM95.4523 31V20.408H94.9523V31H95.4523ZM95.2023 20.658H96.5943V20.158H95.2023V20.658ZM96.3947 20.5586L100.187 25.5826L100.586 25.2814L96.7938 20.2574L96.3947 20.5586ZM100.587 25.581L104.315 20.557L103.913 20.259L100.185 25.283L100.587 25.581ZM104.114 20.658H105.506V20.158H104.114V20.658ZM105.256 20.408V31H105.756V20.408H105.256ZM105.506 30.75H104.306V31.25H105.506V30.75ZM104.556 31V22.232H104.056V31H104.556ZM104.109 22.0785L100.189 27.1185L100.584 27.4255L104.504 22.3855L104.109 22.0785ZM100.582 27.117L96.5984 22.077L96.2061 22.387L100.19 27.427L100.582 27.117ZM96.1523 22.232V31H96.6523V22.232H96.1523ZM96.4023 30.75H95.2023V31.25H96.4023V30.75ZM109.197 30.584L109.064 30.796L109.067 30.7977L109.197 30.584ZM107.821 24.92L108.043 25.0349L108.044 25.0333L107.821 24.92ZM109.197 23.432L109.327 23.6457L109.329 23.644L109.197 23.432ZM113.421 23.432L113.287 23.643L113.291 23.6457L113.421 23.432ZM114.797 24.92L114.574 25.0333L114.575 25.0349L114.797 24.92ZM114.797 29.08L114.574 28.9667L114.574 28.9667L114.797 29.08ZM113.421 30.584L113.552 30.7967L113.553 30.796L113.421 30.584ZM112.813 29.624L112.674 29.416L112.672 29.4177L112.813 29.624ZM113.757 28.52L113.984 28.6254L113.984 28.6235L113.757 28.52ZM113.757 25.48L113.984 25.3746L113.984 25.3746L113.757 25.48ZM112.813 24.376L112.672 24.5823L112.674 24.584L112.813 24.376ZM109.805 24.376L109.666 24.168L109.666 24.168L109.805 24.376ZM108.861 25.48L108.634 25.3746L108.634 25.3746L108.861 25.48ZM108.861 28.52L108.633 28.6235L108.634 28.6254L108.861 28.52ZM111.309 30.878C110.537 30.878 109.879 30.7056 109.327 30.3703L109.067 30.7977C109.709 31.1877 110.46 31.378 111.309 31.378V30.878ZM109.329 30.372C108.771 30.0228 108.343 29.5556 108.044 28.9667L107.598 29.1933C107.939 29.863 108.428 30.3985 109.064 30.796L109.329 30.372ZM108.044 28.9667C107.743 28.375 107.591 27.7209 107.591 27H107.091C107.091 27.7938 107.259 28.5264 107.598 29.1933L108.044 28.9667ZM107.591 27C107.591 26.2678 107.743 25.6145 108.043 25.0349L107.599 24.8051C107.259 25.4628 107.091 26.1962 107.091 27H107.591ZM108.044 25.0333C108.343 24.445 108.769 23.984 109.327 23.6457L109.067 23.2183C108.43 23.6054 107.939 24.1363 107.598 24.8067L108.044 25.0333ZM109.329 23.644C109.881 23.2991 110.538 23.122 111.309 23.122V22.622C110.459 22.622 109.707 22.8183 109.064 23.22L109.329 23.644ZM111.309 23.122C112.091 23.122 112.747 23.2994 113.287 23.6429L113.555 23.2211C112.922 22.8179 112.169 22.622 111.309 22.622V23.122ZM113.291 23.6457C113.848 23.984 114.275 24.445 114.574 25.0333L115.02 24.8067C114.679 24.1363 114.188 23.6054 113.551 23.2183L113.291 23.6457ZM114.575 25.0349C114.875 25.6145 115.027 26.2678 115.027 27H115.527C115.527 26.1962 115.359 25.4628 115.019 24.8051L114.575 25.0349ZM115.027 27C115.027 27.7209 114.875 28.375 114.574 28.9667L115.02 29.1933C115.359 28.5264 115.527 27.7938 115.527 27H115.027ZM114.574 28.9667C114.275 29.5556 113.847 30.0228 113.288 30.372L113.553 30.796C114.189 30.3985 114.679 29.863 115.02 29.1933L114.574 28.9667ZM113.289 30.3714C112.749 30.7053 112.093 30.878 111.309 30.878V31.378C112.168 31.378 112.919 31.188 113.552 30.7966L113.289 30.3714ZM111.309 30.29C111.946 30.29 112.499 30.1418 112.954 29.8303L112.672 29.4177C112.316 29.6609 111.867 29.79 111.309 29.79V30.29ZM112.952 29.832C113.406 29.5289 113.751 29.1252 113.984 28.6254L113.53 28.4146C113.336 28.8321 113.052 29.1644 112.674 29.416L112.952 29.832ZM113.984 28.6235C114.213 28.1198 114.327 27.5777 114.327 27H113.827C113.827 27.5103 113.727 27.9815 113.529 28.4165L113.984 28.6235ZM114.327 27C114.327 26.4125 114.214 25.8693 113.984 25.3746L113.53 25.5854C113.727 26.008 113.827 26.4782 113.827 27H114.327ZM113.984 25.3746C113.751 24.8748 113.406 24.4711 112.952 24.168L112.674 24.584C113.052 24.8356 113.336 25.1679 113.53 25.5854L113.984 25.3746ZM112.954 24.1697C112.499 23.8582 111.946 23.71 111.309 23.71V24.21C111.867 24.21 112.316 24.3391 112.672 24.5823L112.954 24.1697ZM111.309 23.71C110.682 23.71 110.13 23.8588 109.666 24.168L109.944 24.584C110.312 24.3385 110.763 24.21 111.309 24.21V23.71ZM109.666 24.168C109.212 24.4711 108.867 24.8748 108.634 25.3746L109.088 25.5854C109.282 25.1679 109.566 24.8356 109.944 24.584L109.666 24.168ZM108.634 25.3746C108.404 25.8693 108.291 26.4125 108.291 27H108.791C108.791 26.4782 108.891 26.008 109.088 25.5854L108.634 25.3746ZM108.291 27C108.291 27.5777 108.404 28.1198 108.633 28.6235L109.088 28.4165C108.891 27.9815 108.791 27.5103 108.791 27H108.291ZM108.634 28.6254C108.867 29.1252 109.212 29.5289 109.666 29.832L109.944 29.416C109.566 29.1644 109.282 28.8321 109.088 28.4146L108.634 28.6254ZM109.666 29.832C110.13 30.1412 110.682 30.29 111.309 30.29V29.79C110.763 29.79 110.312 29.6615 109.944 29.416L109.666 29.832ZM116.868 31H116.618V31.25H116.868V31ZM116.868 23V22.75H116.618V23H116.868ZM118.068 23H118.318V22.75H118.068V23ZM118.068 24.968H117.818L118.307 25.0415L118.068 24.968ZM118.308 24.424L118.089 24.3043L118.087 24.308L118.308 24.424ZM118.852 23.72L119.029 23.8968L119.029 23.8968L118.852 23.72ZM119.732 23.128L119.836 23.3556L119.839 23.3542L119.732 23.128ZM121.092 22.872H121.342V22.622H121.092V22.872ZM121.092 24.072V24.322H121.342V24.072H121.092ZM119.396 24.568L119.546 24.768L119.547 24.7674L119.396 24.568ZM118.404 25.832L118.176 25.7296L118.175 25.7318L118.404 25.832ZM118.068 31V31.25H118.318V31H118.068ZM117.118 31V23H116.618V31H117.118ZM116.868 23.25H118.068V22.75H116.868V23.25ZM117.818 23V24.968H118.318V23H117.818ZM118.307 25.0415C118.343 24.9244 118.415 24.7588 118.53 24.54L118.087 24.308C117.967 24.5372 117.878 24.7342 117.829 24.8945L118.307 25.0415ZM118.528 24.5437C118.642 24.3343 118.807 24.1185 119.029 23.8968L118.675 23.5432C118.428 23.7909 118.23 24.0443 118.089 24.3043L118.528 24.5437ZM119.029 23.8968C119.239 23.6865 119.506 23.5052 119.836 23.3556L119.629 22.9004C119.254 23.0708 118.934 23.2842 118.675 23.5432L119.029 23.8968ZM119.839 23.3542C120.161 23.2023 120.55 23.122 121.012 23.122V22.622C120.493 22.622 120.028 22.7123 119.626 22.9018L119.839 23.3542ZM121.012 23.122H121.092V22.622H121.012V23.122ZM120.842 22.872V24.072H121.342V22.872H120.842ZM121.092 23.822H120.948V24.322H121.092V23.822ZM120.948 23.822C120.302 23.822 119.73 24.0021 119.245 24.3686L119.547 24.7674C119.937 24.4726 120.4 24.322 120.948 24.322V23.822ZM119.246 24.368C118.783 24.7153 118.427 25.1713 118.176 25.7296L118.632 25.9344C118.851 25.4474 119.156 25.0607 119.546 24.768L119.246 24.368ZM118.175 25.7318C117.937 26.277 117.818 26.8606 117.818 27.48H118.318C118.318 26.9261 118.424 26.411 118.633 25.9322L118.175 25.7318ZM117.818 27.48V31H118.318V27.48H117.818ZM118.068 30.75H116.868V31.25H118.068V30.75ZM123.605 30.584L123.474 30.7971L123.477 30.7987L123.605 30.584ZM122.181 29.08L121.959 29.1963L121.961 29.1992L122.181 29.08ZM122.165 24.92L122.387 25.0349L122.387 25.0333L122.165 24.92ZM123.541 23.432L123.67 23.6457L123.673 23.644L123.541 23.432ZM127.765 23.432L127.63 23.643L127.635 23.6457L127.765 23.432ZM129.141 24.92L128.918 25.0333L128.919 25.0349L129.141 24.92ZM129.621 27.48V27.73H129.871V27.48H129.621ZM122.917 27.48V27.23H122.63L122.669 27.5138L122.917 27.48ZM123.365 28.776L123.15 28.9038L123.154 28.9106L123.365 28.776ZM124.341 29.704L124.215 29.9204L124.22 29.9228L124.341 29.704ZM127.173 29.672L127.307 29.8827L127.311 29.88L127.173 29.672ZM128.069 28.696V28.446H127.92L127.849 28.5771L128.069 28.696ZM129.381 28.696L129.614 28.7864L129.746 28.446H129.381V28.696ZM128.053 30.456L128.203 30.656L128.203 30.6556L128.053 30.456ZM122.933 26.36L122.686 26.3177L122.636 26.61H122.933V26.36ZM128.373 26.36V26.61H128.665L128.62 26.3214L128.373 26.36ZM127.509 24.648L127.683 24.4692L127.683 24.4692L127.509 24.648ZM123.797 24.648L123.622 24.4692L123.62 24.4712L123.797 24.648ZM125.733 30.878C124.96 30.878 124.297 30.7057 123.733 30.3693L123.477 30.7987C124.129 31.1877 124.884 31.378 125.733 31.378V30.878ZM123.735 30.371C123.165 30.0207 122.721 29.5517 122.4 28.9608L121.961 29.1992C122.323 29.8669 122.828 30.4007 123.474 30.797L123.735 30.371ZM122.402 28.9637C122.091 28.3726 121.935 27.7195 121.935 27H121.435C121.435 27.7951 121.609 28.5288 121.959 29.1963L122.402 28.9637ZM121.935 27C121.935 26.2678 122.087 25.6145 122.387 25.0349L121.943 24.8051C121.602 25.4628 121.435 26.1962 121.435 27H121.935ZM122.387 25.0333C122.687 24.445 123.113 23.984 123.67 23.6457L123.411 23.2183C122.773 23.6054 122.283 24.1363 121.942 24.8067L122.387 25.0333ZM123.673 23.644C124.225 23.2991 124.882 23.122 125.653 23.122V22.622C124.802 22.622 124.051 22.8183 123.408 23.22L123.673 23.644ZM125.653 23.122C126.435 23.122 127.091 23.2994 127.63 23.6429L127.899 23.2211C127.265 22.8179 126.513 22.622 125.653 22.622V23.122ZM127.635 23.6457C128.192 23.984 128.619 24.445 128.918 25.0333L129.363 24.8067C129.023 24.1363 128.532 23.6054 127.894 23.2183L127.635 23.6457ZM128.919 25.0349C129.218 25.6145 129.371 26.2678 129.371 27H129.871C129.871 26.1962 129.703 25.4628 129.363 24.8051L128.919 25.0349ZM129.371 27V27.48H129.871V27H129.371ZM129.621 27.23H122.917V27.73H129.621V27.23ZM122.669 27.5138C122.737 28.0153 122.897 28.4794 123.15 28.9038L123.58 28.6482C123.363 28.2833 123.224 27.8834 123.164 27.4462L122.669 27.5138ZM123.154 28.9106C123.421 29.3292 123.776 29.6662 124.215 29.9204L124.466 29.4876C124.094 29.2724 123.798 28.9908 123.575 28.6414L123.154 28.9106ZM124.22 29.9228C124.667 30.1702 125.179 30.29 125.749 30.29V29.79C125.251 29.79 124.825 29.6858 124.462 29.4852L124.22 29.9228ZM125.749 30.29C126.35 30.29 126.874 30.1592 127.307 29.8827L127.038 29.4613C126.703 29.6754 126.278 29.79 125.749 29.79V30.29ZM127.311 29.88C127.728 29.6021 128.055 29.2465 128.289 28.8149L127.849 28.5771C127.655 28.9348 127.385 29.2299 127.034 29.464L127.311 29.88ZM128.069 28.946H129.381V28.446H128.069V28.946ZM129.148 28.6056C128.887 29.2772 128.473 29.8259 127.902 30.2564L128.203 30.6556C128.849 30.1687 129.32 29.5442 129.614 28.7864L129.148 28.6056ZM127.903 30.256C127.359 30.6637 126.643 30.878 125.733 30.878V31.378C126.721 31.378 127.551 31.1443 128.203 30.656L127.903 30.256ZM122.933 26.61H128.373V26.11H122.933V26.61ZM128.62 26.3214C128.505 25.5884 128.193 24.9677 127.683 24.4692L127.334 24.8268C127.763 25.2457 128.027 25.7662 128.126 26.3986L128.62 26.3214ZM127.683 24.4692C127.159 23.9572 126.474 23.71 125.653 23.71V24.21C126.367 24.21 126.919 24.4215 127.334 24.8268L127.683 24.4692ZM125.653 23.71C124.831 23.71 124.146 23.9572 123.622 24.4692L123.971 24.8268C124.386 24.4215 124.938 24.21 125.653 24.21V23.71ZM123.62 24.4712C123.122 24.969 122.812 25.5877 122.686 26.3177L123.179 26.4023C123.288 25.767 123.554 25.2444 123.973 24.8248L123.62 24.4712Z" fill="white"/>
<rect x="0.5" y="0.5" width="167" height="47" stroke="white"/>
</svg>
