<svg width="192" height="48" viewBox="0 0 192 48" fill="none" xmlns="http://www.w3.org/2000/svg">
<rect x="0.5" y="0.5" width="191" height="47" stroke="white"/>
<path d="M73.296 28.6943V18.1023H81.088V19.2543H74.496V22.8063H80.384V23.9743H74.496V27.5423H81.088V28.6943H73.296ZM84.6848 28.6943L81.5488 20.6943H82.8608L85.3888 27.4143L87.9008 20.6943H89.2128L86.0928 28.6943H84.6848ZM93.7326 28.8223C92.922 28.8223 92.2126 28.641 91.6046 28.2783C90.9966 27.905 90.522 27.4037 90.1806 26.7743C89.85 26.145 89.6846 25.4517 89.6846 24.6943C89.6846 23.9263 89.8446 23.233 90.1646 22.6143C90.4846 21.985 90.9433 21.489 91.5406 21.1263C92.138 20.753 92.842 20.5663 93.6526 20.5663C94.474 20.5663 95.178 20.753 95.7646 21.1263C96.362 21.489 96.8206 21.985 97.1406 22.6143C97.4606 23.233 97.6206 23.9263 97.6206 24.6943V25.1743H90.9166C90.9806 25.6437 91.13 26.0757 91.3646 26.4703C91.61 26.8543 91.9353 27.1637 92.3406 27.3983C92.746 27.6223 93.2153 27.7343 93.7486 27.7343C94.314 27.7343 94.7886 27.6117 95.1726 27.3663C95.5566 27.1103 95.8553 26.785 96.0686 26.3903H97.3806C97.1033 27.105 96.6606 27.6917 96.0526 28.1503C95.4553 28.5983 94.682 28.8223 93.7326 28.8223ZM90.9326 24.0543H96.3726C96.266 23.3717 95.978 22.801 95.5086 22.3423C95.0393 21.8837 94.4206 21.6543 93.6526 21.6543C92.8846 21.6543 92.266 21.8837 91.7966 22.3423C91.338 22.801 91.05 23.3717 90.9326 24.0543ZM99.0869 28.6943V20.6943H100.287V21.9423C100.575 21.5583 100.927 21.233 101.343 20.9663C101.759 20.6997 102.292 20.5663 102.943 20.5663C103.498 20.5663 104.015 20.6997 104.495 20.9663C104.986 21.2223 105.38 21.6117 105.679 22.1343C105.988 22.6463 106.143 23.281 106.143 24.0383V28.6943H104.943V24.0703C104.943 23.345 104.735 22.7637 104.319 22.3263C103.903 21.8783 103.364 21.6543 102.703 21.6543C102.255 21.6543 101.85 21.7557 101.487 21.9583C101.124 22.161 100.831 22.449 100.607 22.8223C100.394 23.185 100.287 23.6063 100.287 24.0863V28.6943H99.0869ZM108.826 28.6943V21.7503H107.194V20.6943H108.826V17.8303H110.026V20.6943H111.866V21.7503H110.026V28.6943H108.826ZM116.093 28.8223C115.357 28.8223 114.733 28.6997 114.221 28.4543C113.719 28.209 113.335 27.889 113.069 27.4943C112.802 27.089 112.653 26.6517 112.621 26.1823H113.869C113.901 26.449 113.991 26.7103 114.141 26.9663C114.301 27.2117 114.541 27.4143 114.861 27.5743C115.181 27.7237 115.597 27.7983 116.109 27.7983C116.269 27.7983 116.466 27.7823 116.701 27.7503C116.935 27.7183 117.159 27.6597 117.373 27.5743C117.597 27.489 117.783 27.361 117.933 27.1903C118.082 27.0197 118.157 26.801 118.157 26.5343C118.157 26.2037 118.029 25.9477 117.773 25.7663C117.517 25.585 117.186 25.4463 116.781 25.3503C116.375 25.2437 115.943 25.1423 115.485 25.0463C115.037 24.9503 114.61 24.8277 114.205 24.6783C113.799 24.5183 113.469 24.2997 113.213 24.0223C112.957 23.7343 112.829 23.345 112.829 22.8543C112.829 22.129 113.09 21.569 113.613 21.1743C114.146 20.769 114.93 20.5663 115.965 20.5663C116.669 20.5663 117.239 20.6783 117.677 20.9023C118.125 21.1157 118.461 21.393 118.685 21.7343C118.919 22.0757 119.058 22.4437 119.101 22.8383H117.885C117.842 22.497 117.671 22.2037 117.373 21.9583C117.085 21.713 116.605 21.5903 115.933 21.5903C114.663 21.5903 114.029 21.9743 114.029 22.7423C114.029 23.0623 114.157 23.3077 114.413 23.4783C114.669 23.649 114.999 23.7877 115.405 23.8943C115.81 23.9903 116.237 24.0863 116.685 24.1823C117.143 24.2677 117.575 24.3903 117.981 24.5503C118.386 24.7103 118.717 24.9397 118.973 25.2383C119.229 25.5263 119.357 25.921 119.357 26.4223C119.357 27.201 119.058 27.7983 118.461 28.2143C117.874 28.6197 117.085 28.8223 116.093 28.8223Z" fill="white"/>
<path d="M73.296 28.6943H73.046V28.9443H73.296V28.6943ZM73.296 18.1023V17.8523H73.046V18.1023H73.296ZM81.088 18.1023H81.338V17.8523H81.088V18.1023ZM81.088 19.2543V19.5043H81.338V19.2543H81.088ZM74.496 19.2543V19.0043H74.246V19.2543H74.496ZM74.496 22.8063H74.246V23.0563H74.496V22.8063ZM80.384 22.8063H80.634V22.5563H80.384V22.8063ZM80.384 23.9743V24.2243H80.634V23.9743H80.384ZM74.496 23.9743V23.7243H74.246V23.9743H74.496ZM74.496 27.5423H74.246V27.7923H74.496V27.5423ZM81.088 27.5423H81.338V27.2923H81.088V27.5423ZM81.088 28.6943V28.9443H81.338V28.6943H81.088ZM73.546 28.6943V18.1023H73.046V28.6943H73.546ZM73.296 18.3523H81.088V17.8523H73.296V18.3523ZM80.838 18.1023V19.2543H81.338V18.1023H80.838ZM81.088 19.0043H74.496V19.5043H81.088V19.0043ZM74.246 19.2543V22.8063H74.746V19.2543H74.246ZM74.496 23.0563H80.384V22.5563H74.496V23.0563ZM80.134 22.8063V23.9743H80.634V22.8063H80.134ZM80.384 23.7243H74.496V24.2243H80.384V23.7243ZM74.246 23.9743V27.5423H74.746V23.9743H74.246ZM74.496 27.7923H81.088V27.2923H74.496V27.7923ZM80.838 27.5423V28.6943H81.338V27.5423H80.838ZM81.088 28.4443H73.296V28.9443H81.088V28.4443ZM84.6848 28.6943L84.452 28.7856L84.5142 28.9443H84.6848V28.6943ZM81.5488 20.6943V20.4443H81.1822L81.316 20.7856L81.5488 20.6943ZM82.8608 20.6943L83.0947 20.6063L83.0338 20.4443H82.8608V20.6943ZM85.3888 27.4143L85.1548 27.5024L85.3895 28.1263L85.6229 27.5019L85.3888 27.4143ZM87.9008 20.6943V20.4443H87.7273L87.6666 20.6068L87.9008 20.6943ZM89.2128 20.6943L89.4457 20.7852L89.5786 20.4443H89.2128V20.6943ZM86.0928 28.6943V28.9443H86.2636L86.3257 28.7852L86.0928 28.6943ZM84.9175 28.6031L81.7815 20.6031L81.316 20.7856L84.452 28.7856L84.9175 28.6031ZM81.5488 20.9443H82.8608V20.4443H81.5488V20.9443ZM82.6268 20.7824L85.1548 27.5024L85.6227 27.3263L83.0947 20.6063L82.6268 20.7824ZM85.6229 27.5019L88.1349 20.7819L87.6666 20.6068L85.1546 27.3268L85.6229 27.5019ZM87.9008 20.9443H89.2128V20.4443H87.9008V20.9443ZM88.9798 20.6035L85.8598 28.6035L86.3257 28.7852L89.4457 20.7852L88.9798 20.6035ZM86.0928 28.4443H84.6848V28.9443H86.0928V28.4443ZM91.6046 28.2783L91.4738 28.4914L91.4766 28.493L91.6046 28.2783ZM90.1806 26.7743L89.9593 26.8906L89.9609 26.8935L90.1806 26.7743ZM90.1646 22.6143L90.3867 22.7292L90.3875 22.7276L90.1646 22.6143ZM91.5406 21.1263L91.6704 21.3401L91.6731 21.3383L91.5406 21.1263ZM95.7646 21.1263L95.6304 21.3373L95.6349 21.34L95.7646 21.1263ZM97.1406 22.6143L96.9178 22.7276L96.9186 22.7292L97.1406 22.6143ZM97.6206 25.1743V25.4243H97.8706V25.1743H97.6206ZM90.9166 25.1743V24.9243H90.6302L90.6689 25.2081L90.9166 25.1743ZM91.3646 26.4703L91.1496 26.5982L91.154 26.6049L91.3646 26.4703ZM92.3406 27.3983L92.2153 27.6147L92.2197 27.6171L92.3406 27.3983ZM95.1726 27.3663L95.3072 27.577L95.3113 27.5743L95.1726 27.3663ZM96.0686 26.3903V26.1403H95.9196L95.8487 26.2715L96.0686 26.3903ZM97.3806 26.3903L97.6137 26.4808L97.7458 26.1403H97.3806V26.3903ZM96.0526 28.1503L96.2026 28.3503L96.2032 28.3499L96.0526 28.1503ZM90.9326 24.0543L90.6862 24.012L90.636 24.3043H90.9326V24.0543ZM96.3726 24.0543V24.3043H96.6647L96.6196 24.0157L96.3726 24.0543ZM95.5086 22.3423L95.6834 22.1635L95.6834 22.1635L95.5086 22.3423ZM91.7966 22.3423L91.6219 22.1635L91.6198 22.1656L91.7966 22.3423ZM93.7326 28.5723C92.9604 28.5723 92.2966 28.4 91.7327 28.0636L91.4766 28.493C92.1286 28.882 92.8835 29.0723 93.7326 29.0723V28.5723ZM91.7354 28.0653C91.1649 27.715 90.7209 27.2461 90.4004 26.6551L89.9609 26.8935C90.323 27.5613 90.8283 28.095 91.4738 28.4914L91.7354 28.0653ZM90.4019 26.6581C90.0913 26.0669 89.9346 25.4139 89.9346 24.6943H89.4346C89.4346 25.4895 89.6086 26.2231 89.9593 26.8906L90.4019 26.6581ZM89.9346 24.6943C89.9346 23.9621 90.0869 23.3088 90.3867 22.7292L89.9426 22.4995C89.6024 23.1572 89.4346 23.8905 89.4346 24.6943H89.9346ZM90.3875 22.7276C90.6866 22.1393 91.1132 21.6783 91.6704 21.34L91.4109 20.9126C90.7733 21.2997 90.2826 21.8307 89.9418 22.501L90.3875 22.7276ZM91.6731 21.3383C92.225 20.9934 92.8816 20.8163 93.6526 20.8163V20.3163C92.8023 20.3163 92.0509 20.5126 91.4081 20.9143L91.6731 21.3383ZM93.6526 20.8163C94.4352 20.8163 95.0906 20.9938 95.6304 21.3373L95.8988 20.9154C95.2653 20.5122 94.5128 20.3163 93.6526 20.3163V20.8163ZM95.6349 21.34C96.192 21.6783 96.6186 22.1393 96.9178 22.7276L97.3635 22.501C97.0226 21.8307 96.5319 21.2997 95.8944 20.9126L95.6349 21.34ZM96.9186 22.7292C97.2184 23.3088 97.3706 23.9621 97.3706 24.6943H97.8706C97.8706 23.8905 97.7029 23.1572 97.3627 22.4995L96.9186 22.7292ZM97.3706 24.6943V25.1743H97.8706V24.6943H97.3706ZM97.6206 24.9243H90.9166V25.4243H97.6206V24.9243ZM90.6689 25.2081C90.7373 25.7096 90.8974 26.1737 91.1497 26.5981L91.5795 26.3426C91.3625 25.9776 91.2239 25.5778 91.1643 25.1406L90.6689 25.2081ZM91.154 26.6049C91.4214 27.0236 91.7764 27.3606 92.2154 27.6147L92.4659 27.182C92.0942 26.9668 91.7985 26.6851 91.5753 26.3357L91.154 26.6049ZM92.2197 27.6171C92.6673 27.8645 93.1795 27.9843 93.7486 27.9843V27.4843C93.2511 27.4843 92.8246 27.3801 92.4615 27.1795L92.2197 27.6171ZM93.7486 27.9843C94.3502 27.9843 94.8743 27.8536 95.3072 27.577L95.038 27.1557C94.7029 27.3698 94.2777 27.4843 93.7486 27.4843V27.9843ZM95.3113 27.5743C95.7282 27.2964 96.0552 26.9408 96.2886 26.5092L95.8487 26.2715C95.6553 26.6292 95.385 26.9243 95.034 27.1583L95.3113 27.5743ZM96.0686 26.6403H97.3806V26.1403H96.0686V26.6403ZM97.1476 26.2999C96.8869 26.9715 96.4727 27.5203 95.9021 27.9508L96.2032 28.3499C96.8486 27.8631 97.3197 27.2385 97.6137 26.4808L97.1476 26.2999ZM95.9026 27.9503C95.3591 28.358 94.6427 28.5723 93.7326 28.5723V29.0723C94.7212 29.0723 95.5515 28.8387 96.2026 28.3503L95.9026 27.9503ZM90.9326 24.3043H96.3726V23.8043H90.9326V24.3043ZM96.6196 24.0157C96.5051 23.2828 96.1934 22.662 95.6834 22.1635L95.3339 22.5211C95.7625 22.94 96.0268 23.4606 96.1256 24.0929L96.6196 24.0157ZM95.6834 22.1635C95.1594 21.6515 94.474 21.4043 93.6526 21.4043V21.9043C94.3673 21.9043 94.9192 22.1158 95.3339 22.5211L95.6834 22.1635ZM93.6526 21.4043C92.8313 21.4043 92.1458 21.6515 91.6219 22.1635L91.9714 22.5211C92.3861 22.1158 92.938 21.9043 93.6526 21.9043V21.4043ZM91.6198 22.1656C91.1221 22.6633 90.8117 23.282 90.6862 24.012L91.179 24.0967C91.2882 23.4613 91.5538 22.9387 91.9734 22.5191L91.6198 22.1656ZM99.0869 28.6943H98.8369V28.9443H99.0869V28.6943ZM99.0869 20.6943V20.4443H98.8369V20.6943H99.0869ZM100.287 20.6943H100.537V20.4443H100.287V20.6943ZM100.287 21.9423H100.037V22.6923L100.487 22.0923L100.287 21.9423ZM101.343 20.9663L101.478 21.1768L101.478 21.1768L101.343 20.9663ZM104.495 20.9663L104.373 21.185L104.379 21.188L104.495 20.9663ZM105.679 22.1343L105.462 22.2584L105.465 22.2636L105.679 22.1343ZM106.143 28.6943V28.9443H106.393V28.6943H106.143ZM104.943 28.6943H104.693V28.9443H104.943V28.6943ZM104.319 22.3263L104.136 22.4965L104.138 22.4986L104.319 22.3263ZM101.487 21.9583L101.365 21.7401L101.365 21.7401L101.487 21.9583ZM100.607 22.8223L100.392 22.6937L100.391 22.6956L100.607 22.8223ZM100.287 28.6943V28.9443H100.537V28.6943H100.287ZM99.3369 28.6943V20.6943H98.8369V28.6943H99.3369ZM99.0869 20.9443H100.287V20.4443H99.0869V20.9443ZM100.037 20.6943V21.9423H100.537V20.6943H100.037ZM100.487 22.0923C100.756 21.7329 101.086 21.4278 101.478 21.1768L101.208 20.7559C100.768 21.0382 100.393 21.3838 100.087 21.7923L100.487 22.0923ZM101.478 21.1768C101.843 20.9429 102.325 20.8163 102.943 20.8163V20.3163C102.259 20.3163 101.675 20.4564 101.208 20.7559L101.478 21.1768ZM102.943 20.8163C103.456 20.8163 103.931 20.9391 104.373 21.1849L104.616 20.7478C104.099 20.4603 103.54 20.3163 102.943 20.3163V20.8163ZM104.379 21.188C104.824 21.4199 105.185 21.7735 105.462 22.2584L105.896 22.0103C105.576 21.4499 105.147 21.0248 104.611 20.7447L104.379 21.188ZM105.465 22.2636C105.745 22.7275 105.893 23.3146 105.893 24.0383H106.393C106.393 23.2474 106.231 22.5652 105.893 22.0051L105.465 22.2636ZM105.893 24.0383V28.6943H106.393V24.0383H105.893ZM106.143 28.4443H104.943V28.9443H106.143V28.4443ZM105.193 28.6943V24.0703H104.693V28.6943H105.193ZM105.193 24.0703C105.193 23.2946 104.969 22.6469 104.5 22.154L104.138 22.4986C104.501 22.8804 104.693 23.3954 104.693 24.0703H105.193ZM104.502 22.1562C104.035 21.6528 103.427 21.4043 102.703 21.4043V21.9043C103.301 21.9043 103.771 22.1039 104.136 22.4964L104.502 22.1562ZM102.703 21.4043C102.216 21.4043 101.768 21.515 101.365 21.7401L101.609 22.1766C101.931 21.9964 102.294 21.9043 102.703 21.9043V21.4043ZM101.365 21.7401C100.962 21.9651 100.638 22.2848 100.393 22.6937L100.821 22.951C101.024 22.6132 101.286 22.3569 101.609 22.1766L101.365 21.7401ZM100.391 22.6956C100.152 23.1018 100.037 23.5682 100.037 24.0863H100.537C100.537 23.6445 100.635 23.2682 100.822 22.9491L100.391 22.6956ZM100.037 24.0863V28.6943H100.537V24.0863H100.037ZM100.287 28.4443H99.0869V28.9443H100.287V28.4443ZM108.826 28.6943H108.576V28.9443H108.826V28.6943ZM108.826 21.7503H109.076V21.5003H108.826V21.7503ZM107.194 21.7503H106.944V22.0003H107.194V21.7503ZM107.194 20.6943V20.4443H106.944V20.6943H107.194ZM108.826 20.6943V20.9443H109.076V20.6943H108.826ZM108.826 17.8303V17.5803H108.576V17.8303H108.826ZM110.026 17.8303H110.276V17.5803H110.026V17.8303ZM110.026 20.6943H109.776V20.9443H110.026V20.6943ZM111.866 20.6943H112.116V20.4443H111.866V20.6943ZM111.866 21.7503V22.0003H112.116V21.7503H111.866ZM110.026 21.7503V21.5003H109.776V21.7503H110.026ZM110.026 28.6943V28.9443H110.276V28.6943H110.026ZM109.076 28.6943V21.7503H108.576V28.6943H109.076ZM108.826 21.5003H107.194V22.0003H108.826V21.5003ZM107.444 21.7503V20.6943H106.944V21.7503H107.444ZM107.194 20.9443H108.826V20.4443H107.194V20.9443ZM109.076 20.6943V17.8303H108.576V20.6943H109.076ZM108.826 18.0803H110.026V17.5803H108.826V18.0803ZM109.776 17.8303V20.6943H110.276V17.8303H109.776ZM110.026 20.9443H111.866V20.4443H110.026V20.9443ZM111.616 20.6943V21.7503H112.116V20.6943H111.616ZM111.866 21.5003H110.026V22.0003H111.866V21.5003ZM109.776 21.7503V28.6943H110.276V21.7503H109.776ZM110.026 28.4443H108.826V28.9443H110.026V28.4443ZM114.221 28.4543L114.111 28.6789L114.113 28.6798L114.221 28.4543ZM113.069 27.4943L112.86 27.6318L112.861 27.6343L113.069 27.4943ZM112.621 26.1823V25.9323H112.353L112.371 26.1993L112.621 26.1823ZM113.869 26.1823L114.117 26.1525L114.09 25.9323H113.869V26.1823ZM114.141 26.9663L113.924 27.0925L113.931 27.1029L114.141 26.9663ZM114.861 27.5743L114.749 27.798L114.755 27.8009L114.861 27.5743ZM116.701 27.7503L116.734 27.998L116.701 27.7503ZM117.373 27.5743L117.284 27.3407L117.28 27.3422L117.373 27.5743ZM117.773 25.7663L117.917 25.5623L117.917 25.5623L117.773 25.7663ZM116.781 25.3503L116.717 25.5922L116.723 25.5936L116.781 25.3503ZM115.485 25.0463L115.432 25.2908L115.433 25.291L115.485 25.0463ZM114.205 24.6783L114.113 24.9109L114.118 24.9129L114.205 24.6783ZM113.213 24.0223L113.026 24.1885L113.029 24.1919L113.213 24.0223ZM113.613 21.1743L113.763 21.3738L113.764 21.3734L113.613 21.1743ZM117.677 20.9023L117.563 21.1249L117.569 21.1281L117.677 20.9023ZM118.685 21.7343L118.476 21.8715L118.479 21.876L118.685 21.7343ZM119.101 22.8383V23.0883H119.379L119.349 22.8115L119.101 22.8383ZM117.885 22.8383L117.637 22.8693L117.664 23.0883H117.885V22.8383ZM117.373 21.9583L117.21 22.1487L117.214 22.1515L117.373 21.9583ZM114.413 23.4783L114.274 23.6863L114.274 23.6863L114.413 23.4783ZM115.405 23.8943L115.341 24.1362L115.347 24.1376L115.405 23.8943ZM116.685 24.1823L116.632 24.4269L116.639 24.4281L116.685 24.1823ZM117.981 24.5503L117.889 24.7829L117.889 24.7829L117.981 24.5503ZM118.973 25.2383L118.783 25.4011L118.786 25.4044L118.973 25.2383ZM118.461 28.2143L118.603 28.42L118.603 28.4195L118.461 28.2143ZM116.093 28.5723C115.383 28.5723 114.798 28.454 114.329 28.2289L114.113 28.6798C114.667 28.9453 115.33 29.0723 116.093 29.0723V28.5723ZM114.331 28.2298C113.862 28.0003 113.514 27.707 113.276 27.3544L112.861 27.6343C113.157 28.071 113.577 28.4177 114.111 28.6789L114.331 28.2298ZM113.277 27.3569C113.034 26.9864 112.899 26.5903 112.87 26.1653L112.371 26.1993C112.406 26.713 112.57 27.1916 112.86 27.6317L113.277 27.3569ZM112.621 26.4323H113.869V25.9323H112.621V26.4323ZM113.62 26.2121C113.657 26.5161 113.76 26.8099 113.925 27.0923L114.357 26.8404C114.223 26.6108 114.144 26.3819 114.117 26.1525L113.62 26.2121ZM113.931 27.1029C114.12 27.3928 114.398 27.6225 114.749 27.7979L114.972 27.3507C114.683 27.2062 114.481 27.0305 114.35 26.8298L113.931 27.1029ZM114.755 27.8009C115.119 27.971 115.575 28.0483 116.109 28.0483V27.5483C115.618 27.5483 115.242 27.4763 114.966 27.3478L114.755 27.8009ZM116.109 28.0483C116.284 28.0483 116.493 28.0309 116.734 27.998L116.667 27.5026C116.439 27.5338 116.253 27.5483 116.109 27.5483V28.0483ZM116.734 27.998C116.989 27.9634 117.233 27.8996 117.465 27.8065L117.28 27.3422C117.086 27.4197 116.882 27.4733 116.667 27.5026L116.734 27.998ZM117.462 27.808C117.722 27.7089 117.943 27.5581 118.121 27.355L117.744 27.0257C117.624 27.1639 117.472 27.2691 117.284 27.3407L117.462 27.808ZM118.121 27.355C118.317 27.1309 118.407 26.8503 118.407 26.5343H117.907C117.907 26.7517 117.847 26.9084 117.744 27.0257L118.121 27.355ZM118.407 26.5343C118.407 26.1278 118.243 25.7934 117.917 25.5623L117.628 25.9703C117.814 26.1019 117.907 26.2796 117.907 26.5343H118.407ZM117.917 25.5623C117.628 25.3575 117.265 25.2082 116.838 25.1071L116.723 25.5936C117.107 25.6845 117.405 25.8125 117.628 25.9703L117.917 25.5623ZM116.844 25.1086C116.434 25.0007 115.998 24.8984 115.536 24.8016L115.433 25.291C115.888 25.3863 116.316 25.4866 116.717 25.5921L116.844 25.1086ZM115.537 24.8019C115.1 24.7082 114.685 24.5888 114.291 24.4437L114.118 24.9129C114.535 25.0666 114.973 25.1925 115.432 25.2908L115.537 24.8019ZM114.296 24.4458C113.921 24.2975 113.623 24.0985 113.396 23.8528L113.029 24.1919C113.314 24.5008 113.678 24.7392 114.113 24.9109L114.296 24.4458ZM113.399 23.8562C113.194 23.6254 113.079 23.301 113.079 22.8543H112.579C112.579 23.389 112.719 23.8432 113.026 24.1884L113.399 23.8562ZM113.079 22.8543C113.079 22.1977 113.311 21.7157 113.763 21.3738L113.462 20.9748C112.869 21.4223 112.579 22.0603 112.579 22.8543H113.079ZM113.764 21.3734C114.236 21.0148 114.957 20.8163 115.965 20.8163V20.3163C114.903 20.3163 114.056 20.5232 113.461 20.9753L113.764 21.3734ZM115.965 20.8163C116.645 20.8163 117.173 20.925 117.563 21.1248L117.791 20.6798C117.306 20.4317 116.692 20.3163 115.965 20.3163V20.8163ZM117.569 21.1281C117.985 21.326 118.282 21.5759 118.476 21.8715L118.894 21.5972C118.64 21.2101 118.265 20.9054 117.784 20.6766L117.569 21.1281ZM118.479 21.876C118.691 22.1847 118.814 22.5135 118.852 22.8652L119.349 22.8115C119.302 22.3738 119.148 21.9666 118.891 21.5927L118.479 21.876ZM119.101 22.5883H117.885V23.0883H119.101V22.5883ZM118.133 22.8073C118.081 22.3945 117.873 22.0457 117.531 21.7652L117.214 22.1515C117.47 22.3617 117.603 22.5995 117.637 22.8693L118.133 22.8073ZM117.535 21.768C117.178 21.4639 116.623 21.3403 115.933 21.3403V21.8403C116.587 21.8403 116.992 21.9621 117.211 22.1486L117.535 21.768ZM115.933 21.3403C115.281 21.3403 114.75 21.4375 114.375 21.6644C113.98 21.9036 113.779 22.2746 113.779 22.7423H114.279C114.279 22.442 114.395 22.237 114.634 22.0922C114.894 21.9352 115.315 21.8403 115.933 21.8403V21.3403ZM113.779 22.7423C113.779 23.1419 113.945 23.4671 114.274 23.6863L114.551 23.2703C114.368 23.1482 114.279 22.9828 114.279 22.7423H113.779ZM114.274 23.6863C114.56 23.8768 114.918 24.0248 115.341 24.1361L115.468 23.6526C115.081 23.5506 114.778 23.4212 114.551 23.2703L114.274 23.6863ZM115.347 24.1376C115.754 24.2341 116.183 24.3304 116.632 24.4268L116.737 23.9379C116.291 23.8422 115.866 23.7466 115.462 23.6511L115.347 24.1376ZM116.639 24.4281C117.083 24.5107 117.499 24.6292 117.889 24.7829L118.072 24.3178C117.651 24.1515 117.204 24.0246 116.73 23.9366L116.639 24.4281ZM117.889 24.7829C118.26 24.9296 118.556 25.1365 118.783 25.401L119.162 25.0756C118.877 24.7428 118.511 24.4911 118.072 24.3178L117.889 24.7829ZM118.786 25.4044C118.99 25.6343 119.107 25.9634 119.107 26.4223H119.607C119.607 25.8786 119.467 25.4184 119.159 25.0722L118.786 25.4044ZM119.107 26.4223C119.107 27.1259 118.843 27.6436 118.318 28.0092L118.603 28.4195C119.273 27.953 119.607 27.2761 119.607 26.4223H119.107ZM118.319 28.0087C117.787 28.3758 117.053 28.5723 116.093 28.5723V29.0723C117.116 29.0723 117.961 28.8635 118.603 28.42L118.319 28.0087Z" fill="white"/>
</svg>
