<svg width="168" height="48" viewBox="0 0 168 48" fill="none" xmlns="http://www.w3.org/2000/svg">
<rect x="0.5" y="0.5" width="167" height="47" stroke="black"/>
<path d="M41.296 29V18.408H49.088V19.56H42.496V23.112H48.384V24.28H42.496V27.848H49.088V29H41.296ZM49.7984 29L52.8864 24.872L49.9904 21H51.5264L53.5904 24.024L55.6384 21H57.1744L54.2784 24.872L57.3824 29H55.8464L53.5904 25.736L51.3184 29H49.7984ZM58.4931 32.168V21H59.6931V22.28C59.9918 21.8427 60.3758 21.5013 60.8451 21.256C61.3251 21 61.8958 20.872 62.5571 20.872C63.3358 20.872 64.0131 21.0587 64.5891 21.432C65.1758 21.7947 65.6291 22.2907 65.9491 22.92C66.2691 23.5387 66.4291 24.232 66.4291 25C66.4291 25.7573 66.2691 26.4507 65.9491 27.08C65.6291 27.7093 65.1758 28.2107 64.5891 28.584C64.0131 28.9467 63.3358 29.128 62.5571 29.128C61.8958 29.128 61.3251 29 60.8451 28.744C60.3758 28.4773 59.9918 28.1307 59.6931 27.704V32.168H58.4931ZM62.3971 28.04C62.9945 28.04 63.5011 27.9013 63.9171 27.624C64.3438 27.3467 64.6691 26.9787 64.8931 26.52C65.1171 26.0507 65.2291 25.544 65.2291 25C65.2291 24.4453 65.1171 23.9387 64.8931 23.48C64.6691 23.0213 64.3438 22.6533 63.9171 22.376C63.5011 22.0987 62.9945 21.96 62.3971 21.96C61.8105 21.96 61.3091 22.0987 60.8931 22.376C60.4771 22.6533 60.1625 23.0213 59.9491 23.48C59.7358 23.9387 59.6291 24.4453 59.6291 25C59.6291 25.544 59.7358 26.0507 59.9491 26.52C60.1625 26.9787 60.4771 27.3467 60.8931 27.624C61.3091 27.9013 61.8105 28.04 62.3971 28.04ZM68.0088 29V17.8H69.2088V29H68.0088ZM74.762 29.128C73.9513 29.128 73.2473 28.9467 72.65 28.584C72.0527 28.2107 71.594 27.7093 71.274 27.08C70.954 26.4507 70.794 25.7573 70.794 25C70.794 24.232 70.954 23.5387 71.274 22.92C71.594 22.2907 72.0527 21.7947 72.65 21.432C73.2473 21.0587 73.9513 20.872 74.762 20.872C75.5833 20.872 76.2873 21.0587 76.874 21.432C77.4713 21.7947 77.93 22.2907 78.25 22.92C78.57 23.5387 78.73 24.232 78.73 25C78.73 25.7573 78.57 26.4507 78.25 27.08C77.93 27.7093 77.4713 28.2107 76.874 28.584C76.2873 28.9467 75.5833 29.128 74.762 29.128ZM74.762 28.04C75.3593 28.04 75.8607 27.9013 76.266 27.624C76.682 27.3467 76.9967 26.9787 77.21 26.52C77.4233 26.0507 77.53 25.544 77.53 25C77.53 24.4453 77.4233 23.9387 77.21 23.48C76.9967 23.0213 76.682 22.6533 76.266 22.376C75.8607 22.0987 75.3593 21.96 74.762 21.96C74.1753 21.96 73.674 22.0987 73.258 22.376C72.842 22.6533 72.5273 23.0213 72.314 23.48C72.1007 23.9387 71.994 24.4453 71.994 25C71.994 25.544 72.1007 26.0507 72.314 26.52C72.5273 26.9787 72.842 27.3467 73.258 27.624C73.674 27.9013 74.1753 28.04 74.762 28.04ZM80.3213 29V21H81.5213V22.968C81.5639 22.8293 81.6439 22.648 81.7613 22.424C81.8893 22.1893 82.0706 21.9547 82.3053 21.72C82.5399 21.4853 82.8333 21.288 83.1853 21.128C83.5479 20.9573 83.9746 20.872 84.4653 20.872H84.5453V22.072H84.4013C83.8039 22.072 83.2866 22.2373 82.8493 22.568C82.4226 22.888 82.0919 23.3093 81.8573 23.832C81.6333 24.344 81.5213 24.8933 81.5213 25.48V29H80.3213ZM89.1858 29.128C88.3751 29.128 87.6658 28.9467 87.0578 28.584C86.4498 28.2107 85.9751 27.7093 85.6338 27.08C85.3031 26.4507 85.1378 25.7573 85.1378 25C85.1378 24.232 85.2978 23.5387 85.6178 22.92C85.9378 22.2907 86.3964 21.7947 86.9938 21.432C87.5911 21.0587 88.2951 20.872 89.1058 20.872C89.9271 20.872 90.6311 21.0587 91.2178 21.432C91.8151 21.7947 92.2738 22.2907 92.5938 22.92C92.9138 23.5387 93.0738 24.232 93.0738 25V25.48H86.3698C86.4338 25.9493 86.5831 26.3813 86.8178 26.776C87.0631 27.16 87.3884 27.4693 87.7938 27.704C88.1991 27.928 88.6684 28.04 89.2018 28.04C89.7671 28.04 90.2418 27.9173 90.6258 27.672C91.0098 27.416 91.3084 27.0907 91.5218 26.696H92.8338C92.5564 27.4107 92.1138 27.9973 91.5058 28.456C90.9084 28.904 90.1351 29.128 89.1858 29.128ZM86.3858 24.36H91.8258C91.7191 23.6773 91.4311 23.1067 90.9618 22.648C90.4924 22.1893 89.8738 21.96 89.1058 21.96C88.3378 21.96 87.7191 22.1893 87.2498 22.648C86.7911 23.1067 86.5031 23.6773 86.3858 24.36ZM98.2023 29V18.408H105.85V19.56H99.4023V23.24H105.146V24.408H99.4023V29H98.2023ZM110.538 29.128C109.877 29.128 109.264 28.9947 108.698 28.728C108.133 28.4613 107.68 28.0933 107.338 27.624C106.997 27.144 106.826 26.5893 106.826 25.96C106.826 25.3947 106.997 24.888 107.338 24.44C107.68 23.9813 108.16 23.6347 108.778 23.4C108.544 23.3253 108.298 23.1813 108.042 22.968C107.797 22.744 107.589 22.4773 107.418 22.168C107.258 21.8587 107.178 21.528 107.178 21.176C107.178 20.3547 107.477 19.6667 108.074 19.112C108.672 18.5573 109.546 18.28 110.698 18.28C111.424 18.28 112.021 18.392 112.49 18.616C112.96 18.8293 113.317 19.1067 113.562 19.448C113.818 19.7787 113.984 20.1253 114.058 20.488H112.794C112.72 20.232 112.501 19.9813 112.138 19.736C111.786 19.4907 111.296 19.368 110.666 19.368C109.877 19.368 109.296 19.5493 108.922 19.912C108.56 20.264 108.378 20.6907 108.378 21.192C108.378 21.7893 108.586 22.232 109.002 22.52C109.418 22.808 109.904 22.952 110.458 22.952H113.034V22.248H114.154V22.952H115.194V24.024H114.154V26.056C114.154 26.9627 113.834 27.704 113.194 28.28C112.554 28.8453 111.669 29.128 110.538 29.128ZM110.538 28.056C111.381 28.056 112.005 27.864 112.41 27.48C112.826 27.0853 113.034 26.6427 113.034 26.152V24.024H110.314C109.866 24.024 109.466 24.1147 109.114 24.296C108.773 24.4773 108.506 24.7173 108.314 25.016C108.122 25.304 108.026 25.6293 108.026 25.992C108.026 26.3547 108.128 26.696 108.33 27.016C108.544 27.3253 108.837 27.576 109.21 27.768C109.594 27.96 110.037 28.056 110.538 28.056ZM116.812 29V18.408H121.564C122.396 18.408 123.052 18.552 123.532 18.84C124.022 19.128 124.374 19.4907 124.588 19.928C124.801 20.3547 124.908 20.7813 124.908 21.208C124.908 21.8907 124.764 22.4187 124.476 22.792C124.188 23.1547 123.857 23.4213 123.484 23.592C123.782 23.688 124.081 23.8427 124.38 24.056C124.689 24.2587 124.945 24.536 125.148 24.888C125.35 25.24 125.452 25.6827 125.452 26.216C125.452 27.0053 125.148 27.6667 124.54 28.2C123.942 28.7333 123.041 29 121.836 29H116.812ZM118.012 23.144H121.564C121.937 23.144 122.284 23.08 122.604 22.952C122.934 22.824 123.201 22.6267 123.404 22.36C123.606 22.0827 123.708 21.7307 123.708 21.304C123.708 21.0053 123.638 20.7227 123.5 20.456C123.372 20.1893 123.158 19.9707 122.86 19.8C122.572 19.6293 122.182 19.544 121.692 19.544H118.012V23.144ZM118.012 27.864H121.964C122.689 27.864 123.249 27.7147 123.644 27.416C124.049 27.1067 124.252 26.6747 124.252 26.12C124.252 25.6187 124.06 25.1813 123.676 24.808C123.292 24.424 122.678 24.232 121.836 24.232H118.012V27.864Z" fill="black"/>
<path d="M41.296 29H41.046V29.25H41.296V29ZM41.296 18.408V18.158H41.046V18.408H41.296ZM49.088 18.408H49.338V18.158H49.088V18.408ZM49.088 19.56V19.81H49.338V19.56H49.088ZM42.496 19.56V19.31H42.246V19.56H42.496ZM42.496 23.112H42.246V23.362H42.496V23.112ZM48.384 23.112H48.634V22.862H48.384V23.112ZM48.384 24.28V24.53H48.634V24.28H48.384ZM42.496 24.28V24.03H42.246V24.28H42.496ZM42.496 27.848H42.246V28.098H42.496V27.848ZM49.088 27.848H49.338V27.598H49.088V27.848ZM49.088 29V29.25H49.338V29H49.088ZM41.546 29V18.408H41.046V29H41.546ZM41.296 18.658H49.088V18.158H41.296V18.658ZM48.838 18.408V19.56H49.338V18.408H48.838ZM49.088 19.31H42.496V19.81H49.088V19.31ZM42.246 19.56V23.112H42.746V19.56H42.246ZM42.496 23.362H48.384V22.862H42.496V23.362ZM48.134 23.112V24.28H48.634V23.112H48.134ZM48.384 24.03H42.496V24.53H48.384V24.03ZM42.246 24.28V27.848H42.746V24.28H42.246ZM42.496 28.098H49.088V27.598H42.496V28.098ZM48.838 27.848V29H49.338V27.848H48.838ZM49.088 28.75H41.296V29.25H49.088V28.75ZM49.7984 29L49.5982 28.8502L49.2991 29.25H49.7984V29ZM52.8864 24.872L53.0866 25.0218L53.1986 24.872L53.0866 24.7223L52.8864 24.872ZM49.9904 21V20.75H49.4912L49.7902 21.1497L49.9904 21ZM51.5264 21L51.7329 20.8591L51.6584 20.75H51.5264V21ZM53.5904 24.024L53.3839 24.1649L53.5912 24.4686L53.7974 24.1642L53.5904 24.024ZM55.6384 21V20.75H55.5057L55.4314 20.8598L55.6384 21ZM57.1744 21L57.3746 21.1497L57.6735 20.75H57.1744V21ZM54.2784 24.872L54.0782 24.7223L53.9659 24.8724L54.0786 25.0222L54.2784 24.872ZM57.3824 29V29.25H57.8832L57.5822 28.8498L57.3824 29ZM55.8464 29L55.6407 29.1421L55.7153 29.25H55.8464V29ZM53.5904 25.736L53.796 25.5939L53.5911 25.2974L53.3852 25.5932L53.5904 25.736ZM51.3184 29V29.25H51.449L51.5236 29.1428L51.3184 29ZM49.9986 29.1498L53.0866 25.0218L52.6862 24.7222L49.5982 28.8502L49.9986 29.1498ZM53.0866 24.7223L50.1906 20.8503L49.7902 21.1497L52.6862 25.0217L53.0866 24.7223ZM49.9904 21.25H51.5264V20.75H49.9904V21.25ZM51.3199 21.1409L53.3839 24.1649L53.7969 23.8831L51.7329 20.8591L51.3199 21.1409ZM53.7974 24.1642L55.8454 21.1402L55.4314 20.8598L53.3834 23.8838L53.7974 24.1642ZM55.6384 21.25H57.1744V20.75H55.6384V21.25ZM56.9742 20.8503L54.0782 24.7223L54.4786 25.0217L57.3746 21.1497L56.9742 20.8503ZM54.0786 25.0222L57.1826 29.1502L57.5822 28.8498L54.4782 24.7218L54.0786 25.0222ZM57.3824 28.75H55.8464V29.25H57.3824V28.75ZM56.052 28.8579L53.796 25.5939L53.3847 25.8781L55.6407 29.1421L56.052 28.8579ZM53.3852 25.5932L51.1132 28.8572L51.5236 29.1428L53.7956 25.8788L53.3852 25.5932ZM51.3184 28.75H49.7984V29.25H51.3184V28.75ZM58.4931 32.168H58.2431V32.418H58.4931V32.168ZM58.4931 21V20.75H58.2431V21H58.4931ZM59.6931 21H59.9431V20.75H59.6931V21ZM59.6931 22.28H59.4431V23.0894L59.8996 22.421L59.6931 22.28ZM60.8451 21.256L60.9609 21.4776L60.9628 21.4766L60.8451 21.256ZM64.5891 21.432L64.4531 21.6418L64.4577 21.6446L64.5891 21.432ZM65.9491 22.92L65.7263 23.0333L65.7271 23.0349L65.9491 22.92ZM65.9491 27.08L65.7263 26.9667L65.7263 26.9667L65.9491 27.08ZM64.5891 28.584L64.7223 28.7956L64.7233 28.7949L64.5891 28.584ZM60.8451 28.744L60.7216 28.9614L60.7275 28.9646L60.8451 28.744ZM59.6931 27.704L59.8979 27.5606L59.4431 26.9109V27.704H59.6931ZM59.6931 32.168V32.418H59.9431V32.168H59.6931ZM63.9171 27.624L63.7809 27.4144L63.7785 27.416L63.9171 27.624ZM64.8931 26.52L65.1178 26.6297L65.1187 26.6277L64.8931 26.52ZM64.8931 23.48L65.1178 23.3703L65.1178 23.3703L64.8931 23.48ZM63.9171 22.376L63.7784 22.584L63.7809 22.5856L63.9171 22.376ZM60.8931 22.376L60.7545 22.168L60.7544 22.168L60.8931 22.376ZM59.9491 23.48L59.7224 23.3746L59.7224 23.3746L59.9491 23.48ZM59.9491 26.52L59.7215 26.6235L59.7224 26.6254L59.9491 26.52ZM60.8931 27.624L60.7544 27.832L60.7545 27.832L60.8931 27.624ZM58.7431 32.168V21H58.2431V32.168H58.7431ZM58.4931 21.25H59.6931V20.75H58.4931V21.25ZM59.4431 21V22.28H59.9431V21H59.4431ZM59.8996 22.421C60.1751 22.0175 60.528 21.7039 60.9609 21.4776L60.7293 21.0344C60.2236 21.2988 59.8085 21.6678 59.4867 22.139L59.8996 22.421ZM60.9628 21.4766C61.3995 21.2436 61.9281 21.122 62.5571 21.122V20.622C61.8635 20.622 61.2507 20.7564 60.7275 21.0354L60.9628 21.4766ZM62.5571 21.122C63.2942 21.122 63.9229 21.2981 64.4532 21.6418L64.7251 21.2222C64.1033 20.8192 63.3774 20.622 62.5571 20.622V21.122ZM64.4577 21.6446C65.0044 21.9826 65.4265 22.4438 65.7263 23.0333L66.172 22.8067C65.8317 22.1375 65.3472 21.6067 64.7206 21.2194L64.4577 21.6446ZM65.7271 23.0349C66.0269 23.6145 66.1791 24.2678 66.1791 25H66.6791C66.6791 24.1962 66.5114 23.4628 66.1712 22.8051L65.7271 23.0349ZM66.1791 25C66.1791 25.7209 66.0271 26.375 65.7263 26.9667L66.172 27.1933C66.5111 26.5264 66.6791 25.7938 66.6791 25H66.1791ZM65.7263 26.9667C65.4262 27.5568 65.0032 28.0242 64.4549 28.3731L64.7233 28.7949C65.3484 28.3972 65.832 27.8619 66.172 27.1933L65.7263 26.9667ZM64.4559 28.3724C63.9253 28.7065 63.2956 28.878 62.5571 28.878V29.378C63.376 29.378 64.1009 29.1868 64.7223 28.7956L64.4559 28.3724ZM62.5571 28.878C61.9281 28.878 61.3995 28.7564 60.9628 28.5234L60.7275 28.9646C61.2507 29.2436 61.8635 29.378 62.5571 29.378V28.878ZM60.9686 28.5266C60.5303 28.2776 60.1745 27.9558 59.8979 27.5606L59.4883 27.8474C59.809 28.3055 60.2212 28.6771 60.7216 28.9614L60.9686 28.5266ZM59.4431 27.704V32.168H59.9431V27.704H59.4431ZM59.6931 31.918H58.4931V32.418H59.6931V31.918ZM62.3971 28.29C63.034 28.29 63.5913 28.1417 64.0558 27.832L63.7785 27.416C63.411 27.661 62.9549 27.79 62.3971 27.79V28.29ZM64.0534 27.8336C64.5181 27.5315 64.874 27.1289 65.1178 26.6297L64.6685 26.4103C64.4643 26.8284 64.1695 27.1618 63.7809 27.4144L64.0534 27.8336ZM65.1187 26.6277C65.3595 26.1232 65.4791 25.5795 65.4791 25H64.9791C64.9791 25.5085 64.8747 25.9782 64.6675 26.4123L65.1187 26.6277ZM65.4791 25C65.4791 24.4107 65.3599 23.866 65.1178 23.3703L64.6685 23.5897C64.8744 24.0113 64.9791 24.48 64.9791 25H65.4791ZM65.1178 23.3703C64.874 22.8711 64.5181 22.4685 64.0534 22.1664L63.7809 22.5856C64.1695 22.8382 64.4643 23.1716 64.6685 23.5897L65.1178 23.3703ZM64.0558 22.168C63.5913 21.8583 63.034 21.71 62.3971 21.71V22.21C62.9549 22.21 63.411 22.339 63.7785 22.584L64.0558 22.168ZM62.3971 21.71C61.7698 21.71 61.2182 21.8588 60.7545 22.168L61.0318 22.584C61.4 22.3385 61.8511 22.21 62.3971 22.21V21.71ZM60.7544 22.168C60.2998 22.4711 59.9549 22.8748 59.7224 23.3746L60.1758 23.5854C60.37 23.1679 60.6545 22.8356 61.0318 22.584L60.7544 22.168ZM59.7224 23.3746C59.4923 23.8693 59.3791 24.4125 59.3791 25H59.8791C59.8791 24.4782 59.9793 24.008 60.1758 23.5854L59.7224 23.3746ZM59.3791 25C59.3791 25.5777 59.4926 26.1198 59.7215 26.6235L60.1767 26.4165C59.979 25.9815 59.8791 25.5103 59.8791 25H59.3791ZM59.7224 26.6254C59.9549 27.1252 60.2998 27.5289 60.7544 27.832L61.0318 27.416C60.6545 27.1644 60.37 26.8321 60.1758 26.4146L59.7224 26.6254ZM60.7545 27.832C61.2182 28.1412 61.7698 28.29 62.3971 28.29V27.79C61.8511 27.79 61.4 27.6615 61.0318 27.416L60.7545 27.832ZM68.0088 29H67.7588V29.25H68.0088V29ZM68.0088 17.8V17.55H67.7588V17.8H68.0088ZM69.2088 17.8H69.4588V17.55H69.2088V17.8ZM69.2088 29V29.25H69.4588V29H69.2088ZM68.2588 29V17.8H67.7588V29H68.2588ZM68.0088 18.05H69.2088V17.55H68.0088V18.05ZM68.9588 17.8V29H69.4588V17.8H68.9588ZM69.2088 28.75H68.0088V29.25H69.2088V28.75ZM72.65 28.584L72.5175 28.796L72.5203 28.7977L72.65 28.584ZM71.274 22.92L71.4961 23.0349L71.4968 23.0333L71.274 22.92ZM72.65 21.432L72.7798 21.6457L72.7825 21.644L72.65 21.432ZM76.874 21.432L76.7398 21.643L76.7443 21.6457L76.874 21.432ZM78.25 22.92L78.0271 23.0333L78.0279 23.0349L78.25 22.92ZM78.25 27.08L78.0272 26.9667L78.0272 26.9667L78.25 27.08ZM76.874 28.584L77.0055 28.7967L77.0065 28.796L76.874 28.584ZM76.266 27.624L76.1273 27.416L76.1248 27.4177L76.266 27.624ZM77.21 26.52L77.4367 26.6254L77.4376 26.6235L77.21 26.52ZM77.21 23.48L77.4367 23.3746L77.4367 23.3746L77.21 23.48ZM76.266 22.376L76.1248 22.5823L76.1273 22.584L76.266 22.376ZM73.258 22.376L73.1193 22.168L73.1193 22.168L73.258 22.376ZM72.314 23.48L72.0873 23.3746L72.0873 23.3746L72.314 23.48ZM72.314 26.52L72.0864 26.6235L72.0873 26.6254L72.314 26.52ZM74.762 28.878C73.9896 28.878 73.3321 28.7056 72.7797 28.3703L72.5203 28.7977C73.1626 29.1877 73.913 29.378 74.762 29.378V28.878ZM72.7825 28.372C72.2238 28.0228 71.7963 27.5556 71.4968 26.9667L71.0512 27.1933C71.3917 27.863 71.8816 28.3985 72.5175 28.796L72.7825 28.372ZM71.4968 26.9667C71.196 26.375 71.044 25.7209 71.044 25H70.544C70.544 25.7938 70.712 26.5264 71.0512 27.1933L71.4968 26.9667ZM71.044 25C71.044 24.2678 71.1962 23.6145 71.4961 23.0349L71.0519 22.8051C70.7118 23.4628 70.544 24.1962 70.544 25H71.044ZM71.4968 23.0333C71.796 22.445 72.2226 21.984 72.7797 21.6457L72.5203 21.2183C71.8827 21.6054 71.392 22.1363 71.0512 22.8067L71.4968 23.0333ZM72.7825 21.644C73.3344 21.2991 73.991 21.122 74.762 21.122V20.622C73.9117 20.622 73.1603 20.8183 72.5175 21.22L72.7825 21.644ZM74.762 21.122C75.5445 21.122 76.2 21.2994 76.7398 21.6429L77.0082 21.2211C76.3747 20.8179 75.6221 20.622 74.762 20.622V21.122ZM76.7443 21.6457C77.3014 21.984 77.728 22.445 78.0272 23.0333L78.4728 22.8067C78.132 22.1363 77.6413 21.6054 77.0037 21.2183L76.7443 21.6457ZM78.0279 23.0349C78.3278 23.6145 78.48 24.2678 78.48 25H78.98C78.98 24.1962 78.8122 23.4628 78.4721 22.8051L78.0279 23.0349ZM78.48 25C78.48 25.7209 78.328 26.375 78.0272 26.9667L78.4728 27.1933C78.812 26.5264 78.98 25.7938 78.98 25H78.48ZM78.0272 26.9667C77.7277 27.5556 77.3002 28.0228 76.7415 28.372L77.0065 28.796C77.6424 28.3985 78.1323 27.863 78.4728 27.1933L78.0272 26.9667ZM76.7425 28.3714C76.2024 28.7053 75.5458 28.878 74.762 28.878V29.378C75.6208 29.378 76.3723 29.188 77.0055 28.7966L76.7425 28.3714ZM74.762 28.29C75.3987 28.29 75.952 28.1418 76.4072 27.8303L76.1248 27.4177C75.7693 27.6609 75.32 27.79 74.762 27.79V28.29ZM76.4047 27.832C76.8593 27.5289 77.2042 27.1252 77.4367 26.6254L76.9833 26.4146C76.7891 26.8321 76.5047 27.1644 76.1273 27.416L76.4047 27.832ZM77.4376 26.6235C77.6665 26.1198 77.78 25.5777 77.78 25H77.28C77.28 25.5103 77.1802 25.9815 76.9824 26.4165L77.4376 26.6235ZM77.78 25C77.78 24.4125 77.6668 23.8693 77.4367 23.3746L76.9833 23.5854C77.1799 24.008 77.28 24.4782 77.28 25H77.78ZM77.4367 23.3746C77.2042 22.8748 76.8593 22.4711 76.4047 22.168L76.1273 22.584C76.5047 22.8356 76.7891 23.1679 76.9833 23.5854L77.4367 23.3746ZM76.4072 22.1697C75.952 21.8582 75.3987 21.71 74.762 21.71V22.21C75.32 22.21 75.7693 22.3391 76.1248 22.5823L76.4072 22.1697ZM74.762 21.71C74.1347 21.71 73.5831 21.8588 73.1193 22.168L73.3967 22.584C73.7649 22.3385 74.2159 22.21 74.762 22.21V21.71ZM73.1193 22.168C72.6647 22.4711 72.3198 22.8748 72.0873 23.3746L72.5407 23.5854C72.7349 23.1679 73.0193 22.8356 73.3967 22.584L73.1193 22.168ZM72.0873 23.3746C71.8572 23.8693 71.744 24.4125 71.744 25H72.244C72.244 24.4782 72.3441 24.008 72.5407 23.5854L72.0873 23.3746ZM71.744 25C71.744 25.5777 71.8575 26.1198 72.0864 26.6235L72.5416 26.4165C72.3438 25.9815 72.244 25.5103 72.244 25H71.744ZM72.0873 26.6254C72.3198 27.1252 72.6647 27.5289 73.1193 27.832L73.3967 27.416C73.0193 27.1644 72.7349 26.8321 72.5407 26.4146L72.0873 26.6254ZM73.1193 27.832C73.5831 28.1412 74.1347 28.29 74.762 28.29V27.79C74.2159 27.79 73.7649 27.6615 73.3967 27.416L73.1193 27.832ZM80.3213 29H80.0713V29.25H80.3213V29ZM80.3213 21V20.75H80.0713V21H80.3213ZM81.5213 21H81.7713V20.75H81.5213V21ZM81.5213 22.968H81.2713L81.7602 23.0415L81.5213 22.968ZM81.7613 22.424L81.5417 22.3043L81.5398 22.308L81.7613 22.424ZM82.3053 21.72L82.482 21.8968L82.482 21.8968L82.3053 21.72ZM83.1853 21.128L83.2887 21.3556L83.2917 21.3542L83.1853 21.128ZM84.5453 20.872H84.7953V20.622H84.5453V20.872ZM84.5453 22.072V22.322H84.7953V22.072H84.5453ZM82.8493 22.568L82.9993 22.768L83 22.7674L82.8493 22.568ZM81.8573 23.832L81.6292 23.7296L81.6282 23.7318L81.8573 23.832ZM81.5213 29V29.25H81.7713V29H81.5213ZM80.5713 29V21H80.0713V29H80.5713ZM80.3213 21.25H81.5213V20.75H80.3213V21.25ZM81.2713 21V22.968H81.7713V21H81.2713ZM81.7602 23.0415C81.7962 22.9244 81.8681 22.7588 81.9827 22.54L81.5398 22.308C81.4197 22.5372 81.3316 22.7342 81.2823 22.8945L81.7602 23.0415ZM81.9807 22.5437C82.0949 22.3343 82.2604 22.1185 82.482 21.8968L82.1285 21.5432C81.8808 21.7909 81.6836 22.0443 81.5418 22.3043L81.9807 22.5437ZM82.482 21.8968C82.6923 21.6865 82.9596 21.5052 83.2887 21.3556L83.0818 20.9004C82.7069 21.0708 82.3875 21.2842 82.1285 21.5432L82.482 21.8968ZM83.2917 21.3542C83.6145 21.2023 84.0033 21.122 84.4653 21.122V20.622C83.9459 20.622 83.4814 20.7123 83.0788 20.9018L83.2917 21.3542ZM84.4653 21.122H84.5453V20.622H84.4653V21.122ZM84.2953 20.872V22.072H84.7953V20.872H84.2953ZM84.5453 21.822H84.4013V22.322H84.5453V21.822ZM84.4013 21.822C83.7547 21.822 83.1832 22.0021 82.6985 22.3686L83 22.7674C83.39 22.4726 83.8532 22.322 84.4013 22.322V21.822ZM82.6993 22.368C82.2362 22.7153 81.8799 23.1713 81.6292 23.7296L82.0853 23.9344C82.304 23.4474 82.6089 23.0607 82.9993 22.768L82.6993 22.368ZM81.6282 23.7318C81.3897 24.277 81.2713 24.8606 81.2713 25.48H81.7713C81.7713 24.9261 81.8768 24.411 82.0863 23.9322L81.6282 23.7318ZM81.2713 25.48V29H81.7713V25.48H81.2713ZM81.5213 28.75H80.3213V29.25H81.5213V28.75ZM87.0578 28.584L86.9269 28.7971L86.9297 28.7987L87.0578 28.584ZM85.6338 27.08L85.4124 27.1963L85.414 27.1992L85.6338 27.08ZM85.6178 22.92L85.8398 23.0349L85.8406 23.0333L85.6178 22.92ZM86.9938 21.432L87.1235 21.6457L87.1262 21.644L86.9938 21.432ZM91.2178 21.432L91.0835 21.643L91.088 21.6457L91.2178 21.432ZM92.5938 22.92L92.3709 23.0333L92.3717 23.0349L92.5938 22.92ZM93.0738 25.48V25.73H93.3238V25.48H93.0738ZM86.3698 25.48V25.23H86.0833L86.122 25.5138L86.3698 25.48ZM86.8178 26.776L86.6028 26.9038L86.6071 26.9106L86.8178 26.776ZM87.7938 27.704L87.6685 27.9204L87.6728 27.9228L87.7938 27.704ZM90.6258 27.672L90.7604 27.8827L90.7644 27.88L90.6258 27.672ZM91.5218 26.696V26.446H91.3727L91.3018 26.5771L91.5218 26.696ZM92.8338 26.696L93.0668 26.7864L93.1989 26.446H92.8338V26.696ZM91.5058 28.456L91.6558 28.656L91.6563 28.6556L91.5058 28.456ZM86.3858 24.36L86.1394 24.3177L86.0891 24.61H86.3858V24.36ZM91.8258 24.36V24.61H92.1178L92.0728 24.3214L91.8258 24.36ZM90.9618 22.648L91.1365 22.4692L91.1365 22.4692L90.9618 22.648ZM87.2498 22.648L87.075 22.4692L87.073 22.4712L87.2498 22.648ZM89.1858 28.878C88.4135 28.878 87.7497 28.7057 87.1858 28.3693L86.9297 28.7987C87.5818 29.1877 88.3367 29.378 89.1858 29.378V28.878ZM87.1886 28.371C86.6181 28.0207 86.174 27.5517 85.8535 26.9608L85.414 27.1992C85.7762 27.8669 86.2814 28.4007 86.9269 28.797L87.1886 28.371ZM85.8551 26.9637C85.5445 26.3726 85.3878 25.7195 85.3878 25H84.8878C84.8878 25.7951 85.0617 26.5288 85.4124 27.1963L85.8551 26.9637ZM85.3878 25C85.3878 24.2678 85.54 23.6145 85.8398 23.0349L85.3957 22.8051C85.0555 23.4628 84.8878 24.1962 84.8878 25H85.3878ZM85.8406 23.0333C86.1397 22.445 86.5664 21.984 87.1235 21.6457L86.864 21.2183C86.2265 21.6054 85.7358 22.1363 85.3949 22.8067L85.8406 23.0333ZM87.1262 21.644C87.6781 21.2991 88.3347 21.122 89.1058 21.122V20.622C88.2554 20.622 87.504 20.8183 86.8613 21.22L87.1262 21.644ZM89.1058 21.122C89.8883 21.122 90.5438 21.2994 91.0835 21.6429L91.352 21.2211C90.7184 20.8179 89.9659 20.622 89.1058 20.622V21.122ZM91.088 21.6457C91.6451 21.984 92.0718 22.445 92.3709 23.0333L92.8166 22.8067C92.4757 22.1363 91.985 21.6054 91.3475 21.2183L91.088 21.6457ZM92.3717 23.0349C92.6715 23.6145 92.8238 24.2678 92.8238 25H93.3238C93.3238 24.1962 93.156 23.4628 92.8158 22.8051L92.3717 23.0349ZM92.8238 25V25.48H93.3238V25H92.8238ZM93.0738 25.23H86.3698V25.73H93.0738V25.23ZM86.122 25.5138C86.1904 26.0153 86.3505 26.4794 86.6029 26.9038L87.0326 26.6482C86.8156 26.2833 86.6771 25.8834 86.6175 25.4462L86.122 25.5138ZM86.6071 26.9106C86.8745 27.3292 87.2296 27.6662 87.6685 27.9204L87.919 27.4876C87.5473 27.2724 87.2516 26.9908 87.0284 26.6414L86.6071 26.9106ZM87.6728 27.9228C88.1205 28.1702 88.6326 28.29 89.2018 28.29V27.79C88.7042 27.79 88.2777 27.6858 87.9147 27.4852L87.6728 27.9228ZM89.2018 28.29C89.8033 28.29 90.3275 28.1592 90.7603 27.8827L90.4912 27.4613C90.156 27.6754 89.7309 27.79 89.2018 27.79V28.29ZM90.7644 27.88C91.1814 27.6021 91.5084 27.2465 91.7417 26.8149L91.3018 26.5771C91.1085 26.9348 90.8381 27.2299 90.4871 27.464L90.7644 27.88ZM91.5218 26.946H92.8338V26.446H91.5218V26.946ZM92.6007 26.6056C92.3401 27.2772 91.9258 27.8259 91.3552 28.2564L91.6563 28.6556C92.3017 28.1687 92.7728 27.5442 93.0668 26.7864L92.6007 26.6056ZM91.3558 28.256C90.8122 28.6637 90.0958 28.878 89.1858 28.878V29.378C90.1744 29.378 91.0046 29.1443 91.6558 28.656L91.3558 28.256ZM86.3858 24.61H91.8258V24.11H86.3858V24.61ZM92.0728 24.3214C91.9582 23.5884 91.6465 22.9677 91.1365 22.4692L90.787 22.8268C91.2156 23.2457 91.4799 23.7662 91.5787 24.3986L92.0728 24.3214ZM91.1365 22.4692C90.6125 21.9572 89.9271 21.71 89.1058 21.71V22.21C89.8204 22.21 90.3723 22.4215 90.787 22.8268L91.1365 22.4692ZM89.1058 21.71C88.2844 21.71 87.599 21.9572 87.075 22.4692L87.4245 22.8268C87.8392 22.4215 88.3911 22.21 89.1058 22.21V21.71ZM87.073 22.4712C86.5752 22.969 86.2648 23.5877 86.1394 24.3177L86.6321 24.4023C86.7413 23.767 87.0069 23.2444 87.4265 22.8248L87.073 22.4712ZM98.2023 29H97.9523V29.25H98.2023V29ZM98.2023 18.408V18.158H97.9523V18.408H98.2023ZM105.85 18.408H106.1V18.158H105.85V18.408ZM105.85 19.56V19.81H106.1V19.56H105.85ZM99.4023 19.56V19.31H99.1523V19.56H99.4023ZM99.4023 23.24H99.1523V23.49H99.4023V23.24ZM105.146 23.24H105.396V22.99H105.146V23.24ZM105.146 24.408V24.658H105.396V24.408H105.146ZM99.4023 24.408V24.158H99.1523V24.408H99.4023ZM99.4023 29V29.25H99.6523V29H99.4023ZM98.4523 29V18.408H97.9523V29H98.4523ZM98.2023 18.658H105.85V18.158H98.2023V18.658ZM105.6 18.408V19.56H106.1V18.408H105.6ZM105.85 19.31H99.4023V19.81H105.85V19.31ZM99.1523 19.56V23.24H99.6523V19.56H99.1523ZM99.4023 23.49H105.146V22.99H99.4023V23.49ZM104.896 23.24V24.408H105.396V23.24H104.896ZM105.146 24.158H99.4023V24.658H105.146V24.158ZM99.1523 24.408V29H99.6523V24.408H99.1523ZM99.4023 28.75H98.2023V29.25H99.4023V28.75ZM108.698 28.728L108.805 28.5019L108.805 28.5019L108.698 28.728ZM107.338 27.624L107.135 27.7689L107.136 27.771L107.338 27.624ZM107.338 24.44L107.537 24.5915L107.539 24.5893L107.338 24.44ZM108.778 23.4L108.867 23.6337L109.538 23.3793L108.854 23.1618L108.778 23.4ZM108.042 22.968L107.874 23.1528L107.882 23.1601L108.042 22.968ZM107.418 22.168L107.196 22.2829L107.199 22.2888L107.418 22.168ZM108.074 19.112L107.904 18.9288L107.904 18.9288L108.074 19.112ZM112.49 18.616L112.383 18.8417L112.387 18.8436L112.49 18.616ZM113.562 19.448L113.359 19.594L113.365 19.601L113.562 19.448ZM114.058 20.488V20.738H114.365L114.303 20.4376L114.058 20.488ZM112.794 20.488L112.554 20.558L112.607 20.738H112.794V20.488ZM112.138 19.736L111.995 19.9411L111.998 19.9431L112.138 19.736ZM108.922 19.912L109.096 20.0914L109.097 20.0913L108.922 19.912ZM109.002 22.52L109.145 22.3145L109.145 22.3145L109.002 22.52ZM113.034 22.952V23.202H113.284V22.952H113.034ZM113.034 22.248V21.998H112.784V22.248H113.034ZM114.154 22.248H114.404V21.998H114.154V22.248ZM114.154 22.952H113.904V23.202H114.154V22.952ZM115.194 22.952H115.444V22.702H115.194V22.952ZM115.194 24.024V24.274H115.444V24.024H115.194ZM114.154 24.024V23.774H113.904V24.024H114.154ZM113.194 28.28L113.36 28.4674L113.362 28.4658L113.194 28.28ZM112.41 27.48L112.582 27.6615L112.582 27.6614L112.41 27.48ZM113.034 24.024H113.284V23.774H113.034V24.024ZM109.114 24.296L109 24.0737L108.997 24.0752L109.114 24.296ZM108.314 25.016L108.522 25.1547L108.525 25.1512L108.314 25.016ZM108.33 27.016L108.119 27.1499L108.125 27.1579L108.33 27.016ZM109.21 27.768L109.096 27.9903L109.099 27.9916L109.21 27.768ZM110.538 28.878C109.912 28.878 109.335 28.7519 108.805 28.5019L108.592 28.9541C109.192 29.2374 109.842 29.378 110.538 29.378V28.878ZM108.805 28.5019C108.275 28.2517 107.855 27.9097 107.541 27.477L107.136 27.771C107.504 28.2769 107.991 28.6709 108.592 28.9541L108.805 28.5019ZM107.542 27.4791C107.233 27.0444 107.076 26.5412 107.076 25.96H106.576C106.576 26.6375 106.761 27.2436 107.135 27.7689L107.542 27.4791ZM107.076 25.96C107.076 25.4492 107.229 24.9958 107.537 24.5915L107.14 24.2885C106.765 24.7802 106.576 25.3401 106.576 25.96H107.076ZM107.539 24.5893C107.848 24.1746 108.286 23.8542 108.867 23.6337L108.69 23.1663C108.034 23.4151 107.512 23.7881 107.138 24.2907L107.539 24.5893ZM108.854 23.1618C108.659 23.0997 108.442 22.9755 108.202 22.7759L107.882 23.1601C108.155 23.3872 108.428 23.551 108.703 23.6382L108.854 23.1618ZM108.211 22.7834C107.987 22.5789 107.796 22.3342 107.637 22.0472L107.199 22.2888C107.382 22.6205 107.607 22.9091 107.874 23.1526L108.211 22.7834ZM107.64 22.0531C107.499 21.7797 107.428 21.4885 107.428 21.176H106.928C106.928 21.5675 107.018 21.9376 107.196 22.2829L107.64 22.0531ZM107.428 21.176C107.428 20.4236 107.699 19.8022 108.244 19.2952L107.904 18.9288C107.256 19.5312 106.928 20.2857 106.928 21.176H107.428ZM108.244 19.2952C108.779 18.7984 109.583 18.53 110.698 18.53V18.03C109.509 18.03 108.564 18.3162 107.904 18.9288L108.244 19.2952ZM110.698 18.53C111.4 18.53 111.958 18.6387 112.383 18.8416L112.598 18.3904C112.085 18.1453 111.447 18.03 110.698 18.03V18.53ZM112.387 18.8436C112.825 19.0429 113.145 19.2952 113.359 19.5939L113.765 19.3021C113.489 18.9181 113.094 18.6157 112.594 18.3884L112.387 18.8436ZM113.365 19.601C113.6 19.9055 113.747 20.2177 113.814 20.5384L114.303 20.4376C114.22 20.033 114.036 19.6519 113.76 19.295L113.365 19.601ZM114.058 20.238H112.794V20.738H114.058V20.238ZM113.034 20.418C112.936 20.08 112.661 19.7875 112.278 19.5289L111.998 19.9431C112.341 20.1752 112.504 20.384 112.554 20.558L113.034 20.418ZM112.281 19.5309C111.872 19.2456 111.324 19.118 110.666 19.118V19.618C111.267 19.618 111.701 19.7357 111.995 19.9411L112.281 19.5309ZM110.666 19.118C109.845 19.118 109.187 19.306 108.748 19.7327L109.097 20.0913C109.404 19.7926 109.909 19.618 110.666 19.618V19.118ZM108.748 19.7326C108.338 20.1313 108.128 20.6225 108.128 21.192H108.628C108.628 20.7589 108.782 20.3967 109.096 20.0914L108.748 19.7326ZM108.128 21.192C108.128 21.8544 108.364 22.382 108.86 22.7255L109.145 22.3145C108.809 22.082 108.628 21.7243 108.628 21.192H108.128ZM108.86 22.7255C109.322 23.0453 109.858 23.202 110.458 23.202V22.702C109.949 22.702 109.515 22.5707 109.145 22.3145L108.86 22.7255ZM110.458 23.202H113.034V22.702H110.458V23.202ZM113.284 22.952V22.248H112.784V22.952H113.284ZM113.034 22.498H114.154V21.998H113.034V22.498ZM113.904 22.248V22.952H114.404V22.248H113.904ZM114.154 23.202H115.194V22.702H114.154V23.202ZM114.944 22.952V24.024H115.444V22.952H114.944ZM115.194 23.774H114.154V24.274H115.194V23.774ZM113.904 24.024V26.056H114.404V24.024H113.904ZM113.904 26.056C113.904 26.896 113.611 27.5684 113.027 28.0942L113.362 28.4658C114.057 27.8396 114.404 27.0293 114.404 26.056H113.904ZM113.029 28.0926C112.448 28.606 111.628 28.878 110.538 28.878V29.378C111.71 29.378 112.661 29.0846 113.36 28.4674L113.029 28.0926ZM110.538 28.306C111.413 28.306 112.112 28.1074 112.582 27.6615L112.238 27.2985C111.898 27.6206 111.349 27.806 110.538 27.806V28.306ZM112.582 27.6614C113.039 27.2282 113.284 26.7229 113.284 26.152H112.784C112.784 26.5624 112.614 26.9425 112.238 27.2986L112.582 27.6614ZM113.284 26.152V24.024H112.784V26.152H113.284ZM113.034 23.774H110.314V24.274H113.034V23.774ZM110.314 23.774C109.832 23.774 109.392 23.8719 109 24.0738L109.229 24.5182C109.541 24.3574 109.901 24.274 110.314 24.274V23.774ZM108.997 24.0752C108.621 24.2748 108.321 24.543 108.104 24.8808L108.525 25.1512C108.691 24.8917 108.925 24.6798 109.232 24.5168L108.997 24.0752ZM108.106 24.8773C107.886 25.2084 107.776 25.5825 107.776 25.992H108.276C108.276 25.6762 108.359 25.3996 108.522 25.1547L108.106 24.8773ZM107.776 25.992C107.776 26.4042 107.892 26.7916 108.119 27.1498L108.542 26.8822C108.363 26.6004 108.276 26.3051 108.276 25.992H107.776ZM108.125 27.1579C108.364 27.505 108.69 27.7817 109.096 27.9903L109.325 27.5457C108.984 27.3703 108.723 27.1457 108.536 26.8741L108.125 27.1579ZM109.099 27.9916C109.523 28.2037 110.005 28.306 110.538 28.306V27.806C110.069 27.806 109.666 27.7163 109.322 27.5444L109.099 27.9916ZM116.812 29H116.562V29.25H116.812V29ZM116.812 18.408V18.158H116.562V18.408H116.812ZM123.532 18.84L123.403 19.0544L123.405 19.0556L123.532 18.84ZM124.588 19.928L124.363 20.0376L124.364 20.0398L124.588 19.928ZM124.476 22.792L124.671 22.9475L124.674 22.9447L124.476 22.792ZM123.484 23.592L123.38 23.3646L122.793 23.6327L123.407 23.83L123.484 23.592ZM124.38 24.056L124.234 24.2596L124.243 24.2651L124.38 24.056ZM125.148 24.888L125.364 24.7633L125.364 24.7633L125.148 24.888ZM124.54 28.2L124.375 28.0121L124.373 28.0135L124.54 28.2ZM118.012 23.144H117.762V23.394H118.012V23.144ZM122.604 22.952L122.513 22.7188L122.511 22.7199L122.604 22.952ZM123.404 22.36L123.603 22.5113L123.605 22.5075L123.404 22.36ZM123.5 20.456L123.274 20.5642L123.278 20.5713L123.5 20.456ZM122.86 19.8L122.732 20.0151L122.736 20.0171L122.86 19.8ZM118.012 19.544V19.294H117.762V19.544H118.012ZM118.012 27.864H117.762V28.114H118.012V27.864ZM123.644 27.416L123.794 27.6154L123.795 27.6147L123.644 27.416ZM123.676 24.808L123.499 24.9848L123.501 24.9872L123.676 24.808ZM118.012 24.232V23.982H117.762V24.232H118.012ZM117.062 29V18.408H116.562V29H117.062ZM116.812 18.658H121.564V18.158H116.812V18.658ZM121.564 18.658C122.371 18.658 122.976 18.7984 123.403 19.0544L123.66 18.6256C123.127 18.3056 122.42 18.158 121.564 18.158V18.658ZM123.405 19.0556C123.861 19.323 124.175 19.6516 124.363 20.0376L124.812 19.8184C124.574 19.3298 124.184 18.933 123.658 18.6244L123.405 19.0556ZM124.364 20.0398C124.562 20.4359 124.658 20.8245 124.658 21.208H125.158C125.158 20.7381 125.04 20.2734 124.811 19.8162L124.364 20.0398ZM124.658 21.208C124.658 21.8593 124.52 22.3255 124.278 22.6393L124.674 22.9447C125.007 22.5118 125.158 21.922 125.158 21.208H124.658ZM124.28 22.6365C124.013 22.9723 123.713 23.2124 123.38 23.3646L123.588 23.8194C124.001 23.6303 124.362 23.337 124.671 22.9475L124.28 22.6365ZM123.407 23.83C123.677 23.9169 123.953 24.0586 124.234 24.2594L124.525 23.8526C124.209 23.6267 123.887 23.4591 123.56 23.354L123.407 23.83ZM124.243 24.2651C124.516 24.4442 124.746 24.6913 124.931 25.0127L125.364 24.7633C125.144 24.3807 124.862 24.0731 124.517 23.8469L124.243 24.2651ZM124.931 25.0127C125.106 25.3167 125.202 25.7131 125.202 26.216H125.702C125.702 25.6522 125.595 25.1633 125.364 24.7633L124.931 25.0127ZM125.202 26.216C125.202 26.9313 124.93 27.5249 124.375 28.0121L124.704 28.3879C125.365 27.8085 125.702 27.0793 125.702 26.216H125.202ZM124.373 28.0135C123.84 28.4896 123.01 28.75 121.836 28.75V29.25C123.072 29.25 124.045 28.9771 124.706 28.3865L124.373 28.0135ZM121.836 28.75H116.812V29.25H121.836V28.75ZM118.012 23.394H121.564V22.894H118.012V23.394ZM121.564 23.394C121.966 23.394 122.345 23.3249 122.696 23.1841L122.511 22.7199C122.223 22.8351 121.908 22.894 121.564 22.894V23.394ZM122.694 23.1851C123.065 23.0415 123.37 22.817 123.603 22.5113L123.205 22.2087C123.032 22.4364 122.804 22.6065 122.513 22.7189L122.694 23.1851ZM123.605 22.5075C123.846 22.1779 123.958 21.7707 123.958 21.304H123.458C123.458 21.6907 123.366 21.9874 123.202 22.2125L123.605 22.5075ZM123.958 21.304C123.958 20.9649 123.878 20.6427 123.721 20.3407L123.278 20.5713C123.398 20.8026 123.458 21.0458 123.458 21.304H123.958ZM123.725 20.3478C123.572 20.0283 123.319 19.7746 122.984 19.5829L122.736 20.0171C122.998 20.1668 123.172 20.3504 123.274 20.5642L123.725 20.3478ZM122.987 19.5849C122.647 19.3831 122.208 19.294 121.692 19.294V19.794C122.157 19.794 122.497 19.8755 122.732 20.0151L122.987 19.5849ZM121.692 19.294H118.012V19.794H121.692V19.294ZM117.762 19.544V23.144H118.262V19.544H117.762ZM118.012 28.114H121.964V27.614H118.012V28.114ZM121.964 28.114C122.719 28.114 123.34 27.959 123.794 27.6154L123.493 27.2166C123.158 27.4703 122.659 27.614 121.964 27.614V28.114ZM123.795 27.6147C124.269 27.2535 124.502 26.7447 124.502 26.12H124.002C124.002 26.6046 123.829 26.9598 123.492 27.2173L123.795 27.6147ZM124.502 26.12C124.502 25.5462 124.279 25.0456 123.85 24.6288L123.501 24.9872C123.841 25.3171 124.002 25.6912 124.002 26.12H124.502ZM123.852 24.6312C123.401 24.18 122.709 23.982 121.836 23.982V24.482C122.648 24.482 123.182 24.668 123.499 24.9848L123.852 24.6312ZM121.836 23.982H118.012V24.482H121.836V23.982ZM117.762 24.232V27.864H118.262V24.232H117.762Z" fill="black"/>
</svg>
