<svg width="1441" height="170" viewBox="0 0 1441 170" fill="none" xmlns="http://www.w3.org/2000/svg">
<mask id="path-1-inside-1_4998_8396" fill="white">
<path d="M0 0H1441V170H0V0Z"/>
</mask>
<path d="M0 0H1441V170H0V0Z" fill="black"/>
<path d="M0 1H1441V-1H0V1Z" fill="#BDBDBD" mask="url(#path-1-inside-1_4998_8396)"/>
<path d="M159.844 95.7655H161.38C163.695 95.7655 165.075 94.7087 165.075 92.8488C165.075 90.9888 163.695 89.9531 161.38 89.9531H157.463V98.4076H159.844V95.7655ZM159.844 93.9267V91.7708H161.269C162.337 91.7708 162.76 92.1513 162.76 92.8488C162.76 93.5674 162.359 93.9267 161.269 93.9267H159.844ZM169.103 92.574H169.17L170.194 95.0681H168.102L169.103 92.574ZM171.529 98.4076H174.089L170.55 89.9531H167.857L164.318 98.4076H166.722L167.39 96.7801H170.862L171.529 98.4076ZM177.116 93.8422V91.7708H178.83C179.854 91.7708 180.366 92.1301 180.366 92.8276C180.366 93.5885 179.854 93.8422 178.83 93.8422H177.116ZM182.836 98.4076C182.68 98.2596 182.591 98.0482 182.547 97.7946C182.502 97.541 182.458 97.0971 182.369 96.463C182.28 95.4908 181.723 94.9835 180.811 94.8144C181.879 94.6876 182.703 93.8844 182.703 92.6374C182.703 90.9888 181.567 89.9531 179.253 89.9531H174.757V98.4076H177.116V95.5965H178.718C179.52 95.5965 179.965 95.8078 180.032 96.7801C180.098 97.6467 180.21 98.1751 180.41 98.4076H182.836ZM192.295 98.4076L188.69 93.5463L192.117 89.9531H189.357L186.175 93.3772V89.9531H183.771V98.4076H186.175V95.8501L186.954 95.0469L189.424 98.4076H192.295Z" fill="white"/>
<path d="M157.025 82.9995C157.025 84.3099 157.471 85.3456 158.339 86.1699C159.207 86.9942 160.297 87.3958 161.588 87.3958C162.946 87.3958 163.992 87.0365 164.704 86.3178C165.439 85.5992 165.839 84.7115 165.928 83.6547L163.636 83.5701C163.569 84.0351 163.391 84.4579 163.079 84.8383C162.768 85.1976 162.278 85.3878 161.588 85.3878C160.297 85.3878 159.518 84.4579 159.518 83.0206C159.518 81.5834 160.297 80.6534 161.588 80.6534C162.278 80.6534 162.768 80.8436 163.079 81.224C163.391 81.5834 163.569 82.0061 163.636 82.4711L165.928 82.3865C165.839 81.3297 165.439 80.4631 164.704 79.7234C163.992 78.9836 162.946 78.6243 161.588 78.6243C160.297 78.6243 159.207 79.0259 158.339 79.8502C157.448 80.6534 157.025 81.689 157.025 82.9995ZM175.721 82.9995C175.721 81.689 175.276 80.6534 174.386 79.8291C173.496 79.0048 172.383 78.6032 171.114 78.6032C169.823 78.6032 168.733 79.0048 167.842 79.8291C166.952 80.6534 166.507 81.689 166.507 82.9995C166.507 84.3099 166.952 85.3456 167.842 86.1699C168.733 86.9942 169.846 87.3958 171.114 87.3958C172.405 87.3958 173.496 86.9942 174.386 86.1699C175.276 85.3456 175.721 84.2888 175.721 82.9995ZM173.251 82.9995C173.251 84.4367 172.405 85.3667 171.114 85.3667C169.823 85.3667 168.955 84.4367 168.955 82.9995C168.955 81.5622 169.801 80.6322 171.114 80.6322C172.405 80.6111 173.251 81.5622 173.251 82.9995ZM183.511 78.7723H181.352L179.884 84.0774H179.817L178.415 78.7723H176.011L178.348 87.2267H180.863L182.354 81.8793H182.421L183.912 87.2267H186.472L188.809 78.7723H186.494L185.092 84.0774H185.025L183.511 78.7723ZM198.29 82.9995C198.29 81.689 197.845 80.6534 196.955 79.8291C196.064 79.0048 194.952 78.6032 193.683 78.6032C192.392 78.6032 191.301 79.0048 190.411 79.8291C189.521 80.6534 189.076 81.689 189.076 82.9995C189.076 84.3099 189.521 85.3456 190.411 86.1699C191.301 86.9942 192.392 87.3958 193.683 87.3958C194.974 87.3958 196.064 86.9942 196.955 86.1699C197.823 85.3456 198.29 84.2888 198.29 82.9995ZM195.82 82.9995C195.82 84.4367 194.974 85.3667 193.661 85.3667C192.37 85.3667 191.502 84.4367 191.502 82.9995C191.502 81.5622 192.348 80.6322 193.661 80.6322C194.974 80.6111 195.82 81.5622 195.82 82.9995ZM201.607 82.6613V80.59H203.32C204.344 80.59 204.856 80.9493 204.856 81.6468C204.856 82.4077 204.344 82.6613 203.32 82.6613H201.607ZM207.327 87.2267C207.171 87.0787 207.082 86.8674 207.037 86.6137C206.993 86.3601 206.948 85.9162 206.859 85.2822C206.77 84.3099 206.214 83.8026 205.301 83.6335C206.37 83.5067 207.193 82.7036 207.193 81.4565C207.193 79.8079 206.058 78.7723 203.743 78.7723H199.247V87.2267H201.607V84.4156H203.209C204.01 84.4156 204.455 84.6269 204.522 85.5992C204.589 86.4658 204.7 86.9942 204.878 87.2267H207.327ZM216.764 87.2267L213.158 82.3654L216.586 78.7723H213.826L210.643 82.1963V78.7723H208.239V87.2267H210.643V84.6481L211.422 83.8449L213.892 87.2055H216.764V87.2267ZM217.298 87.2267H219.702V78.7723H217.298V87.2267ZM223.352 78.7723H221.059V87.2267H223.263V82.2174L227.113 87.2267H229.027V78.7723H226.824V83.4645L223.352 78.7723ZM234.325 87.3746C235.46 87.3746 236.417 87.0365 236.906 86.2756V87.2055H238.999V82.8304H234.77V84.4579H236.728C236.372 85.1131 235.615 85.4301 234.836 85.4301C233.301 85.4301 232.477 84.4367 232.477 82.9783C232.477 81.5411 233.256 80.6111 234.658 80.6111C235.794 80.6111 236.483 81.224 236.617 82.1329L238.954 82.0483C238.776 79.9559 237.218 78.582 234.614 78.582C233.323 78.582 232.232 78.9836 231.342 79.8079C230.452 80.6322 230.007 81.6679 230.007 82.9783C230.007 84.2888 230.407 85.3456 231.253 86.1487C232.077 86.973 233.1 87.3746 234.325 87.3746Z" fill="white"/>
<path d="M161.554 70.1931H161.621L162.645 72.6872H160.552L161.554 70.1931ZM164.002 76.0267H166.562L163.023 67.5723H160.33L156.791 76.0267H159.217L159.885 74.3992H163.357L164.002 76.0267Z" fill="white"/>
<path d="M145.748 67.5723H144.746V98.3886H145.748V67.5723Z" fill="white"/>
<path d="M87.8487 74.3342C83.1079 74.3342 80.0142 77.7583 80.0142 83C80.0142 88.2417 83.1079 91.6658 87.8487 91.6658C92.5895 91.6658 95.6832 88.2417 95.6832 83C95.661 77.7583 92.5672 74.3342 87.8487 74.3342ZM99.7785 94.5403C96.529 97.5205 92.5227 99 87.8264 99C83.1302 99 79.1239 97.5416 75.8743 94.5403C72.647 91.5601 71 87.7345 71 83C71 78.2655 72.647 74.4399 75.8966 71.4597C79.1461 68.4584 83.1524 67 87.8487 67C92.5449 67 96.5512 68.4584 99.8008 71.4597C103.05 74.4399 104.697 78.2655 104.697 83C104.675 87.7345 103.028 91.5601 99.7785 94.5403Z" fill="white"/>
<path d="M133.7 91.5621V98.389H106.213V92.0905L122.171 74.4418H106.369V67.5938H133.3V74.0403L117.23 91.5621H133.7Z" fill="white"/>
<path d="M603.057 135.169C602.442 135.169 601.865 135.056 601.328 134.831C600.791 134.597 600.318 134.276 599.911 133.869C599.504 133.462 599.183 132.989 598.949 132.452C598.724 131.915 598.611 131.338 598.611 130.723C598.611 130.108 598.724 129.531 598.949 128.994C599.183 128.448 599.504 127.971 599.911 127.564C600.318 127.157 600.791 126.84 601.328 126.615C601.865 126.381 602.442 126.264 603.057 126.264C603.672 126.264 604.249 126.381 604.786 126.615C605.323 126.84 605.796 127.157 606.203 127.564C606.619 127.971 606.94 128.448 607.165 128.994C607.399 129.531 607.516 130.108 607.516 130.723C607.516 131.338 607.399 131.915 607.165 132.452C606.94 132.989 606.619 133.462 606.203 133.869C605.796 134.276 605.323 134.597 604.786 134.831C604.249 135.056 603.672 135.169 603.057 135.169ZM603.057 134.532C603.586 134.532 604.08 134.432 604.539 134.233C604.998 134.034 605.401 133.761 605.748 133.414C606.103 133.059 606.381 132.651 606.58 132.192C606.779 131.733 606.879 131.243 606.879 130.723C606.879 130.194 606.779 129.7 606.58 129.241C606.381 128.782 606.103 128.379 605.748 128.032C605.401 127.677 604.998 127.399 604.539 127.2C604.08 127.001 603.586 126.901 603.057 126.901C602.528 126.901 602.034 127.001 601.575 127.2C601.116 127.399 600.708 127.677 600.353 128.032C600.006 128.379 599.733 128.782 599.534 129.241C599.343 129.7 599.248 130.194 599.248 130.723C599.248 131.243 599.343 131.733 599.534 132.192C599.733 132.651 600.006 133.059 600.353 133.414C600.708 133.761 601.116 134.034 601.575 134.233C602.034 134.432 602.528 134.532 603.057 134.532ZM603.057 133.271C602.554 133.271 602.121 133.163 601.757 132.946C601.393 132.721 601.111 132.417 600.912 132.036C600.721 131.646 600.626 131.208 600.626 130.723C600.626 130.229 600.721 129.791 600.912 129.41C601.111 129.029 601.393 128.73 601.757 128.513C602.121 128.296 602.554 128.188 603.057 128.188C603.646 128.188 604.158 128.34 604.591 128.643C605.033 128.946 605.302 129.41 605.397 130.034H604.526C604.465 129.713 604.309 129.462 604.058 129.28C603.815 129.098 603.503 129.007 603.122 129.007C602.619 129.007 602.225 129.167 601.939 129.488C601.653 129.8 601.51 130.212 601.51 130.723C601.51 131.226 601.653 131.637 601.939 131.958C602.225 132.279 602.619 132.439 603.122 132.439C603.503 132.439 603.815 132.348 604.058 132.166C604.309 131.984 604.465 131.733 604.526 131.412H605.397C605.302 132.045 605.033 132.513 604.591 132.816C604.158 133.119 603.646 133.271 603.057 133.271ZM611.574 135V134.467C611.574 134.042 611.691 133.657 611.925 133.31C612.159 132.955 612.458 132.625 612.822 132.322C613.186 132.019 613.576 131.728 613.992 131.451C614.408 131.165 614.798 130.888 615.162 130.619C615.526 130.35 615.825 130.073 616.059 129.787C616.293 129.492 616.41 129.18 616.41 128.851C616.41 128.348 616.241 127.954 615.903 127.668C615.574 127.382 615.097 127.239 614.473 127.239C613.901 127.239 613.433 127.369 613.069 127.629C612.714 127.88 612.502 128.249 612.432 128.734H611.457C611.509 128.24 611.67 127.811 611.938 127.447C612.216 127.074 612.571 126.788 613.004 126.589C613.438 126.39 613.919 126.29 614.447 126.29C615.071 126.29 615.6 126.403 616.033 126.628C616.475 126.853 616.809 127.157 617.034 127.538C617.268 127.919 617.385 128.348 617.385 128.825C617.385 129.224 617.277 129.596 617.06 129.943C616.844 130.29 616.562 130.615 616.215 130.918C615.869 131.221 615.5 131.507 615.11 131.776C614.729 132.045 614.361 132.309 614.005 132.569C613.65 132.82 613.355 133.072 613.121 133.323C612.887 133.566 612.757 133.813 612.731 134.064H617.359V135H611.574ZM621.621 135.104C620.607 135.104 619.849 134.731 619.346 133.986C618.852 133.232 618.605 132.136 618.605 130.697C618.605 129.258 618.852 128.166 619.346 127.421C619.849 126.667 620.607 126.29 621.621 126.29C622.21 126.299 622.7 126.429 623.09 126.68C623.48 126.923 623.788 127.252 624.013 127.668C624.238 128.084 624.399 128.552 624.494 129.072C624.589 129.592 624.637 130.134 624.637 130.697C624.637 132.136 624.386 133.232 623.883 133.986C623.389 134.731 622.635 135.104 621.621 135.104ZM621.621 134.155C622.063 134.146 622.418 134.038 622.687 133.83C622.956 133.622 623.159 133.349 623.298 133.011C623.445 132.673 623.541 132.305 623.584 131.906C623.636 131.499 623.662 131.096 623.662 130.697C623.662 129.544 623.502 128.682 623.181 128.11C622.86 127.529 622.34 127.239 621.621 127.239C620.91 127.239 620.39 127.529 620.061 128.11C619.74 128.682 619.58 129.544 619.58 130.697C619.58 131.85 619.74 132.716 620.061 133.297C620.39 133.869 620.91 134.155 621.621 134.155ZM625.869 135V134.467C625.869 134.042 625.986 133.657 626.22 133.31C626.454 132.955 626.753 132.625 627.117 132.322C627.481 132.019 627.871 131.728 628.287 131.451C628.703 131.165 629.093 130.888 629.457 130.619C629.821 130.35 630.12 130.073 630.354 129.787C630.588 129.492 630.705 129.18 630.705 128.851C630.705 128.348 630.536 127.954 630.198 127.668C629.869 127.382 629.392 127.239 628.768 127.239C628.196 127.239 627.728 127.369 627.364 127.629C627.009 127.88 626.797 128.249 626.727 128.734H625.752C625.804 128.24 625.965 127.811 626.233 127.447C626.511 127.074 626.866 126.788 627.299 126.589C627.733 126.39 628.214 126.29 628.742 126.29C629.366 126.29 629.895 126.403 630.328 126.628C630.77 126.853 631.104 127.157 631.329 127.538C631.563 127.919 631.68 128.348 631.68 128.825C631.68 129.224 631.572 129.596 631.355 129.943C631.139 130.29 630.857 130.615 630.51 130.918C630.164 131.221 629.795 131.507 629.405 131.776C629.024 132.045 628.656 132.309 628.3 132.569C627.945 132.82 627.65 133.072 627.416 133.323C627.182 133.566 627.052 133.813 627.026 134.064H631.654V135H625.869ZM635.942 135.104C635.404 135.104 634.91 135 634.46 134.792C634.018 134.575 633.654 134.289 633.368 133.934C633.082 133.579 632.917 133.176 632.874 132.725H633.862C633.905 132.994 634.026 133.236 634.226 133.453C634.425 133.67 634.672 133.843 634.967 133.973C635.27 134.094 635.595 134.155 635.942 134.155C636.557 134.155 637.034 133.999 637.372 133.687C637.718 133.375 637.892 132.998 637.892 132.556C637.892 132.261 637.809 131.993 637.645 131.75C637.489 131.499 637.272 131.299 636.995 131.152C636.717 130.996 636.397 130.918 636.033 130.918H635.045V130.021H635.916C636.219 130.021 636.496 129.965 636.748 129.852C637.008 129.731 637.216 129.566 637.372 129.358C637.528 129.141 637.606 128.894 637.606 128.617C637.606 128.21 637.458 127.88 637.164 127.629C636.878 127.369 636.453 127.239 635.89 127.239C635.361 127.239 634.936 127.36 634.616 127.603C634.304 127.846 634.117 128.132 634.057 128.461H633.108C633.151 128.106 633.281 127.763 633.498 127.434C633.723 127.105 634.035 126.832 634.434 126.615C634.832 126.398 635.309 126.29 635.864 126.29C636.713 126.29 637.376 126.507 637.853 126.94C638.338 127.365 638.581 127.911 638.581 128.578C638.581 128.864 638.511 129.137 638.373 129.397C638.243 129.648 638.078 129.865 637.879 130.047C637.679 130.229 637.48 130.35 637.281 130.411C637.783 130.602 638.173 130.888 638.451 131.269C638.728 131.65 638.867 132.071 638.867 132.53C638.867 133.041 638.737 133.492 638.477 133.882C638.217 134.263 637.866 134.562 637.424 134.779C636.982 134.996 636.488 135.104 635.942 135.104ZM639.631 136.443L640.385 133.674H641.659L640.515 136.443H639.631ZM646.165 135V126.394H647.296L650.377 130.476L653.406 126.394H654.537V135H653.562V127.876L650.377 131.971L647.14 127.876V135H646.165ZM659.174 135.104C658.541 135.104 657.987 134.957 657.51 134.662C657.042 134.359 656.678 133.951 656.418 133.44C656.158 132.929 656.028 132.365 656.028 131.75C656.028 131.126 656.158 130.563 656.418 130.06C656.678 129.549 657.042 129.146 657.51 128.851C657.987 128.548 658.541 128.396 659.174 128.396C659.711 128.396 660.171 128.5 660.552 128.708C660.942 128.916 661.258 129.198 661.501 129.553V128.5H662.476V135H661.501V133.96C661.258 134.307 660.942 134.584 660.552 134.792C660.171 135 659.711 135.104 659.174 135.104ZM659.304 134.22C659.789 134.22 660.197 134.107 660.526 133.882C660.864 133.657 661.12 133.358 661.293 132.985C661.466 132.604 661.553 132.192 661.553 131.75C661.553 131.299 661.466 130.888 661.293 130.515C661.12 130.142 660.864 129.843 660.526 129.618C660.197 129.393 659.789 129.28 659.304 129.28C658.827 129.28 658.416 129.393 658.069 129.618C657.722 129.843 657.458 130.142 657.276 130.515C657.094 130.888 657.003 131.299 657.003 131.75C657.003 132.192 657.094 132.604 657.276 132.985C657.458 133.358 657.722 133.657 658.069 133.882C658.416 134.107 658.827 134.22 659.304 134.22ZM666.905 135.104C666.273 135.104 665.718 134.957 665.241 134.662C664.773 134.359 664.409 133.951 664.149 133.44C663.889 132.929 663.759 132.365 663.759 131.75C663.759 131.126 663.889 130.563 664.149 130.06C664.409 129.549 664.773 129.146 665.241 128.851C665.718 128.548 666.273 128.396 666.905 128.396C667.443 128.396 667.902 128.5 668.283 128.708C668.673 128.916 668.99 129.198 669.232 129.553V125.9H670.207V135H669.232V133.96C668.99 134.307 668.673 134.584 668.283 134.792C667.902 135 667.443 135.104 666.905 135.104ZM667.035 134.22C667.521 134.22 667.928 134.107 668.257 133.882C668.595 133.657 668.851 133.358 669.024 132.985C669.198 132.604 669.284 132.192 669.284 131.75C669.284 131.299 669.198 130.888 669.024 130.515C668.851 130.142 668.595 129.843 668.257 129.618C667.928 129.393 667.521 129.28 667.035 129.28C666.559 129.28 666.147 129.393 665.8 129.618C665.454 129.843 665.189 130.142 665.007 130.515C664.825 130.888 664.734 131.299 664.734 131.75C664.734 132.192 664.825 132.604 665.007 132.985C665.189 133.358 665.454 133.657 665.8 133.882C666.147 134.107 666.559 134.22 667.035 134.22ZM674.78 135.104C674.121 135.104 673.545 134.957 673.051 134.662C672.557 134.359 672.171 133.951 671.894 133.44C671.625 132.929 671.491 132.365 671.491 131.75C671.491 131.126 671.621 130.563 671.881 130.06C672.141 129.549 672.513 129.146 672.999 128.851C673.484 128.548 674.056 128.396 674.715 128.396C675.382 128.396 675.954 128.548 676.431 128.851C676.916 129.146 677.289 129.549 677.549 130.06C677.809 130.563 677.939 131.126 677.939 131.75V132.14H672.492C672.544 132.521 672.665 132.872 672.856 133.193C673.055 133.505 673.319 133.756 673.649 133.947C673.978 134.129 674.359 134.22 674.793 134.22C675.252 134.22 675.638 134.12 675.95 133.921C676.262 133.713 676.504 133.449 676.678 133.128H677.744C677.518 133.709 677.159 134.185 676.665 134.558C676.179 134.922 675.551 135.104 674.78 135.104ZM672.505 131.23H676.925C676.838 130.675 676.604 130.212 676.223 129.839C675.841 129.466 675.339 129.28 674.715 129.28C674.091 129.28 673.588 129.466 673.207 129.839C672.834 130.212 672.6 130.675 672.505 131.23ZM683.159 135L681.118 128.5H682.158L683.718 133.791L685.369 128.5H686.435L688.086 133.791L689.646 128.5H690.686L688.645 135H687.527L685.902 129.813L684.277 135H683.159ZM691.558 127.408V126.134H692.611V127.408H691.558ZM691.597 135V128.5H692.572V135H691.597ZM694.965 135V129.358H693.639V128.5H694.965V126.173H695.94V128.5H697.435V129.358H695.94V135H694.965ZM698.503 135V125.9H699.478V129.514C699.712 129.202 699.998 128.938 700.336 128.721C700.674 128.504 701.108 128.396 701.636 128.396C702.087 128.396 702.507 128.504 702.897 128.721C703.296 128.929 703.617 129.245 703.859 129.67C704.111 130.086 704.236 130.602 704.236 131.217V135H703.261V131.243C703.261 130.654 703.092 130.181 702.754 129.826C702.416 129.462 701.979 129.28 701.441 129.28C701.077 129.28 700.748 129.362 700.453 129.527C700.159 129.692 699.92 129.926 699.738 130.229C699.565 130.524 699.478 130.866 699.478 131.256V135H698.503ZM708.634 137.574V128.5H709.609V129.54C709.852 129.185 710.164 128.907 710.545 128.708C710.935 128.5 711.399 128.396 711.936 128.396C712.569 128.396 713.119 128.548 713.587 128.851C714.064 129.146 714.432 129.549 714.692 130.06C714.952 130.563 715.082 131.126 715.082 131.75C715.082 132.365 714.952 132.929 714.692 133.44C714.432 133.951 714.064 134.359 713.587 134.662C713.119 134.957 712.569 135.104 711.936 135.104C711.399 135.104 710.935 135 710.545 134.792C710.164 134.575 709.852 134.294 709.609 133.947V137.574H708.634ZM711.806 134.22C712.291 134.22 712.703 134.107 713.041 133.882C713.388 133.657 713.652 133.358 713.834 132.985C714.016 132.604 714.107 132.192 714.107 131.75C714.107 131.299 714.016 130.888 713.834 130.515C713.652 130.142 713.388 129.843 713.041 129.618C712.703 129.393 712.291 129.28 711.806 129.28C711.329 129.28 710.922 129.393 710.584 129.618C710.246 129.843 709.99 130.142 709.817 130.515C709.644 130.888 709.557 131.299 709.557 131.75C709.557 132.192 709.644 132.604 709.817 132.985C709.99 133.358 710.246 133.657 710.584 133.882C710.922 134.107 711.329 134.22 711.806 134.22ZM719.109 135.104C718.476 135.104 717.921 134.957 717.445 134.662C716.977 134.359 716.613 133.951 716.353 133.44C716.093 132.929 715.963 132.365 715.963 131.75C715.963 131.126 716.093 130.563 716.353 130.06C716.613 129.549 716.977 129.146 717.445 128.851C717.921 128.548 718.476 128.396 719.109 128.396C719.646 128.396 720.105 128.5 720.487 128.708C720.877 128.916 721.193 129.198 721.436 129.553V128.5H722.411V135H721.436V133.96C721.193 134.307 720.877 134.584 720.487 134.792C720.105 135 719.646 135.104 719.109 135.104ZM719.239 134.22C719.724 134.22 720.131 134.107 720.461 133.882C720.799 133.657 721.054 133.358 721.228 132.985C721.401 132.604 721.488 132.192 721.488 131.75C721.488 131.299 721.401 130.888 721.228 130.515C721.054 130.142 720.799 129.843 720.461 129.618C720.131 129.393 719.724 129.28 719.239 129.28C718.762 129.28 718.35 129.393 718.004 129.618C717.657 129.843 717.393 130.142 717.211 130.515C717.029 130.888 716.938 131.299 716.938 131.75C716.938 132.192 717.029 132.604 717.211 132.985C717.393 133.358 717.657 133.657 718.004 133.882C718.35 134.107 718.762 134.22 719.239 134.22ZM726.463 135.104C725.865 135.104 725.358 135.004 724.942 134.805C724.535 134.606 724.223 134.346 724.006 134.025C723.789 133.696 723.668 133.34 723.642 132.959H724.656C724.682 133.176 724.756 133.388 724.877 133.596C725.007 133.795 725.202 133.96 725.462 134.09C725.722 134.211 726.06 134.272 726.476 134.272C726.606 134.272 726.766 134.259 726.957 134.233C727.148 134.207 727.33 134.159 727.503 134.09C727.685 134.021 727.837 133.917 727.958 133.778C728.079 133.639 728.14 133.462 728.14 133.245C728.14 132.976 728.036 132.768 727.828 132.621C727.62 132.474 727.351 132.361 727.022 132.283C726.693 132.196 726.342 132.114 725.969 132.036C725.605 131.958 725.258 131.858 724.929 131.737C724.6 131.607 724.331 131.429 724.123 131.204C723.915 130.97 723.811 130.654 723.811 130.255C723.811 129.666 724.023 129.211 724.448 128.89C724.881 128.561 725.518 128.396 726.359 128.396C726.931 128.396 727.395 128.487 727.75 128.669C728.114 128.842 728.387 129.068 728.569 129.345C728.76 129.622 728.872 129.921 728.907 130.242H727.919C727.884 129.965 727.746 129.726 727.503 129.527C727.269 129.328 726.879 129.228 726.333 129.228C725.302 129.228 724.786 129.54 724.786 130.164C724.786 130.424 724.89 130.623 725.098 130.762C725.306 130.901 725.575 131.013 725.904 131.1C726.233 131.178 726.58 131.256 726.944 131.334C727.317 131.403 727.668 131.503 727.997 131.633C728.326 131.763 728.595 131.949 728.803 132.192C729.011 132.426 729.115 132.747 729.115 133.154C729.115 133.787 728.872 134.272 728.387 134.61C727.91 134.939 727.269 135.104 726.463 135.104ZM732.734 135.104C732.136 135.104 731.629 135.004 731.213 134.805C730.806 134.606 730.494 134.346 730.277 134.025C730.061 133.696 729.939 133.34 729.913 132.959H730.927C730.953 133.176 731.027 133.388 731.148 133.596C731.278 133.795 731.473 133.96 731.733 134.09C731.993 134.211 732.331 134.272 732.747 134.272C732.877 134.272 733.038 134.259 733.228 134.233C733.419 134.207 733.601 134.159 733.774 134.09C733.956 134.021 734.108 133.917 734.229 133.778C734.351 133.639 734.411 133.462 734.411 133.245C734.411 132.976 734.307 132.768 734.099 132.621C733.891 132.474 733.623 132.361 733.293 132.283C732.964 132.196 732.613 132.114 732.24 132.036C731.876 131.958 731.53 131.858 731.2 131.737C730.871 131.607 730.602 131.429 730.394 131.204C730.186 130.97 730.082 130.654 730.082 130.255C730.082 129.666 730.295 129.211 730.719 128.89C731.153 128.561 731.79 128.396 732.63 128.396C733.202 128.396 733.666 128.487 734.021 128.669C734.385 128.842 734.658 129.068 734.84 129.345C735.031 129.622 735.144 129.921 735.178 130.242H734.19C734.156 129.965 734.017 129.726 733.774 129.527C733.54 129.328 733.15 129.228 732.604 129.228C731.573 129.228 731.057 129.54 731.057 130.164C731.057 130.424 731.161 130.623 731.369 130.762C731.577 130.901 731.846 131.013 732.175 131.1C732.505 131.178 732.851 131.256 733.215 131.334C733.588 131.403 733.939 131.503 734.268 131.633C734.598 131.763 734.866 131.949 735.074 132.192C735.282 132.426 735.386 132.747 735.386 133.154C735.386 133.787 735.144 134.272 734.658 134.61C734.182 134.939 733.54 135.104 732.734 135.104ZM736.601 127.408V126.134H737.654V127.408H736.601ZM736.64 135V128.5H737.615V135H736.64ZM742.127 135.104C741.468 135.104 740.896 134.957 740.411 134.662C739.926 134.359 739.553 133.951 739.293 133.44C739.033 132.929 738.903 132.365 738.903 131.75C738.903 131.126 739.033 130.563 739.293 130.06C739.553 129.549 739.926 129.146 740.411 128.851C740.896 128.548 741.468 128.396 742.127 128.396C742.794 128.396 743.366 128.548 743.843 128.851C744.328 129.146 744.701 129.549 744.961 130.06C745.221 130.563 745.351 131.126 745.351 131.75C745.351 132.365 745.221 132.929 744.961 133.44C744.701 133.951 744.328 134.359 743.843 134.662C743.366 134.957 742.794 135.104 742.127 135.104ZM742.127 134.22C742.612 134.22 743.02 134.107 743.349 133.882C743.687 133.657 743.943 133.358 744.116 132.985C744.289 132.604 744.376 132.192 744.376 131.75C744.376 131.299 744.289 130.888 744.116 130.515C743.943 130.142 743.687 129.843 743.349 129.618C743.02 129.393 742.612 129.28 742.127 129.28C741.65 129.28 741.243 129.393 740.905 129.618C740.567 129.843 740.311 130.142 740.138 130.515C739.965 130.888 739.878 131.299 739.878 131.75C739.878 132.192 739.965 132.604 740.138 132.985C740.311 133.358 740.567 133.657 740.905 133.882C741.243 134.107 741.65 134.22 742.127 134.22ZM746.644 135V128.5H747.619V129.514C747.853 129.202 748.139 128.938 748.477 128.721C748.815 128.504 749.248 128.396 749.777 128.396C750.227 128.396 750.648 128.504 751.038 128.721C751.436 128.929 751.757 129.245 752 129.67C752.251 130.086 752.377 130.602 752.377 131.217V135H751.402V131.243C751.402 130.654 751.233 130.181 750.895 129.826C750.557 129.462 750.119 129.28 749.582 129.28C749.218 129.28 748.888 129.362 748.594 129.527C748.299 129.692 748.061 129.926 747.879 130.229C747.705 130.524 747.619 130.866 747.619 131.256V135H746.644ZM760.077 135.104C759.539 135.104 759.076 135 758.686 134.792C758.304 134.584 757.992 134.307 757.75 133.96V135H756.775V125.9H757.75V129.553C757.992 129.198 758.304 128.916 758.686 128.708C759.076 128.5 759.539 128.396 760.077 128.396C760.709 128.396 761.26 128.548 761.728 128.851C762.204 129.146 762.573 129.549 762.833 130.06C763.093 130.563 763.223 131.126 763.223 131.75C763.223 132.365 763.093 132.929 762.833 133.44C762.573 133.951 762.204 134.359 761.728 134.662C761.26 134.957 760.709 135.104 760.077 135.104ZM759.947 134.22C760.432 134.22 760.844 134.107 761.182 133.882C761.528 133.657 761.793 133.358 761.975 132.985C762.157 132.604 762.248 132.192 762.248 131.75C762.248 131.299 762.157 130.888 761.975 130.515C761.793 130.142 761.528 129.843 761.182 129.618C760.844 129.393 760.432 129.28 759.947 129.28C759.47 129.28 759.063 129.393 758.725 129.618C758.387 129.843 758.131 130.142 757.958 130.515C757.784 130.888 757.698 131.299 757.698 131.75C757.698 132.192 757.784 132.604 757.958 132.985C758.131 133.358 758.387 133.657 758.725 133.882C759.063 134.107 759.47 134.22 759.947 134.22ZM765.055 137.574L766.238 134.909L763.586 128.5H764.665L766.758 133.83L768.89 128.5H769.956L766.108 137.574H765.055ZM773.817 135V126.394H774.948L778.029 130.476L781.058 126.394H782.189V135H781.214V127.876L778.029 131.971L774.792 127.876V135H773.817ZM786.825 135.104C786.193 135.104 785.638 134.957 785.161 134.662C784.693 134.359 784.329 133.951 784.069 133.44C783.809 132.929 783.679 132.365 783.679 131.75C783.679 131.126 783.809 130.563 784.069 130.06C784.329 129.549 784.693 129.146 785.161 128.851C785.638 128.548 786.193 128.396 786.825 128.396C787.363 128.396 787.822 128.5 788.203 128.708C788.593 128.916 788.91 129.198 789.152 129.553V128.5H790.127V135H789.152V133.96C788.91 134.307 788.593 134.584 788.203 134.792C787.822 135 787.363 135.104 786.825 135.104ZM786.955 134.22C787.441 134.22 787.848 134.107 788.177 133.882C788.515 133.657 788.771 133.358 788.944 132.985C789.118 132.604 789.204 132.192 789.204 131.75C789.204 131.299 789.118 130.888 788.944 130.515C788.771 130.142 788.515 129.843 788.177 129.618C787.848 129.393 787.441 129.28 786.955 129.28C786.479 129.28 786.067 129.393 785.72 129.618C785.374 129.843 785.109 130.142 784.927 130.515C784.745 130.888 784.654 131.299 784.654 131.75C784.654 132.192 784.745 132.604 784.927 132.985C785.109 133.358 785.374 133.657 785.72 133.882C786.067 134.107 786.479 134.22 786.955 134.22ZM794.609 135.104C793.959 135.104 793.395 134.957 792.919 134.662C792.442 134.359 792.069 133.951 791.801 133.44C791.541 132.929 791.411 132.365 791.411 131.75C791.411 131.126 791.541 130.563 791.801 130.06C792.069 129.549 792.442 129.146 792.919 128.851C793.395 128.548 793.959 128.396 794.609 128.396C795.38 128.396 796.034 128.595 796.572 128.994C797.118 129.393 797.486 129.908 797.677 130.541H796.624C796.476 130.168 796.238 129.865 795.909 129.631C795.588 129.397 795.198 129.28 794.739 129.28C794.262 129.28 793.846 129.393 793.491 129.618C793.135 129.843 792.862 130.142 792.672 130.515C792.481 130.888 792.386 131.299 792.386 131.75C792.386 132.192 792.481 132.604 792.672 132.985C792.862 133.358 793.135 133.657 793.491 133.882C793.846 134.107 794.262 134.22 794.739 134.22C795.198 134.22 795.588 134.103 795.909 133.869C796.238 133.635 796.476 133.332 796.624 132.959H797.677C797.486 133.592 797.118 134.107 796.572 134.506C796.034 134.905 795.38 135.104 794.609 135.104ZM802.187 135.104C801.65 135.104 801.186 135 800.796 134.792C800.415 134.584 800.103 134.307 799.86 133.96V135H798.885V125.9H799.86V129.553C800.103 129.198 800.415 128.916 800.796 128.708C801.186 128.5 801.65 128.396 802.187 128.396C802.82 128.396 803.37 128.548 803.838 128.851C804.315 129.146 804.683 129.549 804.943 130.06C805.203 130.563 805.333 131.126 805.333 131.75C805.333 132.365 805.203 132.929 804.943 133.44C804.683 133.951 804.315 134.359 803.838 134.662C803.37 134.957 802.82 135.104 802.187 135.104ZM802.057 134.22C802.542 134.22 802.954 134.107 803.292 133.882C803.639 133.657 803.903 133.358 804.085 132.985C804.267 132.604 804.358 132.192 804.358 131.75C804.358 131.299 804.267 130.888 804.085 130.515C803.903 130.142 803.639 129.843 803.292 129.618C802.954 129.393 802.542 129.28 802.057 129.28C801.58 129.28 801.173 129.393 800.835 129.618C800.497 129.843 800.241 130.142 800.068 130.515C799.895 130.888 799.808 131.299 799.808 131.75C799.808 132.192 799.895 132.604 800.068 132.985C800.241 133.358 800.497 133.657 800.835 133.882C801.173 134.107 801.58 134.22 802.057 134.22ZM809.502 135.104C808.844 135.104 808.267 134.957 807.773 134.662C807.279 134.359 806.894 133.951 806.616 133.44C806.348 132.929 806.213 132.365 806.213 131.75C806.213 131.126 806.343 130.563 806.603 130.06C806.863 129.549 807.236 129.146 807.721 128.851C808.207 128.548 808.779 128.396 809.437 128.396C810.105 128.396 810.677 128.548 811.153 128.851C811.639 129.146 812.011 129.549 812.271 130.06C812.531 130.563 812.661 131.126 812.661 131.75V132.14H807.214C807.266 132.521 807.388 132.872 807.578 133.193C807.778 133.505 808.042 133.756 808.371 133.947C808.701 134.129 809.082 134.22 809.515 134.22C809.975 134.22 810.36 134.12 810.672 133.921C810.984 133.713 811.227 133.449 811.4 133.128H812.466C812.241 133.709 811.881 134.185 811.387 134.558C810.902 134.922 810.274 135.104 809.502 135.104ZM807.227 131.23H811.647C811.561 130.675 811.327 130.212 810.945 129.839C810.564 129.466 810.061 129.28 809.437 129.28C808.813 129.28 808.311 129.466 807.929 129.839C807.557 130.212 807.323 130.675 807.227 131.23ZM813.853 135V128.5H814.828V130.099C814.862 129.986 814.927 129.839 815.023 129.657C815.127 129.466 815.274 129.276 815.465 129.085C815.655 128.894 815.894 128.734 816.18 128.604C816.474 128.465 816.821 128.396 817.22 128.396H817.285V129.371H817.168C816.682 129.371 816.262 129.505 815.907 129.774C815.56 130.034 815.291 130.376 815.101 130.801C814.919 131.217 814.828 131.663 814.828 132.14V135H813.853ZM821.31 135V126.394H827.641V127.33H822.285V130.216H827.069V131.165H822.285V134.064H827.641V135H821.31ZM832.733 135.104C831.857 135.104 831.103 134.909 830.471 134.519C829.847 134.12 829.366 133.587 829.028 132.92C828.69 132.253 828.521 131.512 828.521 130.697C828.521 129.882 828.694 129.141 829.041 128.474C829.387 127.807 829.877 127.278 830.51 126.888C831.151 126.489 831.901 126.29 832.759 126.29C833.686 126.29 834.488 126.52 835.164 126.979C835.848 127.43 836.351 128.015 836.672 128.734H835.606C835.346 128.275 834.982 127.911 834.514 127.642C834.054 127.373 833.495 127.239 832.837 127.239C832.143 127.239 831.545 127.395 831.043 127.707C830.54 128.01 830.154 128.422 829.886 128.942C829.626 129.462 829.496 130.047 829.496 130.697C829.496 131.338 829.626 131.923 829.886 132.452C830.146 132.972 830.523 133.388 831.017 133.7C831.519 134.003 832.117 134.155 832.811 134.155C833.331 134.155 833.82 134.042 834.28 133.817C834.748 133.592 835.125 133.267 835.411 132.842C835.705 132.417 835.853 131.906 835.853 131.308H832.707V130.424H836.75V135H835.853V133.479C835.671 133.756 835.437 134.021 835.151 134.272C834.865 134.515 834.518 134.714 834.111 134.87C833.712 135.026 833.253 135.104 832.733 135.104Z" fill="#BDBDBD"/>
<path d="M711.296 88V77.408H718.944V78.56H712.496V82.24H718.24V83.408H712.496V88H711.296ZM718.517 88L723.013 77.408H724.517L729.013 88H727.685L726.389 84.928H721.141L719.845 88H718.517ZM721.605 83.824H725.925L723.765 78.656L721.605 83.824ZM738.395 90.512C737.873 90.512 737.366 90.4107 736.875 90.208C736.385 90.0053 735.947 89.7227 735.563 89.36C735.179 88.9973 734.87 88.5813 734.635 88.112C733.611 88.08 732.71 87.8187 731.931 87.328C731.163 86.8373 730.561 86.192 730.123 85.392C729.697 84.5813 729.483 83.6853 729.483 82.704C729.483 81.9467 729.611 81.2427 729.867 80.592C730.123 79.9413 730.486 79.3653 730.955 78.864C731.435 78.3627 732.006 77.9733 732.667 77.696C733.329 77.4187 734.059 77.28 734.859 77.28C735.659 77.28 736.39 77.4187 737.051 77.696C737.713 77.9733 738.278 78.3627 738.747 78.864C739.227 79.3653 739.595 79.9413 739.851 80.592C740.107 81.2427 740.235 81.9467 740.235 82.704C740.235 83.6 740.049 84.4267 739.675 85.184C739.313 85.9307 738.801 86.5547 738.139 87.056C737.489 87.5573 736.726 87.8827 735.851 88.032C735.958 88.224 736.118 88.432 736.331 88.656C736.545 88.8907 736.822 89.088 737.163 89.248C737.505 89.408 737.921 89.488 738.411 89.488C738.795 89.488 739.142 89.424 739.451 89.296C739.771 89.168 740.07 88.992 740.347 88.768L740.987 89.632C740.614 89.9307 740.214 90.1493 739.787 90.288C739.371 90.4373 738.907 90.512 738.395 90.512ZM734.859 86.96C735.723 86.96 736.465 86.7733 737.083 86.4C737.713 86.016 738.193 85.504 738.523 84.864C738.865 84.2133 739.035 83.4933 739.035 82.704C739.035 81.904 738.865 81.184 738.523 80.544C738.193 79.904 737.713 79.3973 737.083 79.024C736.465 78.64 735.723 78.448 734.859 78.448C734.006 78.448 733.265 78.64 732.635 79.024C732.006 79.3973 731.521 79.904 731.179 80.544C730.849 81.184 730.683 81.904 730.683 82.704C730.683 83.4933 730.849 84.2133 731.179 84.864C731.521 85.504 732.006 86.016 732.635 86.4C733.265 86.7733 734.006 86.96 734.859 86.96ZM744.811 88.128C744.075 88.128 743.451 88.0053 742.939 87.76C742.438 87.5147 742.054 87.1947 741.787 86.8C741.521 86.3947 741.371 85.9573 741.339 85.488H742.587C742.619 85.7547 742.71 86.016 742.859 86.272C743.019 86.5173 743.259 86.72 743.579 86.88C743.899 87.0293 744.315 87.104 744.827 87.104C744.987 87.104 745.185 87.088 745.419 87.056C745.654 87.024 745.878 86.9653 746.091 86.88C746.315 86.7947 746.502 86.6667 746.651 86.496C746.801 86.3253 746.875 86.1067 746.875 85.84C746.875 85.5093 746.747 85.2533 746.491 85.072C746.235 84.8907 745.905 84.752 745.499 84.656C745.094 84.5493 744.662 84.448 744.203 84.352C743.755 84.256 743.329 84.1333 742.923 83.984C742.518 83.824 742.187 83.6053 741.931 83.328C741.675 83.04 741.547 82.6507 741.547 82.16C741.547 81.4347 741.809 80.8747 742.331 80.48C742.865 80.0747 743.649 79.872 744.683 79.872C745.387 79.872 745.958 79.984 746.395 80.208C746.843 80.4213 747.179 80.6987 747.403 81.04C747.638 81.3813 747.777 81.7493 747.819 82.144H746.603C746.561 81.8027 746.39 81.5093 746.091 81.264C745.803 81.0187 745.323 80.896 744.651 80.896C743.382 80.896 742.747 81.28 742.747 82.048C742.747 82.368 742.875 82.6133 743.131 82.784C743.387 82.9547 743.718 83.0933 744.123 83.2C744.529 83.296 744.955 83.392 745.403 83.488C745.862 83.5733 746.294 83.696 746.699 83.856C747.105 84.016 747.435 84.2453 747.691 84.544C747.947 84.832 748.075 85.2267 748.075 85.728C748.075 86.5067 747.777 87.104 747.179 87.52C746.593 87.9253 745.803 88.128 744.811 88.128Z" fill="white"/>
<path d="M418.296 88V77.408H419.688L423.48 82.432L427.208 77.408H428.6V88H427.4V79.232L423.48 84.272L419.496 79.232V88H418.296ZM434.483 88.128C433.672 88.128 432.963 87.9467 432.355 87.584C431.747 87.2107 431.272 86.7093 430.931 86.08C430.6 85.4507 430.435 84.7573 430.435 84C430.435 83.232 430.595 82.5387 430.915 81.92C431.235 81.2907 431.693 80.7947 432.291 80.432C432.888 80.0587 433.592 79.872 434.403 79.872C435.224 79.872 435.928 80.0587 436.515 80.432C437.112 80.7947 437.571 81.2907 437.891 81.92C438.211 82.5387 438.371 83.232 438.371 84V84.48H431.667C431.731 84.9493 431.88 85.3813 432.115 85.776C432.36 86.16 432.685 86.4693 433.091 86.704C433.496 86.928 433.965 87.04 434.499 87.04C435.064 87.04 435.539 86.9173 435.923 86.672C436.307 86.416 436.605 86.0907 436.819 85.696H438.131C437.853 86.4107 437.411 86.9973 436.803 87.456C436.205 87.904 435.432 88.128 434.483 88.128ZM431.683 83.36H437.123C437.016 82.6773 436.728 82.1067 436.259 81.648C435.789 81.1893 435.171 80.96 434.403 80.96C433.635 80.96 433.016 81.1893 432.547 81.648C432.088 82.1067 431.8 82.6773 431.683 83.36ZM439.837 88V80H441.037V81.216C441.218 80.896 441.506 80.592 441.901 80.304C442.296 80.016 442.818 79.872 443.469 79.872C444.002 79.872 444.493 80.016 444.941 80.304C445.4 80.5813 445.757 80.976 446.013 81.488C446.12 81.3067 446.285 81.088 446.509 80.832C446.744 80.576 447.048 80.352 447.421 80.16C447.794 79.968 448.242 79.872 448.765 79.872C449.277 79.872 449.757 80.0053 450.205 80.272C450.653 80.5387 451.016 80.9227 451.293 81.424C451.581 81.9147 451.725 82.496 451.725 83.168V88H450.525V83.2C450.525 82.528 450.333 81.9893 449.949 81.584C449.576 81.168 449.106 80.96 448.541 80.96C447.954 80.96 447.448 81.1573 447.021 81.552C446.594 81.9467 446.381 82.5013 446.381 83.216V88H445.181V83.2C445.181 82.528 444.989 81.9893 444.605 81.584C444.232 81.168 443.762 80.96 443.197 80.96C442.61 80.96 442.104 81.1573 441.677 81.552C441.25 81.9467 441.037 82.5013 441.037 83.216V88H439.837ZM457.792 88.128C457.13 88.128 456.56 88 456.08 87.744C455.61 87.488 455.226 87.1467 454.928 86.72V88H453.728V76.8H454.928V81.296C455.226 80.8587 455.61 80.512 456.08 80.256C456.56 80 457.13 79.872 457.792 79.872C458.57 79.872 459.248 80.0587 459.824 80.432C460.41 80.7947 460.864 81.2907 461.184 81.92C461.504 82.5387 461.664 83.232 461.664 84C461.664 84.7573 461.504 85.4507 461.184 86.08C460.864 86.7093 460.41 87.2107 459.824 87.584C459.248 87.9467 458.57 88.128 457.792 88.128ZM457.632 87.04C458.229 87.04 458.736 86.9013 459.152 86.624C459.578 86.3467 459.904 85.9787 460.128 85.52C460.352 85.0507 460.464 84.544 460.464 84C460.464 83.4453 460.352 82.9387 460.128 82.48C459.904 82.0213 459.578 81.6533 459.152 81.376C458.736 81.0987 458.229 80.96 457.632 80.96C457.045 80.96 456.544 81.0987 456.128 81.376C455.712 81.6533 455.397 82.0213 455.184 82.48C454.97 82.9387 454.864 83.4453 454.864 84C454.864 84.544 454.97 85.0507 455.184 85.52C455.397 85.9787 455.712 86.3467 456.128 86.624C456.544 86.9013 457.045 87.04 457.632 87.04ZM466.795 88.128C465.984 88.128 465.275 87.9467 464.667 87.584C464.059 87.2107 463.584 86.7093 463.243 86.08C462.912 85.4507 462.747 84.7573 462.747 84C462.747 83.232 462.907 82.5387 463.227 81.92C463.547 81.2907 464.006 80.7947 464.603 80.432C465.2 80.0587 465.904 79.872 466.715 79.872C467.536 79.872 468.24 80.0587 468.827 80.432C469.424 80.7947 469.883 81.2907 470.203 81.92C470.523 82.5387 470.683 83.232 470.683 84V84.48H463.979C464.043 84.9493 464.192 85.3813 464.427 85.776C464.672 86.16 464.998 86.4693 465.403 86.704C465.808 86.928 466.278 87.04 466.811 87.04C467.376 87.04 467.851 86.9173 468.235 86.672C468.619 86.416 468.918 86.0907 469.131 85.696H470.443C470.166 86.4107 469.723 86.9973 469.115 87.456C468.518 87.904 467.744 88.128 466.795 88.128ZM463.995 83.36H469.435C469.328 82.6773 469.04 82.1067 468.571 81.648C468.102 81.1893 467.483 80.96 466.715 80.96C465.947 80.96 465.328 81.1893 464.859 81.648C464.4 82.1067 464.112 82.6773 463.995 83.36ZM472.149 88V80H473.349V81.968C473.392 81.8293 473.472 81.648 473.589 81.424C473.717 81.1893 473.899 80.9547 474.133 80.72C474.368 80.4853 474.661 80.288 475.013 80.128C475.376 79.9573 475.803 79.872 476.293 79.872H476.373V81.072H476.229C475.632 81.072 475.115 81.2373 474.677 81.568C474.251 81.888 473.92 82.3093 473.685 82.832C473.461 83.344 473.349 83.8933 473.349 84.48V88H472.149ZM480.577 88.128C479.841 88.128 479.217 88.0053 478.705 87.76C478.204 87.5147 477.82 87.1947 477.553 86.8C477.286 86.3947 477.137 85.9573 477.105 85.488H478.353C478.385 85.7547 478.476 86.016 478.625 86.272C478.785 86.5173 479.025 86.72 479.345 86.88C479.665 87.0293 480.081 87.104 480.593 87.104C480.753 87.104 480.95 87.088 481.185 87.056C481.42 87.024 481.644 86.9653 481.857 86.88C482.081 86.7947 482.268 86.6667 482.417 86.496C482.566 86.3253 482.641 86.1067 482.641 85.84C482.641 85.5093 482.513 85.2533 482.257 85.072C482.001 84.8907 481.67 84.752 481.265 84.656C480.86 84.5493 480.428 84.448 479.969 84.352C479.521 84.256 479.094 84.1333 478.689 83.984C478.284 83.824 477.953 83.6053 477.697 83.328C477.441 83.04 477.313 82.6507 477.313 82.16C477.313 81.4347 477.574 80.8747 478.097 80.48C478.63 80.0747 479.414 79.872 480.449 79.872C481.153 79.872 481.724 79.984 482.161 80.208C482.609 80.4213 482.945 80.6987 483.169 81.04C483.404 81.3813 483.542 81.7493 483.585 82.144H482.369C482.326 81.8027 482.156 81.5093 481.857 81.264C481.569 81.0187 481.089 80.896 480.417 80.896C479.148 80.896 478.513 81.28 478.513 82.048C478.513 82.368 478.641 82.6133 478.897 82.784C479.153 82.9547 479.484 83.0933 479.889 83.2C480.294 83.296 480.721 83.392 481.169 83.488C481.628 83.5733 482.06 83.696 482.465 83.856C482.87 84.016 483.201 84.2453 483.457 84.544C483.713 84.832 483.841 85.2267 483.841 85.728C483.841 86.5067 483.542 87.104 482.945 87.52C482.358 87.9253 481.569 88.128 480.577 88.128ZM485.384 88V76.8H486.584V81.248C486.872 80.864 487.224 80.5387 487.64 80.272C488.056 80.0053 488.589 79.872 489.24 79.872C489.794 79.872 490.312 80.0053 490.792 80.272C491.282 80.528 491.677 80.9173 491.976 81.44C492.285 81.952 492.44 82.5867 492.44 83.344V88H491.24V83.376C491.24 82.6507 491.032 82.0693 490.616 81.632C490.2 81.184 489.661 80.96 489 80.96C488.552 80.96 488.146 81.0613 487.784 81.264C487.421 81.4667 487.128 81.7547 486.904 82.128C486.69 82.4907 486.584 82.912 486.584 83.392V88H485.384ZM494.398 78.656V77.088H495.694V78.656H494.398ZM494.446 88V80H495.646V88H494.446ZM497.728 91.168V80H498.928V81.28C499.226 80.8427 499.61 80.5013 500.08 80.256C500.56 80 501.13 79.872 501.792 79.872C502.57 79.872 503.248 80.0587 503.824 80.432C504.41 80.7947 504.864 81.2907 505.184 81.92C505.504 82.5387 505.664 83.232 505.664 84C505.664 84.7573 505.504 85.4507 505.184 86.08C504.864 86.7093 504.41 87.2107 503.824 87.584C503.248 87.9467 502.57 88.128 501.792 88.128C501.13 88.128 500.56 88 500.08 87.744C499.61 87.4773 499.226 87.1307 498.928 86.704V91.168H497.728ZM501.632 87.04C502.229 87.04 502.736 86.9013 503.152 86.624C503.578 86.3467 503.904 85.9787 504.128 85.52C504.352 85.0507 504.464 84.544 504.464 84C504.464 83.4453 504.352 82.9387 504.128 82.48C503.904 82.0213 503.578 81.6533 503.152 81.376C502.736 81.0987 502.229 80.96 501.632 80.96C501.045 80.96 500.544 81.0987 500.128 81.376C499.712 81.6533 499.397 82.0213 499.184 82.48C498.97 82.9387 498.864 83.4453 498.864 84C498.864 84.544 498.97 85.0507 499.184 85.52C499.397 85.9787 499.712 86.3467 500.128 86.624C500.544 86.9013 501.045 87.04 501.632 87.04Z" fill="white"/>
<path d="M335.296 88V77.408H340.048C340.88 77.408 341.536 77.552 342.016 77.84C342.507 78.128 342.859 78.4907 343.072 78.928C343.285 79.3547 343.392 79.7813 343.392 80.208C343.392 80.8907 343.248 81.4187 342.96 81.792C342.672 82.1547 342.341 82.4213 341.968 82.592C342.267 82.688 342.565 82.8427 342.864 83.056C343.173 83.2587 343.429 83.536 343.632 83.888C343.835 84.24 343.936 84.6827 343.936 85.216C343.936 86.0053 343.632 86.6667 343.024 87.2C342.427 87.7333 341.525 88 340.32 88H335.296ZM336.496 82.144H340.048C340.421 82.144 340.768 82.08 341.088 81.952C341.419 81.824 341.685 81.6267 341.888 81.36C342.091 81.0827 342.192 80.7307 342.192 80.304C342.192 80.0053 342.123 79.7227 341.984 79.456C341.856 79.1893 341.643 78.9707 341.344 78.8C341.056 78.6293 340.667 78.544 340.176 78.544H336.496V82.144ZM336.496 86.864H340.448C341.173 86.864 341.733 86.7147 342.128 86.416C342.533 86.1067 342.736 85.6747 342.736 85.12C342.736 84.6187 342.544 84.1813 342.16 83.808C341.776 83.424 341.163 83.232 340.32 83.232H336.496V86.864ZM349.106 88.128C348.295 88.128 347.591 87.9467 346.994 87.584C346.396 87.2107 345.938 86.7093 345.618 86.08C345.298 85.4507 345.138 84.7573 345.138 84C345.138 83.232 345.298 82.5387 345.618 81.92C345.938 81.2907 346.396 80.7947 346.994 80.432C347.591 80.0587 348.295 79.872 349.106 79.872C349.927 79.872 350.631 80.0587 351.218 80.432C351.815 80.7947 352.274 81.2907 352.594 81.92C352.914 82.5387 353.074 83.232 353.074 84C353.074 84.7573 352.914 85.4507 352.594 86.08C352.274 86.7093 351.815 87.2107 351.218 87.584C350.631 87.9467 349.927 88.128 349.106 88.128ZM349.106 87.04C349.703 87.04 350.204 86.9013 350.61 86.624C351.026 86.3467 351.34 85.9787 351.554 85.52C351.767 85.0507 351.874 84.544 351.874 84C351.874 83.4453 351.767 82.9387 351.554 82.48C351.34 82.0213 351.026 81.6533 350.61 81.376C350.204 81.0987 349.703 80.96 349.106 80.96C348.519 80.96 348.018 81.0987 347.602 81.376C347.186 81.6533 346.871 82.0213 346.658 82.48C346.444 82.9387 346.338 83.4453 346.338 84C346.338 84.544 346.444 85.0507 346.658 85.52C346.871 85.9787 347.186 86.3467 347.602 86.624C348.018 86.9013 348.519 87.04 349.106 87.04ZM358.137 88.128C357.326 88.128 356.622 87.9467 356.025 87.584C355.428 87.2107 354.969 86.7093 354.649 86.08C354.329 85.4507 354.169 84.7573 354.169 84C354.169 83.232 354.329 82.5387 354.649 81.92C354.969 81.2907 355.428 80.7947 356.025 80.432C356.622 80.0587 357.326 79.872 358.137 79.872C358.958 79.872 359.662 80.0587 360.249 80.432C360.846 80.7947 361.305 81.2907 361.625 81.92C361.945 82.5387 362.105 83.232 362.105 84C362.105 84.7573 361.945 85.4507 361.625 86.08C361.305 86.7093 360.846 87.2107 360.249 87.584C359.662 87.9467 358.958 88.128 358.137 88.128ZM358.137 87.04C358.734 87.04 359.236 86.9013 359.641 86.624C360.057 86.3467 360.372 85.9787 360.585 85.52C360.798 85.0507 360.905 84.544 360.905 84C360.905 83.4453 360.798 82.9387 360.585 82.48C360.372 82.0213 360.057 81.6533 359.641 81.376C359.236 81.0987 358.734 80.96 358.137 80.96C357.55 80.96 357.049 81.0987 356.633 81.376C356.217 81.6533 355.902 82.0213 355.689 82.48C355.476 82.9387 355.369 83.4453 355.369 84C355.369 84.544 355.476 85.0507 355.689 85.52C355.902 85.9787 356.217 86.3467 356.633 86.624C357.049 86.9013 357.55 87.04 358.137 87.04ZM363.696 88V76.8H364.896V83.968L368.752 80H370.432L367.216 83.152L370.672 88H369.2L366.4 83.984L364.896 85.472V88H363.696ZM371.68 78.656V77.088H372.976V78.656H371.68ZM371.728 88V80H372.928V88H371.728ZM375.009 88V80H376.209V81.248C376.497 80.864 376.849 80.5387 377.265 80.272C377.681 80.0053 378.214 79.872 378.865 79.872C379.419 79.872 379.937 80.0053 380.417 80.272C380.907 80.528 381.302 80.9173 381.601 81.44C381.91 81.952 382.065 82.5867 382.065 83.344V88H380.865V83.376C380.865 82.6507 380.657 82.0693 380.241 81.632C379.825 81.184 379.286 80.96 378.625 80.96C378.177 80.96 377.771 81.0613 377.409 81.264C377.046 81.4667 376.753 81.7547 376.529 82.128C376.315 82.4907 376.209 82.912 376.209 83.392V88H375.009ZM387.735 91.296C386.733 91.296 385.917 91.0773 385.287 90.64C384.658 90.2133 384.231 89.6533 384.007 88.96H385.335C385.495 89.3547 385.773 89.6587 386.167 89.872C386.562 90.096 387.063 90.208 387.671 90.208C388.589 90.208 389.255 89.9893 389.671 89.552C390.098 89.1253 390.311 88.5013 390.311 87.68V86.576C390.013 87.0027 389.623 87.3493 389.143 87.616C388.674 87.872 388.109 88 387.447 88C386.669 88 385.986 87.824 385.399 87.472C384.823 87.1093 384.375 86.6187 384.055 86C383.735 85.3813 383.575 84.6933 383.575 83.936C383.575 83.168 383.735 82.48 384.055 81.872C384.375 81.2533 384.823 80.768 385.399 80.416C385.986 80.0533 386.669 79.872 387.447 79.872C388.109 79.872 388.674 80 389.143 80.256C389.623 80.5013 390.013 80.8427 390.311 81.28V80H391.511V87.76C391.511 88.9013 391.181 89.776 390.519 90.384C389.869 90.992 388.941 91.296 387.735 91.296ZM387.607 86.912C388.194 86.912 388.69 86.7787 389.095 86.512C389.511 86.2453 389.826 85.888 390.039 85.44C390.263 84.9813 390.375 84.48 390.375 83.936C390.375 83.3813 390.263 82.88 390.039 82.432C389.826 81.984 389.511 81.6267 389.095 81.36C388.69 81.0933 388.194 80.96 387.607 80.96C387.021 80.96 386.514 81.0933 386.087 81.36C385.661 81.6267 385.335 81.984 385.111 82.432C384.887 82.88 384.775 83.3813 384.775 83.936C384.775 84.48 384.887 84.9813 385.111 85.44C385.335 85.888 385.661 86.2453 386.087 86.512C386.514 86.7787 387.021 86.912 387.607 86.912Z" fill="white"/>
<path d="M536.744 88.128C535.688 88.128 534.776 87.888 534.008 87.408C533.24 86.9173 532.648 86.2613 532.232 85.44C531.827 84.6187 531.624 83.7067 531.624 82.704C531.624 81.7013 531.827 80.7893 532.232 79.968C532.648 79.1467 533.24 78.496 534.008 78.016C534.776 77.5253 535.688 77.28 536.744 77.28C537.544 77.28 538.264 77.424 538.904 77.712C539.544 77.9893 540.088 78.3733 540.536 78.864C540.984 79.3547 541.32 79.9253 541.544 80.576H540.28C540.013 79.9253 539.592 79.408 539.016 79.024C538.44 78.64 537.715 78.448 536.84 78.448C535.987 78.448 535.256 78.64 534.648 79.024C534.051 79.3973 533.597 79.904 533.288 80.544C532.979 81.184 532.824 81.904 532.824 82.704C532.824 83.4933 532.979 84.2133 533.288 84.864C533.597 85.504 534.051 86.016 534.648 86.4C535.256 86.7733 535.987 86.96 536.84 86.96C537.715 86.96 538.44 86.768 539.016 86.384C539.592 86 540.013 85.4827 540.28 84.832H541.544C541.32 85.472 540.984 86.0427 540.536 86.544C540.088 87.0347 539.544 87.424 538.904 87.712C538.264 87.9893 537.544 88.128 536.744 88.128ZM546.559 88.128C545.748 88.128 545.044 87.9467 544.447 87.584C543.85 87.2107 543.391 86.7093 543.071 86.08C542.751 85.4507 542.591 84.7573 542.591 84C542.591 83.232 542.751 82.5387 543.071 81.92C543.391 81.2907 543.85 80.7947 544.447 80.432C545.044 80.0587 545.748 79.872 546.559 79.872C547.38 79.872 548.084 80.0587 548.671 80.432C549.268 80.7947 549.727 81.2907 550.047 81.92C550.367 82.5387 550.527 83.232 550.527 84C550.527 84.7573 550.367 85.4507 550.047 86.08C549.727 86.7093 549.268 87.2107 548.671 87.584C548.084 87.9467 547.38 88.128 546.559 88.128ZM546.559 87.04C547.156 87.04 547.658 86.9013 548.063 86.624C548.479 86.3467 548.794 85.9787 549.007 85.52C549.22 85.0507 549.327 84.544 549.327 84C549.327 83.4453 549.22 82.9387 549.007 82.48C548.794 82.0213 548.479 81.6533 548.063 81.376C547.658 81.0987 547.156 80.96 546.559 80.96C545.972 80.96 545.471 81.0987 545.055 81.376C544.639 81.6533 544.324 82.0213 544.111 82.48C543.898 82.9387 543.791 83.4453 543.791 84C543.791 84.544 543.898 85.0507 544.111 85.52C544.324 85.9787 544.639 86.3467 545.055 86.624C545.471 86.9013 545.972 87.04 546.559 87.04ZM552.118 88V80H553.318V81.216C553.499 80.896 553.787 80.592 554.182 80.304C554.577 80.016 555.099 79.872 555.75 79.872C556.283 79.872 556.774 80.016 557.222 80.304C557.681 80.5813 558.038 80.976 558.294 81.488C558.401 81.3067 558.566 81.088 558.79 80.832C559.025 80.576 559.329 80.352 559.702 80.16C560.075 79.968 560.523 79.872 561.046 79.872C561.558 79.872 562.038 80.0053 562.486 80.272C562.934 80.5387 563.297 80.9227 563.574 81.424C563.862 81.9147 564.006 82.496 564.006 83.168V88H562.806V83.2C562.806 82.528 562.614 81.9893 562.23 81.584C561.857 81.168 561.387 80.96 560.822 80.96C560.235 80.96 559.729 81.1573 559.302 81.552C558.875 81.9467 558.662 82.5013 558.662 83.216V88H557.462V83.2C557.462 82.528 557.27 81.9893 556.886 81.584C556.513 81.168 556.043 80.96 555.478 80.96C554.891 80.96 554.385 81.1573 553.958 81.552C553.531 81.9467 553.318 82.5013 553.318 83.216V88H552.118ZM566.009 88V80H567.209V81.216C567.39 80.896 567.678 80.592 568.073 80.304C568.467 80.016 568.99 79.872 569.641 79.872C570.174 79.872 570.665 80.016 571.113 80.304C571.571 80.5813 571.929 80.976 572.185 81.488C572.291 81.3067 572.457 81.088 572.681 80.832C572.915 80.576 573.219 80.352 573.593 80.16C573.966 79.968 574.414 79.872 574.937 79.872C575.449 79.872 575.929 80.0053 576.377 80.272C576.825 80.5387 577.187 80.9227 577.465 81.424C577.753 81.9147 577.897 82.496 577.897 83.168V88H576.697V83.2C576.697 82.528 576.505 81.9893 576.121 81.584C575.747 81.168 575.278 80.96 574.713 80.96C574.126 80.96 573.619 81.1573 573.193 81.552C572.766 81.9467 572.553 82.5013 572.553 83.216V88H571.353V83.2C571.353 82.528 571.161 81.9893 570.777 81.584C570.403 81.168 569.934 80.96 569.369 80.96C568.782 80.96 568.275 81.1573 567.849 81.552C567.422 81.9467 567.209 82.5013 567.209 83.216V88H566.009ZM583.019 88.128C582.475 88.128 581.958 88 581.467 87.744C580.977 87.4773 580.577 87.088 580.267 86.576C579.969 86.0533 579.819 85.4133 579.819 84.656V80H581.019V84.624C581.019 85.3493 581.227 85.936 581.643 86.384C582.07 86.8213 582.609 87.04 583.259 87.04C583.707 87.04 584.113 86.9387 584.475 86.736C584.838 86.5227 585.126 86.2347 585.339 85.872C585.563 85.5093 585.675 85.088 585.675 84.608V80H586.875V88H585.675V86.752C585.387 87.136 585.035 87.4613 584.619 87.728C584.203 87.9947 583.67 88.128 583.019 88.128ZM588.962 88V80H590.162V81.248C590.45 80.864 590.802 80.5387 591.218 80.272C591.634 80.0053 592.167 79.872 592.818 79.872C593.373 79.872 593.89 80.0053 594.37 80.272C594.861 80.528 595.255 80.9173 595.554 81.44C595.863 81.952 596.018 82.5867 596.018 83.344V88H594.818V83.376C594.818 82.6507 594.61 82.0693 594.194 81.632C593.778 81.184 593.239 80.96 592.578 80.96C592.13 80.96 591.725 81.0613 591.362 81.264C590.999 81.4667 590.706 81.7547 590.482 82.128C590.269 82.4907 590.162 82.912 590.162 83.392V88H588.962ZM597.976 78.656V77.088H599.272V78.656H597.976ZM598.024 88V80H599.224V88H598.024ZM602.17 88V81.056H600.538V80H602.17V77.136H603.37V80H605.21V81.056H603.37V88H602.17ZM607.356 91.168L608.812 87.888L605.548 80H606.876L609.452 86.56L612.076 80H613.388L608.652 91.168H607.356Z" fill="white"/>
<path d="M639.296 88V77.408H647.088V78.56H640.496V82.112H646.384V83.28H640.496V86.848H647.088V88H639.296ZM650.685 88L647.549 80H648.861L651.389 86.72L653.901 80H655.213L652.093 88H650.685ZM659.733 88.128C658.922 88.128 658.213 87.9467 657.605 87.584C656.997 87.2107 656.522 86.7093 656.181 86.08C655.85 85.4507 655.685 84.7573 655.685 84C655.685 83.232 655.845 82.5387 656.165 81.92C656.485 81.2907 656.943 80.7947 657.541 80.432C658.138 80.0587 658.842 79.872 659.653 79.872C660.474 79.872 661.178 80.0587 661.765 80.432C662.362 80.7947 662.821 81.2907 663.141 81.92C663.461 82.5387 663.621 83.232 663.621 84V84.48H656.917C656.981 84.9493 657.13 85.3813 657.365 85.776C657.61 86.16 657.935 86.4693 658.341 86.704C658.746 86.928 659.215 87.04 659.749 87.04C660.314 87.04 660.789 86.9173 661.173 86.672C661.557 86.416 661.855 86.0907 662.069 85.696H663.381C663.103 86.4107 662.661 86.9973 662.053 87.456C661.455 87.904 660.682 88.128 659.733 88.128ZM656.933 83.36H662.373C662.266 82.6773 661.978 82.1067 661.509 81.648C661.039 81.1893 660.421 80.96 659.653 80.96C658.885 80.96 658.266 81.1893 657.797 81.648C657.338 82.1067 657.05 82.6773 656.933 83.36ZM665.087 88V80H666.287V81.248C666.575 80.864 666.927 80.5387 667.343 80.272C667.759 80.0053 668.292 79.872 668.943 79.872C669.498 79.872 670.015 80.0053 670.495 80.272C670.986 80.528 671.38 80.9173 671.679 81.44C671.988 81.952 672.143 82.5867 672.143 83.344V88H670.943V83.376C670.943 82.6507 670.735 82.0693 670.319 81.632C669.903 81.184 669.364 80.96 668.703 80.96C668.255 80.96 667.85 81.0613 667.487 81.264C667.124 81.4667 666.831 81.7547 666.607 82.128C666.394 82.4907 666.287 82.912 666.287 83.392V88H665.087ZM674.826 88V81.056H673.194V80H674.826V77.136H676.026V80H677.866V81.056H676.026V88H674.826ZM682.093 88.128C681.357 88.128 680.733 88.0053 680.221 87.76C679.719 87.5147 679.335 87.1947 679.069 86.8C678.802 86.3947 678.653 85.9573 678.621 85.488H679.869C679.901 85.7547 679.991 86.016 680.141 86.272C680.301 86.5173 680.541 86.72 680.861 86.88C681.181 87.0293 681.597 87.104 682.109 87.104C682.269 87.104 682.466 87.088 682.701 87.056C682.935 87.024 683.159 86.9653 683.373 86.88C683.597 86.7947 683.783 86.6667 683.933 86.496C684.082 86.3253 684.157 86.1067 684.157 85.84C684.157 85.5093 684.029 85.2533 683.773 85.072C683.517 84.8907 683.186 84.752 682.781 84.656C682.375 84.5493 681.943 84.448 681.485 84.352C681.037 84.256 680.61 84.1333 680.205 83.984C679.799 83.824 679.469 83.6053 679.213 83.328C678.957 83.04 678.829 82.6507 678.829 82.16C678.829 81.4347 679.09 80.8747 679.613 80.48C680.146 80.0747 680.93 79.872 681.965 79.872C682.669 79.872 683.239 79.984 683.677 80.208C684.125 80.4213 684.461 80.6987 684.685 81.04C684.919 81.3813 685.058 81.7493 685.101 82.144H683.885C683.842 81.8027 683.671 81.5093 683.373 81.264C683.085 81.0187 682.605 80.896 681.933 80.896C680.663 80.896 680.029 81.28 680.029 82.048C680.029 82.368 680.157 82.6133 680.413 82.784C680.669 82.9547 680.999 83.0933 681.405 83.2C681.81 83.296 682.237 83.392 682.685 83.488C683.143 83.5733 683.575 83.696 683.981 83.856C684.386 84.016 684.717 84.2453 684.973 84.544C685.229 84.832 685.357 85.2267 685.357 85.728C685.357 86.5067 685.058 87.104 684.461 87.52C683.874 87.9253 683.085 88.128 682.093 88.128Z" fill="white"/>
<path d="M1044.09 88.128C1043.04 88.128 1042.19 87.9893 1041.54 87.712C1040.89 87.424 1040.4 87.0293 1040.07 86.528C1039.75 86.0267 1039.57 85.4613 1039.51 84.832H1040.76C1040.79 85.344 1040.96 85.76 1041.27 86.08C1041.58 86.3893 1041.99 86.6187 1042.49 86.768C1043 86.9173 1043.56 86.992 1044.17 86.992C1045.06 86.992 1045.77 86.8373 1046.3 86.528C1046.82 86.208 1047.08 85.7387 1047.08 85.12C1047.08 84.7467 1046.95 84.448 1046.68 84.224C1046.42 83.9893 1046.08 83.7973 1045.64 83.648C1045.21 83.4987 1044.74 83.3653 1044.23 83.248C1043.72 83.12 1043.2 82.9867 1042.68 82.848C1042.17 82.7093 1041.69 82.5333 1041.26 82.32C1040.83 82.1067 1040.48 81.8347 1040.22 81.504C1039.96 81.1627 1039.83 80.7307 1039.83 80.208C1039.83 79.344 1040.16 78.64 1040.82 78.096C1041.5 77.552 1042.49 77.28 1043.82 77.28C1044.75 77.28 1045.53 77.424 1046.14 77.712C1046.74 77.9893 1047.2 78.3573 1047.5 78.816C1047.81 79.2747 1047.98 79.7707 1048.01 80.304H1046.78C1046.71 79.7707 1046.45 79.3227 1045.98 78.96C1045.51 78.5867 1044.79 78.4 1043.82 78.4C1043.22 78.4 1042.73 78.4587 1042.36 78.576C1041.99 78.6933 1041.7 78.848 1041.5 79.04C1041.3 79.2213 1041.17 79.4133 1041.1 79.616C1041.03 79.8187 1041 80.0107 1041 80.192C1041 80.544 1041.13 80.832 1041.38 81.056C1041.65 81.2693 1042 81.4507 1042.42 81.6C1042.86 81.7387 1043.34 81.8667 1043.86 81.984C1044.39 82.1013 1044.9 82.2347 1045.42 82.384C1045.94 82.5227 1046.41 82.704 1046.84 82.928C1047.28 83.1413 1047.62 83.4187 1047.88 83.76C1048.15 84.1013 1048.28 84.5387 1048.28 85.072C1048.28 86.0533 1047.91 86.8107 1047.16 87.344C1046.41 87.8667 1045.39 88.128 1044.09 88.128ZM1049.84 78.656V77.088H1051.13V78.656H1049.84ZM1049.88 88V80H1051.08V88H1049.88ZM1054.03 88V81.056H1052.4V80H1054.03V77.136H1055.23V80H1057.07V81.056H1055.23V88H1054.03ZM1061.78 88.128C1060.97 88.128 1060.26 87.9467 1059.65 87.584C1059.04 87.2107 1058.57 86.7093 1058.23 86.08C1057.9 85.4507 1057.73 84.7573 1057.73 84C1057.73 83.232 1057.89 82.5387 1058.21 81.92C1058.53 81.2907 1058.99 80.7947 1059.59 80.432C1060.18 80.0587 1060.89 79.872 1061.7 79.872C1062.52 79.872 1063.22 80.0587 1063.81 80.432C1064.41 80.7947 1064.87 81.2907 1065.19 81.92C1065.51 82.5387 1065.67 83.232 1065.67 84V84.48H1058.96C1059.03 84.9493 1059.18 85.3813 1059.41 85.776C1059.66 86.16 1059.98 86.4693 1060.39 86.704C1060.79 86.928 1061.26 87.04 1061.8 87.04C1062.36 87.04 1062.84 86.9173 1063.22 86.672C1063.6 86.416 1063.9 86.0907 1064.12 85.696H1065.43C1065.15 86.4107 1064.71 86.9973 1064.1 87.456C1063.5 87.904 1062.73 88.128 1061.78 88.128ZM1058.98 83.36H1064.42C1064.31 82.6773 1064.02 82.1067 1063.56 81.648C1063.09 81.1893 1062.47 80.96 1061.7 80.96C1060.93 80.96 1060.31 81.1893 1059.84 81.648C1059.38 82.1067 1059.1 82.6773 1058.98 83.36ZM1070.8 88V77.408H1072.19L1075.98 82.432L1079.71 77.408H1081.1V88H1079.9V79.232L1075.98 84.272L1072 79.232V88H1070.8ZM1086.81 88.128C1086.03 88.128 1085.35 87.9467 1084.76 87.584C1084.18 87.2107 1083.73 86.7093 1083.41 86.08C1083.09 85.4507 1082.93 84.7573 1082.93 84C1082.93 83.232 1083.09 82.5387 1083.41 81.92C1083.73 81.2907 1084.18 80.7947 1084.76 80.432C1085.35 80.0587 1086.03 79.872 1086.81 79.872C1087.47 79.872 1088.03 80 1088.5 80.256C1088.98 80.512 1089.37 80.8587 1089.67 81.296V80H1090.87V88H1089.67V86.72C1089.37 87.1467 1088.98 87.488 1088.5 87.744C1088.03 88 1087.47 88.128 1086.81 88.128ZM1086.97 87.04C1087.56 87.04 1088.07 86.9013 1088.47 86.624C1088.89 86.3467 1089.2 85.9787 1089.41 85.52C1089.63 85.0507 1089.73 84.544 1089.73 84C1089.73 83.4453 1089.63 82.9387 1089.41 82.48C1089.2 82.0213 1088.89 81.6533 1088.47 81.376C1088.07 81.0987 1087.56 80.96 1086.97 80.96C1086.38 80.96 1085.87 81.0987 1085.45 81.376C1085.02 81.6533 1084.69 82.0213 1084.47 82.48C1084.25 82.9387 1084.13 83.4453 1084.13 84C1084.13 84.544 1084.25 85.0507 1084.47 85.52C1084.69 85.9787 1085.02 86.3467 1085.45 86.624C1085.87 86.9013 1086.38 87.04 1086.97 87.04ZM1092.95 91.168V80H1094.15V81.28C1094.44 80.8427 1094.83 80.5013 1095.3 80.256C1095.78 80 1096.35 79.872 1097.01 79.872C1097.79 79.872 1098.47 80.0587 1099.04 80.432C1099.63 80.7947 1100.08 81.2907 1100.4 81.92C1100.72 82.5387 1100.88 83.232 1100.88 84C1100.88 84.7573 1100.72 85.4507 1100.4 86.08C1100.08 86.7093 1099.63 87.2107 1099.04 87.584C1098.47 87.9467 1097.79 88.128 1097.01 88.128C1096.35 88.128 1095.78 88 1095.3 87.744C1094.83 87.4773 1094.44 87.1307 1094.15 86.704V91.168H1092.95ZM1096.85 87.04C1097.45 87.04 1097.95 86.9013 1098.37 86.624C1098.8 86.3467 1099.12 85.9787 1099.35 85.52C1099.57 85.0507 1099.68 84.544 1099.68 84C1099.68 83.4453 1099.57 82.9387 1099.35 82.48C1099.12 82.0213 1098.8 81.6533 1098.37 81.376C1097.95 81.0987 1097.45 80.96 1096.85 80.96C1096.26 80.96 1095.76 81.0987 1095.35 81.376C1094.93 81.6533 1094.62 82.0213 1094.4 82.48C1094.19 82.9387 1094.08 83.4453 1094.08 84C1094.08 84.544 1094.19 85.0507 1094.4 85.52C1094.62 85.9787 1094.93 86.3467 1095.35 86.624C1095.76 86.9013 1096.26 87.04 1096.85 87.04Z" fill="white"/>
<path d="M899.92 88V78.544H896.224V77.408H904.816V78.544H901.12V88H899.92ZM908.076 88.128C907.266 88.128 906.556 87.9467 905.948 87.584C905.34 87.2107 904.866 86.7093 904.524 86.08C904.194 85.4507 904.028 84.7573 904.028 84C904.028 83.232 904.188 82.5387 904.508 81.92C904.828 81.2907 905.287 80.7947 905.884 80.432C906.482 80.0587 907.186 79.872 907.996 79.872C908.818 79.872 909.522 80.0587 910.108 80.432C910.706 80.7947 911.164 81.2907 911.484 81.92C911.804 82.5387 911.964 83.232 911.964 84V84.48H905.26C905.324 84.9493 905.474 85.3813 905.708 85.776C905.954 86.16 906.279 86.4693 906.684 86.704C907.09 86.928 907.559 87.04 908.092 87.04C908.658 87.04 909.132 86.9173 909.516 86.672C909.9 86.416 910.199 86.0907 910.412 85.696H911.724C911.447 86.4107 911.004 86.9973 910.396 87.456C909.799 87.904 909.026 88.128 908.076 88.128ZM905.276 83.36H910.716C910.61 82.6773 910.322 82.1067 909.852 81.648C909.383 81.1893 908.764 80.96 907.996 80.96C907.228 80.96 906.61 81.1893 906.14 81.648C905.682 82.1067 905.394 82.6773 905.276 83.36ZM913.431 88V80H914.631V81.968C914.673 81.8293 914.753 81.648 914.871 81.424C914.999 81.1893 915.18 80.9547 915.415 80.72C915.649 80.4853 915.943 80.288 916.295 80.128C916.657 79.9573 917.084 79.872 917.575 79.872H917.655V81.072H917.511C916.913 81.072 916.396 81.2373 915.959 81.568C915.532 81.888 915.201 82.3093 914.967 82.832C914.743 83.344 914.631 83.8933 914.631 84.48V88H913.431ZM918.946 88V80H920.146V81.216C920.328 80.896 920.616 80.592 921.01 80.304C921.405 80.016 921.928 79.872 922.578 79.872C923.112 79.872 923.602 80.016 924.05 80.304C924.509 80.5813 924.866 80.976 925.122 81.488C925.229 81.3067 925.394 81.088 925.618 80.832C925.853 80.576 926.157 80.352 926.53 80.16C926.904 79.968 927.352 79.872 927.874 79.872C928.386 79.872 928.866 80.0053 929.314 80.272C929.762 80.5387 930.125 80.9227 930.402 81.424C930.69 81.9147 930.834 82.496 930.834 83.168V88H929.634V83.2C929.634 82.528 929.442 81.9893 929.058 81.584C928.685 81.168 928.216 80.96 927.65 80.96C927.064 80.96 926.557 81.1573 926.13 81.552C925.704 81.9467 925.49 82.5013 925.49 83.216V88H924.29V83.2C924.29 82.528 924.098 81.9893 923.714 81.584C923.341 81.168 922.872 80.96 922.306 80.96C921.72 80.96 921.213 81.1573 920.786 81.552C920.36 81.9467 920.146 82.5013 920.146 83.216V88H918.946ZM936.101 88.128C935.44 88.128 934.826 87.9947 934.261 87.728C933.696 87.4613 933.242 87.0933 932.901 86.624C932.56 86.144 932.389 85.5893 932.389 84.96C932.389 84.3947 932.56 83.888 932.901 83.44C933.242 82.9813 933.722 82.6347 934.341 82.4C934.106 82.3253 933.861 82.1813 933.605 81.968C933.36 81.744 933.152 81.4773 932.981 81.168C932.821 80.8587 932.741 80.528 932.741 80.176C932.741 79.3547 933.04 78.6667 933.637 78.112C934.234 77.5573 935.109 77.28 936.261 77.28C936.986 77.28 937.584 77.392 938.053 77.616C938.522 77.8293 938.88 78.1067 939.125 78.448C939.381 78.7787 939.546 79.1253 939.621 79.488H938.357C938.282 79.232 938.064 78.9813 937.701 78.736C937.349 78.4907 936.858 78.368 936.229 78.368C935.44 78.368 934.858 78.5493 934.485 78.912C934.122 79.264 933.941 79.6907 933.941 80.192C933.941 80.7893 934.149 81.232 934.565 81.52C934.981 81.808 935.466 81.952 936.021 81.952H938.597V81.248H939.717V81.952H940.757V83.024H939.717V85.056C939.717 85.9627 939.397 86.704 938.757 87.28C938.117 87.8453 937.232 88.128 936.101 88.128ZM936.101 87.056C936.944 87.056 937.568 86.864 937.973 86.48C938.389 86.0853 938.597 85.6427 938.597 85.152V83.024H935.877C935.429 83.024 935.029 83.1147 934.677 83.296C934.336 83.4773 934.069 83.7173 933.877 84.016C933.685 84.304 933.589 84.6293 933.589 84.992C933.589 85.3547 933.69 85.696 933.893 86.016C934.106 86.3253 934.4 86.576 934.773 86.768C935.157 86.96 935.6 87.056 936.101 87.056ZM945.558 88.128C944.758 88.128 944.065 87.9467 943.478 87.584C942.891 87.2107 942.433 86.7093 942.102 86.08C941.782 85.4507 941.622 84.7573 941.622 84C941.622 83.232 941.782 82.5387 942.102 81.92C942.433 81.2907 942.891 80.7947 943.478 80.432C944.065 80.0587 944.758 79.872 945.558 79.872C946.507 79.872 947.313 80.1173 947.974 80.608C948.646 81.0987 949.099 81.7333 949.334 82.512H948.038C947.857 82.0533 947.563 81.68 947.158 81.392C946.763 81.104 946.283 80.96 945.718 80.96C945.131 80.96 944.619 81.0987 944.182 81.376C943.745 81.6533 943.409 82.0213 943.174 82.48C942.939 82.9387 942.822 83.4453 942.822 84C942.822 84.544 942.939 85.0507 943.174 85.52C943.409 85.9787 943.745 86.3467 944.182 86.624C944.619 86.9013 945.131 87.04 945.718 87.04C946.283 87.04 946.763 86.896 947.158 86.608C947.563 86.32 947.857 85.9467 948.038 85.488H949.334C949.099 86.2667 948.646 86.9013 947.974 87.392C947.313 87.8827 946.507 88.128 945.558 88.128ZM954.293 88.128C953.483 88.128 952.779 87.9467 952.181 87.584C951.584 87.2107 951.125 86.7093 950.805 86.08C950.485 85.4507 950.325 84.7573 950.325 84C950.325 83.232 950.485 82.5387 950.805 81.92C951.125 81.2907 951.584 80.7947 952.181 80.432C952.779 80.0587 953.483 79.872 954.293 79.872C955.115 79.872 955.819 80.0587 956.405 80.432C957.003 80.7947 957.461 81.2907 957.781 81.92C958.101 82.5387 958.261 83.232 958.261 84C958.261 84.7573 958.101 85.4507 957.781 86.08C957.461 86.7093 957.003 87.2107 956.405 87.584C955.819 87.9467 955.115 88.128 954.293 88.128ZM954.293 87.04C954.891 87.04 955.392 86.9013 955.797 86.624C956.213 86.3467 956.528 85.9787 956.741 85.52C956.955 85.0507 957.061 84.544 957.061 84C957.061 83.4453 956.955 82.9387 956.741 82.48C956.528 82.0213 956.213 81.6533 955.797 81.376C955.392 81.0987 954.891 80.96 954.293 80.96C953.707 80.96 953.205 81.0987 952.789 81.376C952.373 81.6533 952.059 82.0213 951.845 82.48C951.632 82.9387 951.525 83.4453 951.525 84C951.525 84.544 951.632 85.0507 951.845 85.52C952.059 85.9787 952.373 86.3467 952.789 86.624C953.205 86.9013 953.707 87.04 954.293 87.04ZM959.853 88V80H961.053V81.248C961.341 80.864 961.693 80.5387 962.109 80.272C962.525 80.0053 963.058 79.872 963.709 79.872C964.263 79.872 964.781 80.0053 965.261 80.272C965.751 80.528 966.146 80.9173 966.445 81.44C966.754 81.952 966.909 82.5867 966.909 83.344V88H965.709V83.376C965.709 82.6507 965.501 82.0693 965.085 81.632C964.669 81.184 964.13 80.96 963.469 80.96C963.021 80.96 962.615 81.0613 962.253 81.264C961.89 81.4667 961.597 81.7547 961.373 82.128C961.159 82.4907 961.053 82.912 961.053 83.392V88H959.853ZM972.291 88.128C971.512 88.128 970.83 87.9467 970.243 87.584C969.667 87.2107 969.219 86.7093 968.899 86.08C968.579 85.4507 968.419 84.7573 968.419 84C968.419 83.232 968.579 82.5387 968.899 81.92C969.219 81.2907 969.667 80.7947 970.243 80.432C970.83 80.0587 971.512 79.872 972.291 79.872C972.952 79.872 973.518 80 973.987 80.256C974.467 80.512 974.856 80.8587 975.155 81.296V76.8H976.355V88H975.155V86.72C974.856 87.1467 974.467 87.488 973.987 87.744C973.518 88 972.952 88.128 972.291 88.128ZM972.451 87.04C973.048 87.04 973.55 86.9013 973.955 86.624C974.371 86.3467 974.686 85.9787 974.899 85.52C975.112 85.0507 975.219 84.544 975.219 84C975.219 83.4453 975.112 82.9387 974.899 82.48C974.686 82.0213 974.371 81.6533 973.955 81.376C973.55 81.0987 973.048 80.96 972.451 80.96C971.864 80.96 971.358 81.0987 970.931 81.376C970.504 81.6533 970.179 82.0213 969.955 82.48C969.731 82.9387 969.619 83.4453 969.619 84C969.619 84.544 969.731 85.0507 969.955 85.52C970.179 85.9787 970.504 86.3467 970.931 86.624C971.358 86.9013 971.864 87.04 972.451 87.04ZM978.383 78.656V77.088H979.679V78.656H978.383ZM978.431 88V80H979.631V88H978.431ZM982.576 88V81.056H980.944V80H982.576V77.136H983.776V80H985.616V81.056H983.776V88H982.576ZM986.883 78.656V77.088H988.179V78.656H986.883ZM986.931 88V80H988.131V88H986.931ZM993.684 88.128C992.873 88.128 992.169 87.9467 991.572 87.584C990.975 87.2107 990.516 86.7093 990.196 86.08C989.876 85.4507 989.716 84.7573 989.716 84C989.716 83.232 989.876 82.5387 990.196 81.92C990.516 81.2907 990.975 80.7947 991.572 80.432C992.169 80.0587 992.873 79.872 993.684 79.872C994.505 79.872 995.209 80.0587 995.796 80.432C996.393 80.7947 996.852 81.2907 997.172 81.92C997.492 82.5387 997.652 83.232 997.652 84C997.652 84.7573 997.492 85.4507 997.172 86.08C996.852 86.7093 996.393 87.2107 995.796 87.584C995.209 87.9467 994.505 88.128 993.684 88.128ZM993.684 87.04C994.281 87.04 994.783 86.9013 995.188 86.624C995.604 86.3467 995.919 85.9787 996.132 85.52C996.345 85.0507 996.452 84.544 996.452 84C996.452 83.4453 996.345 82.9387 996.132 82.48C995.919 82.0213 995.604 81.6533 995.188 81.376C994.783 81.0987 994.281 80.96 993.684 80.96C993.097 80.96 992.596 81.0987 992.18 81.376C991.764 81.6533 991.449 82.0213 991.236 82.48C991.023 82.9387 990.916 83.4453 990.916 84C990.916 84.544 991.023 85.0507 991.236 85.52C991.449 85.9787 991.764 86.3467 992.18 86.624C992.596 86.9013 993.097 87.04 993.684 87.04ZM999.243 88V80H1000.44V81.248C1000.73 80.864 1001.08 80.5387 1001.5 80.272C1001.92 80.0053 1002.45 79.872 1003.1 79.872C1003.65 79.872 1004.17 80.0053 1004.65 80.272C1005.14 80.528 1005.54 80.9173 1005.84 81.44C1006.14 81.952 1006.3 82.5867 1006.3 83.344V88H1005.1V83.376C1005.1 82.6507 1004.89 82.0693 1004.48 81.632C1004.06 81.184 1003.52 80.96 1002.86 80.96C1002.41 80.96 1002.01 81.0613 1001.64 81.264C1001.28 81.4667 1000.99 81.7547 1000.76 82.128C1000.55 82.4907 1000.44 82.912 1000.44 83.392V88H999.243ZM1011.22 88.128C1010.48 88.128 1009.86 88.0053 1009.35 87.76C1008.84 87.5147 1008.46 87.1947 1008.19 86.8C1007.93 86.3947 1007.78 85.9573 1007.75 85.488H1008.99C1009.03 85.7547 1009.12 86.016 1009.27 86.272C1009.43 86.5173 1009.67 86.72 1009.99 86.88C1010.31 87.0293 1010.72 87.104 1011.23 87.104C1011.39 87.104 1011.59 87.088 1011.83 87.056C1012.06 87.024 1012.28 86.9653 1012.5 86.88C1012.72 86.7947 1012.91 86.6667 1013.06 86.496C1013.21 86.3253 1013.28 86.1067 1013.28 85.84C1013.28 85.5093 1013.15 85.2533 1012.9 85.072C1012.64 84.8907 1012.31 84.752 1011.91 84.656C1011.5 84.5493 1011.07 84.448 1010.61 84.352C1010.16 84.256 1009.73 84.1333 1009.33 83.984C1008.92 83.824 1008.59 83.6053 1008.34 83.328C1008.08 83.04 1007.95 82.6507 1007.95 82.16C1007.95 81.4347 1008.21 80.8747 1008.74 80.48C1009.27 80.0747 1010.05 79.872 1011.09 79.872C1011.79 79.872 1012.36 79.984 1012.8 80.208C1013.25 80.4213 1013.59 80.6987 1013.81 81.04C1014.04 81.3813 1014.18 81.7493 1014.23 82.144H1013.01C1012.97 81.8027 1012.8 81.5093 1012.5 81.264C1012.21 81.0187 1011.73 80.896 1011.06 80.896C1009.79 80.896 1009.15 81.28 1009.15 82.048C1009.15 82.368 1009.28 82.6133 1009.54 82.784C1009.79 82.9547 1010.12 83.0933 1010.53 83.2C1010.93 83.296 1011.36 83.392 1011.81 83.488C1012.27 83.5733 1012.7 83.696 1013.11 83.856C1013.51 84.016 1013.84 84.2453 1014.1 84.544C1014.35 84.832 1014.48 85.2267 1014.48 85.728C1014.48 86.5067 1014.18 87.104 1013.59 87.52C1013 87.9253 1012.21 88.128 1011.22 88.128Z" fill="white"/>
<path d="M774.296 88V77.408H779.064C780.195 77.408 781.085 77.7173 781.736 78.336C782.387 78.944 782.712 79.7707 782.712 80.816C782.712 81.8613 782.387 82.6933 781.736 83.312C781.085 83.92 780.195 84.224 779.064 84.224H775.496V88H774.296ZM775.496 83.104H778.984C779.816 83.104 780.445 82.9013 780.872 82.496C781.299 82.0907 781.512 81.5307 781.512 80.816C781.512 80.112 781.299 79.5573 780.872 79.152C780.445 78.7467 779.816 78.544 778.984 78.544H775.496V83.104ZM784.087 88V80H785.287V81.968C785.33 81.8293 785.41 81.648 785.527 81.424C785.655 81.1893 785.836 80.9547 786.071 80.72C786.306 80.4853 786.599 80.288 786.951 80.128C787.314 79.9573 787.74 79.872 788.231 79.872H788.311V81.072H788.167C787.57 81.072 787.052 81.2373 786.615 81.568C786.188 81.888 785.858 82.3093 785.623 82.832C785.399 83.344 785.287 83.8933 785.287 84.48V88H784.087ZM789.555 78.656V77.088H790.851V78.656H789.555ZM789.603 88V80H790.803V88H789.603ZM795.06 88L791.924 80H793.236L795.764 86.72L798.276 80H799.588L796.468 88H795.06ZM803.932 88.128C803.153 88.128 802.47 87.9467 801.884 87.584C801.308 87.2107 800.86 86.7093 800.54 86.08C800.22 85.4507 800.06 84.7573 800.06 84C800.06 83.232 800.22 82.5387 800.54 81.92C800.86 81.2907 801.308 80.7947 801.884 80.432C802.47 80.0587 803.153 79.872 803.932 79.872C804.593 79.872 805.158 80 805.628 80.256C806.108 80.512 806.497 80.8587 806.796 81.296V80H807.996V88H806.796V86.72C806.497 87.1467 806.108 87.488 805.628 87.744C805.158 88 804.593 88.128 803.932 88.128ZM804.092 87.04C804.689 87.04 805.19 86.9013 805.596 86.624C806.012 86.3467 806.326 85.9787 806.54 85.52C806.753 85.0507 806.86 84.544 806.86 84C806.86 83.4453 806.753 82.9387 806.54 82.48C806.326 82.0213 806.012 81.6533 805.596 81.376C805.19 81.0987 804.689 80.96 804.092 80.96C803.505 80.96 802.998 81.0987 802.572 81.376C802.145 81.6533 801.82 82.0213 801.596 82.48C801.372 82.9387 801.26 83.4453 801.26 84C801.26 84.544 801.372 85.0507 801.596 85.52C801.82 85.9787 802.145 86.3467 802.572 86.624C802.998 86.9013 803.505 87.04 804.092 87.04ZM813.511 88.128C812.711 88.128 812.018 87.9467 811.431 87.584C810.845 87.2107 810.386 86.7093 810.055 86.08C809.735 85.4507 809.575 84.7573 809.575 84C809.575 83.232 809.735 82.5387 810.055 81.92C810.386 81.2907 810.845 80.7947 811.431 80.432C812.018 80.0587 812.711 79.872 813.511 79.872C814.461 79.872 815.266 80.1173 815.927 80.608C816.599 81.0987 817.053 81.7333 817.287 82.512H815.991C815.81 82.0533 815.517 81.68 815.111 81.392C814.717 81.104 814.237 80.96 813.671 80.96C813.085 80.96 812.573 81.0987 812.135 81.376C811.698 81.6533 811.362 82.0213 811.127 82.48C810.893 82.9387 810.775 83.4453 810.775 84C810.775 84.544 810.893 85.0507 811.127 85.52C811.362 85.9787 811.698 86.3467 812.135 86.624C812.573 86.9013 813.085 87.04 813.671 87.04C814.237 87.04 814.717 86.896 815.111 86.608C815.517 86.32 815.81 85.9467 815.991 85.488H817.287C817.053 86.2667 816.599 86.9013 815.927 87.392C815.266 87.8827 814.461 88.128 813.511 88.128ZM819.606 91.168L821.062 87.888L817.798 80H819.126L821.702 86.56L824.326 80H825.638L820.902 91.168H819.606ZM830.39 88V77.408H835.158C836.288 77.408 837.179 77.7173 837.83 78.336C838.48 78.944 838.806 79.7707 838.806 80.816C838.806 81.8613 838.48 82.6933 837.83 83.312C837.179 83.92 836.288 84.224 835.158 84.224H831.59V88H830.39ZM831.59 83.104H835.078C835.91 83.104 836.539 82.9013 836.966 82.496C837.392 82.0907 837.606 81.5307 837.606 80.816C837.606 80.112 837.392 79.5573 836.966 79.152C836.539 78.7467 835.91 78.544 835.078 78.544H831.59V83.104ZM843.653 88.128C842.842 88.128 842.138 87.9467 841.541 87.584C840.943 87.2107 840.485 86.7093 840.165 86.08C839.845 85.4507 839.685 84.7573 839.685 84C839.685 83.232 839.845 82.5387 840.165 81.92C840.485 81.2907 840.943 80.7947 841.541 80.432C842.138 80.0587 842.842 79.872 843.653 79.872C844.474 79.872 845.178 80.0587 845.765 80.432C846.362 80.7947 846.821 81.2907 847.141 81.92C847.461 82.5387 847.621 83.232 847.621 84C847.621 84.7573 847.461 85.4507 847.141 86.08C846.821 86.7093 846.362 87.2107 845.765 87.584C845.178 87.9467 844.474 88.128 843.653 88.128ZM843.653 87.04C844.25 87.04 844.751 86.9013 845.157 86.624C845.573 86.3467 845.887 85.9787 846.101 85.52C846.314 85.0507 846.421 84.544 846.421 84C846.421 83.4453 846.314 82.9387 846.101 82.48C845.887 82.0213 845.573 81.6533 845.157 81.376C844.751 81.0987 844.25 80.96 843.653 80.96C843.066 80.96 842.565 81.0987 842.149 81.376C841.733 81.6533 841.418 82.0213 841.205 82.48C840.991 82.9387 840.885 83.4453 840.885 84C840.885 84.544 840.991 85.0507 841.205 85.52C841.418 85.9787 841.733 86.3467 842.149 86.624C842.565 86.9013 843.066 87.04 843.653 87.04ZM849.212 88V76.8H850.412V88H849.212ZM852.445 78.656V77.088H853.741V78.656H852.445ZM852.493 88V80H853.693V88H852.493ZM859.214 88.128C858.414 88.128 857.721 87.9467 857.134 87.584C856.548 87.2107 856.089 86.7093 855.758 86.08C855.438 85.4507 855.278 84.7573 855.278 84C855.278 83.232 855.438 82.5387 855.758 81.92C856.089 81.2907 856.548 80.7947 857.134 80.432C857.721 80.0587 858.414 79.872 859.214 79.872C860.164 79.872 860.969 80.1173 861.63 80.608C862.302 81.0987 862.756 81.7333 862.99 82.512H861.694C861.513 82.0533 861.22 81.68 860.814 81.392C860.42 81.104 859.94 80.96 859.374 80.96C858.788 80.96 858.276 81.0987 857.838 81.376C857.401 81.6533 857.065 82.0213 856.83 82.48C856.596 82.9387 856.478 83.4453 856.478 84C856.478 84.544 856.596 85.0507 856.83 85.52C857.065 85.9787 857.401 86.3467 857.838 86.624C858.276 86.9013 858.788 87.04 859.374 87.04C859.94 87.04 860.42 86.896 860.814 86.608C861.22 86.32 861.513 85.9467 861.694 85.488H862.99C862.756 86.2667 862.302 86.9013 861.63 87.392C860.969 87.8827 860.164 88.128 859.214 88.128ZM865.31 91.168L866.766 87.888L863.502 80H864.83L867.406 86.56L870.03 80H871.342L866.606 91.168H865.31Z" fill="white"/>
<path d="M1388 76.9304C1387.25 77.2617 1386.46 77.4793 1385.64 77.576C1386.5 77.0633 1387.14 76.2563 1387.45 75.3056C1386.64 75.7844 1385.76 76.1199 1384.84 76.3015C1384.22 75.6407 1383.41 75.2025 1382.51 75.055C1381.62 74.9074 1380.71 75.0588 1379.91 75.4856C1379.11 75.9123 1378.48 76.5906 1378.1 77.4149C1377.73 78.2392 1377.64 79.1633 1377.85 80.0436C1376.22 79.9618 1374.62 79.5378 1373.17 78.7992C1371.71 78.0605 1370.42 77.0236 1369.39 75.7559C1369.03 76.3824 1368.84 77.0945 1368.84 77.8193C1368.84 79.242 1369.56 80.4989 1370.66 81.2347C1370.01 81.2142 1369.37 81.0383 1368.8 80.7216V80.7726C1368.8 81.7201 1369.13 82.6384 1369.73 83.3718C1370.33 84.1051 1371.17 84.6084 1372.1 84.7964C1371.49 84.9603 1370.86 84.9844 1370.24 84.867C1370.5 85.6826 1371.01 86.3958 1371.7 86.9069C1372.39 87.418 1373.22 87.7014 1374.07 87.7173C1373.22 88.3858 1372.25 88.8799 1371.21 89.1715C1370.16 89.4631 1369.07 89.5464 1368 89.4167C1369.88 90.6229 1372.06 91.2633 1374.29 91.2612C1381.84 91.2612 1385.97 85.0083 1385.97 79.5854C1385.97 79.4088 1385.96 79.2302 1385.95 79.0556C1386.76 78.4749 1387.45 77.7556 1388 76.9314L1388 76.9304Z" fill="white"/>
<path d="M1322 80C1321.2 80 1320.44 80.3161 1319.88 80.8787C1319.32 81.4413 1319 82.2044 1319 83C1319 83.7956 1319.32 84.5587 1319.88 85.1213C1320.44 85.6839 1321.2 86 1322 86C1322.8 86 1323.56 85.6839 1324.12 85.1213C1324.68 84.5587 1325 83.7956 1325 83C1325 82.2044 1324.68 81.4413 1324.12 80.8787C1323.56 80.3161 1322.8 80 1322 80ZM1322 78C1323.33 78 1324.6 78.5268 1325.54 79.4645C1326.47 80.4021 1327 81.6739 1327 83C1327 84.3261 1326.47 85.5979 1325.54 86.5355C1324.6 87.4732 1323.33 88 1322 88C1320.67 88 1319.4 87.4732 1318.46 86.5355C1317.53 85.5979 1317 84.3261 1317 83C1317 81.6739 1317.53 80.4021 1318.46 79.4645C1319.4 78.5268 1320.67 78 1322 78V78ZM1328.5 77.75C1328.5 78.0815 1328.37 78.3995 1328.13 78.6339C1327.9 78.8683 1327.58 79 1327.25 79C1326.92 79 1326.6 78.8683 1326.37 78.6339C1326.13 78.3995 1326 78.0815 1326 77.75C1326 77.4185 1326.13 77.1005 1326.37 76.8661C1326.6 76.6317 1326.92 76.5 1327.25 76.5C1327.58 76.5 1327.9 76.6317 1328.13 76.8661C1328.37 77.1005 1328.5 77.4185 1328.5 77.75V77.75ZM1322 75C1319.53 75 1319.12 75.007 1317.97 75.058C1317.19 75.095 1316.66 75.2 1316.17 75.39C1315.76 75.5399 1315.4 75.7803 1315.09 76.093C1314.78 76.3954 1314.54 76.7646 1314.39 77.173C1314.2 77.663 1314.09 78.188 1314.06 78.971C1314.01 80.075 1314 80.461 1314 83C1314 85.474 1314.01 85.878 1314.06 87.029C1314.1 87.812 1314.2 88.339 1314.39 88.826C1314.56 89.261 1314.76 89.574 1315.09 89.906C1315.43 90.242 1315.74 90.443 1316.17 90.609C1316.66 90.8 1317.19 90.906 1317.97 90.942C1319.08 90.994 1319.46 91 1322 91C1324.47 91 1324.88 90.993 1326.03 90.942C1326.81 90.905 1327.34 90.8 1327.83 90.611C1328.23 90.4603 1328.6 90.2205 1328.91 89.909C1329.24 89.572 1329.44 89.259 1329.61 88.829C1329.8 88.336 1329.91 87.809 1329.94 87.029C1329.99 85.925 1330 85.539 1330 83C1330 80.526 1329.99 80.122 1329.94 78.971C1329.9 78.189 1329.8 77.661 1329.61 77.173C1329.46 76.765 1329.22 76.396 1328.91 76.093C1328.6 75.7798 1328.24 75.5392 1327.83 75.389C1327.34 75.199 1326.81 75.094 1326.03 75.058C1324.92 75.006 1324.54 75 1322 75ZM1322 73C1324.72 73 1325.06 73.01 1326.12 73.06C1327.19 73.11 1327.91 73.277 1328.55 73.525C1329.21 73.779 1329.77 74.123 1330.32 74.678C1330.83 75.1779 1331.22 75.7826 1331.48 76.45C1331.72 77.087 1331.89 77.813 1331.94 78.878C1331.99 79.944 1332 80.283 1332 83C1332 85.717 1331.99 86.056 1331.94 87.122C1331.89 88.187 1331.72 88.912 1331.48 89.55C1331.22 90.2178 1330.83 90.8226 1330.32 91.322C1329.82 91.8303 1329.22 92.2238 1328.55 92.475C1327.91 92.722 1327.19 92.89 1326.12 92.94C1325.06 92.987 1324.72 93 1322 93C1319.28 93 1318.94 92.99 1317.88 92.94C1316.81 92.89 1316.09 92.722 1315.45 92.475C1314.78 92.2245 1314.18 91.8309 1313.68 91.322C1313.17 90.8222 1312.78 90.2175 1312.53 89.55C1312.28 88.913 1312.11 88.187 1312.06 87.122C1312.01 86.056 1312 85.717 1312 83C1312 80.283 1312.01 79.944 1312.06 78.878C1312.11 77.812 1312.28 77.088 1312.53 76.45C1312.78 75.7822 1313.17 75.1773 1313.68 74.678C1314.18 74.1692 1314.78 73.7757 1315.45 73.525C1316.09 73.277 1316.81 73.11 1317.88 73.06C1318.94 73.013 1319.28 73 1322 73Z" fill="white"/>
<path d="M1266 73C1260.48 73 1256 77.5043 1256 83.0609C1256 88.0822 1259.66 92.2444 1264.44 93V85.9685H1261.9V83.0609H1264.44V80.8445C1264.44 78.3232 1265.93 76.9308 1268.22 76.9308C1269.31 76.9308 1270.45 77.127 1270.45 77.127V79.6019H1269.19C1267.95 79.6019 1267.56 80.3776 1267.56 81.1734V83.0609H1270.34L1269.89 85.9685H1267.56V93C1272.34 92.2454 1276 88.0812 1276 83.0609C1276 77.5043 1271.52 73 1266 73Z" fill="white"/>
<path d="M1204 0L1204 170" stroke="#BDBDBD" stroke-width="1.5"/>
</svg>
