<svg width="1440" height="97" viewBox="0 0 1440 97" fill="none" xmlns="http://www.w3.org/2000/svg">
<rect width="1440" height="96" fill="#F0F2F4"/>
<path d="M1165.46 51.935H1158.7V42.679H1160.7V50.219H1165.46V51.935ZM1175.55 47.32C1175.55 49.972 1173.38 52.117 1170.74 52.117C1168.09 52.117 1165.94 49.972 1165.94 47.32C1165.94 44.655 1168.09 42.51 1170.74 42.51C1173.38 42.51 1175.55 44.655 1175.55 47.32ZM1170.74 44.473C1169.19 44.473 1167.9 45.773 1167.9 47.32C1167.9 48.867 1169.19 50.154 1170.74 50.154C1172.28 50.154 1173.55 48.867 1173.55 47.32C1173.55 45.773 1172.28 44.473 1170.74 44.473ZM1185.52 47.047C1185.52 47.32 1185.47 49.036 1184.99 49.66C1184.2 51.155 1182.58 52.156 1180.78 52.156C1178.14 52.156 1175.98 49.998 1175.98 47.346C1175.98 44.707 1178.14 42.549 1180.78 42.549C1182.57 42.549 1184.14 43.55 1184.98 44.993C1184.16 45.409 1184.09 45.448 1183.18 45.903C1182.7 45.071 1181.82 44.538 1180.78 44.538C1179.22 44.538 1177.97 45.786 1177.97 47.346C1177.97 48.919 1179.22 50.154 1180.78 50.154C1181.82 50.154 1182.86 49.634 1183.23 48.75H1183.03C1182.61 48.75 1181.66 48.763 1181.14 48.763C1180.89 48.763 1180.78 48.763 1180.78 48.75V47.034C1182.09 47.034 1183.92 47.047 1185.52 47.047ZM1186.6 52V42.718H1188.64V52H1186.6ZM1196.65 52.013L1191.94 45.591V52.013H1190.16V42.692H1192.5L1196.65 48.49V42.692H1198.38V52.013H1196.65Z" fill="black"/>
<path d="M1226 38C1220.48 38 1216 42.4771 1216 48C1216 53.5228 1220.48 58 1226 58C1231.52 58 1236 53.5228 1236 48C1236 42.4771 1231.52 38 1226 38Z" stroke="black" stroke-width="1.5" stroke-linecap="round" stroke-linejoin="round"/>
<path d="M1218.27 54.3457C1218.27 54.3457 1220.5 51.5 1226 51.5C1231.5 51.5 1233.73 54.3457 1233.73 54.3457" stroke="black" stroke-width="1.5" stroke-linecap="round" stroke-linejoin="round"/>
<path d="M1226 48C1227.66 48 1229 46.6569 1229 45C1229 43.3432 1227.66 42 1226 42C1224.34 42 1223 43.3432 1223 45C1223 46.6569 1224.34 48 1226 48Z" stroke="#BDBDBD" stroke-width="1.5" stroke-linecap="round" stroke-linejoin="round"/>
<path d="M1071.9 53V43.718H1073.94V53H1071.9ZM1081.95 53.013L1077.24 46.591V53.013H1075.46V43.692H1077.8L1081.95 49.49V43.692H1083.68V53.013H1081.95ZM1094.1 50.868L1094.12 52.805H1090.69C1090.27 52.935 1089.83 53 1089.37 53C1086.77 53 1084.65 50.881 1084.65 48.281C1084.65 45.642 1086.77 43.536 1089.37 43.536C1092.01 43.536 1094.12 45.642 1094.12 48.281C1094.12 49.425 1093.78 50.153 1093.1 50.868H1094.1ZM1089.37 45.512C1087.85 45.512 1086.59 46.734 1086.59 48.281C1086.59 49.802 1087.85 51.024 1089.37 51.024C1090.92 51.024 1092.14 49.802 1092.14 48.281C1092.14 46.734 1090.92 45.512 1089.37 45.512ZM1103.27 43.718V49.49C1103.27 51.999 1101.79 53.221 1099.31 53.221C1096.8 53.221 1095.36 52.025 1095.36 49.49V43.718H1097.4V49.49C1097.4 50.504 1097.66 51.505 1099.31 51.505C1100.77 51.505 1101.23 50.881 1101.23 49.49V43.718H1103.27ZM1105.01 53V43.718H1107.05V53H1105.01ZM1113.96 49.568H1114.04L1116.64 53.013H1114.15L1111.81 49.672H1110.81V53.013H1108.75V43.718H1112.94C1115.28 43.718 1116.17 45.187 1116.17 46.695C1116.17 47.956 1115.51 49.23 1113.96 49.568ZM1112.39 45.304H1110.81V48.099H1112.39C1113.37 48.099 1114.17 47.878 1114.17 46.695C1114.17 45.486 1113.37 45.304 1112.39 45.304ZM1119.88 49.295V51.271H1125.11V52.987H1117.9V43.679H1124.67V45.395H1119.88V47.488H1124.11V49.295H1119.88Z" fill="black"/>
<path d="M330.938 49.866V52.414H333.122C333.915 52.414 334.63 52.154 334.63 51.192C334.63 50.243 334.045 49.866 333.161 49.866H330.938ZM328.897 54V44.718H333.265C335.033 44.718 336.229 45.29 336.229 47.019C336.229 47.955 335.8 48.553 334.968 48.956C336.112 49.281 336.671 50.152 336.671 51.309C336.671 53.194 335.072 54 333.395 54H328.897ZM330.938 46.304V48.475H333.005C333.733 48.475 334.253 48.15 334.253 47.37C334.253 46.499 333.577 46.304 332.849 46.304H330.938ZM346.994 49.32C346.994 51.972 344.823 54.117 342.184 54.117C339.532 54.117 337.387 51.972 337.387 49.32C337.387 46.655 339.532 44.51 342.184 44.51C344.823 44.51 346.994 46.655 346.994 49.32ZM342.184 46.473C340.637 46.473 339.35 47.773 339.35 49.32C339.35 50.867 340.637 52.154 342.184 52.154C343.731 52.154 344.992 50.867 344.992 49.32C344.992 47.773 343.731 46.473 342.184 46.473ZM357.125 49.32C357.125 51.972 354.954 54.117 352.315 54.117C349.663 54.117 347.518 51.972 347.518 49.32C347.518 46.655 349.663 44.51 352.315 44.51C354.954 44.51 357.125 46.655 357.125 49.32ZM352.315 46.473C350.768 46.473 349.481 47.773 349.481 49.32C349.481 50.867 350.768 52.154 352.315 52.154C353.862 52.154 355.123 50.867 355.123 49.32C355.123 47.773 353.862 46.473 352.315 46.473ZM362.719 49.97L366.489 54H363.681L361.263 51.4L360.054 53.077V54H357.974V44.705H360.054V49.97L363.681 44.705H366.216L362.719 49.97ZM367.694 54V44.718H369.735V54H367.694ZM377.744 54.013L373.038 47.591V54.013H371.257V44.692H373.597L377.744 50.49V44.692H379.473V54.013H377.744ZM389.863 49.047C389.863 49.32 389.811 51.036 389.33 51.66C388.537 53.155 386.925 54.156 385.118 54.156C382.479 54.156 380.321 51.998 380.321 49.346C380.321 46.707 382.479 44.549 385.118 44.549C386.912 44.549 388.485 45.55 389.317 46.993C388.498 47.409 388.433 47.448 387.523 47.903C387.042 47.071 386.158 46.538 385.118 46.538C383.558 46.538 382.31 47.786 382.31 49.346C382.31 50.919 383.558 52.154 385.118 52.154C386.158 52.154 387.198 51.634 387.575 50.75H387.367C386.951 50.75 386.002 50.763 385.482 50.763C385.235 50.763 385.118 50.763 385.118 50.75V49.034C386.431 49.034 388.264 49.047 389.863 49.047Z" fill="black"/>
<path d="M667.118 54V44.718H669.77L671.915 48.813L674.021 44.718H676.712V54H674.801V47.435H674.775L672.708 51.66H671.135L669.081 47.5H669.055V54H667.118ZM680.433 50.295V52.271H685.672V53.987H678.457V44.679H685.23V46.395H680.433V48.488H684.671V50.295H680.433ZM687.367 54V44.718H690.019L692.164 48.813L694.27 44.718H696.961V54H695.05V47.435H695.024L692.957 51.66H691.384L689.33 47.5H689.304V54H687.367ZM700.773 49.866V52.414H702.957C703.75 52.414 704.465 52.154 704.465 51.192C704.465 50.243 703.88 49.866 702.996 49.866H700.773ZM698.732 54V44.718H703.1C704.868 44.718 706.064 45.29 706.064 47.019C706.064 47.955 705.635 48.553 704.803 48.956C705.947 49.281 706.506 50.152 706.506 51.309C706.506 53.194 704.907 54 703.23 54H698.732ZM700.773 46.304V48.475H702.84C703.568 48.475 704.088 48.15 704.088 47.37C704.088 46.499 703.412 46.304 702.684 46.304H700.773ZM709.721 50.295V52.271H714.96V53.987H707.745V44.679H714.518V46.395H709.721V48.488H713.959V50.295H709.721ZM721.647 50.568H721.725L724.325 54.013H721.829L719.489 50.672H718.488V54.013H716.434V44.718H720.62C722.96 44.718 723.857 46.187 723.857 47.695C723.857 48.956 723.194 50.23 721.647 50.568ZM720.074 46.304H718.488V49.099H720.074C721.049 49.099 721.855 48.878 721.855 47.695C721.855 46.486 721.049 46.304 720.074 46.304ZM725.231 50.919L727.207 51.244C727.415 52.466 728.507 52.635 729.261 52.635C729.976 52.635 731.068 52.427 731.068 51.478C731.068 49.502 725.543 50.776 725.543 47.305C725.543 45.394 727.337 44.497 729.014 44.497C730.951 44.497 732.732 45.342 732.732 47.487L730.756 47.201C730.509 46.122 729.56 46.083 728.923 46.083C728.273 46.083 727.519 46.356 727.519 47.136C727.519 47.825 727.961 47.981 730.288 48.54C730.977 48.709 733.044 49.138 733.044 51.244C733.044 52.947 731.718 54.221 729.183 54.221C727.103 54.221 725.231 53.207 725.231 50.919ZM740.368 53.974V50.022H736.065V53.974H734.076V44.666H736.065V48.033H740.368V44.692H742.37V53.974H740.368ZM743.996 54V44.718H746.037V54H743.996ZM747.741 54V44.718H751.927C754.254 44.718 755.138 46.187 755.138 47.695C755.138 49.203 754.254 50.672 751.927 50.672H749.782V54H747.741ZM749.782 46.304V49.086H751.368C752.304 49.086 753.162 48.878 753.162 47.695C753.162 46.512 752.304 46.304 751.368 46.304H749.782Z" fill="black"/>
<path d="M432.872 54H431.013L435.225 44.731H437.279L441.426 54H439.45L438.54 51.946H433.847L432.872 54ZM436.291 46.473H436.278L434.718 50.061H437.799L436.291 46.473ZM444.216 49.866V52.414H446.4C447.193 52.414 447.908 52.154 447.908 51.192C447.908 50.243 447.323 49.866 446.439 49.866H444.216ZM442.175 54V44.718H446.543C448.311 44.718 449.507 45.29 449.507 47.019C449.507 47.955 449.078 48.553 448.246 48.956C449.39 49.281 449.949 50.152 449.949 51.309C449.949 53.194 448.35 54 446.673 54H442.175ZM444.216 46.304V48.475H446.283C447.011 48.475 447.531 48.15 447.531 47.37C447.531 46.499 446.855 46.304 446.127 46.304H444.216ZM460.366 49.32C460.366 51.972 458.195 54.117 455.556 54.117C452.904 54.117 450.759 51.972 450.759 49.32C450.759 46.655 452.904 44.51 455.556 44.51C458.195 44.51 460.366 46.655 460.366 49.32ZM455.556 46.473C454.009 46.473 452.722 47.773 452.722 49.32C452.722 50.867 454.009 52.154 455.556 52.154C457.103 52.154 458.364 50.867 458.364 49.32C458.364 47.773 457.103 46.473 455.556 46.473ZM469.431 44.718V50.49C469.431 52.999 467.949 54.221 465.466 54.221C462.957 54.221 461.514 53.025 461.514 50.49V44.718H463.555V50.49C463.555 51.504 463.815 52.505 465.466 52.505C466.922 52.505 467.39 51.881 467.39 50.49V44.718H469.431ZM473.517 54V46.434H470.566V44.731H478.483V46.447H475.558V54H473.517ZM492.536 49.32C492.536 51.972 490.365 54.117 487.726 54.117C485.074 54.117 482.929 51.972 482.929 49.32C482.929 46.655 485.074 44.51 487.726 44.51C490.365 44.51 492.536 46.655 492.536 49.32ZM487.726 46.473C486.179 46.473 484.892 47.773 484.892 49.32C484.892 50.867 486.179 52.154 487.726 52.154C489.273 52.154 490.534 50.867 490.534 49.32C490.534 47.773 489.273 46.473 487.726 46.473ZM493.112 54V52.388L498.091 46.434H493.502V44.718H500.808V46.33L495.829 52.284H500.938V54H493.112Z" fill="black"/>
<path d="M551.269 51.517C550.476 53.012 548.942 54.026 547.109 54.026C544.509 54.026 542.403 51.92 542.403 49.32C542.403 46.746 544.509 44.614 547.109 44.614C548.89 44.614 550.398 45.602 551.191 47.019C550.398 47.435 550.333 47.474 549.449 47.903C548.994 47.11 548.11 46.564 547.109 46.564C545.588 46.564 544.353 47.812 544.353 49.32C544.353 50.841 545.588 52.076 547.109 52.076C548.149 52.076 549.059 51.517 549.527 50.633C550.411 51.088 550.437 51.14 551.269 51.517ZM561.477 49.32C561.477 51.972 559.306 54.117 556.667 54.117C554.015 54.117 551.87 51.972 551.87 49.32C551.87 46.655 554.015 44.51 556.667 44.51C559.306 44.51 561.477 46.655 561.477 49.32ZM556.667 46.473C555.12 46.473 553.833 47.773 553.833 49.32C553.833 50.867 555.12 52.154 556.667 52.154C558.214 52.154 559.475 50.867 559.475 49.32C559.475 47.773 558.214 46.473 556.667 46.473ZM562.885 54V44.718H565.537L567.682 48.813L569.788 44.718H572.479V54H570.568V47.435H570.542L568.475 51.66H566.902L564.848 47.5H564.822V54H562.885ZM574.679 54V44.718H577.331L579.476 48.813L581.582 44.718H584.273V54H582.362V47.435H582.336L580.269 51.66H578.696L576.642 47.5H576.616V54H574.679ZM594.129 44.718V50.49C594.129 52.999 592.647 54.221 590.164 54.221C587.655 54.221 586.212 53.025 586.212 50.49V44.718H588.253V50.49C588.253 51.504 588.513 52.505 590.164 52.505C591.62 52.505 592.088 51.881 592.088 50.49V44.718H594.129ZM602.167 54.013L597.461 47.591V54.013H595.68V44.692H598.02L602.167 50.49V44.692H603.896V54.013H602.167ZM605.498 54V44.718H607.539V54H605.498ZM611.596 54V46.434H608.645V44.731H616.562V46.447H613.637V54H611.596ZM620.141 54V50.386L616.722 44.718H619.023L621.194 48.384L623.352 44.718H625.627L622.182 50.438V54H620.141Z" fill="black"/>
<path d="M796.897 54V44.718H801.083C803.41 44.718 804.294 46.187 804.294 47.695C804.294 49.203 803.41 50.672 801.083 50.672H798.938V54H796.897ZM798.938 46.304V49.086H800.524C801.46 49.086 802.318 48.878 802.318 47.695C802.318 46.512 801.46 46.304 800.524 46.304H798.938ZM810.781 50.568H810.859L813.459 54.013H810.963L808.623 50.672H807.622V54.013H805.568V44.718H809.754C812.094 44.718 812.991 46.187 812.991 47.695C812.991 48.956 812.328 50.23 810.781 50.568ZM809.208 46.304H807.622V49.099H809.208C810.183 49.099 810.989 48.878 810.989 47.695C810.989 46.486 810.183 46.304 809.208 46.304ZM814.95 54V44.718H816.991V54H814.95ZM826.092 44.718L823.011 54H820.71L817.694 44.718H819.8L821.867 51.244H821.893L823.986 44.718H826.092ZM827.846 54H825.987L830.199 44.731H832.253L836.4 54H834.424L833.514 51.946H828.821L827.846 54ZM831.265 46.473H831.252L829.692 50.061H832.773L831.265 46.473ZM839.71 54V46.434H836.759V44.731H844.676V46.447H841.751V54H839.71ZM847.592 50.295V52.271H852.831V53.987H845.616V44.679H852.389V46.395H847.592V48.488H851.83V50.295H847.592ZM864.221 50.295H859.983V52.271H865.222V53.987H858.007V44.679H864.78V46.395H859.983V48.488H864.221V50.295ZM874.067 44.718L870.986 54H868.685L865.669 44.718H867.775L869.842 51.244H869.868L871.961 44.718H874.067ZM876.588 50.295V52.271H881.827V53.987H874.612V44.679H881.385V46.395H876.588V48.488H880.826V50.295H876.588ZM889.606 54.013L884.9 47.591V54.013H883.119V44.692H885.459L889.606 50.49V44.692H891.335V54.013H889.606ZM895.29 54V46.434H892.339V44.731H900.256V46.447H897.331V54H895.29ZM900.845 50.919L902.821 51.244C903.029 52.466 904.121 52.635 904.875 52.635C905.59 52.635 906.682 52.427 906.682 51.478C906.682 49.502 901.157 50.776 901.157 47.305C901.157 45.394 902.951 44.497 904.628 44.497C906.565 44.497 908.346 45.342 908.346 47.487L906.37 47.201C906.123 46.122 905.174 46.083 904.537 46.083C903.887 46.083 903.133 46.356 903.133 47.136C903.133 47.825 903.575 47.981 905.902 48.54C906.591 48.709 908.658 49.138 908.658 51.244C908.658 52.947 907.332 54.221 904.797 54.221C902.717 54.221 900.845 53.207 900.845 50.919Z" fill="black"/>
<path d="M1279.33 41.333H1300.67" stroke="black" stroke-width="1.5" stroke-linecap="round"/>
<path opacity="0.6" d="M1286 48H1300.67" stroke="black" stroke-width="1.5" stroke-linecap="round"/>
<path opacity="0.4" d="M1294 54.667H1300.67" stroke="#BDBDBD" stroke-width="1.5" stroke-linecap="round"/>
<path d="M1142 31L1142 65" stroke="black" stroke-width="0.5"/>
<path d="M1330 0L1330 96" stroke="#BDBDBD"/>
<g clip-path="url(#clip0_4998_8358)">
<path d="M139.15 64.0827H140.95C143.664 64.0827 145.282 62.7939 145.282 60.5255C145.282 58.2572 143.664 56.9941 140.95 56.9941H136.357V67.3048H139.15V64.0827ZM139.15 61.8401V59.2109H140.82C142.072 59.2109 142.568 59.6749 142.568 60.5255C142.568 61.4019 142.099 61.8401 140.82 61.8401H139.15ZM150.006 60.1904H150.084L151.284 63.2321H148.831L150.006 60.1904ZM152.85 67.3048H155.851L151.702 56.9941H148.544L144.395 67.3048H147.213L147.996 65.32H152.067L152.85 67.3048ZM159.4 61.737V59.2109H161.41C162.61 59.2109 163.21 59.6491 163.21 60.4998C163.21 61.4277 162.61 61.737 161.41 61.737H159.4ZM166.107 67.3048C165.924 67.1243 165.82 66.8666 165.768 66.5573C165.716 66.2479 165.663 65.7066 165.559 64.9333C165.455 63.7476 164.802 63.129 163.732 62.9228C164.985 62.7681 165.95 61.7886 165.95 60.2678C165.95 58.2572 164.62 56.9941 161.906 56.9941H156.634V67.3048H159.4V63.8765H161.279C162.219 63.8765 162.741 64.1343 162.819 65.32C162.897 66.3768 163.028 67.0212 163.263 67.3048H166.107ZM177.198 67.3048L172.97 61.3762L176.989 56.9941H173.753L170.021 61.17V56.9941H167.203V67.3048H170.021V64.1858L170.935 63.2063L173.832 67.3048H177.198Z" fill="black"/>
<path d="M135.889 48.5123C135.889 50.1105 136.411 51.3735 137.428 52.3788C138.446 53.3841 139.725 53.8738 141.238 53.8738C142.83 53.8738 144.057 53.4356 144.892 52.5592C145.753 51.6828 146.223 50.6002 146.327 49.3114L143.639 49.2083C143.561 49.7754 143.352 50.2909 142.987 50.7549C142.621 51.1931 142.047 51.4251 141.238 51.4251C139.725 51.4251 138.811 50.2909 138.811 48.5381C138.811 46.7853 139.725 45.6511 141.238 45.6511C142.047 45.6511 142.621 45.8831 142.987 46.3471C143.352 46.7853 143.561 47.3008 143.639 47.8679L146.327 47.7648C146.223 46.476 145.753 45.4191 144.892 44.5169C144.057 43.6148 142.83 43.1766 141.238 43.1766C139.725 43.1766 138.446 43.6663 137.428 44.6716C136.384 45.6511 135.889 46.9142 135.889 48.5123ZM157.809 48.5123C157.809 46.9142 157.288 45.6511 156.244 44.6458C155.2 43.6405 153.895 43.1508 152.408 43.1508C150.894 43.1508 149.615 43.6405 148.571 44.6458C147.528 45.6511 147.006 46.9142 147.006 48.5123C147.006 50.1105 147.528 51.3735 148.571 52.3788C149.615 53.3841 150.92 53.8738 152.408 53.8738C153.921 53.8738 155.2 53.3841 156.244 52.3788C157.288 51.3735 157.809 50.0847 157.809 48.5123ZM154.913 48.5123C154.913 50.2651 153.921 51.3993 152.408 51.3993C150.894 51.3993 149.876 50.2651 149.876 48.5123C149.876 46.7595 150.868 45.6253 152.408 45.6253C153.921 45.5996 154.913 46.7595 154.913 48.5123ZM166.943 43.357H164.412L162.689 49.8269H162.611L160.967 43.357H158.149L160.889 53.6676H163.838L165.586 47.1462H165.664L167.413 53.6676H170.414L173.154 43.357H170.44L168.796 49.8269H168.718L166.943 43.357ZM184.271 48.5123C184.271 46.9142 183.749 45.6511 182.705 44.6458C181.661 43.6405 180.357 43.1508 178.869 43.1508C177.355 43.1508 176.077 43.6405 175.033 44.6458C173.989 45.6511 173.467 46.9142 173.467 48.5123C173.467 50.1105 173.989 51.3735 175.033 52.3788C176.077 53.3841 177.355 53.8738 178.869 53.8738C180.383 53.8738 181.661 53.3841 182.705 52.3788C183.723 51.3735 184.271 50.0847 184.271 48.5123ZM181.374 48.5123C181.374 50.2651 180.383 51.3993 178.843 51.3993C177.329 51.3993 176.312 50.2651 176.312 48.5123C176.312 46.7595 177.303 45.6253 178.843 45.6253C180.383 45.5996 181.374 46.7595 181.374 48.5123ZM188.159 48.0999V45.5738H190.169C191.369 45.5738 191.969 46.012 191.969 46.8626C191.969 47.7906 191.369 48.0999 190.169 48.0999H188.159ZM194.866 53.6676C194.683 53.4872 194.579 53.2294 194.527 52.9201C194.475 52.6108 194.422 52.0695 194.318 51.2962C194.214 50.1105 193.561 49.4918 192.491 49.2856C193.744 49.1309 194.709 48.1514 194.709 46.6306C194.709 44.62 193.379 43.357 190.665 43.357H185.393V53.6676H188.159V50.2393H190.038C190.978 50.2393 191.5 50.4971 191.578 51.6828C191.656 52.7397 191.787 53.3841 191.995 53.6676H194.866ZM205.931 53.6676L201.703 47.739L205.722 43.357H202.486L198.754 47.5328V43.357H195.936V53.6676H198.754V50.5229L199.668 49.5434L202.564 53.6419H205.931V53.6676ZM206.557 53.6676H209.375V43.357H206.557V53.6676ZM213.655 43.357H210.967V53.6676H213.551V47.5586L218.066 53.6676H220.31V43.357H217.726V49.0794L213.655 43.357ZM226.521 53.8481C227.852 53.8481 228.974 53.4356 229.548 52.5077V53.6419H232.001V48.3061H227.043V50.2909H229.339C228.922 51.09 228.034 51.4766 227.121 51.4766C225.32 51.4766 224.355 50.2651 224.355 48.4865C224.355 46.7337 225.268 45.5996 226.912 45.5996C228.243 45.5996 229.052 46.3471 229.209 47.4555L231.949 47.3524C231.74 44.8005 229.913 43.125 226.86 43.125C225.346 43.125 224.068 43.6148 223.024 44.62C221.98 45.6253 221.458 46.8884 221.458 48.4865C221.458 50.0847 221.928 51.3735 222.919 52.353C223.885 53.3583 225.085 53.8481 226.521 53.8481Z" fill="black"/>
<path d="M141.159 32.8916H141.237L142.438 35.9333H139.984L141.159 32.8916ZM144.029 40.006H147.03L142.881 29.6953H139.724L135.574 40.006H138.419L139.202 38.0212H143.273L144.029 40.006Z" fill="black"/>
<path d="M122.631 29.6953H121.457V67.2776H122.631V29.6953Z" fill="black"/>
<path d="M54.7548 37.9445C49.1963 37.9445 45.5689 42.1203 45.5689 48.5129C45.5689 54.9055 49.1963 59.0813 54.7548 59.0813C60.3133 59.0813 63.9407 54.9055 63.9407 48.5129C63.9146 42.1203 60.2872 37.9445 54.7548 37.9445ZM68.7424 62.5869C64.9323 66.2214 60.235 68.0258 54.7287 68.0258C49.2224 68.0258 44.5251 66.2472 40.7151 62.5869C36.9311 58.9524 35 54.2868 35 48.5129C35 42.7389 36.9311 38.0734 40.7412 34.4389C44.5512 30.7786 49.2485 29 54.7548 29C60.2611 29 64.9584 30.7786 68.7684 34.4389C72.5785 38.0734 74.5096 42.7389 74.5096 48.5129C74.4835 54.2868 72.5524 58.9524 68.7424 62.5869Z" fill="black"/>
<path d="M108.539 58.9533V67.2792H76.3105V59.5977L95.0215 38.0743H76.4932V29.7227H108.07V37.5845L89.2282 58.9533H108.539Z" fill="black"/>
</g>
<circle opacity="0.5" cx="1384" cy="48" r="16" fill="#D0DF00"/>
<path d="M1440 95.5H0V96.5H1440V95.5Z" fill="#BDBDBD"/>
<defs>
<clipPath id="clip0_4998_8358">
<rect width="197" height="39" fill="white" transform="translate(35 29)"/>
</clipPath>
</defs>
</svg>
