<svg width="112" height="112" viewBox="0 0 112 112" fill="none" xmlns="http://www.w3.org/2000/svg">
<path d="M112 61.4891V63.4555H111.662V61.9401H111.64L111.08 63.4555H110.788L110.232 61.9401V63.4555H109.889V61.4891H110.399L110.96 63.0296L111.49 61.4891H112ZM109.671 61.4891V61.7729H109.016V63.4553H108.678V61.7729H108.023V61.4891H109.671ZM101.204 58.5541C101.713 56.9467 101.713 55.9991 101.225 55.3811C100.861 54.9553 100.33 54.7424 99.5257 54.7424C97.7321 54.7424 96.7388 55.7361 95.9382 58.2242C95.4245 59.8565 95.4245 60.8041 95.9124 61.4181C96.2507 61.8229 96.8113 62.0359 97.6119 62.0359C99.3799 62.0359 100.403 61.0633 101.204 58.5541ZM108.216 54.9553C108.918 55.8113 109.068 56.8968 108.652 58.2244C107.488 61.894 103.096 63.9981 96.5888 63.9981C92.7061 63.9981 90.0649 63.2634 88.8961 61.8439C88.1941 60.9923 88.0742 59.8817 88.4852 58.5541C89.6495 54.8844 94.0416 52.7803 100.549 52.7803C104.406 52.7803 107.077 53.536 108.216 54.9553ZM83.9474 53.135H90.8395C90.4244 53.6779 82.9286 63.5013 82.8046 63.6684H72.2264C72.1751 63.3594 70.9123 53.515 70.8651 53.135H77.3465C77.3934 53.444 78.2925 60.5205 78.2925 60.5205C78.2925 60.5205 83.8489 53.277 83.9474 53.135ZM62.5645 58.5541C63.074 56.9467 63.0998 55.9991 62.5901 55.3811C62.2477 54.9553 61.6914 54.7424 60.9163 54.7424C59.1185 54.7424 58.0997 55.7361 57.3246 58.2242C56.7896 59.8565 56.7896 60.8041 57.2989 61.4181C57.6371 61.8229 58.198 62.0359 58.9727 62.0359C60.7708 62.0359 61.7897 61.0633 62.5645 58.5541ZM69.6023 54.9553C70.3085 55.8113 70.4542 56.8968 70.0175 58.2244C68.8532 61.894 64.4567 63.9981 57.9798 63.9981C54.097 63.9981 51.4515 63.2634 50.2828 61.8439C49.5808 60.9923 49.4353 59.8817 49.8463 58.5541C51.0363 54.8844 55.4284 52.7803 61.9096 52.7803C65.7922 52.7803 68.4379 53.536 69.6023 54.9553ZM49.3152 54.4379C49.5807 54.7677 49.7263 55.0973 49.6535 55.5733L46.9608 63.6893H39.8247L42.3505 56.1162C42.4446 55.7864 42.3248 55.5025 42.1321 55.2896C41.7896 54.8846 41.062 54.6258 38.562 54.7927C38.562 54.7927 35.604 63.5725 35.5525 63.6893H28.4205C28.4892 63.5014 31.7682 53.7281 31.8153 53.6321C34.2941 53.2062 37.5688 52.8054 40.9678 52.8054C45.578 52.8055 48.3906 53.3483 49.3152 54.4379ZM23.2749 56.6631C23.4205 55.9993 23.2022 55.5025 22.958 55.2186C22.6927 54.8846 22.1061 54.4587 20.8947 54.4587C19.1738 54.4587 17.8853 55.2645 17.4485 56.613L16.6009 59.7149L23.2749 56.6631ZM29.268 56.6379C29.268 57.1347 29.1482 57.5607 29.0497 57.7485C28.8314 57.7986 16.3828 60.4956 16.3828 60.4956C16.3828 60.4956 16.2585 61.0885 16.7209 61.3973C17.3288 61.8232 17.9838 61.9402 19.0968 61.9861C21.8409 62.103 25.5564 60.5416 26.597 60.0948C26.43 60.6125 25.3597 62.8879 25.3126 63.0047C24.8502 63.1717 22.2774 63.9733 17.2302 63.9983C15.3123 64.0234 11.892 63.7854 10.4836 62.057C9.78158 61.2055 9.65757 59.9988 10.1412 58.4834C11.2842 54.8637 15.5565 52.7805 21.8151 52.7805C25.3126 52.7805 27.5942 53.4193 28.6388 54.6717C29.0497 55.1935 29.268 55.8573 29.268 56.6379ZM4.97419 48H12.0377C11.8922 48.4468 7.13623 63.4053 7.05911 63.6684H0C0.145401 63.2175 4.90138 48.2589 4.97419 48Z" fill="#BDBDBD"/>
</svg>
