<svg width="168" height="48" viewBox="0 0 168 48" fill="none" xmlns="http://www.w3.org/2000/svg">
<rect x="0.5" y="0.5" width="167" height="47" stroke="black"/>
<path d="M40.296 29V18.408H41.688L45.48 23.432L49.208 18.408H50.6V29H49.4V20.232L45.48 25.272L41.496 20.232V29H40.296ZM56.4826 29.128C55.672 29.128 54.9626 28.9467 54.3546 28.584C53.7466 28.2107 53.272 27.7093 52.9306 27.08C52.6 26.4507 52.4346 25.7573 52.4346 25C52.4346 24.232 52.5946 23.5387 52.9146 22.92C53.2346 22.2907 53.6933 21.7947 54.2906 21.432C54.888 21.0587 55.592 20.872 56.4026 20.872C57.224 20.872 57.928 21.0587 58.5146 21.432C59.112 21.7947 59.5706 22.2907 59.8906 22.92C60.2106 23.5387 60.3706 24.232 60.3706 25V25.48H53.6666C53.7306 25.9493 53.88 26.3813 54.1146 26.776C54.36 27.16 54.6853 27.4693 55.0906 27.704C55.496 27.928 55.9653 28.04 56.4986 28.04C57.064 28.04 57.5386 27.9173 57.9226 27.672C58.3066 27.416 58.6053 27.0907 58.8186 26.696H60.1306C59.8533 27.4107 59.4106 27.9973 58.8026 28.456C58.2053 28.904 57.432 29.128 56.4826 29.128ZM53.6826 24.36H59.1226C59.016 23.6773 58.728 23.1067 58.2586 22.648C57.7893 22.1893 57.1706 21.96 56.4026 21.96C55.6346 21.96 55.016 22.1893 54.5466 22.648C54.088 23.1067 53.8 23.6773 53.6826 24.36ZM61.8369 29V21H63.0369V22.216C63.2182 21.896 63.5062 21.592 63.9009 21.304C64.2955 21.016 64.8182 20.872 65.4689 20.872C66.0022 20.872 66.4929 21.016 66.9409 21.304C67.3995 21.5813 67.7569 21.976 68.0129 22.488C68.1195 22.3067 68.2849 22.088 68.5089 21.832C68.7435 21.576 69.0475 21.352 69.4209 21.16C69.7942 20.968 70.2422 20.872 70.7649 20.872C71.2769 20.872 71.7569 21.0053 72.2049 21.272C72.6529 21.5387 73.0155 21.9227 73.2929 22.424C73.5809 22.9147 73.7249 23.496 73.7249 24.168V29H72.5249V24.2C72.5249 23.528 72.3329 22.9893 71.9489 22.584C71.5755 22.168 71.1062 21.96 70.5409 21.96C69.9542 21.96 69.4475 22.1573 69.0209 22.552C68.5942 22.9467 68.3809 23.5013 68.3809 24.216V29H67.1809V24.2C67.1809 23.528 66.9889 22.9893 66.6049 22.584C66.2315 22.168 65.7622 21.96 65.1969 21.96C64.6102 21.96 64.1035 22.1573 63.6769 22.552C63.2502 22.9467 63.0369 23.5013 63.0369 24.216V29H61.8369ZM79.7915 29.128C79.1302 29.128 78.5595 29 78.0795 28.744C77.6102 28.488 77.2262 28.1467 76.9275 27.72V29H75.7275V17.8H76.9275V22.296C77.2262 21.8587 77.6102 21.512 78.0795 21.256C78.5595 21 79.1302 20.872 79.7915 20.872C80.5702 20.872 81.2475 21.0587 81.8235 21.432C82.4102 21.7947 82.8635 22.2907 83.1835 22.92C83.5035 23.5387 83.6635 24.232 83.6635 25C83.6635 25.7573 83.5035 26.4507 83.1835 27.08C82.8635 27.7093 82.4102 28.2107 81.8235 28.584C81.2475 28.9467 80.5702 29.128 79.7915 29.128ZM79.6315 28.04C80.2288 28.04 80.7355 27.9013 81.1515 27.624C81.5782 27.3467 81.9035 26.9787 82.1275 26.52C82.3515 26.0507 82.4635 25.544 82.4635 25C82.4635 24.4453 82.3515 23.9387 82.1275 23.48C81.9035 23.0213 81.5782 22.6533 81.1515 22.376C80.7355 22.0987 80.2288 21.96 79.6315 21.96C79.0448 21.96 78.5435 22.0987 78.1275 22.376C77.7115 22.6533 77.3968 23.0213 77.1835 23.48C76.9702 23.9387 76.8635 24.4453 76.8635 25C76.8635 25.544 76.9702 26.0507 77.1835 26.52C77.3968 26.9787 77.7115 27.3467 78.1275 27.624C78.5435 27.9013 79.0448 28.04 79.6315 28.04ZM88.7951 29.128C87.9845 29.128 87.2751 28.9467 86.6671 28.584C86.0591 28.2107 85.5845 27.7093 85.2431 27.08C84.9125 26.4507 84.7471 25.7573 84.7471 25C84.7471 24.232 84.9071 23.5387 85.2271 22.92C85.5471 22.2907 86.0058 21.7947 86.6031 21.432C87.2005 21.0587 87.9045 20.872 88.7151 20.872C89.5365 20.872 90.2405 21.0587 90.8271 21.432C91.4245 21.7947 91.8831 22.2907 92.2031 22.92C92.5231 23.5387 92.6831 24.232 92.6831 25V25.48H85.9791C86.0431 25.9493 86.1925 26.3813 86.4271 26.776C86.6725 27.16 86.9978 27.4693 87.4031 27.704C87.8085 27.928 88.2778 28.04 88.8111 28.04C89.3765 28.04 89.8511 27.9173 90.2351 27.672C90.6191 27.416 90.9178 27.0907 91.1311 26.696H92.4431C92.1658 27.4107 91.7231 27.9973 91.1151 28.456C90.5178 28.904 89.7445 29.128 88.7951 29.128ZM85.9951 24.36H91.4351C91.3285 23.6773 91.0405 23.1067 90.5711 22.648C90.1018 22.1893 89.4831 21.96 88.7151 21.96C87.9471 21.96 87.3285 22.1893 86.8591 22.648C86.4005 23.1067 86.1125 23.6773 85.9951 24.36ZM94.1494 29V21H95.3494V22.968C95.392 22.8293 95.472 22.648 95.5894 22.424C95.7174 22.1893 95.8987 21.9547 96.1334 21.72C96.368 21.4853 96.6614 21.288 97.0134 21.128C97.376 20.9573 97.8027 20.872 98.2934 20.872H98.3734V22.072H98.2294C97.632 22.072 97.1147 22.2373 96.6774 22.568C96.2507 22.888 95.92 23.3093 95.6854 23.832C95.4614 24.344 95.3494 24.8933 95.3494 25.48V29H94.1494ZM102.577 29.128C101.841 29.128 101.217 29.0053 100.705 28.76C100.204 28.5147 99.8197 28.1947 99.553 27.8C99.2863 27.3947 99.137 26.9573 99.105 26.488H100.353C100.385 26.7547 100.476 27.016 100.625 27.272C100.785 27.5173 101.025 27.72 101.345 27.88C101.665 28.0293 102.081 28.104 102.593 28.104C102.753 28.104 102.95 28.088 103.185 28.056C103.42 28.024 103.644 27.9653 103.857 27.88C104.081 27.7947 104.268 27.6667 104.417 27.496C104.566 27.3253 104.641 27.1067 104.641 26.84C104.641 26.5093 104.513 26.2533 104.257 26.072C104.001 25.8907 103.67 25.752 103.265 25.656C102.86 25.5493 102.428 25.448 101.969 25.352C101.521 25.256 101.094 25.1333 100.689 24.984C100.284 24.824 99.953 24.6053 99.697 24.328C99.441 24.04 99.313 23.6507 99.313 23.16C99.313 22.4347 99.5743 21.8747 100.097 21.48C100.63 21.0747 101.414 20.872 102.449 20.872C103.153 20.872 103.724 20.984 104.161 21.208C104.609 21.4213 104.945 21.6987 105.169 22.04C105.404 22.3813 105.542 22.7493 105.585 23.144H104.369C104.326 22.8027 104.156 22.5093 103.857 22.264C103.569 22.0187 103.089 21.896 102.417 21.896C101.148 21.896 100.513 22.28 100.513 23.048C100.513 23.368 100.641 23.6133 100.897 23.784C101.153 23.9547 101.484 24.0933 101.889 24.2C102.294 24.296 102.721 24.392 103.169 24.488C103.628 24.5733 104.06 24.696 104.465 24.856C104.87 25.016 105.201 25.2453 105.457 25.544C105.713 25.832 105.841 26.2267 105.841 26.728C105.841 27.5067 105.542 28.104 104.945 28.52C104.358 28.9253 103.569 29.128 102.577 29.128ZM107.384 29V17.8H108.584V22.248C108.872 21.864 109.224 21.5387 109.64 21.272C110.056 21.0053 110.589 20.872 111.24 20.872C111.794 20.872 112.312 21.0053 112.792 21.272C113.282 21.528 113.677 21.9173 113.976 22.44C114.285 22.952 114.44 23.5867 114.44 24.344V29H113.24V24.376C113.24 23.6507 113.032 23.0693 112.616 22.632C112.2 22.184 111.661 21.96 111 21.96C110.552 21.96 110.146 22.0613 109.784 22.264C109.421 22.4667 109.128 22.7547 108.904 23.128C108.69 23.4907 108.584 23.912 108.584 24.392V29H107.384ZM116.398 19.656V18.088H117.694V19.656H116.398ZM116.446 29V21H117.646V29H116.446ZM119.728 32.168V21H120.928V22.28C121.226 21.8427 121.61 21.5013 122.08 21.256C122.56 21 123.13 20.872 123.792 20.872C124.57 20.872 125.248 21.0587 125.824 21.432C126.41 21.7947 126.864 22.2907 127.184 22.92C127.504 23.5387 127.664 24.232 127.664 25C127.664 25.7573 127.504 26.4507 127.184 27.08C126.864 27.7093 126.41 28.2107 125.824 28.584C125.248 28.9467 124.57 29.128 123.792 29.128C123.13 29.128 122.56 29 122.08 28.744C121.61 28.4773 121.226 28.1307 120.928 27.704V32.168H119.728ZM123.632 28.04C124.229 28.04 124.736 27.9013 125.152 27.624C125.578 27.3467 125.904 26.9787 126.128 26.52C126.352 26.0507 126.464 25.544 126.464 25C126.464 24.4453 126.352 23.9387 126.128 23.48C125.904 23.0213 125.578 22.6533 125.152 22.376C124.736 22.0987 124.229 21.96 123.632 21.96C123.045 21.96 122.544 22.0987 122.128 22.376C121.712 22.6533 121.397 23.0213 121.184 23.48C120.97 23.9387 120.864 24.4453 120.864 25C120.864 25.544 120.97 26.0507 121.184 26.52C121.397 26.9787 121.712 27.3467 122.128 27.624C122.544 27.9013 123.045 28.04 123.632 28.04Z" fill="black"/>
<path d="M40.296 29H40.046V29.25H40.296V29ZM40.296 18.408V18.158H40.046V18.408H40.296ZM41.688 18.408L41.8875 18.2574L41.8125 18.158H41.688V18.408ZM45.48 23.432L45.2805 23.5826L45.4817 23.8492L45.6808 23.581L45.48 23.432ZM49.208 18.408V18.158H49.0822L49.0072 18.259L49.208 18.408ZM50.6 18.408H50.85V18.158H50.6V18.408ZM50.6 29V29.25H50.85V29H50.6ZM49.4 29H49.15V29.25H49.4V29ZM49.4 20.232H49.65V19.5034L49.2027 20.0785L49.4 20.232ZM45.48 25.272L45.2839 25.427L45.4816 25.6772L45.6773 25.4255L45.48 25.272ZM41.496 20.232L41.6921 20.077L41.246 19.5126V20.232H41.496ZM41.496 29V29.25H41.746V29H41.496ZM40.546 29V18.408H40.046V29H40.546ZM40.296 18.658H41.688V18.158H40.296V18.658ZM41.4885 18.5586L45.2805 23.5826L45.6795 23.2814L41.8875 18.2574L41.4885 18.5586ZM45.6808 23.581L49.4088 18.557L49.0072 18.259L45.2792 23.283L45.6808 23.581ZM49.208 18.658H50.6V18.158H49.208V18.658ZM50.35 18.408V29H50.85V18.408H50.35ZM50.6 28.75H49.4V29.25H50.6V28.75ZM49.65 29V20.232H49.15V29H49.65ZM49.2027 20.0785L45.2827 25.1185L45.6773 25.4255L49.5973 20.3855L49.2027 20.0785ZM45.6761 25.117L41.6921 20.077L41.2999 20.387L45.2839 25.427L45.6761 25.117ZM41.246 20.232V29H41.746V20.232H41.246ZM41.496 28.75H40.296V29.25H41.496V28.75ZM54.3546 28.584L54.2238 28.7971L54.2266 28.7987L54.3546 28.584ZM52.9306 27.08L52.7093 27.1963L52.7109 27.1992L52.9306 27.08ZM52.9146 22.92L53.1367 23.0349L53.1375 23.0333L52.9146 22.92ZM54.2906 21.432L54.4204 21.6457L54.4231 21.644L54.2906 21.432ZM58.5146 21.432L58.3804 21.643L58.3849 21.6457L58.5146 21.432ZM59.8906 22.92L59.6678 23.0333L59.6686 23.0349L59.8906 22.92ZM60.3706 25.48V25.73H60.6206V25.48H60.3706ZM53.6666 25.48V25.23H53.3802L53.4189 25.5138L53.6666 25.48ZM54.1146 26.776L53.8996 26.9038L53.904 26.9106L54.1146 26.776ZM55.0906 27.704L54.9653 27.9204L54.9697 27.9228L55.0906 27.704ZM57.9226 27.672L58.0572 27.8827L58.0613 27.88L57.9226 27.672ZM58.8186 26.696V26.446H58.6696L58.5987 26.5771L58.8186 26.696ZM60.1306 26.696L60.3637 26.7864L60.4958 26.446H60.1306V26.696ZM58.8026 28.456L58.9526 28.656L58.9532 28.6556L58.8026 28.456ZM53.6826 24.36L53.4362 24.3177L53.386 24.61H53.6826V24.36ZM59.1226 24.36V24.61H59.4147L59.3696 24.3214L59.1226 24.36ZM58.2586 22.648L58.4334 22.4692L58.4334 22.4692L58.2586 22.648ZM54.5466 22.648L54.3719 22.4692L54.3698 22.4712L54.5466 22.648ZM56.4826 28.878C55.7104 28.878 55.0466 28.7057 54.4827 28.3693L54.2266 28.7987C54.8786 29.1877 55.6335 29.378 56.4826 29.378V28.878ZM54.4854 28.371C53.9149 28.0207 53.4709 27.5517 53.1504 26.9608L52.7109 27.1992C53.073 27.8669 53.5783 28.4007 54.2238 28.797L54.4854 28.371ZM53.1519 26.9637C52.8413 26.3726 52.6846 25.7195 52.6846 25H52.1846C52.1846 25.7951 52.3586 26.5288 52.7093 27.1963L53.1519 26.9637ZM52.6846 25C52.6846 24.2678 52.8369 23.6145 53.1367 23.0349L52.6926 22.8051C52.3524 23.4628 52.1846 24.1962 52.1846 25H52.6846ZM53.1375 23.0333C53.4366 22.445 53.8632 21.984 54.4204 21.6457L54.1609 21.2183C53.5233 21.6054 53.0326 22.1363 52.6918 22.8067L53.1375 23.0333ZM54.4231 21.644C54.975 21.2991 55.6316 21.122 56.4026 21.122V20.622C55.5523 20.622 54.8009 20.8183 54.1581 21.22L54.4231 21.644ZM56.4026 21.122C57.1852 21.122 57.8406 21.2994 58.3804 21.6429L58.6488 21.2211C58.0153 20.8179 57.2628 20.622 56.4026 20.622V21.122ZM58.3849 21.6457C58.942 21.984 59.3686 22.445 59.6678 23.0333L60.1135 22.8067C59.7726 22.1363 59.2819 21.6054 58.6444 21.2183L58.3849 21.6457ZM59.6686 23.0349C59.9684 23.6145 60.1206 24.2678 60.1206 25H60.6206C60.6206 24.1962 60.4529 23.4628 60.1127 22.8051L59.6686 23.0349ZM60.1206 25V25.48H60.6206V25H60.1206ZM60.3706 25.23H53.6666V25.73H60.3706V25.23ZM53.4189 25.5138C53.4873 26.0153 53.6474 26.4794 53.8997 26.9038L54.3295 26.6482C54.1125 26.2833 53.9739 25.8834 53.9143 25.4462L53.4189 25.5138ZM53.904 26.9106C54.1714 27.3292 54.5264 27.6662 54.9654 27.9204L55.2159 27.4876C54.8442 27.2724 54.5485 26.9908 54.3253 26.6414L53.904 26.9106ZM54.9697 27.9228C55.4173 28.1702 55.9295 28.29 56.4986 28.29V27.79C56.0011 27.79 55.5746 27.6858 55.2115 27.4852L54.9697 27.9228ZM56.4986 28.29C57.1002 28.29 57.6243 28.1592 58.0572 27.8827L57.788 27.4613C57.4529 27.6754 57.0277 27.79 56.4986 27.79V28.29ZM58.0613 27.88C58.4782 27.6021 58.8052 27.2465 59.0386 26.8149L58.5987 26.5771C58.4053 26.9348 58.135 27.2299 57.784 27.464L58.0613 27.88ZM58.8186 26.946H60.1306V26.446H58.8186V26.946ZM59.8976 26.6056C59.6369 27.2772 59.2227 27.8259 58.6521 28.2564L58.9532 28.6556C59.5986 28.1687 60.0697 27.5442 60.3637 26.7864L59.8976 26.6056ZM58.6526 28.256C58.1091 28.6637 57.3927 28.878 56.4826 28.878V29.378C57.4712 29.378 58.3015 29.1443 58.9526 28.656L58.6526 28.256ZM53.6826 24.61H59.1226V24.11H53.6826V24.61ZM59.3696 24.3214C59.2551 23.5884 58.9434 22.9677 58.4334 22.4692L58.0839 22.8268C58.5125 23.2457 58.7768 23.7662 58.8756 24.3986L59.3696 24.3214ZM58.4334 22.4692C57.9094 21.9572 57.224 21.71 56.4026 21.71V22.21C57.1173 22.21 57.6692 22.4215 58.0839 22.8268L58.4334 22.4692ZM56.4026 21.71C55.5813 21.71 54.8958 21.9572 54.3719 22.4692L54.7214 22.8268C55.1361 22.4215 55.688 22.21 56.4026 22.21V21.71ZM54.3698 22.4712C53.8721 22.969 53.5617 23.5877 53.4362 24.3177L53.929 24.4023C54.0382 23.767 54.3038 23.2444 54.7234 22.8248L54.3698 22.4712ZM61.8369 29H61.5869V29.25H61.8369V29ZM61.8369 21V20.75H61.5869V21H61.8369ZM63.0369 21H63.2869V20.75H63.0369V21ZM63.0369 22.216H62.7869V23.1643L63.2544 22.3393L63.0369 22.216ZM63.9009 21.304L63.7535 21.1021L63.7535 21.1021L63.9009 21.304ZM66.9409 21.304L66.8056 21.5144L66.8115 21.5179L66.9409 21.304ZM68.0129 22.488L67.7893 22.5998L67.9951 23.0114L68.2284 22.6148L68.0129 22.488ZM68.5089 21.832L68.3245 21.663L68.3207 21.6674L68.5089 21.832ZM69.4209 21.16L69.5352 21.3823L69.5352 21.3823L69.4209 21.16ZM72.2049 21.272L72.3327 21.0572L72.3327 21.0572L72.2049 21.272ZM73.2929 22.424L73.074 22.5451L73.0773 22.5505L73.2929 22.424ZM73.7249 29V29.25H73.9749V29H73.7249ZM72.5249 29H72.2749V29.25H72.5249V29ZM71.9489 22.584L71.7627 22.751L71.7674 22.7559L71.9489 22.584ZM69.0209 22.552L68.8511 22.3685L68.8511 22.3685L69.0209 22.552ZM68.3809 29V29.25H68.6309V29H68.3809ZM67.1809 29H66.9309V29.25H67.1809V29ZM66.6049 22.584L66.4187 22.751L66.4234 22.7559L66.6049 22.584ZM63.0369 29V29.25H63.2869V29H63.0369ZM62.0869 29V21H61.5869V29H62.0869ZM61.8369 21.25H63.0369V20.75H61.8369V21.25ZM62.7869 21V22.216H63.2869V21H62.7869ZM63.2544 22.3393C63.4134 22.0586 63.6733 21.7795 64.0482 21.5059L63.7535 21.1021C63.3391 21.4045 63.023 21.7334 62.8194 22.0927L63.2544 22.3393ZM64.0482 21.5059C64.3879 21.2581 64.8538 21.122 65.4689 21.122V20.622C64.7826 20.622 64.2032 20.7739 63.7535 21.1021L64.0482 21.5059ZM65.4689 21.122C65.9543 21.122 66.3981 21.2523 66.8057 21.5143L67.0761 21.0937C66.5877 20.7797 66.0501 20.622 65.4689 20.622V21.122ZM66.8115 21.5179C67.227 21.7691 67.5529 22.1271 67.7893 22.5998L68.2365 22.3762C67.9608 21.8249 67.5721 21.3935 67.0702 21.0901L66.8115 21.5179ZM68.2284 22.6148C68.3238 22.4525 68.4778 22.2471 68.697 21.9966L68.3207 21.6674C68.0919 21.9289 67.9153 22.1608 67.7974 22.3612L68.2284 22.6148ZM68.6932 22.0009C68.9042 21.7707 69.1828 21.5635 69.5352 21.3823L69.3065 20.9377C68.9122 21.1405 68.5829 21.3813 68.3246 21.6631L68.6932 22.0009ZM69.5352 21.3823C69.8656 21.2124 70.2724 21.122 70.7649 21.122V20.622C70.212 20.622 69.7229 20.7236 69.3065 20.9377L69.5352 21.3823ZM70.7649 21.122C71.231 21.122 71.6669 21.2427 72.077 21.4868L72.3327 21.0572C71.8468 20.7679 71.3227 20.622 70.7649 20.622V21.122ZM72.077 21.4868C72.4832 21.7286 72.816 22.0785 73.0741 22.545L73.5116 22.303C73.215 21.7668 72.8225 21.3487 72.3327 21.0572L72.077 21.4868ZM73.0773 22.5505C73.339 22.9964 73.4749 23.5324 73.4749 24.168H73.9749C73.9749 23.4596 73.8228 22.8329 73.5085 22.2974L73.0773 22.5505ZM73.4749 24.168V29H73.9749V24.168H73.4749ZM73.7249 28.75H72.5249V29.25H73.7249V28.75ZM72.7749 29V24.2H72.2749V29H72.7749ZM72.7749 24.2C72.7749 23.4778 72.567 22.873 72.1304 22.4121L71.7674 22.7559C72.0987 23.1057 72.2749 23.5782 72.2749 24.2H72.7749ZM72.1349 22.417C71.7136 21.9475 71.1763 21.71 70.5409 21.71V22.21C71.0361 22.21 71.4375 22.3885 71.7628 22.751L72.1349 22.417ZM70.5409 21.71C69.8919 21.71 69.3245 21.9306 68.8511 22.3685L69.1906 22.7355C69.5706 22.384 70.0165 22.21 70.5409 22.21V21.71ZM68.8511 22.3685C68.3619 22.821 68.1309 23.4489 68.1309 24.216H68.6309C68.6309 23.5538 68.8265 23.0723 69.1906 22.7355L68.8511 22.3685ZM68.1309 24.216V29H68.6309V24.216H68.1309ZM68.3809 28.75H67.1809V29.25H68.3809V28.75ZM67.4309 29V24.2H66.9309V29H67.4309ZM67.4309 24.2C67.4309 23.4778 67.223 22.873 66.7864 22.4121L66.4234 22.7559C66.7547 23.1057 66.9309 23.5782 66.9309 24.2H67.4309ZM66.7909 22.417C66.3696 21.9475 65.8323 21.71 65.1969 21.71V22.21C65.6921 22.21 66.0935 22.3885 66.4188 22.751L66.7909 22.417ZM65.1969 21.71C64.5479 21.71 63.9805 21.9306 63.5071 22.3685L63.8466 22.7355C64.2266 22.384 64.6725 22.21 65.1969 22.21V21.71ZM63.5071 22.3685C63.0179 22.821 62.7869 23.4489 62.7869 24.216H63.2869C63.2869 23.5538 63.4825 23.0723 63.8466 22.7355L63.5071 22.3685ZM62.7869 24.216V29H63.2869V24.216H62.7869ZM63.0369 28.75H61.8369V29.25H63.0369V28.75ZM78.0795 28.744L77.9598 28.9635L77.9619 28.9646L78.0795 28.744ZM76.9275 27.72L77.1323 27.5766L76.6775 26.9269V27.72H76.9275ZM76.9275 29V29.25H77.1775V29H76.9275ZM75.7275 29H75.4775V29.25H75.7275V29ZM75.7275 17.8V17.55H75.4775V17.8H75.7275ZM76.9275 17.8H77.1775V17.55H76.9275V17.8ZM76.9275 22.296H76.6775V23.1054L77.134 22.437L76.9275 22.296ZM78.0795 21.256L77.9618 21.0354L77.9598 21.0365L78.0795 21.256ZM81.8235 21.432L81.6875 21.6418L81.692 21.6446L81.8235 21.432ZM83.1835 22.92L82.9606 23.0333L82.9614 23.0349L83.1835 22.92ZM83.1835 27.08L82.9607 26.9667L82.9607 26.9667L83.1835 27.08ZM81.8235 28.584L81.9567 28.7956L81.9577 28.7949L81.8235 28.584ZM81.1515 27.624L81.0152 27.4144L81.0128 27.416L81.1515 27.624ZM82.1275 26.52L82.3522 26.6297L82.3531 26.6277L82.1275 26.52ZM82.1275 23.48L82.3521 23.3703L82.3521 23.3703L82.1275 23.48ZM81.1515 22.376L81.0128 22.584L81.0153 22.5856L81.1515 22.376ZM78.1275 22.376L77.9888 22.168L77.9888 22.168L78.1275 22.376ZM77.1835 23.48L76.9568 23.3746L76.9568 23.3746L77.1835 23.48ZM77.1835 26.52L76.9559 26.6235L76.9568 26.6254L77.1835 26.52ZM78.1275 27.624L77.9888 27.832L77.9888 27.832L78.1275 27.624ZM79.7915 28.878C79.1624 28.878 78.6339 28.7564 78.1971 28.5234L77.9619 28.9646C78.4851 29.2436 79.0979 29.378 79.7915 29.378V28.878ZM78.1992 28.5245C77.7628 28.2865 77.4083 27.9709 77.1323 27.5766L76.7227 27.8634C77.0441 28.3225 77.4575 28.6895 77.9598 28.9635L78.1992 28.5245ZM76.6775 27.72V29H77.1775V27.72H76.6775ZM76.9275 28.75H75.7275V29.25H76.9275V28.75ZM75.9775 29V17.8H75.4775V29H75.9775ZM75.7275 18.05H76.9275V17.55H75.7275V18.05ZM76.6775 17.8V22.296H77.1775V17.8H76.6775ZM77.134 22.437C77.4101 22.0326 77.7642 21.7127 78.1992 21.4755L77.9598 21.0365C77.4561 21.3113 77.0422 21.6847 76.721 22.155L77.134 22.437ZM78.1971 21.4766C78.6339 21.2436 79.1624 21.122 79.7915 21.122V20.622C79.0979 20.622 78.4851 20.7564 77.9619 21.0354L78.1971 21.4766ZM79.7915 21.122C80.5286 21.122 81.1573 21.2981 81.6875 21.6418L81.9595 21.2222C81.3377 20.8192 80.6117 20.622 79.7915 20.622V21.122ZM81.692 21.6446C82.2388 21.9826 82.6609 22.4438 82.9607 23.0333L83.4063 22.8067C83.0661 22.1375 82.5816 21.6067 81.955 21.2194L81.692 21.6446ZM82.9614 23.0349C83.2613 23.6145 83.4135 24.2678 83.4135 25H83.9135C83.9135 24.1962 83.7457 23.4628 83.4056 22.8051L82.9614 23.0349ZM83.4135 25C83.4135 25.7209 83.2615 26.375 82.9607 26.9667L83.4063 27.1933C83.7455 26.5264 83.9135 25.7938 83.9135 25H83.4135ZM82.9607 26.9667C82.6606 27.5568 82.2376 28.0242 81.6893 28.3731L81.9577 28.7949C82.5827 28.3972 83.0664 27.8619 83.4063 27.1933L82.9607 26.9667ZM81.6903 28.3724C81.1597 28.7065 80.53 28.878 79.7915 28.878V29.378C80.6104 29.378 81.3353 29.1868 81.9567 28.7956L81.6903 28.3724ZM79.6315 28.29C80.2684 28.29 80.8257 28.1417 81.2902 27.832L81.0128 27.416C80.6453 27.661 80.1892 27.79 79.6315 27.79V28.29ZM81.2877 27.8336C81.7525 27.5315 82.1083 27.1289 82.3521 26.6297L81.9029 26.4103C81.6987 26.8284 81.4038 27.1618 81.0153 27.4144L81.2877 27.8336ZM82.3531 26.6277C82.5939 26.1232 82.7135 25.5795 82.7135 25H82.2135C82.2135 25.5085 82.1091 25.9782 81.9019 26.4123L82.3531 26.6277ZM82.7135 25C82.7135 24.4107 82.5942 23.866 82.3521 23.3703L81.9029 23.5897C82.1088 24.0113 82.2135 24.48 82.2135 25H82.7135ZM82.3521 23.3703C82.1083 22.8711 81.7525 22.4685 81.2877 22.1664L81.0153 22.5856C81.4038 22.8382 81.6987 23.1716 81.9029 23.5897L82.3521 23.3703ZM81.2902 22.168C80.8257 21.8583 80.2684 21.71 79.6315 21.71V22.21C80.1892 22.21 80.6453 22.339 81.0128 22.584L81.2902 22.168ZM79.6315 21.71C79.0042 21.71 78.4526 21.8588 77.9888 22.168L78.2662 22.584C78.6344 22.3385 79.0854 22.21 79.6315 22.21V21.71ZM77.9888 22.168C77.5342 22.4711 77.1893 22.8748 76.9568 23.3746L77.4102 23.5854C77.6044 23.1679 77.8888 22.8356 78.2662 22.584L77.9888 22.168ZM76.9568 23.3746C76.7267 23.8693 76.6135 24.4125 76.6135 25H77.1135C77.1135 24.4782 77.2136 24.008 77.4102 23.5854L76.9568 23.3746ZM76.6135 25C76.6135 25.5777 76.727 26.1198 76.9559 26.6235L77.4111 26.4165C77.2133 25.9815 77.1135 25.5103 77.1135 25H76.6135ZM76.9568 26.6254C77.1893 27.1252 77.5342 27.5289 77.9888 27.832L78.2662 27.416C77.8888 27.1644 77.6044 26.8321 77.4102 26.4146L76.9568 26.6254ZM77.9888 27.832C78.4526 28.1412 79.0042 28.29 79.6315 28.29V27.79C79.0854 27.79 78.6344 27.6615 78.2662 27.416L77.9888 27.832ZM86.6671 28.584L86.5363 28.7971L86.5391 28.7987L86.6671 28.584ZM85.2431 27.08L85.0218 27.1963L85.0234 27.1992L85.2431 27.08ZM85.2271 22.92L85.4492 23.0349L85.45 23.0333L85.2271 22.92ZM86.6031 21.432L86.7329 21.6457L86.7356 21.644L86.6031 21.432ZM90.8271 21.432L90.6929 21.643L90.6974 21.6457L90.8271 21.432ZM92.2031 22.92L91.9803 23.0333L91.9811 23.0349L92.2031 22.92ZM92.6831 25.48V25.73H92.9331V25.48H92.6831ZM85.9791 25.48V25.23H85.6927L85.7314 25.5138L85.9791 25.48ZM86.4271 26.776L86.2121 26.9038L86.2165 26.9106L86.4271 26.776ZM87.4031 27.704L87.2778 27.9204L87.2822 27.9228L87.4031 27.704ZM90.2351 27.672L90.3697 27.8827L90.3738 27.88L90.2351 27.672ZM91.1311 26.696V26.446H90.9821L90.9112 26.5771L91.1311 26.696ZM92.4431 26.696L92.6762 26.7864L92.8083 26.446H92.4431V26.696ZM91.1151 28.456L91.2651 28.656L91.2657 28.6556L91.1151 28.456ZM85.9951 24.36L85.7487 24.3177L85.6985 24.61H85.9951V24.36ZM91.4351 24.36V24.61H91.7272L91.6821 24.3214L91.4351 24.36ZM90.5711 22.648L90.7459 22.4692L90.7459 22.4692L90.5711 22.648ZM86.8591 22.648L86.6844 22.4692L86.6823 22.4712L86.8591 22.648ZM88.7951 28.878C88.0229 28.878 87.3591 28.7057 86.7952 28.3693L86.5391 28.7987C87.1911 29.1877 87.946 29.378 88.7951 29.378V28.878ZM86.7979 28.371C86.2274 28.0207 85.7834 27.5517 85.4629 26.9608L85.0234 27.1992C85.3855 27.8669 85.8908 28.4007 86.5363 28.797L86.7979 28.371ZM85.4644 26.9637C85.1538 26.3726 84.9971 25.7195 84.9971 25H84.4971C84.4971 25.7951 84.6711 26.5288 85.0218 27.1963L85.4644 26.9637ZM84.9971 25C84.9971 24.2678 85.1494 23.6145 85.4492 23.0349L85.0051 22.8051C84.6649 23.4628 84.4971 24.1962 84.4971 25H84.9971ZM85.45 23.0333C85.7491 22.445 86.1757 21.984 86.7329 21.6457L86.4734 21.2183C85.8358 21.6054 85.3451 22.1363 85.0043 22.8067L85.45 23.0333ZM86.7356 21.644C87.2875 21.2991 87.9441 21.122 88.7151 21.122V20.622C87.8648 20.622 87.1134 20.8183 86.4706 21.22L86.7356 21.644ZM88.7151 21.122C89.4977 21.122 90.1531 21.2994 90.6929 21.6429L90.9613 21.2211C90.3278 20.8179 89.5753 20.622 88.7151 20.622V21.122ZM90.6974 21.6457C91.2545 21.984 91.6811 22.445 91.9803 23.0333L92.426 22.8067C92.0851 22.1363 91.5944 21.6054 90.9569 21.2183L90.6974 21.6457ZM91.9811 23.0349C92.2809 23.6145 92.4331 24.2678 92.4331 25H92.9331C92.9331 24.1962 92.7654 23.4628 92.4252 22.8051L91.9811 23.0349ZM92.4331 25V25.48H92.9331V25H92.4331ZM92.6831 25.23H85.9791V25.73H92.6831V25.23ZM85.7314 25.5138C85.7998 26.0153 85.9599 26.4794 86.2122 26.9038L86.642 26.6482C86.425 26.2833 86.2864 25.8834 86.2268 25.4462L85.7314 25.5138ZM86.2165 26.9106C86.4839 27.3292 86.8389 27.6662 87.2779 27.9204L87.5284 27.4876C87.1567 27.2724 86.861 26.9908 86.6378 26.6414L86.2165 26.9106ZM87.2822 27.9228C87.7298 28.1702 88.242 28.29 88.8111 28.29V27.79C88.3136 27.79 87.8871 27.6858 87.524 27.4852L87.2822 27.9228ZM88.8111 28.29C89.4127 28.29 89.9368 28.1592 90.3697 27.8827L90.1005 27.4613C89.7654 27.6754 89.3402 27.79 88.8111 27.79V28.29ZM90.3738 27.88C90.7907 27.6021 91.1177 27.2465 91.3511 26.8149L90.9112 26.5771C90.7178 26.9348 90.4475 27.2299 90.0965 27.464L90.3738 27.88ZM91.1311 26.946H92.4431V26.446H91.1311V26.946ZM92.2101 26.6056C91.9494 27.2772 91.5352 27.8259 90.9646 28.2564L91.2657 28.6556C91.9111 28.1687 92.3822 27.5442 92.6762 26.7864L92.2101 26.6056ZM90.9651 28.256C90.4216 28.6637 89.7052 28.878 88.7951 28.878V29.378C89.7837 29.378 90.614 29.1443 91.2651 28.656L90.9651 28.256ZM85.9951 24.61H91.4351V24.11H85.9951V24.61ZM91.6821 24.3214C91.5676 23.5884 91.2559 22.9677 90.7459 22.4692L90.3964 22.8268C90.825 23.2457 91.0893 23.7662 91.1881 24.3986L91.6821 24.3214ZM90.7459 22.4692C90.2219 21.9572 89.5365 21.71 88.7151 21.71V22.21C89.4298 22.21 89.9817 22.4215 90.3964 22.8268L90.7459 22.4692ZM88.7151 21.71C87.8938 21.71 87.2083 21.9572 86.6844 22.4692L87.0339 22.8268C87.4486 22.4215 88.0005 22.21 88.7151 22.21V21.71ZM86.6823 22.4712C86.1846 22.969 85.8742 23.5877 85.7487 24.3177L86.2415 24.4023C86.3507 23.767 86.6163 23.2444 87.0359 22.8248L86.6823 22.4712ZM94.1494 29H93.8994V29.25H94.1494V29ZM94.1494 21V20.75H93.8994V21H94.1494ZM95.3494 21H95.5994V20.75H95.3494V21ZM95.3494 22.968H95.0994L95.5883 23.0415L95.3494 22.968ZM95.5894 22.424L95.3699 22.3043L95.3679 22.308L95.5894 22.424ZM96.1334 21.72L96.3102 21.8968L96.3102 21.8968L96.1334 21.72ZM97.0134 21.128L97.1168 21.3556L97.1198 21.3542L97.0134 21.128ZM98.3734 20.872H98.6234V20.622H98.3734V20.872ZM98.3734 22.072V22.322H98.6234V22.072H98.3734ZM96.6774 22.568L96.8274 22.768L96.8282 22.7674L96.6774 22.568ZM95.6854 23.832L95.4573 23.7296L95.4563 23.7318L95.6854 23.832ZM95.3494 29V29.25H95.5994V29H95.3494ZM94.3994 29V21H93.8994V29H94.3994ZM94.1494 21.25H95.3494V20.75H94.1494V21.25ZM95.0994 21V22.968H95.5994V21H95.0994ZM95.5883 23.0415C95.6243 22.9244 95.6962 22.7588 95.8108 22.54L95.3679 22.308C95.2479 22.5372 95.1597 22.7342 95.1104 22.8945L95.5883 23.0415ZM95.8088 22.5437C95.923 22.3343 96.0885 22.1185 96.3102 21.8968L95.9566 21.5432C95.7089 21.7909 95.5117 22.0443 95.3699 22.3043L95.8088 22.5437ZM96.3102 21.8968C96.5204 21.6865 96.7877 21.5052 97.1168 21.3556L96.9099 20.9004C96.5351 21.0708 96.2156 21.2842 95.9566 21.5432L96.3102 21.8968ZM97.1198 21.3542C97.4426 21.2023 97.8314 21.122 98.2934 21.122V20.622C97.774 20.622 97.3095 20.7123 96.9069 20.9018L97.1198 21.3542ZM98.2934 21.122H98.3734V20.622H98.2934V21.122ZM98.1234 20.872V22.072H98.6234V20.872H98.1234ZM98.3734 21.822H98.2294V22.322H98.3734V21.822ZM98.2294 21.822C97.5828 21.822 97.0113 22.0021 96.5266 22.3686L96.8282 22.7674C97.2181 22.4726 97.6813 22.322 98.2294 22.322V21.822ZM96.5274 22.368C96.0643 22.7153 95.708 23.1713 95.4573 23.7296L95.9134 23.9344C96.1321 23.4474 96.4371 23.0607 96.8274 22.768L96.5274 22.368ZM95.4563 23.7318C95.2178 24.277 95.0994 24.8606 95.0994 25.48H95.5994C95.5994 24.9261 95.7049 24.411 95.9144 23.9322L95.4563 23.7318ZM95.0994 25.48V29H95.5994V25.48H95.0994ZM95.3494 28.75H94.1494V29.25H95.3494V28.75ZM100.705 28.76L100.595 28.9846L100.597 28.9855L100.705 28.76ZM99.553 27.8L99.3441 27.9374L99.3459 27.94L99.553 27.8ZM99.105 26.488V26.238H98.8374L98.8556 26.505L99.105 26.488ZM100.353 26.488L100.601 26.4582L100.575 26.238H100.353V26.488ZM100.625 27.272L100.409 27.3981L100.416 27.4086L100.625 27.272ZM101.345 27.88L101.233 28.1037L101.239 28.1065L101.345 27.88ZM103.185 28.056L103.219 28.3037L103.185 28.056ZM103.857 27.88L103.768 27.6463L103.764 27.6479L103.857 27.88ZM104.257 26.072L104.402 25.868L104.402 25.868L104.257 26.072ZM103.265 25.656L103.201 25.8978L103.207 25.8993L103.265 25.656ZM101.969 25.352L101.917 25.5965L101.918 25.5967L101.969 25.352ZM100.689 24.984L100.597 25.2166L100.603 25.2186L100.689 24.984ZM99.697 24.328L99.5101 24.4941L99.5133 24.4976L99.697 24.328ZM100.097 21.48L100.248 21.6795L100.248 21.679L100.097 21.48ZM104.161 21.208L104.047 21.4306L104.054 21.4337L104.161 21.208ZM105.169 22.04L104.96 22.1772L104.963 22.1816L105.169 22.04ZM105.585 23.144V23.394H105.863L105.834 23.1171L105.585 23.144ZM104.369 23.144L104.121 23.175L104.148 23.394H104.369V23.144ZM103.857 22.264L103.695 22.4543L103.698 22.4572L103.857 22.264ZM100.897 23.784L100.758 23.992L100.758 23.992L100.897 23.784ZM101.889 24.2L101.825 24.4418L101.831 24.4433L101.889 24.2ZM103.169 24.488L103.117 24.7325L103.123 24.7338L103.169 24.488ZM104.465 24.856L104.373 25.0885L104.373 25.0885L104.465 24.856ZM105.457 25.544L105.267 25.7067L105.27 25.7101L105.457 25.544ZM104.945 28.52L105.087 28.7257L105.088 28.7252L104.945 28.52ZM102.577 28.878C101.868 28.878 101.283 28.7597 100.813 28.5345L100.597 28.9855C101.151 29.251 101.814 29.378 102.577 29.378V28.878ZM100.815 28.5354C100.346 28.306 99.9984 28.0127 99.7601 27.66L99.3459 27.94C99.6409 28.3766 100.061 28.7233 100.595 28.9846L100.815 28.5354ZM99.7619 27.6626C99.5181 27.2921 99.3834 26.896 99.3544 26.471L98.8556 26.505C98.8906 27.0187 99.0546 27.4973 99.3441 27.9374L99.7619 27.6626ZM99.105 26.738H100.353V26.238H99.105V26.738ZM100.105 26.5178C100.141 26.8217 100.244 27.1155 100.409 27.398L100.841 27.146C100.707 26.9165 100.629 26.6876 100.601 26.4582L100.105 26.5178ZM100.416 27.4086C100.605 27.6985 100.882 27.9281 101.233 28.1036L101.457 27.6564C101.168 27.5119 100.965 27.3362 100.834 27.1354L100.416 27.4086ZM101.239 28.1065C101.604 28.2767 102.06 28.354 102.593 28.354V27.854C102.102 27.854 101.726 27.782 101.451 27.6535L101.239 28.1065ZM102.593 28.354C102.768 28.354 102.978 28.3366 103.219 28.3037L103.151 27.8083C102.923 27.8394 102.738 27.854 102.593 27.854V28.354ZM103.219 28.3037C103.473 28.269 103.717 28.2053 103.95 28.1121L103.764 27.6479C103.57 27.7254 103.366 27.779 103.151 27.8083L103.219 28.3037ZM103.946 28.1136C104.206 28.0146 104.427 27.8638 104.605 27.6606L104.229 27.3314C104.108 27.4695 103.956 27.5747 103.768 27.6464L103.946 28.1136ZM104.605 27.6606C104.801 27.4366 104.891 27.156 104.891 26.84H104.391C104.391 27.0574 104.331 27.2141 104.229 27.3314L104.605 27.6606ZM104.891 26.84C104.891 26.4334 104.728 26.0991 104.402 25.868L104.112 26.276C104.298 26.4076 104.391 26.5852 104.391 26.84H104.891ZM104.402 25.868C104.112 25.6631 103.749 25.5138 103.323 25.4127L103.207 25.8993C103.591 25.9902 103.89 26.1182 104.112 26.276L104.402 25.868ZM103.329 25.4142C102.919 25.3064 102.483 25.2041 102.02 25.1073L101.918 25.5967C102.373 25.6919 102.801 25.7923 103.201 25.8978L103.329 25.4142ZM102.021 25.1075C101.584 25.0139 101.169 24.8944 100.775 24.7494L100.603 25.2186C101.02 25.3722 101.458 25.4981 101.917 25.5965L102.021 25.1075ZM100.781 24.7515C100.405 24.6031 100.108 24.4042 99.8807 24.1584L99.5133 24.4976C99.7985 24.8065 100.162 25.0449 100.597 25.2165L100.781 24.7515ZM99.8839 24.1619C99.6787 23.9311 99.563 23.6067 99.563 23.16H99.063C99.063 23.6946 99.2033 24.1489 99.5101 24.4941L99.8839 24.1619ZM99.563 23.16C99.563 22.5034 99.7949 22.0214 100.248 21.6795L99.9463 21.2805C99.3538 21.728 99.063 22.366 99.063 23.16H99.563ZM100.248 21.679C100.72 21.3204 101.441 21.122 102.449 21.122V20.622C101.388 20.622 100.541 20.8289 99.9457 21.281L100.248 21.679ZM102.449 21.122C103.129 21.122 103.657 21.2307 104.047 21.4305L104.275 20.9855C103.79 20.7373 103.177 20.622 102.449 20.622V21.122ZM104.054 21.4337C104.469 21.6316 104.766 21.8816 104.96 22.1772L105.378 21.9028C105.124 21.5158 104.749 21.211 104.268 20.9823L104.054 21.4337ZM104.963 22.1816C105.175 22.4904 105.298 22.8192 105.336 23.1709L105.834 23.1171C105.786 22.6795 105.632 22.2723 105.375 21.8984L104.963 22.1816ZM105.585 22.894H104.369V23.394H105.585V22.894ZM104.617 23.113C104.565 22.7001 104.357 22.3513 104.016 22.0708L103.698 22.4572C103.954 22.6673 104.087 22.9052 104.121 23.175L104.617 23.113ZM104.019 22.0737C103.662 21.7695 103.107 21.646 102.417 21.646V22.146C103.071 22.146 103.476 22.2678 103.695 22.4543L104.019 22.0737ZM102.417 21.646C101.765 21.646 101.235 21.7431 100.86 21.9701C100.464 22.2093 100.263 22.5803 100.263 23.048H100.763C100.763 22.7477 100.879 22.5427 101.118 22.3979C101.378 22.2409 101.799 22.146 102.417 22.146V21.646ZM100.263 23.048C100.263 23.4476 100.43 23.7728 100.758 23.992L101.036 23.576C100.852 23.4539 100.763 23.2884 100.763 23.048H100.263ZM100.758 23.992C101.044 24.1824 101.402 24.3304 101.825 24.4418L101.953 23.9582C101.565 23.8562 101.262 23.7269 101.036 23.576L100.758 23.992ZM101.831 24.4433C102.239 24.5397 102.667 24.6361 103.117 24.7325L103.221 24.2435C102.775 24.1479 102.35 24.0523 101.947 23.9567L101.831 24.4433ZM103.123 24.7338C103.567 24.8164 103.984 24.9348 104.373 25.0885L104.557 24.6235C104.136 24.4572 103.688 24.3303 103.215 24.2422L103.123 24.7338ZM104.373 25.0885C104.745 25.2352 105.04 25.4422 105.267 25.7067L105.647 25.3813C105.362 25.0485 104.996 24.7968 104.557 24.6235L104.373 25.0885ZM105.27 25.7101C105.474 25.94 105.591 26.269 105.591 26.728H106.091C106.091 26.1843 105.952 25.724 105.644 25.3779L105.27 25.7101ZM105.591 26.728C105.591 27.4316 105.327 27.9493 104.802 28.3148L105.088 28.7252C105.758 28.2587 106.091 27.5817 106.091 26.728H105.591ZM104.803 28.3143C104.271 28.6815 103.537 28.878 102.577 28.878V29.378C103.601 29.378 104.445 29.1692 105.087 28.7257L104.803 28.3143ZM107.384 29H107.134V29.25H107.384V29ZM107.384 17.8V17.55H107.134V17.8H107.384ZM108.584 17.8H108.834V17.55H108.584V17.8ZM108.584 22.248H108.334V22.998L108.784 22.398L108.584 22.248ZM109.64 21.272L109.775 21.4825L109.775 21.4825L109.64 21.272ZM112.792 21.272L112.67 21.4906L112.676 21.4936L112.792 21.272ZM113.976 22.44L113.759 22.5641L113.762 22.5693L113.976 22.44ZM114.44 29V29.25H114.69V29H114.44ZM113.24 29H112.99V29.25H113.24V29ZM112.616 22.632L112.433 22.8021L112.435 22.8043L112.616 22.632ZM109.784 22.264L109.662 22.0458L109.662 22.0458L109.784 22.264ZM108.904 23.128L108.689 22.9994L108.688 23.0012L108.904 23.128ZM108.584 29V29.25H108.834V29H108.584ZM107.634 29V17.8H107.134V29H107.634ZM107.384 18.05H108.584V17.55H107.384V18.05ZM108.334 17.8V22.248H108.834V17.8H108.334ZM108.784 22.398C109.053 22.0386 109.383 21.7335 109.775 21.4825L109.505 21.0615C109.064 21.3438 108.69 21.6894 108.384 22.098L108.784 22.398ZM109.775 21.4825C110.139 21.2486 110.622 21.122 111.24 21.122V20.622C110.556 20.622 109.972 20.7621 109.505 21.0615L109.775 21.4825ZM111.24 21.122C111.752 21.122 112.228 21.2447 112.67 21.4905L112.913 21.0535C112.396 20.7659 111.836 20.622 111.24 20.622V21.122ZM112.676 21.4936C113.121 21.7256 113.482 22.0792 113.759 22.564L114.193 22.316C113.873 21.7555 113.444 21.3304 112.907 21.0504L112.676 21.4936ZM113.762 22.5693C114.042 23.0332 114.19 23.6203 114.19 24.344H114.69C114.69 23.5531 114.528 22.8708 114.19 22.3107L113.762 22.5693ZM114.19 24.344V29H114.69V24.344H114.19ZM114.44 28.75H113.24V29.25H114.44V28.75ZM113.49 29V24.376H112.99V29H113.49ZM113.49 24.376C113.49 23.6003 113.266 22.9526 112.797 22.4597L112.435 22.8043C112.798 23.1861 112.99 23.7011 112.99 24.376H113.49ZM112.799 22.4619C112.331 21.9585 111.724 21.71 111 21.71V22.21C111.598 22.21 112.068 22.4095 112.433 22.8021L112.799 22.4619ZM111 21.71C110.512 21.71 110.065 21.8206 109.662 22.0458L109.906 22.4822C110.228 22.302 110.591 22.21 111 22.21V21.71ZM109.662 22.0458C109.259 22.2708 108.935 22.5905 108.689 22.9994L109.118 23.2566C109.321 22.9188 109.583 22.6626 109.906 22.4822L109.662 22.0458ZM108.688 23.0012C108.449 23.4075 108.334 23.8738 108.334 24.392H108.834C108.834 23.9502 108.932 23.5738 109.119 23.2548L108.688 23.0012ZM108.334 24.392V29H108.834V24.392H108.334ZM108.584 28.75H107.384V29.25H108.584V28.75ZM116.398 19.656H116.148V19.906H116.398V19.656ZM116.398 18.088V17.838H116.148V18.088H116.398ZM117.694 18.088H117.944V17.838H117.694V18.088ZM117.694 19.656V19.906H117.944V19.656H117.694ZM116.446 29H116.196V29.25H116.446V29ZM116.446 21V20.75H116.196V21H116.446ZM117.646 21H117.896V20.75H117.646V21ZM117.646 29V29.25H117.896V29H117.646ZM116.648 19.656V18.088H116.148V19.656H116.648ZM116.398 18.338H117.694V17.838H116.398V18.338ZM117.444 18.088V19.656H117.944V18.088H117.444ZM117.694 19.406H116.398V19.906H117.694V19.406ZM116.696 29V21H116.196V29H116.696ZM116.446 21.25H117.646V20.75H116.446V21.25ZM117.396 21V29H117.896V21H117.396ZM117.646 28.75H116.446V29.25H117.646V28.75ZM119.728 32.168H119.478V32.418H119.728V32.168ZM119.728 21V20.75H119.478V21H119.728ZM120.928 21H121.178V20.75H120.928V21ZM120.928 22.28H120.678V23.0894L121.134 22.421L120.928 22.28ZM122.08 21.256L122.195 21.4776L122.197 21.4766L122.08 21.256ZM125.824 21.432L125.687 21.6418L125.692 21.6446L125.824 21.432ZM127.184 22.92L126.961 23.0333L126.961 23.0349L127.184 22.92ZM127.184 27.08L126.961 26.9667L126.961 26.9667L127.184 27.08ZM125.824 28.584L125.957 28.7956L125.958 28.7949L125.824 28.584ZM122.08 28.744L121.956 28.9614L121.962 28.9646L122.08 28.744ZM120.928 27.704L121.132 27.5606L120.678 26.9109V27.704H120.928ZM120.928 32.168V32.418H121.178V32.168H120.928ZM125.152 27.624L125.015 27.4144L125.013 27.416L125.152 27.624ZM126.128 26.52L126.352 26.6297L126.353 26.6277L126.128 26.52ZM126.128 23.48L126.352 23.3703L126.352 23.3703L126.128 23.48ZM125.152 22.376L125.013 22.584L125.015 22.5856L125.152 22.376ZM122.128 22.376L121.989 22.168L121.989 22.168L122.128 22.376ZM121.184 23.48L120.957 23.3746L120.957 23.3746L121.184 23.48ZM121.184 26.52L120.956 26.6235L120.957 26.6254L121.184 26.52ZM122.128 27.624L121.989 27.832L121.989 27.832L122.128 27.624ZM119.978 32.168V21H119.478V32.168H119.978ZM119.728 21.25H120.928V20.75H119.728V21.25ZM120.678 21V22.28H121.178V21H120.678ZM121.134 22.421C121.409 22.0175 121.762 21.7039 122.195 21.4776L121.964 21.0344C121.458 21.2988 121.043 21.6678 120.721 22.139L121.134 22.421ZM122.197 21.4766C122.634 21.2436 123.162 21.122 123.792 21.122V20.622C123.098 20.622 122.485 20.7564 121.962 21.0354L122.197 21.4766ZM123.792 21.122C124.529 21.122 125.157 21.2981 125.688 21.6418L125.959 21.2222C125.338 20.8192 124.612 20.622 123.792 20.622V21.122ZM125.692 21.6446C126.239 21.9826 126.661 22.4438 126.961 23.0333L127.406 22.8067C127.066 22.1375 126.582 21.6067 125.955 21.2194L125.692 21.6446ZM126.961 23.0349C127.261 23.6145 127.414 24.2678 127.414 25H127.914C127.914 24.1962 127.746 23.4628 127.406 22.8051L126.961 23.0349ZM127.414 25C127.414 25.7209 127.262 26.375 126.961 26.9667L127.406 27.1933C127.745 26.5264 127.914 25.7938 127.914 25H127.414ZM126.961 26.9667C126.661 27.5568 126.238 28.0242 125.689 28.3731L125.958 28.7949C126.583 28.3972 127.066 27.8619 127.406 27.1933L126.961 26.9667ZM125.69 28.3724C125.16 28.7065 124.53 28.878 123.792 28.878V29.378C124.61 29.378 125.335 29.1868 125.957 28.7956L125.69 28.3724ZM123.792 28.878C123.162 28.878 122.634 28.7564 122.197 28.5234L121.962 28.9646C122.485 29.2436 123.098 29.378 123.792 29.378V28.878ZM122.203 28.5266C121.765 28.2776 121.409 27.9558 121.132 27.5606L120.723 27.8474C121.043 28.3055 121.456 28.6771 121.956 28.9614L122.203 28.5266ZM120.678 27.704V32.168H121.178V27.704H120.678ZM120.928 31.918H119.728V32.418H120.928V31.918ZM123.632 28.29C124.268 28.29 124.826 28.1417 125.29 27.832L125.013 27.416C124.645 27.661 124.189 27.79 123.632 27.79V28.29ZM125.288 27.8336C125.753 27.5315 126.108 27.1289 126.352 26.6297L125.903 26.4103C125.699 26.8284 125.404 27.1618 125.015 27.4144L125.288 27.8336ZM126.353 26.6277C126.594 26.1232 126.714 25.5795 126.714 25H126.214C126.214 25.5085 126.109 25.9782 125.902 26.4123L126.353 26.6277ZM126.714 25C126.714 24.4107 126.594 23.866 126.352 23.3703L125.903 23.5897C126.109 24.0113 126.214 24.48 126.214 25H126.714ZM126.352 23.3703C126.108 22.8711 125.753 22.4685 125.288 22.1664L125.015 22.5856C125.404 22.8382 125.699 23.1716 125.903 23.5897L126.352 23.3703ZM125.29 22.168C124.826 21.8583 124.268 21.71 123.632 21.71V22.21C124.189 22.21 124.645 22.339 125.013 22.584L125.29 22.168ZM123.632 21.71C123.004 21.71 122.453 21.8588 121.989 22.168L122.266 22.584C122.634 22.3385 123.085 22.21 123.632 22.21V21.71ZM121.989 22.168C121.534 22.4711 121.189 22.8748 120.957 23.3746L121.41 23.5854C121.604 23.1679 121.889 22.8356 122.266 22.584L121.989 22.168ZM120.957 23.3746C120.727 23.8693 120.614 24.4125 120.614 25H121.114C121.114 24.4782 121.214 24.008 121.41 23.5854L120.957 23.3746ZM120.614 25C120.614 25.5777 120.727 26.1198 120.956 26.6235L121.411 26.4165C121.213 25.9815 121.114 25.5103 121.114 25H120.614ZM120.957 26.6254C121.189 27.1252 121.534 27.5289 121.989 27.832L122.266 27.416C121.889 27.1644 121.604 26.8321 121.41 26.4146L120.957 26.6254ZM121.989 27.832C122.453 28.1412 123.004 28.29 123.632 28.29V27.79C123.085 27.79 122.634 27.6615 122.266 27.416L121.989 27.832Z" fill="black"/>
</svg>
