<svg width="192" height="48" viewBox="0 0 192 48" fill="none" xmlns="http://www.w3.org/2000/svg">
<rect x="0.5" y="0.5" width="191" height="47" stroke="white"/>
<path d="M52.296 28.6943V18.1023H53.688L57.48 23.1263L61.208 18.1023H62.6V28.6943H61.4V19.9263L57.48 24.9663L53.496 19.9263V28.6943H52.296ZM68.4826 28.8223C67.672 28.8223 66.9626 28.641 66.3546 28.2783C65.7466 27.905 65.272 27.4037 64.9306 26.7743C64.6 26.145 64.4346 25.4517 64.4346 24.6943C64.4346 23.9263 64.5946 23.233 64.9146 22.6143C65.2346 21.985 65.6933 21.489 66.2906 21.1263C66.888 20.753 67.592 20.5663 68.4026 20.5663C69.224 20.5663 69.928 20.753 70.5146 21.1263C71.112 21.489 71.5706 21.985 71.8906 22.6143C72.2106 23.233 72.3706 23.9263 72.3706 24.6943V25.1743H65.6666C65.7306 25.6437 65.88 26.0757 66.1146 26.4703C66.36 26.8543 66.6853 27.1637 67.0906 27.3983C67.496 27.6223 67.9653 27.7343 68.4986 27.7343C69.064 27.7343 69.5386 27.6117 69.9226 27.3663C70.3066 27.1103 70.6053 26.785 70.8186 26.3903H72.1306C71.8533 27.105 71.4106 27.6917 70.8026 28.1503C70.2053 28.5983 69.432 28.8223 68.4826 28.8223ZM65.6826 24.0543H71.1226C71.016 23.3717 70.728 22.801 70.2586 22.3423C69.7893 21.8837 69.1706 21.6543 68.4026 21.6543C67.6346 21.6543 67.016 21.8837 66.5466 22.3423C66.088 22.801 65.8 23.3717 65.6826 24.0543ZM73.8369 28.6943V20.6943H75.0369V21.9103C75.2182 21.5903 75.5062 21.2863 75.9009 20.9983C76.2955 20.7103 76.8182 20.5663 77.4689 20.5663C78.0022 20.5663 78.4929 20.7103 78.9409 20.9983C79.3995 21.2757 79.7569 21.6703 80.0129 22.1823C80.1195 22.001 80.2849 21.7823 80.5089 21.5263C80.7435 21.2703 81.0475 21.0463 81.4209 20.8543C81.7942 20.6623 82.2422 20.5663 82.7649 20.5663C83.2769 20.5663 83.7569 20.6997 84.2049 20.9663C84.6529 21.233 85.0155 21.617 85.2929 22.1183C85.5809 22.609 85.7249 23.1903 85.7249 23.8623V28.6943H84.5249V23.8943C84.5249 23.2223 84.3329 22.6837 83.9489 22.2783C83.5755 21.8623 83.1062 21.6543 82.5409 21.6543C81.9542 21.6543 81.4475 21.8517 81.0209 22.2463C80.5942 22.641 80.3809 23.1957 80.3809 23.9103V28.6943H79.1809V23.8943C79.1809 23.2223 78.9889 22.6837 78.6049 22.2783C78.2315 21.8623 77.7622 21.6543 77.1969 21.6543C76.6102 21.6543 76.1035 21.8517 75.6769 22.2463C75.2502 22.641 75.0369 23.1957 75.0369 23.9103V28.6943H73.8369ZM91.7915 28.8223C91.1302 28.8223 90.5595 28.6943 90.0795 28.4383C89.6102 28.1823 89.2262 27.841 88.9275 27.4143V28.6943H87.7275V17.4943H88.9275V21.9903C89.2262 21.553 89.6102 21.2063 90.0795 20.9503C90.5595 20.6943 91.1302 20.5663 91.7915 20.5663C92.5702 20.5663 93.2475 20.753 93.8235 21.1263C94.4102 21.489 94.8635 21.985 95.1835 22.6143C95.5035 23.233 95.6635 23.9263 95.6635 24.6943C95.6635 25.4517 95.5035 26.145 95.1835 26.7743C94.8635 27.4037 94.4102 27.905 93.8235 28.2783C93.2475 28.641 92.5702 28.8223 91.7915 28.8223ZM91.6315 27.7343C92.2288 27.7343 92.7355 27.5957 93.1515 27.3183C93.5782 27.041 93.9035 26.673 94.1275 26.2143C94.3515 25.745 94.4635 25.2383 94.4635 24.6943C94.4635 24.1397 94.3515 23.633 94.1275 23.1743C93.9035 22.7157 93.5782 22.3477 93.1515 22.0703C92.7355 21.793 92.2288 21.6543 91.6315 21.6543C91.0448 21.6543 90.5435 21.793 90.1275 22.0703C89.7115 22.3477 89.3968 22.7157 89.1835 23.1743C88.9702 23.633 88.8635 24.1397 88.8635 24.6943C88.8635 25.2383 88.9702 25.745 89.1835 26.2143C89.3968 26.673 89.7115 27.041 90.1275 27.3183C90.5435 27.5957 91.0448 27.7343 91.6315 27.7343ZM100.795 28.8223C99.9845 28.8223 99.2751 28.641 98.6671 28.2783C98.0591 27.905 97.5845 27.4037 97.2431 26.7743C96.9125 26.145 96.7471 25.4517 96.7471 24.6943C96.7471 23.9263 96.9071 23.233 97.2271 22.6143C97.5471 21.985 98.0058 21.489 98.6031 21.1263C99.2005 20.753 99.9045 20.5663 100.715 20.5663C101.536 20.5663 102.24 20.753 102.827 21.1263C103.424 21.489 103.883 21.985 104.203 22.6143C104.523 23.233 104.683 23.9263 104.683 24.6943V25.1743H97.9791C98.0431 25.6437 98.1925 26.0757 98.4271 26.4703C98.6725 26.8543 98.9978 27.1637 99.4031 27.3983C99.8085 27.6223 100.278 27.7343 100.811 27.7343C101.376 27.7343 101.851 27.6117 102.235 27.3663C102.619 27.1103 102.918 26.785 103.131 26.3903H104.443C104.166 27.105 103.723 27.6917 103.115 28.1503C102.518 28.5983 101.744 28.8223 100.795 28.8223ZM97.9951 24.0543H103.435C103.328 23.3717 103.04 22.801 102.571 22.3423C102.102 21.8837 101.483 21.6543 100.715 21.6543C99.9471 21.6543 99.3285 21.8837 98.8591 22.3423C98.4005 22.801 98.1125 23.3717 97.9951 24.0543ZM106.149 28.6943V20.6943H107.349V22.6623C107.392 22.5237 107.472 22.3423 107.589 22.1183C107.717 21.8837 107.899 21.649 108.133 21.4143C108.368 21.1797 108.661 20.9823 109.013 20.8223C109.376 20.6517 109.803 20.5663 110.293 20.5663H110.373V21.7663H110.229C109.632 21.7663 109.115 21.9317 108.677 22.2623C108.251 22.5823 107.92 23.0037 107.685 23.5263C107.461 24.0383 107.349 24.5877 107.349 25.1743V28.6943H106.149ZM114.577 28.8223C113.841 28.8223 113.217 28.6997 112.705 28.4543C112.204 28.209 111.82 27.889 111.553 27.4943C111.286 27.089 111.137 26.6517 111.105 26.1823H112.353C112.385 26.449 112.476 26.7103 112.625 26.9663C112.785 27.2117 113.025 27.4143 113.345 27.5743C113.665 27.7237 114.081 27.7983 114.593 27.7983C114.753 27.7983 114.95 27.7823 115.185 27.7503C115.42 27.7183 115.644 27.6597 115.857 27.5743C116.081 27.489 116.268 27.361 116.417 27.1903C116.566 27.0197 116.641 26.801 116.641 26.5343C116.641 26.2037 116.513 25.9477 116.257 25.7663C116.001 25.585 115.67 25.4463 115.265 25.3503C114.86 25.2437 114.428 25.1423 113.969 25.0463C113.521 24.9503 113.094 24.8277 112.689 24.6783C112.284 24.5183 111.953 24.2997 111.697 24.0223C111.441 23.7343 111.313 23.345 111.313 22.8543C111.313 22.129 111.574 21.569 112.097 21.1743C112.63 20.769 113.414 20.5663 114.449 20.5663C115.153 20.5663 115.724 20.6783 116.161 20.9023C116.609 21.1157 116.945 21.393 117.169 21.7343C117.404 22.0757 117.542 22.4437 117.585 22.8383H116.369C116.326 22.497 116.156 22.2037 115.857 21.9583C115.569 21.713 115.089 21.5903 114.417 21.5903C113.148 21.5903 112.513 21.9743 112.513 22.7423C112.513 23.0623 112.641 23.3077 112.897 23.4783C113.153 23.649 113.484 23.7877 113.889 23.8943C114.294 23.9903 114.721 24.0863 115.169 24.1823C115.628 24.2677 116.06 24.3903 116.465 24.5503C116.87 24.7103 117.201 24.9397 117.457 25.2383C117.713 25.5263 117.841 25.921 117.841 26.4223C117.841 27.201 117.542 27.7983 116.945 28.2143C116.358 28.6197 115.569 28.8223 114.577 28.8223ZM119.384 28.6943V17.4943H120.584V21.9423C120.872 21.5583 121.224 21.233 121.64 20.9663C122.056 20.6997 122.589 20.5663 123.24 20.5663C123.794 20.5663 124.312 20.6997 124.792 20.9663C125.282 21.2223 125.677 21.6117 125.976 22.1343C126.285 22.6463 126.44 23.281 126.44 24.0383V28.6943H125.24V24.0703C125.24 23.345 125.032 22.7637 124.616 22.3263C124.2 21.8783 123.661 21.6543 123 21.6543C122.552 21.6543 122.146 21.7557 121.784 21.9583C121.421 22.161 121.128 22.449 120.904 22.8223C120.69 23.185 120.584 23.6063 120.584 24.0863V28.6943H119.384ZM128.398 19.3503V17.7823H129.694V19.3503H128.398ZM128.446 28.6943V20.6943H129.646V28.6943H128.446ZM131.728 31.8623V20.6943H132.928V21.9743C133.226 21.537 133.61 21.1957 134.08 20.9503C134.56 20.6943 135.13 20.5663 135.792 20.5663C136.57 20.5663 137.248 20.753 137.824 21.1263C138.41 21.489 138.864 21.985 139.184 22.6143C139.504 23.233 139.664 23.9263 139.664 24.6943C139.664 25.4517 139.504 26.145 139.184 26.7743C138.864 27.4037 138.41 27.905 137.824 28.2783C137.248 28.641 136.57 28.8223 135.792 28.8223C135.13 28.8223 134.56 28.6943 134.08 28.4383C133.61 28.1717 133.226 27.825 132.928 27.3983V31.8623H131.728ZM135.632 27.7343C136.229 27.7343 136.736 27.5957 137.152 27.3183C137.578 27.041 137.904 26.673 138.128 26.2143C138.352 25.745 138.464 25.2383 138.464 24.6943C138.464 24.1397 138.352 23.633 138.128 23.1743C137.904 22.7157 137.578 22.3477 137.152 22.0703C136.736 21.793 136.229 21.6543 135.632 21.6543C135.045 21.6543 134.544 21.793 134.128 22.0703C133.712 22.3477 133.397 22.7157 133.184 23.1743C132.97 23.633 132.864 24.1397 132.864 24.6943C132.864 25.2383 132.97 25.745 133.184 26.2143C133.397 26.673 133.712 27.041 134.128 27.3183C134.544 27.5957 135.045 27.7343 135.632 27.7343Z" fill="white"/>
<path d="M52.296 28.6943H52.046V28.9443H52.296V28.6943ZM52.296 18.1023V17.8523H52.046V18.1023H52.296ZM53.688 18.1023L53.8875 17.9517L53.8125 17.8523H53.688V18.1023ZM57.48 23.1263L57.2805 23.2769L57.4817 23.5436L57.6808 23.2753L57.48 23.1263ZM61.208 18.1023V17.8523H61.0822L61.0072 17.9534L61.208 18.1023ZM62.6 18.1023H62.85V17.8523H62.6V18.1023ZM62.6 28.6943V28.9443H62.85V28.6943H62.6ZM61.4 28.6943H61.15V28.9443H61.4V28.6943ZM61.4 19.9263H61.65V19.1977L61.2027 19.7729L61.4 19.9263ZM57.48 24.9663L57.2839 25.1214L57.4816 25.3715L57.6773 25.1198L57.48 24.9663ZM53.496 19.9263L53.6921 19.7713L53.246 19.2069V19.9263H53.496ZM53.496 28.6943V28.9443H53.746V28.6943H53.496ZM52.546 28.6943V18.1023H52.046V28.6943H52.546ZM52.296 18.3523H53.688V17.8523H52.296V18.3523ZM53.4885 18.2529L57.2805 23.2769L57.6795 22.9757L53.8875 17.9517L53.4885 18.2529ZM57.6808 23.2753L61.4088 18.2513L61.0072 17.9534L57.2792 22.9774L57.6808 23.2753ZM61.208 18.3523H62.6V17.8523H61.208V18.3523ZM62.35 18.1023V28.6943H62.85V18.1023H62.35ZM62.6 28.4443H61.4V28.9443H62.6V28.4443ZM61.65 28.6943V19.9263H61.15V28.6943H61.65ZM61.2027 19.7729L57.2827 24.8129L57.6773 25.1198L61.5973 20.0798L61.2027 19.7729ZM57.6761 24.8113L53.6921 19.7713L53.2999 20.0814L57.2839 25.1214L57.6761 24.8113ZM53.246 19.9263V28.6943H53.746V19.9263H53.246ZM53.496 28.4443H52.296V28.9443H53.496V28.4443ZM66.3546 28.2783L66.2238 28.4914L66.2266 28.493L66.3546 28.2783ZM64.9306 26.7743L64.7093 26.8906L64.7109 26.8935L64.9306 26.7743ZM64.9146 22.6143L65.1367 22.7292L65.1375 22.7276L64.9146 22.6143ZM66.2906 21.1263L66.4204 21.3401L66.4231 21.3383L66.2906 21.1263ZM70.5146 21.1263L70.3804 21.3373L70.3849 21.34L70.5146 21.1263ZM71.8906 22.6143L71.6678 22.7276L71.6686 22.7292L71.8906 22.6143ZM72.3706 25.1743V25.4243H72.6206V25.1743H72.3706ZM65.6666 25.1743V24.9243H65.3802L65.4189 25.2081L65.6666 25.1743ZM66.1146 26.4703L65.8996 26.5982L65.904 26.6049L66.1146 26.4703ZM67.0906 27.3983L66.9653 27.6147L66.9697 27.6171L67.0906 27.3983ZM69.9226 27.3663L70.0572 27.577L70.0613 27.5743L69.9226 27.3663ZM70.8186 26.3903V26.1403H70.6696L70.5987 26.2715L70.8186 26.3903ZM72.1306 26.3903L72.3637 26.4808L72.4958 26.1403H72.1306V26.3903ZM70.8026 28.1503L70.9526 28.3503L70.9532 28.3499L70.8026 28.1503ZM65.6826 24.0543L65.4362 24.012L65.386 24.3043H65.6826V24.0543ZM71.1226 24.0543V24.3043H71.4147L71.3696 24.0157L71.1226 24.0543ZM70.2586 22.3423L70.4334 22.1635L70.4334 22.1635L70.2586 22.3423ZM66.5466 22.3423L66.3719 22.1635L66.3698 22.1656L66.5466 22.3423ZM68.4826 28.5723C67.7104 28.5723 67.0466 28.4 66.4827 28.0636L66.2266 28.493C66.8786 28.882 67.6335 29.0723 68.4826 29.0723V28.5723ZM66.4854 28.0653C65.9149 27.715 65.4709 27.2461 65.1504 26.6551L64.7109 26.8935C65.073 27.5613 65.5783 28.095 66.2238 28.4914L66.4854 28.0653ZM65.1519 26.6581C64.8413 26.0669 64.6846 25.4139 64.6846 24.6943H64.1846C64.1846 25.4895 64.3586 26.2231 64.7093 26.8906L65.1519 26.6581ZM64.6846 24.6943C64.6846 23.9621 64.8369 23.3088 65.1367 22.7292L64.6926 22.4995C64.3524 23.1572 64.1846 23.8905 64.1846 24.6943H64.6846ZM65.1375 22.7276C65.4366 22.1393 65.8632 21.6783 66.4204 21.34L66.1609 20.9126C65.5233 21.2997 65.0326 21.8307 64.6918 22.501L65.1375 22.7276ZM66.4231 21.3383C66.975 20.9934 67.6316 20.8163 68.4026 20.8163V20.3163C67.5523 20.3163 66.8009 20.5126 66.1581 20.9143L66.4231 21.3383ZM68.4026 20.8163C69.1852 20.8163 69.8406 20.9938 70.3804 21.3373L70.6488 20.9154C70.0153 20.5122 69.2628 20.3163 68.4026 20.3163V20.8163ZM70.3849 21.34C70.942 21.6783 71.3686 22.1393 71.6678 22.7276L72.1135 22.501C71.7726 21.8307 71.2819 21.2997 70.6444 20.9126L70.3849 21.34ZM71.6686 22.7292C71.9684 23.3088 72.1206 23.9621 72.1206 24.6943H72.6206C72.6206 23.8905 72.4529 23.1572 72.1127 22.4995L71.6686 22.7292ZM72.1206 24.6943V25.1743H72.6206V24.6943H72.1206ZM72.3706 24.9243H65.6666V25.4243H72.3706V24.9243ZM65.4189 25.2081C65.4873 25.7096 65.6474 26.1737 65.8997 26.5981L66.3295 26.3426C66.1125 25.9776 65.9739 25.5778 65.9143 25.1406L65.4189 25.2081ZM65.904 26.6049C66.1714 27.0236 66.5264 27.3606 66.9654 27.6147L67.2159 27.182C66.8442 26.9668 66.5485 26.6851 66.3253 26.3357L65.904 26.6049ZM66.9697 27.6171C67.4173 27.8645 67.9295 27.9843 68.4986 27.9843V27.4843C68.0011 27.4843 67.5746 27.3801 67.2115 27.1795L66.9697 27.6171ZM68.4986 27.9843C69.1002 27.9843 69.6243 27.8536 70.0572 27.577L69.788 27.1557C69.4529 27.3698 69.0277 27.4843 68.4986 27.4843V27.9843ZM70.0613 27.5743C70.4782 27.2964 70.8052 26.9408 71.0386 26.5092L70.5987 26.2715C70.4053 26.6292 70.135 26.9243 69.784 27.1583L70.0613 27.5743ZM70.8186 26.6403H72.1306V26.1403H70.8186V26.6403ZM71.8976 26.2999C71.6369 26.9715 71.2227 27.5203 70.6521 27.9508L70.9532 28.3499C71.5986 27.8631 72.0697 27.2385 72.3637 26.4808L71.8976 26.2999ZM70.6526 27.9503C70.1091 28.358 69.3927 28.5723 68.4826 28.5723V29.0723C69.4712 29.0723 70.3015 28.8387 70.9526 28.3503L70.6526 27.9503ZM65.6826 24.3043H71.1226V23.8043H65.6826V24.3043ZM71.3696 24.0157C71.2551 23.2828 70.9434 22.662 70.4334 22.1635L70.0839 22.5211C70.5125 22.94 70.7768 23.4606 70.8756 24.0929L71.3696 24.0157ZM70.4334 22.1635C69.9094 21.6515 69.224 21.4043 68.4026 21.4043V21.9043C69.1173 21.9043 69.6692 22.1158 70.0839 22.5211L70.4334 22.1635ZM68.4026 21.4043C67.5813 21.4043 66.8958 21.6515 66.3719 22.1635L66.7214 22.5211C67.1361 22.1158 67.688 21.9043 68.4026 21.9043V21.4043ZM66.3698 22.1656C65.8721 22.6633 65.5617 23.282 65.4362 24.012L65.929 24.0967C66.0382 23.4613 66.3038 22.9387 66.7234 22.5191L66.3698 22.1656ZM73.8369 28.6943H73.5869V28.9443H73.8369V28.6943ZM73.8369 20.6943V20.4443H73.5869V20.6943H73.8369ZM75.0369 20.6943H75.2869V20.4443H75.0369V20.6943ZM75.0369 21.9103H74.7869V22.8586L75.2544 22.0336L75.0369 21.9103ZM75.9009 20.9983L75.7535 20.7964L75.7535 20.7964L75.9009 20.9983ZM78.9409 20.9983L78.8056 21.2087L78.8115 21.2123L78.9409 20.9983ZM80.0129 22.1823L79.7893 22.2941L79.9951 22.7057L80.2284 22.3091L80.0129 22.1823ZM80.5089 21.5263L80.3245 21.3574L80.3207 21.3617L80.5089 21.5263ZM81.4209 20.8543L81.5352 21.0767L81.5352 21.0767L81.4209 20.8543ZM84.2049 20.9663L84.3327 20.7515L84.3327 20.7515L84.2049 20.9663ZM85.2929 22.1183L85.074 22.2394L85.0773 22.2449L85.2929 22.1183ZM85.7249 28.6943V28.9443H85.9749V28.6943H85.7249ZM84.5249 28.6943H84.2749V28.9443H84.5249V28.6943ZM83.9489 22.2783L83.7627 22.4454L83.7674 22.4503L83.9489 22.2783ZM81.0209 22.2463L80.8511 22.0628L80.8511 22.0628L81.0209 22.2463ZM80.3809 28.6943V28.9443H80.6309V28.6943H80.3809ZM79.1809 28.6943H78.9309V28.9443H79.1809V28.6943ZM78.6049 22.2783L78.4187 22.4454L78.4234 22.4503L78.6049 22.2783ZM75.0369 28.6943V28.9443H75.2869V28.6943H75.0369ZM74.0869 28.6943V20.6943H73.5869V28.6943H74.0869ZM73.8369 20.9443H75.0369V20.4443H73.8369V20.9443ZM74.7869 20.6943V21.9103H75.2869V20.6943H74.7869ZM75.2544 22.0336C75.4134 21.7529 75.6733 21.4739 76.0482 21.2003L75.7535 20.7964C75.3391 21.0988 75.023 21.4278 74.8194 21.7871L75.2544 22.0336ZM76.0482 21.2003C76.3879 20.9524 76.8538 20.8163 77.4689 20.8163V20.3163C76.7826 20.3163 76.2032 20.4683 75.7535 20.7964L76.0482 21.2003ZM77.4689 20.8163C77.9543 20.8163 78.3981 20.9466 78.8057 21.2086L79.0761 20.788C78.5877 20.4741 78.0501 20.3163 77.4689 20.3163V20.8163ZM78.8115 21.2123C79.227 21.4635 79.5529 21.8214 79.7893 22.2941L80.2365 22.0705C79.9608 21.5193 79.5721 21.0879 79.0702 20.7844L78.8115 21.2123ZM80.2284 22.3091C80.3238 22.1468 80.4778 21.9414 80.697 21.691L80.3207 21.3617C80.0919 21.6232 79.9153 21.8552 79.7974 22.0556L80.2284 22.3091ZM80.6932 21.6953C80.9042 21.4651 81.1828 21.2579 81.5352 21.0767L81.3065 20.632C80.9122 20.8348 80.5829 21.0756 80.3246 21.3574L80.6932 21.6953ZM81.5352 21.0767C81.8656 20.9068 82.2724 20.8163 82.7649 20.8163V20.3163C82.212 20.3163 81.7229 20.4179 81.3065 20.632L81.5352 21.0767ZM82.7649 20.8163C83.231 20.8163 83.6669 20.9371 84.077 21.1812L84.3327 20.7515C83.8468 20.4623 83.3227 20.3163 82.7649 20.3163V20.8163ZM84.077 21.1812C84.4832 21.423 84.816 21.7728 85.0741 22.2394L85.5116 21.9973C85.215 21.4612 84.8225 21.043 84.3327 20.7515L84.077 21.1812ZM85.0773 22.2449C85.339 22.6907 85.4749 23.2267 85.4749 23.8623H85.9749C85.9749 23.154 85.8228 22.5273 85.5085 21.9918L85.0773 22.2449ZM85.4749 23.8623V28.6943H85.9749V23.8623H85.4749ZM85.7249 28.4443H84.5249V28.9443H85.7249V28.4443ZM84.7749 28.6943V23.8943H84.2749V28.6943H84.7749ZM84.7749 23.8943C84.7749 23.1722 84.567 22.5673 84.1304 22.1064L83.7674 22.4503C84.0987 22.8 84.2749 23.2725 84.2749 23.8943H84.7749ZM84.1349 22.1114C83.7136 21.6418 83.1763 21.4043 82.5409 21.4043V21.9043C83.0361 21.9043 83.4375 22.0828 83.7628 22.4453L84.1349 22.1114ZM82.5409 21.4043C81.8919 21.4043 81.3245 21.625 80.8511 22.0628L81.1906 22.4299C81.5706 22.0784 82.0165 21.9043 82.5409 21.9043V21.4043ZM80.8511 22.0628C80.3619 22.5153 80.1309 23.1432 80.1309 23.9103H80.6309C80.6309 23.2481 80.8265 22.7667 81.1906 22.4299L80.8511 22.0628ZM80.1309 23.9103V28.6943H80.6309V23.9103H80.1309ZM80.3809 28.4443H79.1809V28.9443H80.3809V28.4443ZM79.4309 28.6943V23.8943H78.9309V28.6943H79.4309ZM79.4309 23.8943C79.4309 23.1722 79.223 22.5673 78.7864 22.1064L78.4234 22.4503C78.7547 22.8 78.9309 23.2725 78.9309 23.8943H79.4309ZM78.7909 22.1114C78.3696 21.6418 77.8323 21.4043 77.1969 21.4043V21.9043C77.6921 21.9043 78.0935 22.0828 78.4188 22.4453L78.7909 22.1114ZM77.1969 21.4043C76.5479 21.4043 75.9805 21.625 75.5071 22.0628L75.8466 22.4299C76.2266 22.0784 76.6725 21.9043 77.1969 21.9043V21.4043ZM75.5071 22.0628C75.0179 22.5153 74.7869 23.1432 74.7869 23.9103H75.2869C75.2869 23.2481 75.4825 22.7667 75.8466 22.4299L75.5071 22.0628ZM74.7869 23.9103V28.6943H75.2869V23.9103H74.7869ZM75.0369 28.4443H73.8369V28.9443H75.0369V28.4443ZM90.0795 28.4383L89.9598 28.6578L89.9619 28.6589L90.0795 28.4383ZM88.9275 27.4143L89.1323 27.271L88.6775 26.6212V27.4143H88.9275ZM88.9275 28.6943V28.9443H89.1775V28.6943H88.9275ZM87.7275 28.6943H87.4775V28.9443H87.7275V28.6943ZM87.7275 17.4943V17.2443H87.4775V17.4943H87.7275ZM88.9275 17.4943H89.1775V17.2443H88.9275V17.4943ZM88.9275 21.9903H88.6775V22.7997L89.134 22.1313L88.9275 21.9903ZM90.0795 20.9503L89.9618 20.7297L89.9598 20.7309L90.0795 20.9503ZM93.8235 21.1263L93.6875 21.3362L93.692 21.339L93.8235 21.1263ZM95.1835 22.6143L94.9606 22.7276L94.9614 22.7292L95.1835 22.6143ZM95.1835 26.7743L94.9607 26.661L94.9607 26.661L95.1835 26.7743ZM93.8235 28.2783L93.9567 28.4899L93.9577 28.4893L93.8235 28.2783ZM93.1515 27.3183L93.0152 27.1087L93.0128 27.1103L93.1515 27.3183ZM94.1275 26.2143L94.3522 26.324L94.3531 26.322L94.1275 26.2143ZM94.1275 23.1743L94.3521 23.0646L94.3521 23.0646L94.1275 23.1743ZM93.1515 22.0703L93.0128 22.2784L93.0153 22.2799L93.1515 22.0703ZM90.1275 22.0703L89.9888 21.8623L89.9888 21.8623L90.1275 22.0703ZM89.1835 23.1743L88.9568 23.0689L88.9568 23.0689L89.1835 23.1743ZM89.1835 26.2143L88.9559 26.3178L88.9568 26.3198L89.1835 26.2143ZM90.1275 27.3183L89.9888 27.5263L89.9888 27.5263L90.1275 27.3183ZM91.7915 28.5723C91.1624 28.5723 90.6339 28.4507 90.1971 28.2177L89.9619 28.6589C90.4851 28.938 91.0979 29.0723 91.7915 29.0723V28.5723ZM90.1992 28.2189C89.7628 27.9808 89.4083 27.6652 89.1323 27.271L88.7227 27.5577C89.0441 28.0168 89.4575 28.3838 89.9598 28.6578L90.1992 28.2189ZM88.6775 27.4143V28.6943H89.1775V27.4143H88.6775ZM88.9275 28.4443H87.7275V28.9443H88.9275V28.4443ZM87.9775 28.6943V17.4943H87.4775V28.6943H87.9775ZM87.7275 17.7443H88.9275V17.2443H87.7275V17.7443ZM88.6775 17.4943V21.9903H89.1775V17.4943H88.6775ZM89.134 22.1313C89.4101 21.727 89.7642 21.4071 90.1992 21.1698L89.9598 20.7309C89.4561 21.0056 89.0422 21.379 88.721 21.8493L89.134 22.1313ZM90.1971 21.1709C90.6339 20.938 91.1624 20.8163 91.7915 20.8163V20.3163C91.0979 20.3163 90.4851 20.4507 89.9619 20.7297L90.1971 21.1709ZM91.7915 20.8163C92.5286 20.8163 93.1573 20.9924 93.6875 21.3361L93.9595 20.9165C93.3377 20.5136 92.6117 20.3163 91.7915 20.3163V20.8163ZM93.692 21.339C94.2388 21.677 94.6609 22.1382 94.9607 22.7276L95.4063 22.501C95.0661 21.8318 94.5816 21.3011 93.955 20.9137L93.692 21.339ZM94.9614 22.7292C95.2613 23.3088 95.4135 23.9621 95.4135 24.6943H95.9135C95.9135 23.8905 95.7457 23.1572 95.4056 22.4995L94.9614 22.7292ZM95.4135 24.6943C95.4135 25.4152 95.2615 26.0693 94.9607 26.661L95.4063 26.8876C95.7455 26.2207 95.9135 25.4881 95.9135 24.6943H95.4135ZM94.9607 26.661C94.6606 27.2511 94.2376 27.7185 93.6893 28.0674L93.9577 28.4893C94.5827 28.0915 95.0664 27.5562 95.4063 26.8876L94.9607 26.661ZM93.6903 28.0668C93.1597 28.4009 92.53 28.5723 91.7915 28.5723V29.0723C92.6104 29.0723 93.3353 28.8811 93.9567 28.4899L93.6903 28.0668ZM91.6315 27.9843C92.2684 27.9843 92.8257 27.836 93.2902 27.5263L93.0128 27.1103C92.6453 27.3553 92.1892 27.4843 91.6315 27.4843V27.9843ZM93.2877 27.5279C93.7525 27.2259 94.1083 26.8233 94.3521 26.324L93.9029 26.1046C93.6987 26.5227 93.4038 26.8562 93.0153 27.1087L93.2877 27.5279ZM94.3531 26.322C94.5939 25.8175 94.7135 25.2738 94.7135 24.6943H94.2135C94.2135 25.2028 94.1091 25.6725 93.9019 26.1067L94.3531 26.322ZM94.7135 24.6943C94.7135 24.105 94.5942 23.5603 94.3521 23.0646L93.9029 23.284C94.1088 23.7057 94.2135 24.1743 94.2135 24.6943H94.7135ZM94.3521 23.0646C94.1083 22.5654 93.7525 22.1628 93.2877 21.8607L93.0153 22.2799C93.4038 22.5325 93.6987 22.8659 93.9029 23.284L94.3521 23.0646ZM93.2902 21.8623C92.8257 21.5527 92.2684 21.4043 91.6315 21.4043V21.9043C92.1892 21.9043 92.6453 22.0334 93.0128 22.2783L93.2902 21.8623ZM91.6315 21.4043C91.0042 21.4043 90.4526 21.5531 89.9888 21.8623L90.2662 22.2783C90.6344 22.0329 91.0854 21.9043 91.6315 21.9043V21.4043ZM89.9888 21.8623C89.5342 22.1654 89.1893 22.5691 88.9568 23.0689L89.4102 23.2798C89.6044 22.8622 89.8888 22.5299 90.2662 22.2783L89.9888 21.8623ZM88.9568 23.0689C88.7267 23.5637 88.6135 24.1068 88.6135 24.6943H89.1135C89.1135 24.1725 89.2136 23.7023 89.4102 23.2798L88.9568 23.0689ZM88.6135 24.6943C88.6135 25.272 88.727 25.8142 88.9559 26.3178L89.4111 26.1109C89.2133 25.6758 89.1135 25.2047 89.1135 24.6943H88.6135ZM88.9568 26.3198C89.1893 26.8195 89.5342 27.2232 89.9888 27.5263L90.2662 27.1103C89.8888 26.8588 89.6044 26.5265 89.4102 26.1089L88.9568 26.3198ZM89.9888 27.5263C90.4526 27.8355 91.0042 27.9843 91.6315 27.9843V27.4843C91.0854 27.4843 90.6344 27.3558 90.2662 27.1103L89.9888 27.5263ZM98.6671 28.2783L98.5363 28.4914L98.5391 28.493L98.6671 28.2783ZM97.2431 26.7743L97.0218 26.8906L97.0234 26.8935L97.2431 26.7743ZM97.2271 22.6143L97.4492 22.7292L97.45 22.7276L97.2271 22.6143ZM98.6031 21.1263L98.7329 21.3401L98.7356 21.3383L98.6031 21.1263ZM102.827 21.1263L102.693 21.3373L102.697 21.34L102.827 21.1263ZM104.203 22.6143L103.98 22.7276L103.981 22.7292L104.203 22.6143ZM104.683 25.1743V25.4243H104.933V25.1743H104.683ZM97.9791 25.1743V24.9243H97.6927L97.7314 25.2081L97.9791 25.1743ZM98.4271 26.4703L98.2121 26.5982L98.2165 26.6049L98.4271 26.4703ZM99.4031 27.3983L99.2778 27.6147L99.2822 27.6171L99.4031 27.3983ZM102.235 27.3663L102.37 27.577L102.374 27.5743L102.235 27.3663ZM103.131 26.3903V26.1403H102.982L102.911 26.2715L103.131 26.3903ZM104.443 26.3903L104.676 26.4808L104.808 26.1403H104.443V26.3903ZM103.115 28.1503L103.265 28.3503L103.266 28.3499L103.115 28.1503ZM97.9951 24.0543L97.7487 24.012L97.6985 24.3043H97.9951V24.0543ZM103.435 24.0543V24.3043H103.727L103.682 24.0157L103.435 24.0543ZM102.571 22.3423L102.746 22.1635L102.746 22.1635L102.571 22.3423ZM98.8591 22.3423L98.6844 22.1635L98.6823 22.1656L98.8591 22.3423ZM100.795 28.5723C100.023 28.5723 99.3591 28.4 98.7952 28.0636L98.5391 28.493C99.1911 28.882 99.946 29.0723 100.795 29.0723V28.5723ZM98.7979 28.0653C98.2274 27.715 97.7834 27.2461 97.4629 26.6551L97.0234 26.8935C97.3855 27.5613 97.8908 28.095 98.5363 28.4914L98.7979 28.0653ZM97.4644 26.6581C97.1538 26.0669 96.9971 25.4139 96.9971 24.6943H96.4971C96.4971 25.4895 96.6711 26.2231 97.0218 26.8906L97.4644 26.6581ZM96.9971 24.6943C96.9971 23.9621 97.1494 23.3088 97.4492 22.7292L97.0051 22.4995C96.6649 23.1572 96.4971 23.8905 96.4971 24.6943H96.9971ZM97.45 22.7276C97.7491 22.1393 98.1757 21.6783 98.7329 21.34L98.4734 20.9126C97.8358 21.2997 97.3451 21.8307 97.0043 22.501L97.45 22.7276ZM98.7356 21.3383C99.2875 20.9934 99.9441 20.8163 100.715 20.8163V20.3163C99.8648 20.3163 99.1134 20.5126 98.4706 20.9143L98.7356 21.3383ZM100.715 20.8163C101.498 20.8163 102.153 20.9938 102.693 21.3373L102.961 20.9154C102.328 20.5122 101.575 20.3163 100.715 20.3163V20.8163ZM102.697 21.34C103.255 21.6783 103.681 22.1393 103.98 22.7276L104.426 22.501C104.085 21.8307 103.594 21.2997 102.957 20.9126L102.697 21.34ZM103.981 22.7292C104.281 23.3088 104.433 23.9621 104.433 24.6943H104.933C104.933 23.8905 104.765 23.1572 104.425 22.4995L103.981 22.7292ZM104.433 24.6943V25.1743H104.933V24.6943H104.433ZM104.683 24.9243H97.9791V25.4243H104.683V24.9243ZM97.7314 25.2081C97.7998 25.7096 97.9599 26.1737 98.2122 26.5981L98.642 26.3426C98.425 25.9776 98.2864 25.5778 98.2268 25.1406L97.7314 25.2081ZM98.2165 26.6049C98.4839 27.0236 98.8389 27.3606 99.2779 27.6147L99.5284 27.182C99.1567 26.9668 98.861 26.6851 98.6378 26.3357L98.2165 26.6049ZM99.2822 27.6171C99.7298 27.8645 100.242 27.9843 100.811 27.9843V27.4843C100.314 27.4843 99.8871 27.3801 99.524 27.1795L99.2822 27.6171ZM100.811 27.9843C101.413 27.9843 101.937 27.8536 102.37 27.577L102.101 27.1557C101.765 27.3698 101.34 27.4843 100.811 27.4843V27.9843ZM102.374 27.5743C102.791 27.2964 103.118 26.9408 103.351 26.5092L102.911 26.2715C102.718 26.6292 102.448 26.9243 102.096 27.1583L102.374 27.5743ZM103.131 26.6403H104.443V26.1403H103.131V26.6403ZM104.21 26.2999C103.949 26.9715 103.535 27.5203 102.965 27.9508L103.266 28.3499C103.911 27.8631 104.382 27.2385 104.676 26.4808L104.21 26.2999ZM102.965 27.9503C102.422 28.358 101.705 28.5723 100.795 28.5723V29.0723C101.784 29.0723 102.614 28.8387 103.265 28.3503L102.965 27.9503ZM97.9951 24.3043H103.435V23.8043H97.9951V24.3043ZM103.682 24.0157C103.568 23.2828 103.256 22.662 102.746 22.1635L102.396 22.5211C102.825 22.94 103.089 23.4606 103.188 24.0929L103.682 24.0157ZM102.746 22.1635C102.222 21.6515 101.536 21.4043 100.715 21.4043V21.9043C101.43 21.9043 101.982 22.1158 102.396 22.5211L102.746 22.1635ZM100.715 21.4043C99.8938 21.4043 99.2083 21.6515 98.6844 22.1635L99.0339 22.5211C99.4486 22.1158 100 21.9043 100.715 21.9043V21.4043ZM98.6823 22.1656C98.1846 22.6633 97.8742 23.282 97.7487 24.012L98.2415 24.0967C98.3507 23.4613 98.6163 22.9387 99.0359 22.5191L98.6823 22.1656ZM106.149 28.6943H105.899V28.9443H106.149V28.6943ZM106.149 20.6943V20.4443H105.899V20.6943H106.149ZM107.349 20.6943H107.599V20.4443H107.349V20.6943ZM107.349 22.6623H107.099L107.588 22.7359L107.349 22.6623ZM107.589 22.1183L107.37 21.9986L107.368 22.0023L107.589 22.1183ZM108.133 21.4143L108.31 21.5911L108.31 21.5911L108.133 21.4143ZM109.013 20.8223L109.117 21.0499L109.12 21.0485L109.013 20.8223ZM110.373 20.5663H110.623V20.3163H110.373V20.5663ZM110.373 21.7663V22.0163H110.623V21.7663H110.373ZM108.677 22.2623L108.827 22.4623L108.828 22.4618L108.677 22.2623ZM107.685 23.5263L107.457 23.4239L107.456 23.4261L107.685 23.5263ZM107.349 28.6943V28.9443H107.599V28.6943H107.349ZM106.399 28.6943V20.6943H105.899V28.6943H106.399ZM106.149 20.9443H107.349V20.4443H106.149V20.9443ZM107.099 20.6943V22.6623H107.599V20.6943H107.099ZM107.588 22.7359C107.624 22.6188 107.696 22.4532 107.811 22.2343L107.368 22.0023C107.248 22.2315 107.16 22.4286 107.11 22.5888L107.588 22.7359ZM107.809 22.238C107.923 22.0287 108.088 21.8128 108.31 21.5911L107.957 21.2376C107.709 21.4852 107.512 21.7387 107.37 21.9986L107.809 22.238ZM108.31 21.5911C108.52 21.3808 108.788 21.1995 109.117 21.0499L108.91 20.5947C108.535 20.7651 108.216 20.9785 107.957 21.2376L108.31 21.5911ZM109.12 21.0485C109.443 20.8967 109.831 20.8163 110.293 20.8163V20.3163C109.774 20.3163 109.31 20.4067 108.907 20.5961L109.12 21.0485ZM110.293 20.8163H110.373V20.3163H110.293V20.8163ZM110.123 20.5663V21.7663H110.623V20.5663H110.123ZM110.373 21.5163H110.229V22.0163H110.373V21.5163ZM110.229 21.5163C109.583 21.5163 109.011 21.6964 108.527 22.0629L108.828 22.4618C109.218 22.1669 109.681 22.0163 110.229 22.0163V21.5163ZM108.527 22.0623C108.064 22.4096 107.708 22.8656 107.457 23.4239L107.913 23.6287C108.132 23.1417 108.437 22.7551 108.827 22.4623L108.527 22.0623ZM107.456 23.4261C107.218 23.9713 107.099 24.5549 107.099 25.1743H107.599C107.599 24.6204 107.705 24.1054 107.914 23.6265L107.456 23.4261ZM107.099 25.1743V28.6943H107.599V25.1743H107.099ZM107.349 28.4443H106.149V28.9443H107.349V28.4443ZM112.705 28.4543L112.595 28.6789L112.597 28.6798L112.705 28.4543ZM111.553 27.4943L111.344 27.6318L111.346 27.6343L111.553 27.4943ZM111.105 26.1823V25.9323H110.837L110.856 26.1993L111.105 26.1823ZM112.353 26.1823L112.601 26.1525L112.575 25.9323H112.353V26.1823ZM112.625 26.9663L112.409 27.0925L112.416 27.1029L112.625 26.9663ZM113.345 27.5743L113.233 27.798L113.239 27.8009L113.345 27.5743ZM115.185 27.7503L115.219 27.998L115.185 27.7503ZM115.857 27.5743L115.768 27.3407L115.764 27.3422L115.857 27.5743ZM116.257 25.7663L116.402 25.5623L116.402 25.5623L116.257 25.7663ZM115.265 25.3503L115.201 25.5922L115.207 25.5936L115.265 25.3503ZM113.969 25.0463L113.917 25.2908L113.918 25.291L113.969 25.0463ZM112.689 24.6783L112.597 24.9109L112.603 24.9129L112.689 24.6783ZM111.697 24.0223L111.51 24.1885L111.513 24.1919L111.697 24.0223ZM112.097 21.1743L112.248 21.3738L112.248 21.3734L112.097 21.1743ZM116.161 20.9023L116.047 21.1249L116.054 21.1281L116.161 20.9023ZM117.169 21.7343L116.96 21.8715L116.963 21.876L117.169 21.7343ZM117.585 22.8383V23.0883H117.863L117.834 22.8115L117.585 22.8383ZM116.369 22.8383L116.121 22.8693L116.148 23.0883H116.369V22.8383ZM115.857 21.9583L115.695 22.1487L115.698 22.1515L115.857 21.9583ZM112.897 23.4783L112.758 23.6863L112.758 23.6863L112.897 23.4783ZM113.889 23.8943L113.825 24.1362L113.831 24.1376L113.889 23.8943ZM115.169 24.1823L115.117 24.4269L115.123 24.4281L115.169 24.1823ZM116.465 24.5503L116.373 24.7829L116.373 24.7829L116.465 24.5503ZM117.457 25.2383L117.267 25.4011L117.27 25.4044L117.457 25.2383ZM116.945 28.2143L117.087 28.42L117.088 28.4195L116.945 28.2143ZM114.577 28.5723C113.868 28.5723 113.283 28.454 112.813 28.2289L112.597 28.6798C113.151 28.9453 113.814 29.0723 114.577 29.0723V28.5723ZM112.815 28.2298C112.346 28.0003 111.998 27.707 111.76 27.3544L111.346 27.6343C111.641 28.071 112.061 28.4177 112.595 28.6789L112.815 28.2298ZM111.762 27.3569C111.518 26.9864 111.383 26.5903 111.354 26.1653L110.856 26.1993C110.891 26.713 111.055 27.1916 111.344 27.6317L111.762 27.3569ZM111.105 26.4323H112.353V25.9323H111.105V26.4323ZM112.105 26.2121C112.141 26.5161 112.244 26.8099 112.409 27.0923L112.841 26.8404C112.707 26.6108 112.629 26.3819 112.601 26.1525L112.105 26.2121ZM112.416 27.1029C112.605 27.3928 112.882 27.6225 113.233 27.7979L113.457 27.3507C113.168 27.2062 112.965 27.0305 112.834 26.8298L112.416 27.1029ZM113.239 27.8009C113.604 27.971 114.06 28.0483 114.593 28.0483V27.5483C114.102 27.5483 113.726 27.4763 113.451 27.3478L113.239 27.8009ZM114.593 28.0483C114.768 28.0483 114.978 28.0309 115.219 27.998L115.151 27.5026C114.923 27.5338 114.738 27.5483 114.593 27.5483V28.0483ZM115.219 27.998C115.473 27.9634 115.717 27.8996 115.95 27.8065L115.764 27.3422C115.57 27.4197 115.366 27.4733 115.151 27.5026L115.219 27.998ZM115.946 27.808C116.206 27.7089 116.427 27.5581 116.605 27.355L116.229 27.0257C116.108 27.1639 115.956 27.2691 115.768 27.3407L115.946 27.808ZM116.605 27.355C116.801 27.1309 116.891 26.8503 116.891 26.5343H116.391C116.391 26.7517 116.331 26.9084 116.229 27.0257L116.605 27.355ZM116.891 26.5343C116.891 26.1278 116.728 25.7934 116.402 25.5623L116.112 25.9703C116.298 26.1019 116.391 26.2796 116.391 26.5343H116.891ZM116.402 25.5623C116.112 25.3575 115.749 25.2082 115.323 25.1071L115.207 25.5936C115.591 25.6845 115.89 25.8125 116.112 25.9703L116.402 25.5623ZM115.329 25.1086C114.919 25.0007 114.483 24.8984 114.02 24.8016L113.918 25.291C114.373 25.3863 114.801 25.4866 115.201 25.5921L115.329 25.1086ZM114.021 24.8019C113.584 24.7082 113.169 24.5888 112.775 24.4437L112.603 24.9129C113.02 25.0666 113.458 25.1925 113.917 25.2908L114.021 24.8019ZM112.781 24.4458C112.405 24.2975 112.108 24.0985 111.881 23.8528L111.513 24.1919C111.798 24.5008 112.162 24.7392 112.597 24.9109L112.781 24.4458ZM111.884 23.8562C111.679 23.6254 111.563 23.301 111.563 22.8543H111.063C111.063 23.389 111.203 23.8432 111.51 24.1884L111.884 23.8562ZM111.563 22.8543C111.563 22.1977 111.795 21.7157 112.248 21.3738L111.946 20.9748C111.354 21.4223 111.063 22.0603 111.063 22.8543H111.563ZM112.248 21.3734C112.72 21.0148 113.441 20.8163 114.449 20.8163V20.3163C113.388 20.3163 112.541 20.5232 111.946 20.9753L112.248 21.3734ZM114.449 20.8163C115.129 20.8163 115.657 20.925 116.047 21.1248L116.275 20.6798C115.79 20.4317 115.177 20.3163 114.449 20.3163V20.8163ZM116.054 21.1281C116.469 21.326 116.766 21.5759 116.96 21.8715L117.378 21.5972C117.124 21.2101 116.749 20.9054 116.268 20.6766L116.054 21.1281ZM116.963 21.876C117.175 22.1847 117.298 22.5135 117.336 22.8652L117.834 22.8115C117.786 22.3738 117.632 21.9666 117.375 21.5927L116.963 21.876ZM117.585 22.5883H116.369V23.0883H117.585V22.5883ZM116.617 22.8073C116.565 22.3945 116.357 22.0457 116.016 21.7652L115.698 22.1515C115.954 22.3617 116.087 22.5995 116.121 22.8693L116.617 22.8073ZM116.019 21.768C115.662 21.4639 115.107 21.3403 114.417 21.3403V21.8403C115.071 21.8403 115.476 21.9621 115.695 22.1486L116.019 21.768ZM114.417 21.3403C113.765 21.3403 113.235 21.4375 112.86 21.6644C112.464 21.9036 112.263 22.2746 112.263 22.7423H112.763C112.763 22.442 112.879 22.237 113.118 22.0922C113.378 21.9352 113.799 21.8403 114.417 21.8403V21.3403ZM112.263 22.7423C112.263 23.1419 112.43 23.4671 112.758 23.6863L113.036 23.2703C112.852 23.1482 112.763 22.9828 112.763 22.7423H112.263ZM112.758 23.6863C113.044 23.8768 113.402 24.0248 113.825 24.1361L113.953 23.6526C113.565 23.5506 113.262 23.4212 113.036 23.2703L112.758 23.6863ZM113.831 24.1376C114.239 24.2341 114.667 24.3304 115.117 24.4268L115.221 23.9379C114.775 23.8422 114.35 23.7466 113.947 23.6511L113.831 24.1376ZM115.123 24.4281C115.567 24.5107 115.984 24.6292 116.373 24.7829L116.557 24.3178C116.136 24.1515 115.688 24.0246 115.215 23.9366L115.123 24.4281ZM116.373 24.7829C116.745 24.9296 117.04 25.1365 117.267 25.401L117.647 25.0756C117.362 24.7428 116.996 24.4911 116.557 24.3178L116.373 24.7829ZM117.27 25.4044C117.474 25.6343 117.591 25.9634 117.591 26.4223H118.091C118.091 25.8786 117.952 25.4184 117.644 25.0722L117.27 25.4044ZM117.591 26.4223C117.591 27.1259 117.327 27.6436 116.802 28.0092L117.088 28.4195C117.758 27.953 118.091 27.2761 118.091 26.4223H117.591ZM116.803 28.0087C116.271 28.3758 115.537 28.5723 114.577 28.5723V29.0723C115.601 29.0723 116.445 28.8635 117.087 28.42L116.803 28.0087ZM119.384 28.6943H119.134V28.9443H119.384V28.6943ZM119.384 17.4943V17.2443H119.134V17.4943H119.384ZM120.584 17.4943H120.834V17.2443H120.584V17.4943ZM120.584 21.9423H120.334V22.6923L120.784 22.0923L120.584 21.9423ZM121.64 20.9663L121.775 21.1768L121.775 21.1768L121.64 20.9663ZM124.792 20.9663L124.67 21.185L124.676 21.188L124.792 20.9663ZM125.976 22.1343L125.759 22.2584L125.762 22.2636L125.976 22.1343ZM126.44 28.6943V28.9443H126.69V28.6943H126.44ZM125.24 28.6943H124.99V28.9443H125.24V28.6943ZM124.616 22.3263L124.433 22.4965L124.435 22.4986L124.616 22.3263ZM121.784 21.9583L121.662 21.7401L121.662 21.7401L121.784 21.9583ZM120.904 22.8223L120.689 22.6937L120.688 22.6956L120.904 22.8223ZM120.584 28.6943V28.9443H120.834V28.6943H120.584ZM119.634 28.6943V17.4943H119.134V28.6943H119.634ZM119.384 17.7443H120.584V17.2443H119.384V17.7443ZM120.334 17.4943V21.9423H120.834V17.4943H120.334ZM120.784 22.0923C121.053 21.7329 121.383 21.4278 121.775 21.1768L121.505 20.7559C121.064 21.0382 120.69 21.3838 120.384 21.7923L120.784 22.0923ZM121.775 21.1768C122.139 20.9429 122.622 20.8163 123.24 20.8163V20.3163C122.556 20.3163 121.972 20.4564 121.505 20.7559L121.775 21.1768ZM123.24 20.8163C123.752 20.8163 124.228 20.9391 124.67 21.1849L124.913 20.7478C124.396 20.4603 123.836 20.3163 123.24 20.3163V20.8163ZM124.676 21.188C125.121 21.4199 125.482 21.7735 125.759 22.2584L126.193 22.0103C125.873 21.4499 125.444 21.0248 124.907 20.7447L124.676 21.188ZM125.762 22.2636C126.042 22.7275 126.19 23.3146 126.19 24.0383H126.69C126.69 23.2474 126.528 22.5652 126.19 22.0051L125.762 22.2636ZM126.19 24.0383V28.6943H126.69V24.0383H126.19ZM126.44 28.4443H125.24V28.9443H126.44V28.4443ZM125.49 28.6943V24.0703H124.99V28.6943H125.49ZM125.49 24.0703C125.49 23.2946 125.266 22.6469 124.797 22.154L124.435 22.4986C124.798 22.8804 124.99 23.3954 124.99 24.0703H125.49ZM124.799 22.1562C124.331 21.6528 123.724 21.4043 123 21.4043V21.9043C123.598 21.9043 124.068 22.1039 124.433 22.4964L124.799 22.1562ZM123 21.4043C122.512 21.4043 122.065 21.515 121.662 21.7401L121.906 22.1766C122.228 21.9964 122.591 21.9043 123 21.9043V21.4043ZM121.662 21.7401C121.259 21.9651 120.935 22.2848 120.689 22.6937L121.118 22.951C121.321 22.6132 121.583 22.3569 121.906 22.1766L121.662 21.7401ZM120.688 22.6956C120.449 23.1018 120.334 23.5682 120.334 24.0863H120.834C120.834 23.6445 120.932 23.2682 121.119 22.9491L120.688 22.6956ZM120.334 24.0863V28.6943H120.834V24.0863H120.334ZM120.584 28.4443H119.384V28.9443H120.584V28.4443ZM128.398 19.3503H128.148V19.6003H128.398V19.3503ZM128.398 17.7823V17.5323H128.148V17.7823H128.398ZM129.694 17.7823H129.944V17.5323H129.694V17.7823ZM129.694 19.3503V19.6003H129.944V19.3503H129.694ZM128.446 28.6943H128.196V28.9443H128.446V28.6943ZM128.446 20.6943V20.4443H128.196V20.6943H128.446ZM129.646 20.6943H129.896V20.4443H129.646V20.6943ZM129.646 28.6943V28.9443H129.896V28.6943H129.646ZM128.648 19.3503V17.7823H128.148V19.3503H128.648ZM128.398 18.0323H129.694V17.5323H128.398V18.0323ZM129.444 17.7823V19.3503H129.944V17.7823H129.444ZM129.694 19.1003H128.398V19.6003H129.694V19.1003ZM128.696 28.6943V20.6943H128.196V28.6943H128.696ZM128.446 20.9443H129.646V20.4443H128.446V20.9443ZM129.396 20.6943V28.6943H129.896V20.6943H129.396ZM129.646 28.4443H128.446V28.9443H129.646V28.4443ZM131.728 31.8623H131.478V32.1123H131.728V31.8623ZM131.728 20.6943V20.4443H131.478V20.6943H131.728ZM132.928 20.6943H133.178V20.4443H132.928V20.6943ZM132.928 21.9743H132.678V22.7837L133.134 22.1153L132.928 21.9743ZM134.08 20.9503L134.195 21.1719L134.197 21.1709L134.08 20.9503ZM137.824 21.1263L137.687 21.3362L137.692 21.339L137.824 21.1263ZM139.184 22.6143L138.961 22.7276L138.961 22.7292L139.184 22.6143ZM139.184 26.7743L138.961 26.661L138.961 26.661L139.184 26.7743ZM137.824 28.2783L137.957 28.4899L137.958 28.4893L137.824 28.2783ZM134.08 28.4383L133.956 28.6558L133.962 28.6589L134.08 28.4383ZM132.928 27.3983L133.132 27.255L132.678 26.6052V27.3983H132.928ZM132.928 31.8623V32.1123H133.178V31.8623H132.928ZM137.152 27.3183L137.015 27.1087L137.013 27.1103L137.152 27.3183ZM138.128 26.2143L138.352 26.324L138.353 26.322L138.128 26.2143ZM138.128 23.1743L138.352 23.0646L138.352 23.0646L138.128 23.1743ZM137.152 22.0703L137.013 22.2784L137.015 22.2799L137.152 22.0703ZM134.128 22.0703L133.989 21.8623L133.989 21.8623L134.128 22.0703ZM133.184 23.1743L132.957 23.0689L132.957 23.0689L133.184 23.1743ZM133.184 26.2143L132.956 26.3178L132.957 26.3198L133.184 26.2143ZM134.128 27.3183L133.989 27.5263L133.989 27.5263L134.128 27.3183ZM131.978 31.8623V20.6943H131.478V31.8623H131.978ZM131.728 20.9443H132.928V20.4443H131.728V20.9443ZM132.678 20.6943V21.9743H133.178V20.6943H132.678ZM133.134 22.1153C133.409 21.7119 133.762 21.3982 134.195 21.1719L133.964 20.7288C133.458 20.9931 133.043 21.3621 132.721 21.8333L133.134 22.1153ZM134.197 21.1709C134.634 20.938 135.162 20.8163 135.792 20.8163V20.3163C135.098 20.3163 134.485 20.4507 133.962 20.7297L134.197 21.1709ZM135.792 20.8163C136.529 20.8163 137.157 20.9924 137.688 21.3361L137.959 20.9165C137.338 20.5136 136.612 20.3163 135.792 20.3163V20.8163ZM137.692 21.339C138.239 21.677 138.661 22.1382 138.961 22.7276L139.406 22.501C139.066 21.8318 138.582 21.3011 137.955 20.9137L137.692 21.339ZM138.961 22.7292C139.261 23.3088 139.414 23.9621 139.414 24.6943H139.914C139.914 23.8905 139.746 23.1572 139.406 22.4995L138.961 22.7292ZM139.414 24.6943C139.414 25.4152 139.262 26.0693 138.961 26.661L139.406 26.8876C139.745 26.2207 139.914 25.4881 139.914 24.6943H139.414ZM138.961 26.661C138.661 27.2511 138.238 27.7185 137.689 28.0674L137.958 28.4893C138.583 28.0915 139.066 27.5562 139.406 26.8876L138.961 26.661ZM137.69 28.0668C137.16 28.4009 136.53 28.5723 135.792 28.5723V29.0723C136.61 29.0723 137.335 28.8811 137.957 28.4899L137.69 28.0668ZM135.792 28.5723C135.162 28.5723 134.634 28.4507 134.197 28.2177L133.962 28.6589C134.485 28.938 135.098 29.0723 135.792 29.0723V28.5723ZM134.203 28.221C133.765 27.9719 133.409 27.6501 133.132 27.255L132.723 27.5417C133.043 27.9999 133.456 28.3714 133.956 28.6557L134.203 28.221ZM132.678 27.3983V31.8623H133.178V27.3983H132.678ZM132.928 31.6123H131.728V32.1123H132.928V31.6123ZM135.632 27.9843C136.268 27.9843 136.826 27.836 137.29 27.5263L137.013 27.1103C136.645 27.3553 136.189 27.4843 135.632 27.4843V27.9843ZM137.288 27.5279C137.753 27.2259 138.108 26.8233 138.352 26.324L137.903 26.1046C137.699 26.5227 137.404 26.8562 137.015 27.1087L137.288 27.5279ZM138.353 26.322C138.594 25.8175 138.714 25.2738 138.714 24.6943H138.214C138.214 25.2028 138.109 25.6725 137.902 26.1067L138.353 26.322ZM138.714 24.6943C138.714 24.105 138.594 23.5603 138.352 23.0646L137.903 23.284C138.109 23.7057 138.214 24.1743 138.214 24.6943H138.714ZM138.352 23.0646C138.108 22.5654 137.753 22.1628 137.288 21.8607L137.015 22.2799C137.404 22.5325 137.699 22.8659 137.903 23.284L138.352 23.0646ZM137.29 21.8623C136.826 21.5527 136.268 21.4043 135.632 21.4043V21.9043C136.189 21.9043 136.645 22.0334 137.013 22.2783L137.29 21.8623ZM135.632 21.4043C135.004 21.4043 134.453 21.5531 133.989 21.8623L134.266 22.2783C134.634 22.0329 135.085 21.9043 135.632 21.9043V21.4043ZM133.989 21.8623C133.534 22.1654 133.189 22.5691 132.957 23.0689L133.41 23.2798C133.604 22.8622 133.889 22.5299 134.266 22.2783L133.989 21.8623ZM132.957 23.0689C132.727 23.5637 132.614 24.1068 132.614 24.6943H133.114C133.114 24.1725 133.214 23.7023 133.41 23.2798L132.957 23.0689ZM132.614 24.6943C132.614 25.272 132.727 25.8142 132.956 26.3178L133.411 26.1109C133.213 25.6758 133.114 25.2047 133.114 24.6943H132.614ZM132.957 26.3198C133.189 26.8195 133.534 27.2232 133.989 27.5263L134.266 27.1103C133.889 26.8588 133.604 26.5265 133.41 26.1089L132.957 26.3198ZM133.989 27.5263C134.453 27.8355 135.004 27.9843 135.632 27.9843V27.4843C135.085 27.4843 134.634 27.3558 134.266 27.1103L133.989 27.5263Z" fill="white"/>
</svg>
