<svg width="168" height="48" viewBox="0 0 168 48" fill="none" xmlns="http://www.w3.org/2000/svg">
<rect x="0.5" y="0.5" width="167" height="47" stroke="black"/>
<path d="M57.296 29V18.408H65.088V19.56H58.496V23.112H64.384V24.28H58.496V27.848H65.088V29H57.296ZM65.7984 29L68.8864 24.872L65.9904 21H67.5264L69.5904 24.024L71.6384 21H73.1744L70.2784 24.872L73.3824 29H71.8464L69.5904 25.736L67.3184 29H65.7984ZM74.4931 32.168V21H75.6931V22.28C75.9918 21.8427 76.3758 21.5013 76.8451 21.256C77.3251 21 77.8958 20.872 78.5571 20.872C79.3358 20.872 80.0131 21.0587 80.5891 21.432C81.1758 21.7947 81.6291 22.2907 81.9491 22.92C82.2691 23.5387 82.4291 24.232 82.4291 25C82.4291 25.7573 82.2691 26.4507 81.9491 27.08C81.6291 27.7093 81.1758 28.2107 80.5891 28.584C80.0131 28.9467 79.3358 29.128 78.5571 29.128C77.8958 29.128 77.3251 29 76.8451 28.744C76.3758 28.4773 75.9918 28.1307 75.6931 27.704V32.168H74.4931ZM78.3971 28.04C78.9945 28.04 79.5011 27.9013 79.9171 27.624C80.3438 27.3467 80.6691 26.9787 80.8931 26.52C81.1171 26.0507 81.2291 25.544 81.2291 25C81.2291 24.4453 81.1171 23.9387 80.8931 23.48C80.6691 23.0213 80.3438 22.6533 79.9171 22.376C79.5011 22.0987 78.9945 21.96 78.3971 21.96C77.8105 21.96 77.3091 22.0987 76.8931 22.376C76.4771 22.6533 76.1625 23.0213 75.9491 23.48C75.7358 23.9387 75.6291 24.4453 75.6291 25C75.6291 25.544 75.7358 26.0507 75.9491 26.52C76.1625 26.9787 76.4771 27.3467 76.8931 27.624C77.3091 27.9013 77.8105 28.04 78.3971 28.04ZM84.0088 29V17.8H85.2088V29H84.0088ZM90.762 29.128C89.9513 29.128 89.2473 28.9467 88.65 28.584C88.0527 28.2107 87.594 27.7093 87.274 27.08C86.954 26.4507 86.794 25.7573 86.794 25C86.794 24.232 86.954 23.5387 87.274 22.92C87.594 22.2907 88.0527 21.7947 88.65 21.432C89.2473 21.0587 89.9513 20.872 90.762 20.872C91.5833 20.872 92.2873 21.0587 92.874 21.432C93.4713 21.7947 93.93 22.2907 94.25 22.92C94.57 23.5387 94.73 24.232 94.73 25C94.73 25.7573 94.57 26.4507 94.25 27.08C93.93 27.7093 93.4713 28.2107 92.874 28.584C92.2873 28.9467 91.5833 29.128 90.762 29.128ZM90.762 28.04C91.3593 28.04 91.8607 27.9013 92.266 27.624C92.682 27.3467 92.9967 26.9787 93.21 26.52C93.4233 26.0507 93.53 25.544 93.53 25C93.53 24.4453 93.4233 23.9387 93.21 23.48C92.9967 23.0213 92.682 22.6533 92.266 22.376C91.8607 22.0987 91.3593 21.96 90.762 21.96C90.1753 21.96 89.674 22.0987 89.258 22.376C88.842 22.6533 88.5273 23.0213 88.314 23.48C88.1007 23.9387 87.994 24.4453 87.994 25C87.994 25.544 88.1007 26.0507 88.314 26.52C88.5273 26.9787 88.842 27.3467 89.258 27.624C89.674 27.9013 90.1753 28.04 90.762 28.04ZM96.3213 29V21H97.5213V22.968C97.5639 22.8293 97.6439 22.648 97.7613 22.424C97.8893 22.1893 98.0706 21.9547 98.3053 21.72C98.5399 21.4853 98.8333 21.288 99.1853 21.128C99.5479 20.9573 99.9746 20.872 100.465 20.872H100.545V22.072H100.401C99.8039 22.072 99.2866 22.2373 98.8493 22.568C98.4226 22.888 98.0919 23.3093 97.8573 23.832C97.6333 24.344 97.5213 24.8933 97.5213 25.48V29H96.3213ZM105.186 29.128C104.375 29.128 103.666 28.9467 103.058 28.584C102.45 28.2107 101.975 27.7093 101.634 27.08C101.303 26.4507 101.138 25.7573 101.138 25C101.138 24.232 101.298 23.5387 101.618 22.92C101.938 22.2907 102.396 21.7947 102.994 21.432C103.591 21.0587 104.295 20.872 105.106 20.872C105.927 20.872 106.631 21.0587 107.218 21.432C107.815 21.7947 108.274 22.2907 108.594 22.92C108.914 23.5387 109.074 24.232 109.074 25V25.48H102.37C102.434 25.9493 102.583 26.3813 102.818 26.776C103.063 27.16 103.388 27.4693 103.794 27.704C104.199 27.928 104.668 28.04 105.202 28.04C105.767 28.04 106.242 27.9173 106.626 27.672C107.01 27.416 107.308 27.0907 107.522 26.696H108.834C108.556 27.4107 108.114 27.9973 107.506 28.456C106.908 28.904 106.135 29.128 105.186 29.128ZM102.386 24.36H107.826C107.719 23.6773 107.431 23.1067 106.962 22.648C106.492 22.1893 105.874 21.96 105.106 21.96C104.338 21.96 103.719 22.1893 103.25 22.648C102.791 23.1067 102.503 23.6773 102.386 24.36Z" fill="black"/>
<path d="M57.296 29H57.046V29.25H57.296V29ZM57.296 18.408V18.158H57.046V18.408H57.296ZM65.088 18.408H65.338V18.158H65.088V18.408ZM65.088 19.56V19.81H65.338V19.56H65.088ZM58.496 19.56V19.31H58.246V19.56H58.496ZM58.496 23.112H58.246V23.362H58.496V23.112ZM64.384 23.112H64.634V22.862H64.384V23.112ZM64.384 24.28V24.53H64.634V24.28H64.384ZM58.496 24.28V24.03H58.246V24.28H58.496ZM58.496 27.848H58.246V28.098H58.496V27.848ZM65.088 27.848H65.338V27.598H65.088V27.848ZM65.088 29V29.25H65.338V29H65.088ZM57.546 29V18.408H57.046V29H57.546ZM57.296 18.658H65.088V18.158H57.296V18.658ZM64.838 18.408V19.56H65.338V18.408H64.838ZM65.088 19.31H58.496V19.81H65.088V19.31ZM58.246 19.56V23.112H58.746V19.56H58.246ZM58.496 23.362H64.384V22.862H58.496V23.362ZM64.134 23.112V24.28H64.634V23.112H64.134ZM64.384 24.03H58.496V24.53H64.384V24.03ZM58.246 24.28V27.848H58.746V24.28H58.246ZM58.496 28.098H65.088V27.598H58.496V28.098ZM64.838 27.848V29H65.338V27.848H64.838ZM65.088 28.75H57.296V29.25H65.088V28.75ZM65.7984 29L65.5982 28.8502L65.2991 29.25H65.7984V29ZM68.8864 24.872L69.0866 25.0218L69.1986 24.872L69.0866 24.7223L68.8864 24.872ZM65.9904 21V20.75H65.4912L65.7902 21.1497L65.9904 21ZM67.5264 21L67.7329 20.8591L67.6584 20.75H67.5264V21ZM69.5904 24.024L69.3839 24.1649L69.5912 24.4686L69.7974 24.1642L69.5904 24.024ZM71.6384 21V20.75H71.5057L71.4314 20.8598L71.6384 21ZM73.1744 21L73.3746 21.1497L73.6735 20.75H73.1744V21ZM70.2784 24.872L70.0782 24.7223L69.9659 24.8724L70.0786 25.0222L70.2784 24.872ZM73.3824 29V29.25H73.8832L73.5822 28.8498L73.3824 29ZM71.8464 29L71.6407 29.1421L71.7153 29.25H71.8464V29ZM69.5904 25.736L69.796 25.5939L69.5911 25.2974L69.3852 25.5932L69.5904 25.736ZM67.3184 29V29.25H67.449L67.5236 29.1428L67.3184 29ZM65.9986 29.1498L69.0866 25.0218L68.6862 24.7222L65.5982 28.8502L65.9986 29.1498ZM69.0866 24.7223L66.1906 20.8503L65.7902 21.1497L68.6862 25.0217L69.0866 24.7223ZM65.9904 21.25H67.5264V20.75H65.9904V21.25ZM67.3199 21.1409L69.3839 24.1649L69.7969 23.8831L67.7329 20.8591L67.3199 21.1409ZM69.7974 24.1642L71.8454 21.1402L71.4314 20.8598L69.3834 23.8838L69.7974 24.1642ZM71.6384 21.25H73.1744V20.75H71.6384V21.25ZM72.9742 20.8503L70.0782 24.7223L70.4786 25.0217L73.3746 21.1497L72.9742 20.8503ZM70.0786 25.0222L73.1826 29.1502L73.5822 28.8498L70.4782 24.7218L70.0786 25.0222ZM73.3824 28.75H71.8464V29.25H73.3824V28.75ZM72.052 28.8579L69.796 25.5939L69.3847 25.8781L71.6407 29.1421L72.052 28.8579ZM69.3852 25.5932L67.1132 28.8572L67.5236 29.1428L69.7956 25.8788L69.3852 25.5932ZM67.3184 28.75H65.7984V29.25H67.3184V28.75ZM74.4931 32.168H74.2431V32.418H74.4931V32.168ZM74.4931 21V20.75H74.2431V21H74.4931ZM75.6931 21H75.9431V20.75H75.6931V21ZM75.6931 22.28H75.4431V23.0894L75.8996 22.421L75.6931 22.28ZM76.8451 21.256L76.9609 21.4776L76.9628 21.4766L76.8451 21.256ZM80.5891 21.432L80.4531 21.6418L80.4577 21.6446L80.5891 21.432ZM81.9491 22.92L81.7263 23.0333L81.7271 23.0349L81.9491 22.92ZM81.9491 27.08L81.7263 26.9667L81.7263 26.9667L81.9491 27.08ZM80.5891 28.584L80.7223 28.7956L80.7233 28.7949L80.5891 28.584ZM76.8451 28.744L76.7216 28.9614L76.7275 28.9646L76.8451 28.744ZM75.6931 27.704L75.8979 27.5606L75.4431 26.9109V27.704H75.6931ZM75.6931 32.168V32.418H75.9431V32.168H75.6931ZM79.9171 27.624L79.7809 27.4144L79.7785 27.416L79.9171 27.624ZM80.8931 26.52L81.1178 26.6297L81.1187 26.6277L80.8931 26.52ZM80.8931 23.48L81.1178 23.3703L81.1178 23.3703L80.8931 23.48ZM79.9171 22.376L79.7784 22.584L79.7809 22.5856L79.9171 22.376ZM76.8931 22.376L76.7545 22.168L76.7544 22.168L76.8931 22.376ZM75.9491 23.48L75.7224 23.3746L75.7224 23.3746L75.9491 23.48ZM75.9491 26.52L75.7215 26.6235L75.7224 26.6254L75.9491 26.52ZM76.8931 27.624L76.7544 27.832L76.7545 27.832L76.8931 27.624ZM74.7431 32.168V21H74.2431V32.168H74.7431ZM74.4931 21.25H75.6931V20.75H74.4931V21.25ZM75.4431 21V22.28H75.9431V21H75.4431ZM75.8996 22.421C76.1751 22.0175 76.528 21.7039 76.9609 21.4776L76.7293 21.0344C76.2236 21.2988 75.8085 21.6678 75.4867 22.139L75.8996 22.421ZM76.9628 21.4766C77.3995 21.2436 77.9281 21.122 78.5571 21.122V20.622C77.8635 20.622 77.2507 20.7564 76.7275 21.0354L76.9628 21.4766ZM78.5571 21.122C79.2942 21.122 79.9229 21.2981 80.4532 21.6418L80.7251 21.2222C80.1033 20.8192 79.3774 20.622 78.5571 20.622V21.122ZM80.4577 21.6446C81.0044 21.9826 81.4265 22.4438 81.7263 23.0333L82.172 22.8067C81.8317 22.1375 81.3472 21.6067 80.7206 21.2194L80.4577 21.6446ZM81.7271 23.0349C82.0269 23.6145 82.1791 24.2678 82.1791 25H82.6791C82.6791 24.1962 82.5114 23.4628 82.1712 22.8051L81.7271 23.0349ZM82.1791 25C82.1791 25.7209 82.0271 26.375 81.7263 26.9667L82.172 27.1933C82.5111 26.5264 82.6791 25.7938 82.6791 25H82.1791ZM81.7263 26.9667C81.4262 27.5568 81.0032 28.0242 80.4549 28.3731L80.7233 28.7949C81.3484 28.3972 81.832 27.8619 82.172 27.1933L81.7263 26.9667ZM80.4559 28.3724C79.9253 28.7065 79.2956 28.878 78.5571 28.878V29.378C79.376 29.378 80.1009 29.1868 80.7223 28.7956L80.4559 28.3724ZM78.5571 28.878C77.9281 28.878 77.3995 28.7564 76.9628 28.5234L76.7275 28.9646C77.2507 29.2436 77.8635 29.378 78.5571 29.378V28.878ZM76.9686 28.5266C76.5303 28.2776 76.1745 27.9558 75.8979 27.5606L75.4883 27.8474C75.809 28.3055 76.2212 28.6771 76.7216 28.9614L76.9686 28.5266ZM75.4431 27.704V32.168H75.9431V27.704H75.4431ZM75.6931 31.918H74.4931V32.418H75.6931V31.918ZM78.3971 28.29C79.034 28.29 79.5913 28.1417 80.0558 27.832L79.7785 27.416C79.411 27.661 78.9549 27.79 78.3971 27.79V28.29ZM80.0534 27.8336C80.5181 27.5315 80.874 27.1289 81.1178 26.6297L80.6685 26.4103C80.4643 26.8284 80.1695 27.1618 79.7809 27.4144L80.0534 27.8336ZM81.1187 26.6277C81.3595 26.1232 81.4791 25.5795 81.4791 25H80.9791C80.9791 25.5085 80.8747 25.9782 80.6675 26.4123L81.1187 26.6277ZM81.4791 25C81.4791 24.4107 81.3599 23.866 81.1178 23.3703L80.6685 23.5897C80.8744 24.0113 80.9791 24.48 80.9791 25H81.4791ZM81.1178 23.3703C80.874 22.8711 80.5181 22.4685 80.0534 22.1664L79.7809 22.5856C80.1695 22.8382 80.4643 23.1716 80.6685 23.5897L81.1178 23.3703ZM80.0558 22.168C79.5913 21.8583 79.034 21.71 78.3971 21.71V22.21C78.9549 22.21 79.411 22.339 79.7785 22.584L80.0558 22.168ZM78.3971 21.71C77.7698 21.71 77.2182 21.8588 76.7545 22.168L77.0318 22.584C77.4 22.3385 77.8511 22.21 78.3971 22.21V21.71ZM76.7544 22.168C76.2998 22.4711 75.9549 22.8748 75.7224 23.3746L76.1758 23.5854C76.37 23.1679 76.6545 22.8356 77.0318 22.584L76.7544 22.168ZM75.7224 23.3746C75.4923 23.8693 75.3791 24.4125 75.3791 25H75.8791C75.8791 24.4782 75.9793 24.008 76.1758 23.5854L75.7224 23.3746ZM75.3791 25C75.3791 25.5777 75.4926 26.1198 75.7215 26.6235L76.1767 26.4165C75.979 25.9815 75.8791 25.5103 75.8791 25H75.3791ZM75.7224 26.6254C75.9549 27.1252 76.2998 27.5289 76.7544 27.832L77.0318 27.416C76.6545 27.1644 76.37 26.8321 76.1758 26.4146L75.7224 26.6254ZM76.7545 27.832C77.2182 28.1412 77.7698 28.29 78.3971 28.29V27.79C77.8511 27.79 77.4 27.6615 77.0318 27.416L76.7545 27.832ZM84.0088 29H83.7588V29.25H84.0088V29ZM84.0088 17.8V17.55H83.7588V17.8H84.0088ZM85.2088 17.8H85.4588V17.55H85.2088V17.8ZM85.2088 29V29.25H85.4588V29H85.2088ZM84.2588 29V17.8H83.7588V29H84.2588ZM84.0088 18.05H85.2088V17.55H84.0088V18.05ZM84.9588 17.8V29H85.4588V17.8H84.9588ZM85.2088 28.75H84.0088V29.25H85.2088V28.75ZM88.65 28.584L88.5175 28.796L88.5203 28.7977L88.65 28.584ZM87.274 22.92L87.4961 23.0349L87.4968 23.0333L87.274 22.92ZM88.65 21.432L88.7798 21.6457L88.7825 21.644L88.65 21.432ZM92.874 21.432L92.7398 21.643L92.7443 21.6457L92.874 21.432ZM94.25 22.92L94.0271 23.0333L94.0279 23.0349L94.25 22.92ZM94.25 27.08L94.0272 26.9667L94.0272 26.9667L94.25 27.08ZM92.874 28.584L93.0055 28.7967L93.0065 28.796L92.874 28.584ZM92.266 27.624L92.1273 27.416L92.1248 27.4177L92.266 27.624ZM93.21 26.52L93.4367 26.6254L93.4376 26.6235L93.21 26.52ZM93.21 23.48L93.4367 23.3746L93.4367 23.3746L93.21 23.48ZM92.266 22.376L92.1248 22.5823L92.1273 22.584L92.266 22.376ZM89.258 22.376L89.1193 22.168L89.1193 22.168L89.258 22.376ZM88.314 23.48L88.0873 23.3746L88.0873 23.3746L88.314 23.48ZM88.314 26.52L88.0864 26.6235L88.0873 26.6254L88.314 26.52ZM90.762 28.878C89.9896 28.878 89.3321 28.7056 88.7797 28.3703L88.5203 28.7977C89.1626 29.1877 89.913 29.378 90.762 29.378V28.878ZM88.7825 28.372C88.2238 28.0228 87.7963 27.5556 87.4968 26.9667L87.0512 27.1933C87.3917 27.863 87.8816 28.3985 88.5175 28.796L88.7825 28.372ZM87.4968 26.9667C87.196 26.375 87.044 25.7209 87.044 25H86.544C86.544 25.7938 86.712 26.5264 87.0512 27.1933L87.4968 26.9667ZM87.044 25C87.044 24.2678 87.1962 23.6145 87.4961 23.0349L87.0519 22.8051C86.7118 23.4628 86.544 24.1962 86.544 25H87.044ZM87.4968 23.0333C87.796 22.445 88.2226 21.984 88.7797 21.6457L88.5203 21.2183C87.8827 21.6054 87.392 22.1363 87.0512 22.8067L87.4968 23.0333ZM88.7825 21.644C89.3344 21.2991 89.991 21.122 90.762 21.122V20.622C89.9117 20.622 89.1603 20.8183 88.5175 21.22L88.7825 21.644ZM90.762 21.122C91.5445 21.122 92.2 21.2994 92.7398 21.6429L93.0082 21.2211C92.3747 20.8179 91.6221 20.622 90.762 20.622V21.122ZM92.7443 21.6457C93.3014 21.984 93.728 22.445 94.0272 23.0333L94.4728 22.8067C94.132 22.1363 93.6413 21.6054 93.0037 21.2183L92.7443 21.6457ZM94.0279 23.0349C94.3278 23.6145 94.48 24.2678 94.48 25H94.98C94.98 24.1962 94.8122 23.4628 94.4721 22.8051L94.0279 23.0349ZM94.48 25C94.48 25.7209 94.328 26.375 94.0272 26.9667L94.4728 27.1933C94.812 26.5264 94.98 25.7938 94.98 25H94.48ZM94.0272 26.9667C93.7277 27.5556 93.3002 28.0228 92.7415 28.372L93.0065 28.796C93.6424 28.3985 94.1323 27.863 94.4728 27.1933L94.0272 26.9667ZM92.7425 28.3714C92.2024 28.7053 91.5458 28.878 90.762 28.878V29.378C91.6208 29.378 92.3723 29.188 93.0055 28.7966L92.7425 28.3714ZM90.762 28.29C91.3987 28.29 91.952 28.1418 92.4072 27.8303L92.1248 27.4177C91.7693 27.6609 91.32 27.79 90.762 27.79V28.29ZM92.4047 27.832C92.8593 27.5289 93.2042 27.1252 93.4367 26.6254L92.9833 26.4146C92.7891 26.8321 92.5047 27.1644 92.1273 27.416L92.4047 27.832ZM93.4376 26.6235C93.6665 26.1198 93.78 25.5777 93.78 25H93.28C93.28 25.5103 93.1802 25.9815 92.9824 26.4165L93.4376 26.6235ZM93.78 25C93.78 24.4125 93.6668 23.8693 93.4367 23.3746L92.9833 23.5854C93.1799 24.008 93.28 24.4782 93.28 25H93.78ZM93.4367 23.3746C93.2042 22.8748 92.8593 22.4711 92.4047 22.168L92.1273 22.584C92.5047 22.8356 92.7891 23.1679 92.9833 23.5854L93.4367 23.3746ZM92.4072 22.1697C91.952 21.8582 91.3987 21.71 90.762 21.71V22.21C91.32 22.21 91.7693 22.3391 92.1248 22.5823L92.4072 22.1697ZM90.762 21.71C90.1347 21.71 89.5831 21.8588 89.1193 22.168L89.3967 22.584C89.7649 22.3385 90.2159 22.21 90.762 22.21V21.71ZM89.1193 22.168C88.6647 22.4711 88.3198 22.8748 88.0873 23.3746L88.5407 23.5854C88.7349 23.1679 89.0193 22.8356 89.3967 22.584L89.1193 22.168ZM88.0873 23.3746C87.8572 23.8693 87.744 24.4125 87.744 25H88.244C88.244 24.4782 88.3441 24.008 88.5407 23.5854L88.0873 23.3746ZM87.744 25C87.744 25.5777 87.8575 26.1198 88.0864 26.6235L88.5416 26.4165C88.3438 25.9815 88.244 25.5103 88.244 25H87.744ZM88.0873 26.6254C88.3198 27.1252 88.6647 27.5289 89.1193 27.832L89.3967 27.416C89.0193 27.1644 88.7349 26.8321 88.5407 26.4146L88.0873 26.6254ZM89.1193 27.832C89.5831 28.1412 90.1347 28.29 90.762 28.29V27.79C90.2159 27.79 89.7649 27.6615 89.3967 27.416L89.1193 27.832ZM96.3213 29H96.0713V29.25H96.3213V29ZM96.3213 21V20.75H96.0713V21H96.3213ZM97.5213 21H97.7713V20.75H97.5213V21ZM97.5213 22.968H97.2713L97.7602 23.0415L97.5213 22.968ZM97.7613 22.424L97.5417 22.3043L97.5398 22.308L97.7613 22.424ZM98.3053 21.72L98.482 21.8968L98.482 21.8968L98.3053 21.72ZM99.1853 21.128L99.2887 21.3556L99.2917 21.3542L99.1853 21.128ZM100.545 20.872H100.795V20.622H100.545V20.872ZM100.545 22.072V22.322H100.795V22.072H100.545ZM98.8493 22.568L98.9993 22.768L99 22.7674L98.8493 22.568ZM97.8573 23.832L97.6292 23.7296L97.6282 23.7318L97.8573 23.832ZM97.5213 29V29.25H97.7713V29H97.5213ZM96.5713 29V21H96.0713V29H96.5713ZM96.3213 21.25H97.5213V20.75H96.3213V21.25ZM97.2713 21V22.968H97.7713V21H97.2713ZM97.7602 23.0415C97.7962 22.9244 97.8681 22.7588 97.9827 22.54L97.5398 22.308C97.4197 22.5372 97.3316 22.7342 97.2823 22.8945L97.7602 23.0415ZM97.9807 22.5437C98.0949 22.3343 98.2604 22.1185 98.482 21.8968L98.1285 21.5432C97.8808 21.7909 97.6836 22.0443 97.5418 22.3043L97.9807 22.5437ZM98.482 21.8968C98.6923 21.6865 98.9596 21.5052 99.2887 21.3556L99.0818 20.9004C98.7069 21.0708 98.3875 21.2842 98.1285 21.5432L98.482 21.8968ZM99.2917 21.3542C99.6145 21.2023 100.003 21.122 100.465 21.122V20.622C99.9459 20.622 99.4814 20.7123 99.0788 20.9018L99.2917 21.3542ZM100.465 21.122H100.545V20.622H100.465V21.122ZM100.295 20.872V22.072H100.795V20.872H100.295ZM100.545 21.822H100.401V22.322H100.545V21.822ZM100.401 21.822C99.7547 21.822 99.1832 22.0021 98.6985 22.3686L99 22.7674C99.39 22.4726 99.8532 22.322 100.401 22.322V21.822ZM98.6993 22.368C98.2362 22.7153 97.8799 23.1713 97.6292 23.7296L98.0853 23.9344C98.304 23.4474 98.6089 23.0607 98.9993 22.768L98.6993 22.368ZM97.6282 23.7318C97.3897 24.277 97.2713 24.8606 97.2713 25.48H97.7713C97.7713 24.9261 97.8768 24.411 98.0863 23.9322L97.6282 23.7318ZM97.2713 25.48V29H97.7713V25.48H97.2713ZM97.5213 28.75H96.3213V29.25H97.5213V28.75ZM103.058 28.584L102.927 28.7971L102.93 28.7987L103.058 28.584ZM101.634 27.08L101.412 27.1963L101.414 27.1992L101.634 27.08ZM101.618 22.92L101.84 23.0349L101.841 23.0333L101.618 22.92ZM102.994 21.432L103.124 21.6457L103.126 21.644L102.994 21.432ZM107.218 21.432L107.084 21.643L107.088 21.6457L107.218 21.432ZM108.594 22.92L108.371 23.0333L108.372 23.0349L108.594 22.92ZM109.074 25.48V25.73H109.324V25.48H109.074ZM102.37 25.48V25.23H102.083L102.122 25.5138L102.37 25.48ZM102.818 26.776L102.603 26.9038L102.607 26.9106L102.818 26.776ZM103.794 27.704L103.668 27.9204L103.673 27.9228L103.794 27.704ZM106.626 27.672L106.76 27.8827L106.764 27.88L106.626 27.672ZM107.522 26.696V26.446H107.373L107.302 26.5771L107.522 26.696ZM108.834 26.696L109.067 26.7864L109.199 26.446H108.834V26.696ZM107.506 28.456L107.656 28.656L107.656 28.6556L107.506 28.456ZM102.386 24.36L102.139 24.3177L102.089 24.61H102.386V24.36ZM107.826 24.36V24.61H108.118L108.073 24.3214L107.826 24.36ZM106.962 22.648L107.136 22.4692L107.136 22.4692L106.962 22.648ZM103.25 22.648L103.075 22.4692L103.073 22.4712L103.25 22.648ZM105.186 28.878C104.414 28.878 103.75 28.7057 103.186 28.3693L102.93 28.7987C103.582 29.1877 104.337 29.378 105.186 29.378V28.878ZM103.189 28.371C102.618 28.0207 102.174 27.5517 101.854 26.9608L101.414 27.1992C101.776 27.8669 102.281 28.4007 102.927 28.797L103.189 28.371ZM101.855 26.9637C101.544 26.3726 101.388 25.7195 101.388 25H100.888C100.888 25.7951 101.062 26.5288 101.412 27.1963L101.855 26.9637ZM101.388 25C101.388 24.2678 101.54 23.6145 101.84 23.0349L101.396 22.8051C101.056 23.4628 100.888 24.1962 100.888 25H101.388ZM101.841 23.0333C102.14 22.445 102.566 21.984 103.123 21.6457L102.864 21.2183C102.226 21.6054 101.736 22.1363 101.395 22.8067L101.841 23.0333ZM103.126 21.644C103.678 21.2991 104.335 21.122 105.106 21.122V20.622C104.255 20.622 103.504 20.8183 102.861 21.22L103.126 21.644ZM105.106 21.122C105.888 21.122 106.544 21.2994 107.084 21.6429L107.352 21.2211C106.718 20.8179 105.966 20.622 105.106 20.622V21.122ZM107.088 21.6457C107.645 21.984 108.072 22.445 108.371 23.0333L108.817 22.8067C108.476 22.1363 107.985 21.6054 107.347 21.2183L107.088 21.6457ZM108.372 23.0349C108.672 23.6145 108.824 24.2678 108.824 25H109.324C109.324 24.1962 109.156 23.4628 108.816 22.8051L108.372 23.0349ZM108.824 25V25.48H109.324V25H108.824ZM109.074 25.23H102.37V25.73H109.074V25.23ZM102.122 25.5138C102.19 26.0153 102.351 26.4794 102.603 26.9038L103.033 26.6482C102.816 26.2833 102.677 25.8834 102.617 25.4462L102.122 25.5138ZM102.607 26.9106C102.875 27.3292 103.23 27.6662 103.668 27.9204L103.919 27.4876C103.547 27.2724 103.252 26.9908 103.028 26.6414L102.607 26.9106ZM103.673 27.9228C104.12 28.1702 104.633 28.29 105.202 28.29V27.79C104.704 27.79 104.278 27.6858 103.915 27.4852L103.673 27.9228ZM105.202 28.29C105.803 28.29 106.327 28.1592 106.76 27.8827L106.491 27.4613C106.156 27.6754 105.731 27.79 105.202 27.79V28.29ZM106.764 27.88C107.181 27.6021 107.508 27.2465 107.742 26.8149L107.302 26.5771C107.108 26.9348 106.838 27.2299 106.487 27.464L106.764 27.88ZM107.522 26.946H108.834V26.446H107.522V26.946ZM108.601 26.6056C108.34 27.2772 107.926 27.8259 107.355 28.2564L107.656 28.6556C108.302 28.1687 108.773 27.5442 109.067 26.7864L108.601 26.6056ZM107.356 28.256C106.812 28.6637 106.096 28.878 105.186 28.878V29.378C106.174 29.378 107.005 29.1443 107.656 28.656L107.356 28.256ZM102.386 24.61H107.826V24.11H102.386V24.61ZM108.073 24.3214C107.958 23.5884 107.647 22.9677 107.136 22.4692L106.787 22.8268C107.216 23.2457 107.48 23.7662 107.579 24.3986L108.073 24.3214ZM107.136 22.4692C106.613 21.9572 105.927 21.71 105.106 21.71V22.21C105.82 22.21 106.372 22.4215 106.787 22.8268L107.136 22.4692ZM105.106 21.71C104.284 21.71 103.599 21.9572 103.075 22.4692L103.424 22.8268C103.839 22.4215 104.391 22.21 105.106 22.21V21.71ZM103.073 22.4712C102.575 22.969 102.265 23.5877 102.139 24.3177L102.632 24.4023C102.741 23.767 103.007 23.2444 103.427 22.8248L103.073 22.4712Z" fill="black"/>
</svg>
