<svg width="168" height="48" viewBox="0 0 168 48" fill="none" xmlns="http://www.w3.org/2000/svg">
<rect x="0.5" y="0.5" width="167" height="47" stroke="black"/>
<path d="M48 29.128C47.2 29.128 46.4693 28.9893 45.808 28.712C45.1467 28.4347 44.576 28.0453 44.096 27.544C43.6267 27.0427 43.264 26.4667 43.008 25.816C42.752 25.1547 42.624 24.4507 42.624 23.704C42.624 22.9467 42.752 22.2427 43.008 21.592C43.264 20.9413 43.6267 20.3653 44.096 19.864C44.576 19.3627 45.1467 18.9733 45.808 18.696C46.4693 18.4187 47.2 18.28 48 18.28C48.8 18.28 49.5307 18.4187 50.192 18.696C50.8533 18.9733 51.4187 19.3627 51.888 19.864C52.368 20.3653 52.736 20.9413 52.992 21.592C53.248 22.2427 53.376 22.9467 53.376 23.704C53.376 24.4507 53.248 25.1547 52.992 25.816C52.736 26.4667 52.368 27.0427 51.888 27.544C51.4187 28.0453 50.8533 28.4347 50.192 28.712C49.5307 28.9893 48.8 29.128 48 29.128ZM48 27.96C48.864 27.96 49.6053 27.7733 50.224 27.4C50.8533 27.016 51.3333 26.504 51.664 25.864C52.0053 25.2133 52.176 24.4933 52.176 23.704C52.176 22.904 52.0053 22.184 51.664 21.544C51.3333 20.904 50.8533 20.3973 50.224 20.024C49.6053 19.64 48.864 19.448 48 19.448C47.1467 19.448 46.4053 19.64 45.776 20.024C45.1467 20.3973 44.6613 20.904 44.32 21.544C43.9893 22.184 43.824 22.904 43.824 23.704C43.824 24.4933 43.9893 25.2133 44.32 25.864C44.6613 26.504 45.1467 27.016 45.776 27.4C46.4053 27.7733 47.1467 27.96 48 27.96ZM58.16 29.128C57.616 29.128 57.0987 29 56.608 28.744C56.1173 28.4773 55.7173 28.088 55.408 27.576C55.1093 27.0533 54.96 26.4133 54.96 25.656V21H56.16V25.624C56.16 26.3493 56.368 26.936 56.784 27.384C57.2107 27.8213 57.7493 28.04 58.4 28.04C58.848 28.04 59.2533 27.9387 59.616 27.736C59.9787 27.5227 60.2667 27.2347 60.48 26.872C60.704 26.5093 60.816 26.088 60.816 25.608V21H62.016V29H60.816V27.752C60.528 28.136 60.176 28.4613 59.76 28.728C59.344 28.9947 58.8107 29.128 58.16 29.128ZM64.1025 29V21H65.3025V22.968C65.3452 22.8293 65.4252 22.648 65.5425 22.424C65.6705 22.1893 65.8518 21.9547 66.0865 21.72C66.3212 21.4853 66.6145 21.288 66.9665 21.128C67.3292 20.9573 67.7558 20.872 68.2465 20.872H68.3265V22.072H68.1825C67.5852 22.072 67.0678 22.2373 66.6305 22.568C66.2038 22.888 65.8732 23.3093 65.6385 23.832C65.4145 24.344 65.3025 24.8933 65.3025 25.48V29H64.1025ZM73.2804 29V18.408H74.4804V23.112H80.6404V18.408H81.8404V29H80.6404V24.28H74.4804V29H73.2804ZM87.6526 29.128C86.842 29.128 86.138 28.9467 85.5406 28.584C84.9433 28.2107 84.4846 27.7093 84.1646 27.08C83.8446 26.4507 83.6846 25.7573 83.6846 25C83.6846 24.232 83.8446 23.5387 84.1646 22.92C84.4846 22.2907 84.9433 21.7947 85.5406 21.432C86.138 21.0587 86.842 20.872 87.6526 20.872C88.474 20.872 89.178 21.0587 89.7646 21.432C90.362 21.7947 90.8206 22.2907 91.1406 22.92C91.4606 23.5387 91.6206 24.232 91.6206 25C91.6206 25.7573 91.4606 26.4507 91.1406 27.08C90.8206 27.7093 90.362 28.2107 89.7646 28.584C89.178 28.9467 88.474 29.128 87.6526 29.128ZM87.6526 28.04C88.25 28.04 88.7513 27.9013 89.1566 27.624C89.5726 27.3467 89.8873 26.9787 90.1006 26.52C90.314 26.0507 90.4206 25.544 90.4206 25C90.4206 24.4453 90.314 23.9387 90.1006 23.48C89.8873 23.0213 89.5726 22.6533 89.1566 22.376C88.7513 22.0987 88.25 21.96 87.6526 21.96C87.066 21.96 86.5646 22.0987 86.1486 22.376C85.7326 22.6533 85.418 23.0213 85.2046 23.48C84.9913 23.9387 84.8846 24.4453 84.8846 25C84.8846 25.544 84.9913 26.0507 85.2046 26.52C85.418 26.9787 85.7326 27.3467 86.1486 27.624C86.5646 27.9013 87.066 28.04 87.6526 28.04ZM96.3319 29.128C95.7879 29.128 95.2705 29 94.7799 28.744C94.2892 28.4773 93.8892 28.088 93.5799 27.576C93.2812 27.0533 93.1319 26.4133 93.1319 25.656V21H94.3319V25.624C94.3319 26.3493 94.5399 26.936 94.9559 27.384C95.3825 27.8213 95.9212 28.04 96.5719 28.04C97.0199 28.04 97.4252 27.9387 97.7879 27.736C98.1505 27.5227 98.4385 27.2347 98.6519 26.872C98.8759 26.5093 98.9879 26.088 98.9879 25.608V21H100.188V29H98.9879V27.752C98.6999 28.136 98.3479 28.4613 97.9319 28.728C97.5159 28.9947 96.9825 29.128 96.3319 29.128ZM105.186 29.128C104.45 29.128 103.826 29.0053 103.314 28.76C102.813 28.5147 102.429 28.1947 102.162 27.8C101.896 27.3947 101.746 26.9573 101.714 26.488H102.962C102.994 26.7547 103.085 27.016 103.234 27.272C103.394 27.5173 103.634 27.72 103.954 27.88C104.274 28.0293 104.69 28.104 105.202 28.104C105.362 28.104 105.56 28.088 105.794 28.056C106.029 28.024 106.253 27.9653 106.466 27.88C106.69 27.7947 106.877 27.6667 107.026 27.496C107.176 27.3253 107.25 27.1067 107.25 26.84C107.25 26.5093 107.122 26.2533 106.866 26.072C106.61 25.8907 106.28 25.752 105.874 25.656C105.469 25.5493 105.037 25.448 104.578 25.352C104.13 25.256 103.704 25.1333 103.298 24.984C102.893 24.824 102.562 24.6053 102.306 24.328C102.05 24.04 101.922 23.6507 101.922 23.16C101.922 22.4347 102.184 21.8747 102.706 21.48C103.24 21.0747 104.024 20.872 105.058 20.872C105.762 20.872 106.333 20.984 106.77 21.208C107.218 21.4213 107.554 21.6987 107.778 22.04C108.013 22.3813 108.152 22.7493 108.194 23.144H106.978C106.936 22.8027 106.765 22.5093 106.466 22.264C106.178 22.0187 105.698 21.896 105.026 21.896C103.757 21.896 103.122 22.28 103.122 23.048C103.122 23.368 103.25 23.6133 103.506 23.784C103.762 23.9547 104.093 24.0933 104.498 24.2C104.904 24.296 105.33 24.392 105.778 24.488C106.237 24.5733 106.669 24.696 107.074 24.856C107.48 25.016 107.81 25.2453 108.066 25.544C108.322 25.832 108.45 26.2267 108.45 26.728C108.45 27.5067 108.152 28.104 107.554 28.52C106.968 28.9253 106.178 29.128 105.186 29.128ZM113.545 29.128C112.734 29.128 112.025 28.9467 111.417 28.584C110.809 28.2107 110.334 27.7093 109.993 27.08C109.662 26.4507 109.497 25.7573 109.497 25C109.497 24.232 109.657 23.5387 109.977 22.92C110.297 22.2907 110.756 21.7947 111.353 21.432C111.95 21.0587 112.654 20.872 113.465 20.872C114.286 20.872 114.99 21.0587 115.577 21.432C116.174 21.7947 116.633 22.2907 116.953 22.92C117.273 23.5387 117.433 24.232 117.433 25V25.48H110.729C110.793 25.9493 110.942 26.3813 111.177 26.776C111.422 27.16 111.748 27.4693 112.153 27.704C112.558 27.928 113.028 28.04 113.561 28.04C114.126 28.04 114.601 27.9173 114.985 27.672C115.369 27.416 115.668 27.0907 115.881 26.696H117.193C116.916 27.4107 116.473 27.9973 115.865 28.456C115.268 28.904 114.494 29.128 113.545 29.128ZM110.745 24.36H116.185C116.078 23.6773 115.79 23.1067 115.321 22.648C114.852 22.1893 114.233 21.96 113.465 21.96C112.697 21.96 112.078 22.1893 111.609 22.648C111.15 23.1067 110.862 23.6773 110.745 24.36ZM121.811 29.128C121.075 29.128 120.451 29.0053 119.939 28.76C119.438 28.5147 119.054 28.1947 118.787 27.8C118.521 27.3947 118.371 26.9573 118.339 26.488H119.587C119.619 26.7547 119.71 27.016 119.859 27.272C120.019 27.5173 120.259 27.72 120.579 27.88C120.899 28.0293 121.315 28.104 121.827 28.104C121.987 28.104 122.185 28.088 122.419 28.056C122.654 28.024 122.878 27.9653 123.091 27.88C123.315 27.7947 123.502 27.6667 123.651 27.496C123.801 27.3253 123.875 27.1067 123.875 26.84C123.875 26.5093 123.747 26.2533 123.491 26.072C123.235 25.8907 122.905 25.752 122.499 25.656C122.094 25.5493 121.662 25.448 121.203 25.352C120.755 25.256 120.329 25.1333 119.923 24.984C119.518 24.824 119.187 24.6053 118.931 24.328C118.675 24.04 118.547 23.6507 118.547 23.16C118.547 22.4347 118.809 21.8747 119.331 21.48C119.865 21.0747 120.649 20.872 121.683 20.872C122.387 20.872 122.958 20.984 123.395 21.208C123.843 21.4213 124.179 21.6987 124.403 22.04C124.638 22.3813 124.777 22.7493 124.819 23.144H123.603C123.561 22.8027 123.39 22.5093 123.091 22.264C122.803 22.0187 122.323 21.896 121.651 21.896C120.382 21.896 119.747 22.28 119.747 23.048C119.747 23.368 119.875 23.6133 120.131 23.784C120.387 23.9547 120.718 24.0933 121.123 24.2C121.529 24.296 121.955 24.392 122.403 24.488C122.862 24.5733 123.294 24.696 123.699 24.856C124.105 25.016 124.435 25.2453 124.691 25.544C124.947 25.832 125.075 26.2267 125.075 26.728C125.075 27.5067 124.777 28.104 124.179 28.52C123.593 28.9253 122.803 29.128 121.811 29.128Z" fill="black"/>
<path d="M45.808 28.712L45.7113 28.9425L45.7113 28.9425L45.808 28.712ZM44.096 27.544L43.9135 27.7149L43.9154 27.7169L44.096 27.544ZM43.008 25.816L42.7749 25.9062L42.7754 25.9075L43.008 25.816ZM43.008 21.592L42.7754 21.5005L42.7754 21.5005L43.008 21.592ZM44.096 19.864L43.9154 19.6911L43.9135 19.6931L44.096 19.864ZM45.808 18.696L45.7113 18.4655L45.7113 18.4655L45.808 18.696ZM50.192 18.696L50.2887 18.4655L50.2887 18.4655L50.192 18.696ZM51.888 19.864L51.7055 20.0349L51.7074 20.0369L51.888 19.864ZM52.992 25.816L53.2246 25.9075L53.2251 25.9062L52.992 25.816ZM51.888 27.544L51.7074 27.3711L51.7055 27.3731L51.888 27.544ZM50.192 28.712L50.2887 28.9425L50.2887 28.9425L50.192 28.712ZM50.224 27.4L50.3532 27.614L50.3542 27.6134L50.224 27.4ZM51.664 25.864L51.4426 25.7479L51.4419 25.7492L51.664 25.864ZM51.664 21.544L51.4419 21.6588L51.4434 21.6616L51.664 21.544ZM50.224 20.024L50.0921 20.2365L50.0964 20.239L50.224 20.024ZM45.776 20.024L45.9036 20.239L45.9062 20.2374L45.776 20.024ZM44.32 21.544L44.0994 21.4263L44.0979 21.4292L44.32 21.544ZM44.32 25.864L44.0971 25.9773L44.0994 25.9816L44.32 25.864ZM45.776 27.4L45.6458 27.6134L45.6484 27.615L45.776 27.4ZM48 28.878C47.2294 28.878 46.532 28.7445 45.9047 28.4815L45.7113 28.9425C46.4066 29.2341 47.1706 29.378 48 29.378V28.878ZM45.9047 28.4815C45.2739 28.2169 44.7321 27.8468 44.2766 27.3711L43.9154 27.7169C44.4199 28.2438 45.0194 28.6524 45.7113 28.9425L45.9047 28.4815ZM44.2785 27.3731C43.8311 26.8953 43.4853 26.3463 43.2406 25.7245L42.7754 25.9075C43.0427 26.587 43.4222 27.1901 43.9135 27.7149L44.2785 27.3731ZM43.2411 25.7258C42.9969 25.0947 42.874 24.4215 42.874 23.704H42.374C42.374 24.4799 42.5071 25.2146 42.7749 25.9062L43.2411 25.7258ZM42.874 23.704C42.874 22.9754 42.997 22.3027 43.2406 21.6835L42.7754 21.5005C42.507 22.1826 42.374 22.918 42.374 23.704H42.874ZM43.2406 21.6835C43.4853 21.0617 43.8311 20.5127 44.2785 20.0349L43.9135 19.6931C43.4222 20.2179 43.0427 20.821 42.7754 21.5005L43.2406 21.6835ZM44.2766 20.0369C44.7321 19.5612 45.2739 19.1911 45.9047 18.9265L45.7113 18.4655C45.0194 18.7556 44.4199 19.1642 43.9154 19.6911L44.2766 20.0369ZM45.9047 18.9265C46.532 18.6635 47.2294 18.53 48 18.53V18.03C47.1706 18.03 46.4066 18.1739 45.7113 18.4655L45.9047 18.9265ZM48 18.53C48.7706 18.53 49.468 18.6635 50.0953 18.9265L50.2887 18.4655C49.5934 18.1739 48.8294 18.03 48 18.03V18.53ZM50.0953 18.9265C50.7256 19.1909 51.2613 19.5604 51.7055 20.0349L52.0705 19.6931C51.576 19.1649 50.981 18.7558 50.2887 18.4655L50.0953 18.9265ZM51.7074 20.0369C52.1648 20.5146 52.5152 21.0629 52.7594 21.6835L53.2246 21.5005C52.9568 20.8198 52.5712 20.2161 52.0686 19.6911L51.7074 20.0369ZM52.7594 21.6835C53.003 22.3027 53.126 22.9754 53.126 23.704H53.626C53.626 22.918 53.493 22.1826 53.2246 21.5005L52.7594 21.6835ZM53.126 23.704C53.126 24.4215 53.0031 25.0947 52.7589 25.7258L53.2251 25.9062C53.4929 25.2146 53.626 24.4799 53.626 23.704H53.126ZM52.7594 25.7245C52.5152 26.3451 52.1648 26.8934 51.7074 27.3711L52.0686 27.7169C52.5712 27.1919 52.9568 26.5882 53.2246 25.9075L52.7594 25.7245ZM51.7055 27.3731C51.2613 27.8476 50.7256 28.2171 50.0953 28.4815L50.2887 28.9425C50.981 28.6522 51.576 28.2431 52.0705 27.7149L51.7055 27.3731ZM50.0953 28.4815C49.468 28.7445 48.7706 28.878 48 28.878V29.378C48.8294 29.378 49.5934 29.2341 50.2887 28.9425L50.0953 28.4815ZM48 28.21C48.9006 28.21 49.6885 28.0151 50.3532 27.614L50.0948 27.186C49.5222 27.5315 48.8274 27.71 48 27.71V28.21ZM50.3542 27.6134C51.0217 27.2061 51.5339 26.6604 51.8861 25.9788L51.4419 25.7492C51.1328 26.3476 50.685 26.8259 50.0938 27.1866L50.3542 27.6134ZM51.8854 25.9801C52.2469 25.291 52.426 24.5307 52.426 23.704H51.926C51.926 24.456 51.7638 25.1357 51.4426 25.7479L51.8854 25.9801ZM52.426 23.704C52.426 22.8673 52.2472 22.1062 51.8846 21.4264L51.4434 21.6616C51.7635 22.2618 51.926 22.9407 51.926 23.704H52.426ZM51.8861 21.4292C51.5336 20.7469 51.0205 20.2058 50.3516 19.809L50.0964 20.239C50.6862 20.5888 51.1331 21.0611 51.4419 21.6588L51.8861 21.4292ZM50.3558 19.8116C49.6907 19.3988 48.9018 19.198 48 19.198V19.698C48.8262 19.698 49.5199 19.8812 50.0922 20.2364L50.3558 19.8116ZM48 19.198C47.1081 19.198 46.3202 19.3991 45.6458 19.8106L45.9062 20.2374C46.4905 19.8809 47.1853 19.698 48 19.698V19.198ZM45.6484 19.809C44.9801 20.2054 44.4625 20.7456 44.0994 21.4264L44.5406 21.6616C44.8602 21.0624 45.3132 20.5892 45.9036 20.239L45.6484 19.809ZM44.0979 21.4292C43.7469 22.1085 43.574 22.8686 43.574 23.704H44.074C44.074 22.9394 44.2317 22.2595 44.5421 21.6588L44.0979 21.4292ZM43.574 23.704C43.574 24.5294 43.7472 25.2887 44.0971 25.9773L44.5429 25.7507C44.2315 25.138 44.074 24.4572 44.074 23.704H43.574ZM44.0994 25.9816C44.4621 26.6617 44.979 27.2065 45.6458 27.6134L45.9062 27.1866C45.3144 26.8255 44.8605 26.3463 44.5406 25.7464L44.0994 25.9816ZM45.6484 27.615C46.3224 28.0148 47.1093 28.21 48 28.21V27.71C47.184 27.71 46.4883 27.5319 45.9036 27.185L45.6484 27.615ZM56.608 28.744L56.4886 28.9637L56.4924 28.9656L56.608 28.744ZM55.408 27.576L55.1909 27.7001L55.194 27.7053L55.408 27.576ZM54.96 21V20.75H54.71V21H54.96ZM56.16 21H56.41V20.75H56.16V21ZM56.784 27.384L56.6007 27.5542L56.6051 27.5586L56.784 27.384ZM59.616 27.736L59.738 27.9543L59.7428 27.9515L59.616 27.736ZM60.48 26.872L60.2673 26.7406L60.2645 26.7452L60.48 26.872ZM60.816 21V20.75H60.566V21H60.816ZM62.016 21H62.266V20.75H62.016V21ZM62.016 29V29.25H62.266V29H62.016ZM60.816 29H60.566V29.25H60.816V29ZM60.816 27.752H61.066V27.002L60.616 27.602L60.816 27.752ZM59.76 28.728L59.8949 28.9385L59.76 28.728ZM58.16 28.878C57.657 28.878 57.1793 28.7601 56.7236 28.5224L56.4924 28.9656C57.0181 29.2399 57.575 29.378 58.16 29.378V28.878ZM56.7274 28.5243C56.2785 28.2804 55.9101 27.9235 55.622 27.4467L55.194 27.7053C55.5246 28.2525 55.9562 28.6743 56.4886 28.9637L56.7274 28.5243ZM55.6251 27.452C55.3529 26.9756 55.21 26.3809 55.21 25.656H54.71C54.71 26.4458 54.8658 27.131 55.1909 27.7L55.6251 27.452ZM55.21 25.656V21H54.71V25.656H55.21ZM54.96 21.25H56.16V20.75H54.96V21.25ZM55.91 21V25.624H56.41V21H55.91ZM55.91 25.624C55.91 26.3999 56.1341 27.0515 56.6008 27.5541L56.9672 27.2139C56.6019 26.8205 56.41 26.2987 56.41 25.624H55.91ZM56.6051 27.5586C57.0821 28.0475 57.6868 28.29 58.4 28.29V27.79C57.8118 27.79 57.3393 27.5951 56.9629 27.2094L56.6051 27.5586ZM58.4 28.29C58.8873 28.29 59.3351 28.1793 59.738 27.9542L59.494 27.5178C59.1715 27.698 58.8087 27.79 58.4 27.79V28.29ZM59.7428 27.9515C60.1421 27.7166 60.4606 27.3981 60.6955 26.9988L60.2645 26.7452C60.0727 27.0713 59.8153 27.3287 59.4892 27.5205L59.7428 27.9515ZM60.6927 27.0034C60.9441 26.5964 61.066 26.1284 61.066 25.608H60.566C60.566 26.0476 60.4639 26.4223 60.2673 26.7406L60.6927 27.0034ZM61.066 25.608V21H60.566V25.608H61.066ZM60.816 21.25H62.016V20.75H60.816V21.25ZM61.766 21V29H62.266V21H61.766ZM62.016 28.75H60.816V29.25H62.016V28.75ZM61.066 29V27.752H60.566V29H61.066ZM60.616 27.602C60.3464 27.9614 60.0167 28.2665 59.6251 28.5175L59.8949 28.9385C60.3353 28.6562 60.7096 28.3106 61.016 27.902L60.616 27.602ZM59.6251 28.5175C59.2603 28.7514 58.7777 28.878 58.16 28.878V29.378C58.8436 29.378 59.4277 29.2379 59.8949 28.9385L59.6251 28.5175ZM64.1025 29H63.8525V29.25H64.1025V29ZM64.1025 21V20.75H63.8525V21H64.1025ZM65.3025 21H65.5525V20.75H65.3025V21ZM65.3025 22.968H65.0525L65.5414 23.0415L65.3025 22.968ZM65.5425 22.424L65.323 22.3043L65.321 22.308L65.5425 22.424ZM66.0865 21.72L66.2633 21.8968L66.2633 21.8968L66.0865 21.72ZM66.9665 21.128L67.07 21.3556L67.0729 21.3542L66.9665 21.128ZM68.3265 20.872H68.5765V20.622H68.3265V20.872ZM68.3265 22.072V22.322H68.5765V22.072H68.3265ZM66.6305 22.568L66.7805 22.768L66.7813 22.7674L66.6305 22.568ZM65.6385 23.832L65.4104 23.7296L65.4095 23.7318L65.6385 23.832ZM65.3025 29V29.25H65.5525V29H65.3025ZM64.3525 29V21H63.8525V29H64.3525ZM64.1025 21.25H65.3025V20.75H64.1025V21.25ZM65.0525 21V22.968H65.5525V21H65.0525ZM65.5414 23.0415C65.5775 22.9244 65.6493 22.7588 65.764 22.54L65.321 22.308C65.201 22.5372 65.1129 22.7342 65.0636 22.8945L65.5414 23.0415ZM65.762 22.5437C65.8762 22.3343 66.0416 22.1185 66.2633 21.8968L65.9097 21.5432C65.6621 21.7909 65.4648 22.0443 65.323 22.3043L65.762 22.5437ZM66.2633 21.8968C66.4736 21.6865 66.7408 21.5052 67.07 21.3556L66.863 20.9004C66.4882 21.0708 66.1688 21.2842 65.9097 21.5432L66.2633 21.8968ZM67.0729 21.3542C67.3957 21.2023 67.7846 21.122 68.2465 21.122V20.622C67.7271 20.622 67.2626 20.7123 66.8601 20.9018L67.0729 21.3542ZM68.2465 21.122H68.3265V20.622H68.2465V21.122ZM68.0765 20.872V22.072H68.5765V20.872H68.0765ZM68.3265 21.822H68.1825V22.322H68.3265V21.822ZM68.1825 21.822C67.5359 21.822 66.9644 22.0021 66.4797 22.3686L66.7813 22.7674C67.1713 22.4726 67.6344 22.322 68.1825 22.322V21.822ZM66.4805 22.368C66.0175 22.7153 65.6611 23.1713 65.4104 23.7296L65.8666 23.9344C66.0852 23.4474 66.3902 23.0607 66.7805 22.768L66.4805 22.368ZM65.4095 23.7318C65.171 24.277 65.0525 24.8606 65.0525 25.48H65.5525C65.5525 24.9261 65.658 24.411 65.8675 23.9322L65.4095 23.7318ZM65.0525 25.48V29H65.5525V25.48H65.0525ZM65.3025 28.75H64.1025V29.25H65.3025V28.75ZM73.2804 29H73.0304V29.25H73.2804V29ZM73.2804 18.408V18.158H73.0304V18.408H73.2804ZM74.4804 18.408H74.7304V18.158H74.4804V18.408ZM74.4804 23.112H74.2304V23.362H74.4804V23.112ZM80.6404 23.112V23.362H80.8904V23.112H80.6404ZM80.6404 18.408V18.158H80.3904V18.408H80.6404ZM81.8404 18.408H82.0904V18.158H81.8404V18.408ZM81.8404 29V29.25H82.0904V29H81.8404ZM80.6404 29H80.3904V29.25H80.6404V29ZM80.6404 24.28H80.8904V24.03H80.6404V24.28ZM74.4804 24.28V24.03H74.2304V24.28H74.4804ZM74.4804 29V29.25H74.7304V29H74.4804ZM73.5304 29V18.408H73.0304V29H73.5304ZM73.2804 18.658H74.4804V18.158H73.2804V18.658ZM74.2304 18.408V23.112H74.7304V18.408H74.2304ZM74.4804 23.362H80.6404V22.862H74.4804V23.362ZM80.8904 23.112V18.408H80.3904V23.112H80.8904ZM80.6404 18.658H81.8404V18.158H80.6404V18.658ZM81.5904 18.408V29H82.0904V18.408H81.5904ZM81.8404 28.75H80.6404V29.25H81.8404V28.75ZM80.8904 29V24.28H80.3904V29H80.8904ZM80.6404 24.03H74.4804V24.53H80.6404V24.03ZM74.2304 24.28V29H74.7304V24.28H74.2304ZM74.4804 28.75H73.2804V29.25H74.4804V28.75ZM85.5406 28.584L85.4081 28.796L85.4109 28.7977L85.5406 28.584ZM84.1646 22.92L84.3867 23.0349L84.3875 23.0333L84.1646 22.92ZM85.5406 21.432L85.6704 21.6457L85.6731 21.644L85.5406 21.432ZM89.7646 21.432L89.6304 21.643L89.6349 21.6457L89.7646 21.432ZM91.1406 22.92L90.9178 23.0333L90.9186 23.0349L91.1406 22.92ZM91.1406 27.08L90.9178 26.9667L90.9178 26.9667L91.1406 27.08ZM89.7646 28.584L89.8961 28.7967L89.8971 28.796L89.7646 28.584ZM89.1566 27.624L89.0179 27.416L89.0155 27.4177L89.1566 27.624ZM90.1006 26.52L90.3273 26.6254L90.3282 26.6235L90.1006 26.52ZM90.1006 23.48L90.3273 23.3746L90.3273 23.3746L90.1006 23.48ZM89.1566 22.376L89.0154 22.5823L89.018 22.584L89.1566 22.376ZM86.1486 22.376L86.01 22.168L86.01 22.168L86.1486 22.376ZM85.2046 23.48L84.9779 23.3746L84.9779 23.3746L85.2046 23.48ZM85.2046 26.52L84.977 26.6235L84.9779 26.6254L85.2046 26.52ZM87.6526 28.878C86.8803 28.878 86.2227 28.7056 85.6704 28.3703L85.4109 28.7977C86.0532 29.1877 86.8036 29.378 87.6526 29.378V28.878ZM85.6731 28.372C85.1144 28.0228 84.6869 27.5556 84.3875 26.9667L83.9418 27.1933C84.2823 27.863 84.7722 28.3985 85.4081 28.796L85.6731 28.372ZM84.3875 26.9667C84.0866 26.375 83.9346 25.7209 83.9346 25H83.4346C83.4346 25.7938 83.6026 26.5264 83.9418 27.1933L84.3875 26.9667ZM83.9346 25C83.9346 24.2678 84.0869 23.6145 84.3867 23.0349L83.9426 22.8051C83.6024 23.4628 83.4346 24.1962 83.4346 25H83.9346ZM84.3875 23.0333C84.6866 22.445 85.1132 21.984 85.6704 21.6457L85.4109 21.2183C84.7733 21.6054 84.2826 22.1363 83.9418 22.8067L84.3875 23.0333ZM85.6731 21.644C86.225 21.2991 86.8816 21.122 87.6526 21.122V20.622C86.8023 20.622 86.0509 20.8183 85.4081 21.22L85.6731 21.644ZM87.6526 21.122C88.4352 21.122 89.0906 21.2994 89.6304 21.6429L89.8988 21.2211C89.2653 20.8179 88.5128 20.622 87.6526 20.622V21.122ZM89.6349 21.6457C90.192 21.984 90.6186 22.445 90.9178 23.0333L91.3635 22.8067C91.0226 22.1363 90.5319 21.6054 89.8944 21.2183L89.6349 21.6457ZM90.9186 23.0349C91.2184 23.6145 91.3706 24.2678 91.3706 25H91.8706C91.8706 24.1962 91.7029 23.4628 91.3627 22.8051L90.9186 23.0349ZM91.3706 25C91.3706 25.7209 91.2186 26.375 90.9178 26.9667L91.3635 27.1933C91.7026 26.5264 91.8706 25.7938 91.8706 25H91.3706ZM90.9178 26.9667C90.6183 27.5556 90.1908 28.0228 89.6321 28.372L89.8971 28.796C90.5331 28.3985 91.0229 27.863 91.3635 27.1933L90.9178 26.9667ZM89.6332 28.3714C89.093 28.7053 88.4365 28.878 87.6526 28.878V29.378C88.5114 29.378 89.2629 29.188 89.8961 28.7966L89.6332 28.3714ZM87.6526 28.29C88.2893 28.29 88.8426 28.1418 89.2978 27.8303L89.0155 27.4177C88.66 27.6609 88.2106 27.79 87.6526 27.79V28.29ZM89.2953 27.832C89.75 27.5289 90.0949 27.1252 90.3273 26.6254L89.8739 26.4146C89.6797 26.8321 89.3953 27.1644 89.018 27.416L89.2953 27.832ZM90.3282 26.6235C90.5571 26.1198 90.6706 25.5777 90.6706 25H90.1706C90.1706 25.5103 90.0708 25.9815 89.873 26.4165L90.3282 26.6235ZM90.6706 25C90.6706 24.4125 90.5574 23.8693 90.3273 23.3746L89.8739 23.5854C90.0705 24.008 90.1706 24.4782 90.1706 25H90.6706ZM90.3273 23.3746C90.0949 22.8748 89.75 22.4711 89.2953 22.168L89.018 22.584C89.3953 22.8356 89.6797 23.1679 89.8739 23.5854L90.3273 23.3746ZM89.2978 22.1697C88.8426 21.8582 88.2893 21.71 87.6526 21.71V22.21C88.2106 22.21 88.66 22.3391 89.0155 22.5823L89.2978 22.1697ZM87.6526 21.71C87.0253 21.71 86.4737 21.8588 86.01 22.168L86.2873 22.584C86.6555 22.3385 87.1066 22.21 87.6526 22.21V21.71ZM86.01 22.168C85.5553 22.4711 85.2104 22.8748 84.9779 23.3746L85.4313 23.5854C85.6255 23.1679 85.91 22.8356 86.2873 22.584L86.01 22.168ZM84.9779 23.3746C84.7478 23.8693 84.6346 24.4125 84.6346 25H85.1346C85.1346 24.4782 85.2348 24.008 85.4313 23.5854L84.9779 23.3746ZM84.6346 25C84.6346 25.5777 84.7481 26.1198 84.977 26.6235L85.4322 26.4165C85.2345 25.9815 85.1346 25.5103 85.1346 25H84.6346ZM84.9779 26.6254C85.2104 27.1252 85.5553 27.5289 86.01 27.832L86.2873 27.416C85.91 27.1644 85.6255 26.8321 85.4313 26.4146L84.9779 26.6254ZM86.01 27.832C86.4737 28.1412 87.0253 28.29 87.6526 28.29V27.79C87.1066 27.79 86.6555 27.6615 86.2873 27.416L86.01 27.832ZM94.7799 28.744L94.6605 28.9637L94.6642 28.9656L94.7799 28.744ZM93.5799 27.576L93.3628 27.7001L93.3659 27.7053L93.5799 27.576ZM93.1319 21V20.75H92.8819V21H93.1319ZM94.3319 21H94.5819V20.75H94.3319V21ZM94.9559 27.384L94.7726 27.5542L94.7769 27.5586L94.9559 27.384ZM97.7879 27.736L97.9099 27.9543L97.9146 27.9515L97.7879 27.736ZM98.6519 26.872L98.4391 26.7406L98.4364 26.7452L98.6519 26.872ZM98.9879 21V20.75H98.7379V21H98.9879ZM100.188 21H100.438V20.75H100.188V21ZM100.188 29V29.25H100.438V29H100.188ZM98.9879 29H98.7379V29.25H98.9879V29ZM98.9879 27.752H99.2379V27.002L98.7879 27.602L98.9879 27.752ZM97.9319 28.728L98.0668 28.9385L97.9319 28.728ZM96.3319 28.878C95.8289 28.878 95.3511 28.7601 94.8955 28.5224L94.6642 28.9656C95.19 29.2399 95.7469 29.378 96.3319 29.378V28.878ZM94.8993 28.5243C94.4504 28.2804 94.0819 27.9235 93.7939 27.4467L93.3659 27.7053C93.6965 28.2525 94.1281 28.6743 94.6605 28.9637L94.8993 28.5243ZM93.7969 27.452C93.5247 26.9756 93.3819 26.3809 93.3819 25.656H92.8819C92.8819 26.4458 93.0377 27.131 93.3628 27.7L93.7969 27.452ZM93.3819 25.656V21H92.8819V25.656H93.3819ZM93.1319 21.25H94.3319V20.75H93.1319V21.25ZM94.0819 21V25.624H94.5819V21H94.0819ZM94.0819 25.624C94.0819 26.3999 94.3059 27.0515 94.7727 27.5541L95.1391 27.2139C94.7738 26.8205 94.5819 26.2987 94.5819 25.624H94.0819ZM94.7769 27.5586C95.2539 28.0475 95.8587 28.29 96.5719 28.29V27.79C95.9837 27.79 95.5111 27.5951 95.1348 27.2094L94.7769 27.5586ZM96.5719 28.29C97.0591 28.29 97.507 28.1793 97.9098 27.9542L97.6659 27.5178C97.3434 27.698 96.9806 27.79 96.5719 27.79V28.29ZM97.9146 27.9515C98.3139 27.7166 98.6325 27.3981 98.8674 26.9988L98.4364 26.7452C98.2446 27.0713 97.9871 27.3287 97.6611 27.5205L97.9146 27.9515ZM98.8646 27.0034C99.1159 26.5964 99.2379 26.1284 99.2379 25.608H98.7379C98.7379 26.0476 98.6358 26.4223 98.4392 26.7406L98.8646 27.0034ZM99.2379 25.608V21H98.7379V25.608H99.2379ZM98.9879 21.25H100.188V20.75H98.9879V21.25ZM99.9379 21V29H100.438V21H99.9379ZM100.188 28.75H98.9879V29.25H100.188V28.75ZM99.2379 29V27.752H98.7379V29H99.2379ZM98.7879 27.602C98.5183 27.9614 98.1886 28.2665 97.797 28.5175L98.0668 28.9385C98.5072 28.6562 98.8814 28.3106 99.1879 27.902L98.7879 27.602ZM97.797 28.5175C97.4321 28.7514 96.9496 28.878 96.3319 28.878V29.378C97.0155 29.378 97.5996 29.2379 98.0668 28.9385L97.797 28.5175ZM103.314 28.76L103.204 28.9846L103.206 28.9855L103.314 28.76ZM102.162 27.8L101.954 27.9374L101.955 27.94L102.162 27.8ZM101.714 26.488V26.238H101.447L101.465 26.505L101.714 26.488ZM102.962 26.488L103.211 26.4582L103.184 26.238H102.962V26.488ZM103.234 27.272L103.018 27.3981L103.025 27.4086L103.234 27.272ZM103.954 27.88L103.843 28.1037L103.849 28.1065L103.954 27.88ZM105.794 28.056L105.828 28.3037L105.794 28.056ZM106.466 27.88L106.377 27.6463L106.374 27.6479L106.466 27.88ZM106.866 26.072L107.011 25.868L107.011 25.868L106.866 26.072ZM105.874 25.656L105.811 25.8978L105.817 25.8993L105.874 25.656ZM104.578 25.352L104.526 25.5965L104.527 25.5967L104.578 25.352ZM103.298 24.984L103.207 25.2166L103.212 25.2186L103.298 24.984ZM102.306 24.328L102.119 24.4941L102.123 24.4976L102.306 24.328ZM102.706 21.48L102.857 21.6795L102.858 21.679L102.706 21.48ZM106.77 21.208L106.656 21.4306L106.663 21.4337L106.77 21.208ZM107.778 22.04L107.569 22.1772L107.572 22.1816L107.778 22.04ZM108.194 23.144V23.394H108.473L108.443 23.1171L108.194 23.144ZM106.978 23.144L106.73 23.175L106.758 23.394H106.978V23.144ZM106.466 22.264L106.304 22.4543L106.308 22.4572L106.466 22.264ZM103.506 23.784L103.368 23.992L103.368 23.992L103.506 23.784ZM104.498 24.2L104.435 24.4418L104.441 24.4433L104.498 24.2ZM105.778 24.488L105.726 24.7325L105.733 24.7338L105.778 24.488ZM107.074 24.856L106.983 25.0885L106.983 25.0885L107.074 24.856ZM108.066 25.544L107.877 25.7067L107.88 25.7101L108.066 25.544ZM107.554 28.52L107.696 28.7257L107.697 28.7252L107.554 28.52ZM105.186 28.878C104.477 28.878 103.892 28.7597 103.422 28.5345L103.206 28.9855C103.761 29.251 104.424 29.378 105.186 29.378V28.878ZM103.424 28.5354C102.955 28.306 102.608 28.0127 102.37 27.66L101.955 27.94C102.25 28.3766 102.671 28.7233 103.204 28.9846L103.424 28.5354ZM102.371 27.6626C102.127 27.2921 101.993 26.896 101.964 26.471L101.465 26.505C101.5 27.0187 101.664 27.4973 101.954 27.9374L102.371 27.6626ZM101.714 26.738H102.962V26.238H101.714V26.738ZM102.714 26.5178C102.751 26.8217 102.854 27.1155 103.018 27.398L103.45 27.146C103.316 26.9165 103.238 26.6876 103.211 26.4582L102.714 26.5178ZM103.025 27.4086C103.214 27.6985 103.492 27.9281 103.843 28.1036L104.066 27.6564C103.777 27.5119 103.575 27.3362 103.444 27.1354L103.025 27.4086ZM103.849 28.1065C104.213 28.2767 104.669 28.354 105.202 28.354V27.854C104.712 27.854 104.336 27.782 104.06 27.6535L103.849 28.1065ZM105.202 28.354C105.378 28.354 105.587 28.3366 105.828 28.3037L105.761 27.8083C105.532 27.8394 105.347 27.854 105.202 27.854V28.354ZM105.828 28.3037C106.082 28.269 106.326 28.2053 106.559 28.1121L106.374 27.6479C106.18 27.7254 105.976 27.779 105.761 27.8083L105.828 28.3037ZM106.555 28.1136C106.815 28.0146 107.037 27.8638 107.215 27.6606L106.838 27.3314C106.717 27.4695 106.565 27.5747 106.377 27.6464L106.555 28.1136ZM107.215 27.6606C107.411 27.4366 107.5 27.156 107.5 26.84H107C107 27.0574 106.941 27.2141 106.838 27.3314L107.215 27.6606ZM107.5 26.84C107.5 26.4334 107.337 26.0991 107.011 25.868L106.722 26.276C106.908 26.4076 107 26.5852 107 26.84H107.5ZM107.011 25.868C106.722 25.6631 106.359 25.5138 105.932 25.4127L105.817 25.8993C106.201 25.9902 106.499 26.1182 106.722 26.276L107.011 25.868ZM105.938 25.4142C105.528 25.3064 105.092 25.2041 104.63 25.1073L104.527 25.5967C104.982 25.6919 105.41 25.7923 105.811 25.8978L105.938 25.4142ZM104.631 25.1075C104.194 25.0139 103.778 24.8944 103.385 24.7494L103.212 25.2186C103.629 25.3722 104.067 25.4981 104.526 25.5965L104.631 25.1075ZM103.39 24.7515C103.014 24.6031 102.717 24.4042 102.49 24.1584L102.123 24.4976C102.408 24.8065 102.772 25.0449 103.207 25.2165L103.39 24.7515ZM102.493 24.1619C102.288 23.9311 102.172 23.6067 102.172 23.16H101.672C101.672 23.6946 101.813 24.1489 102.12 24.4941L102.493 24.1619ZM102.172 23.16C102.172 22.5034 102.404 22.0214 102.857 21.6795L102.556 21.2805C101.963 21.728 101.672 22.366 101.672 23.16H102.172ZM102.858 21.679C103.329 21.3204 104.05 21.122 105.058 21.122V20.622C103.997 20.622 103.15 20.8289 102.555 21.281L102.858 21.679ZM105.058 21.122C105.739 21.122 106.266 21.2307 106.656 21.4305L106.884 20.9855C106.4 20.7373 105.786 20.622 105.058 20.622V21.122ZM106.663 21.4337C107.078 21.6316 107.375 21.8816 107.569 22.1772L107.987 21.9028C107.733 21.5158 107.358 21.211 106.878 20.9823L106.663 21.4337ZM107.572 22.1816C107.785 22.4904 107.908 22.8192 107.946 23.1709L108.443 23.1171C108.396 22.6795 108.241 22.2723 107.984 21.8984L107.572 22.1816ZM108.194 22.894H106.978V23.394H108.194V22.894ZM107.226 23.113C107.175 22.7001 106.967 22.3513 106.625 22.0708L106.308 22.4572C106.564 22.6673 106.697 22.9052 106.73 23.175L107.226 23.113ZM106.628 22.0737C106.271 21.7695 105.716 21.646 105.026 21.646V22.146C105.68 22.146 106.085 22.2678 106.304 22.4543L106.628 22.0737ZM105.026 21.646C104.375 21.646 103.844 21.7431 103.469 21.9701C103.074 22.2093 102.872 22.5803 102.872 23.048H103.372C103.372 22.7477 103.488 22.5427 103.728 22.3979C103.987 22.2409 104.409 22.146 105.026 22.146V21.646ZM102.872 23.048C102.872 23.4476 103.039 23.7728 103.368 23.992L103.645 23.576C103.462 23.4539 103.372 23.2884 103.372 23.048H102.872ZM103.368 23.992C103.653 24.1824 104.012 24.3304 104.435 24.4418L104.562 23.9582C104.174 23.8562 103.871 23.7269 103.645 23.576L103.368 23.992ZM104.441 24.4433C104.848 24.5397 105.276 24.6361 105.726 24.7325L105.831 24.2435C105.384 24.1479 104.959 24.0523 104.556 23.9567L104.441 24.4433ZM105.733 24.7338C106.177 24.8164 106.593 24.9348 106.983 25.0885L107.166 24.6235C106.745 24.4572 106.297 24.3303 105.824 24.2422L105.733 24.7338ZM106.983 25.0885C107.354 25.2352 107.65 25.4422 107.877 25.7067L108.256 25.3813C107.971 25.0485 107.605 24.7968 107.166 24.6235L106.983 25.0885ZM107.88 25.7101C108.084 25.94 108.2 26.269 108.2 26.728H108.7C108.7 26.1843 108.561 25.724 108.253 25.3779L107.88 25.7101ZM108.2 26.728C108.2 27.4316 107.936 27.9493 107.412 28.3148L107.697 28.7252C108.367 28.2587 108.7 27.5817 108.7 26.728H108.2ZM107.412 28.3143C106.881 28.6815 106.147 28.878 105.186 28.878V29.378C106.21 29.378 107.055 29.1692 107.696 28.7257L107.412 28.3143ZM111.417 28.584L111.286 28.7971L111.289 28.7987L111.417 28.584ZM109.993 27.08L109.772 27.1963L109.773 27.1992L109.993 27.08ZM109.977 22.92L110.199 23.0349L110.2 23.0333L109.977 22.92ZM111.353 21.432L111.483 21.6457L111.486 21.644L111.353 21.432ZM115.577 21.432L115.443 21.643L115.447 21.6457L115.577 21.432ZM116.953 22.92L116.73 23.0333L116.731 23.0349L116.953 22.92ZM117.433 25.48V25.73H117.683V25.48H117.433ZM110.729 25.48V25.23H110.443L110.481 25.5138L110.729 25.48ZM111.177 26.776L110.962 26.9038L110.966 26.9106L111.177 26.776ZM112.153 27.704L112.028 27.9204L112.032 27.9228L112.153 27.704ZM114.985 27.672L115.12 27.8827L115.124 27.88L114.985 27.672ZM115.881 26.696V26.446H115.732L115.661 26.5771L115.881 26.696ZM117.193 26.696L117.426 26.7864L117.558 26.446H117.193V26.696ZM115.865 28.456L116.015 28.656L116.016 28.6556L115.865 28.456ZM110.745 24.36L110.499 24.3177L110.448 24.61H110.745V24.36ZM116.185 24.36V24.61H116.477L116.432 24.3214L116.185 24.36ZM115.321 22.648L115.496 22.4692L115.496 22.4692L115.321 22.648ZM111.609 22.648L111.434 22.4692L111.432 22.4712L111.609 22.648ZM113.545 28.878C112.773 28.878 112.109 28.7057 111.545 28.3693L111.289 28.7987C111.941 29.1877 112.696 29.378 113.545 29.378V28.878ZM111.548 28.371C110.977 28.0207 110.533 27.5517 110.213 26.9608L109.773 27.1992C110.136 27.8669 110.641 28.4007 111.286 28.797L111.548 28.371ZM110.214 26.9637C109.904 26.3726 109.747 25.7195 109.747 25H109.247C109.247 25.7951 109.421 26.5288 109.772 27.1963L110.214 26.9637ZM109.747 25C109.747 24.2678 109.899 23.6145 110.199 23.0349L109.755 22.8051C109.415 23.4628 109.247 24.1962 109.247 25H109.747ZM110.2 23.0333C110.499 22.445 110.926 21.984 111.483 21.6457L111.223 21.2183C110.586 21.6054 110.095 22.1363 109.754 22.8067L110.2 23.0333ZM111.486 21.644C112.038 21.2991 112.694 21.122 113.465 21.122V20.622C112.615 20.622 111.863 20.8183 111.221 21.22L111.486 21.644ZM113.465 21.122C114.248 21.122 114.903 21.2994 115.443 21.6429L115.711 21.2211C115.078 20.8179 114.325 20.622 113.465 20.622V21.122ZM115.447 21.6457C116.005 21.984 116.431 22.445 116.73 23.0333L117.176 22.8067C116.835 22.1363 116.344 21.6054 115.707 21.2183L115.447 21.6457ZM116.731 23.0349C117.031 23.6145 117.183 24.2678 117.183 25H117.683C117.683 24.1962 117.515 23.4628 117.175 22.8051L116.731 23.0349ZM117.183 25V25.48H117.683V25H117.183ZM117.433 25.23H110.729V25.73H117.433V25.23ZM110.481 25.5138C110.55 26.0153 110.71 26.4794 110.962 26.9038L111.392 26.6482C111.175 26.2833 111.036 25.8834 110.977 25.4462L110.481 25.5138ZM110.966 26.9106C111.234 27.3292 111.589 27.6662 112.028 27.9204L112.278 27.4876C111.907 27.2724 111.611 26.9908 111.388 26.6414L110.966 26.9106ZM112.032 27.9228C112.48 28.1702 112.992 28.29 113.561 28.29V27.79C113.064 27.79 112.637 27.6858 112.274 27.4852L112.032 27.9228ZM113.561 28.29C114.163 28.29 114.687 28.1592 115.12 27.8827L114.851 27.4613C114.515 27.6754 114.09 27.79 113.561 27.79V28.29ZM115.124 27.88C115.541 27.6021 115.868 27.2465 116.101 26.8149L115.661 26.5771C115.468 26.9348 115.198 27.2299 114.846 27.464L115.124 27.88ZM115.881 26.946H117.193V26.446H115.881V26.946ZM116.96 26.6056C116.699 27.2772 116.285 27.8259 115.715 28.2564L116.016 28.6556C116.661 28.1687 117.132 27.5442 117.426 26.7864L116.96 26.6056ZM115.715 28.256C115.172 28.6637 114.455 28.878 113.545 28.878V29.378C114.534 29.378 115.364 29.1443 116.015 28.656L115.715 28.256ZM110.745 24.61H116.185V24.11H110.745V24.61ZM116.432 24.3214C116.318 23.5884 116.006 22.9677 115.496 22.4692L115.146 22.8268C115.575 23.2457 115.839 23.7662 115.938 24.3986L116.432 24.3214ZM115.496 22.4692C114.972 21.9572 114.286 21.71 113.465 21.71V22.21C114.18 22.21 114.732 22.4215 115.146 22.8268L115.496 22.4692ZM113.465 21.71C112.644 21.71 111.958 21.9572 111.434 22.4692L111.784 22.8268C112.199 22.4215 112.75 22.21 113.465 22.21V21.71ZM111.432 22.4712C110.935 22.969 110.624 23.5877 110.499 24.3177L110.992 24.4023C111.101 23.767 111.366 23.2444 111.786 22.8248L111.432 22.4712ZM119.939 28.76L119.829 28.9846L119.831 28.9855L119.939 28.76ZM118.787 27.8L118.579 27.9374L118.58 27.94L118.787 27.8ZM118.339 26.488V26.238H118.072L118.09 26.505L118.339 26.488ZM119.587 26.488L119.836 26.4582L119.809 26.238H119.587V26.488ZM119.859 27.272L119.643 27.3981L119.65 27.4086L119.859 27.272ZM120.579 27.88L120.468 28.1037L120.474 28.1065L120.579 27.88ZM122.419 28.056L122.453 28.3037L122.419 28.056ZM123.091 27.88L123.002 27.6463L122.999 27.6479L123.091 27.88ZM123.491 26.072L123.636 25.868L123.636 25.868L123.491 26.072ZM122.499 25.656L122.436 25.8978L122.442 25.8993L122.499 25.656ZM121.203 25.352L121.151 25.5965L121.152 25.5967L121.203 25.352ZM119.923 24.984L119.832 25.2166L119.837 25.2186L119.923 24.984ZM118.931 24.328L118.744 24.4941L118.748 24.4976L118.931 24.328ZM119.331 21.48L119.482 21.6795L119.483 21.679L119.331 21.48ZM123.395 21.208L123.281 21.4306L123.288 21.4337L123.395 21.208ZM124.403 22.04L124.194 22.1772L124.197 22.1816L124.403 22.04ZM124.819 23.144V23.394H125.098L125.068 23.1171L124.819 23.144ZM123.603 23.144L123.355 23.175L123.383 23.394H123.603V23.144ZM123.091 22.264L122.929 22.4543L122.933 22.4572L123.091 22.264ZM120.131 23.784L119.993 23.992L119.993 23.992L120.131 23.784ZM121.123 24.2L121.06 24.4418L121.066 24.4433L121.123 24.2ZM122.403 24.488L122.351 24.7325L122.358 24.7338L122.403 24.488ZM123.699 24.856L123.608 25.0885L123.608 25.0885L123.699 24.856ZM124.691 25.544L124.502 25.7067L124.505 25.7101L124.691 25.544ZM124.179 28.52L124.321 28.7257L124.322 28.7252L124.179 28.52ZM121.811 28.878C121.102 28.878 120.517 28.7597 120.047 28.5345L119.831 28.9855C120.386 29.251 121.049 29.378 121.811 29.378V28.878ZM120.049 28.5354C119.58 28.306 119.233 28.0127 118.995 27.66L118.58 27.94C118.875 28.3766 119.296 28.7233 119.829 28.9846L120.049 28.5354ZM118.996 27.6626C118.752 27.2921 118.618 26.896 118.589 26.471L118.09 26.505C118.125 27.0187 118.289 27.4973 118.579 27.9374L118.996 27.6626ZM118.339 26.738H119.587V26.238H118.339V26.738ZM119.339 26.5178C119.376 26.8217 119.479 27.1155 119.643 27.398L120.075 27.146C119.941 26.9165 119.863 26.6876 119.836 26.4582L119.339 26.5178ZM119.65 27.4086C119.839 27.6985 120.117 27.9281 120.468 28.1036L120.691 27.6564C120.402 27.5119 120.2 27.3362 120.069 27.1354L119.65 27.4086ZM120.474 28.1065C120.838 28.2767 121.294 28.354 121.827 28.354V27.854C121.337 27.854 120.961 27.782 120.685 27.6535L120.474 28.1065ZM121.827 28.354C122.003 28.354 122.212 28.3366 122.453 28.3037L122.386 27.8083C122.157 27.8394 121.972 27.854 121.827 27.854V28.354ZM122.453 28.3037C122.707 28.269 122.951 28.2053 123.184 28.1121L122.999 27.6479C122.805 27.7254 122.601 27.779 122.386 27.8083L122.453 28.3037ZM123.18 28.1136C123.44 28.0146 123.662 27.8638 123.84 27.6606L123.463 27.3314C123.342 27.4695 123.19 27.5747 123.002 27.6464L123.18 28.1136ZM123.84 27.6606C124.036 27.4366 124.125 27.156 124.125 26.84H123.625C123.625 27.0574 123.566 27.2141 123.463 27.3314L123.84 27.6606ZM124.125 26.84C124.125 26.4334 123.962 26.0991 123.636 25.868L123.347 26.276C123.533 26.4076 123.625 26.5852 123.625 26.84H124.125ZM123.636 25.868C123.347 25.6631 122.984 25.5138 122.557 25.4127L122.442 25.8993C122.826 25.9902 123.124 26.1182 123.347 26.276L123.636 25.868ZM122.563 25.4142C122.153 25.3064 121.717 25.2041 121.255 25.1073L121.152 25.5967C121.607 25.6919 122.035 25.7923 122.436 25.8978L122.563 25.4142ZM121.256 25.1075C120.819 25.0139 120.403 24.8944 120.01 24.7494L119.837 25.2186C120.254 25.3722 120.692 25.4981 121.151 25.5965L121.256 25.1075ZM120.015 24.7515C119.639 24.6031 119.342 24.4042 119.115 24.1584L118.748 24.4976C119.033 24.8065 119.397 25.0449 119.832 25.2165L120.015 24.7515ZM119.118 24.1619C118.913 23.9311 118.797 23.6067 118.797 23.16H118.297C118.297 23.6946 118.438 24.1489 118.745 24.4941L119.118 24.1619ZM118.797 23.16C118.797 22.5034 119.029 22.0214 119.482 21.6795L119.181 21.2805C118.588 21.728 118.297 22.366 118.297 23.16H118.797ZM119.483 21.679C119.954 21.3204 120.675 21.122 121.683 21.122V20.622C120.622 20.622 119.775 20.8289 119.18 21.281L119.483 21.679ZM121.683 21.122C122.364 21.122 122.891 21.2307 123.281 21.4305L123.509 20.9855C123.025 20.7373 122.411 20.622 121.683 20.622V21.122ZM123.288 21.4337C123.703 21.6316 124 21.8816 124.194 22.1772L124.612 21.9028C124.358 21.5158 123.983 21.211 123.503 20.9823L123.288 21.4337ZM124.197 22.1816C124.41 22.4904 124.533 22.8192 124.571 23.1709L125.068 23.1171C125.021 22.6795 124.866 22.2723 124.609 21.8984L124.197 22.1816ZM124.819 22.894H123.603V23.394H124.819V22.894ZM123.851 23.113C123.8 22.7001 123.592 22.3513 123.25 22.0708L122.933 22.4572C123.189 22.6673 123.322 22.9052 123.355 23.175L123.851 23.113ZM123.253 22.0737C122.896 21.7695 122.341 21.646 121.651 21.646V22.146C122.305 22.146 122.71 22.2678 122.929 22.4543L123.253 22.0737ZM121.651 21.646C121 21.646 120.469 21.7431 120.094 21.9701C119.699 22.2093 119.497 22.5803 119.497 23.048H119.997C119.997 22.7477 120.113 22.5427 120.353 22.3979C120.612 22.2409 121.034 22.146 121.651 22.146V21.646ZM119.497 23.048C119.497 23.4476 119.664 23.7728 119.993 23.992L120.27 23.576C120.087 23.4539 119.997 23.2884 119.997 23.048H119.497ZM119.993 23.992C120.278 24.1824 120.637 24.3304 121.06 24.4418L121.187 23.9582C120.799 23.8562 120.496 23.7269 120.27 23.576L119.993 23.992ZM121.066 24.4433C121.473 24.5397 121.901 24.6361 122.351 24.7325L122.456 24.2435C122.009 24.1479 121.584 24.0523 121.181 23.9567L121.066 24.4433ZM122.358 24.7338C122.802 24.8164 123.218 24.9348 123.608 25.0885L123.791 24.6235C123.37 24.4572 122.922 24.3303 122.449 24.2422L122.358 24.7338ZM123.608 25.0885C123.979 25.2352 124.275 25.4422 124.502 25.7067L124.881 25.3813C124.596 25.0485 124.23 24.7968 123.791 24.6235L123.608 25.0885ZM124.505 25.7101C124.709 25.94 124.825 26.269 124.825 26.728H125.325C125.325 26.1843 125.186 25.724 124.878 25.3779L124.505 25.7101ZM124.825 26.728C124.825 27.4316 124.561 27.9493 124.037 28.3148L124.322 28.7252C124.992 28.2587 125.325 27.5817 125.325 26.728H124.825ZM124.037 28.3143C123.506 28.6815 122.772 28.878 121.811 28.878V29.378C122.835 29.378 123.68 29.1692 124.321 28.7257L124.037 28.3143Z" fill="black"/>
</svg>
