<svg width="168" height="48" viewBox="0 0 168 48" fill="none" xmlns="http://www.w3.org/2000/svg">
<rect x="0.5" y="0.5" width="167" height="47" stroke="black"/>
<path d="M53 29.128C52.2 29.128 51.4693 28.9893 50.808 28.712C50.1467 28.4347 49.576 28.0453 49.096 27.544C48.6267 27.0427 48.264 26.4667 48.008 25.816C47.752 25.1547 47.624 24.4507 47.624 23.704C47.624 22.9467 47.752 22.2427 48.008 21.592C48.264 20.9413 48.6267 20.3653 49.096 19.864C49.576 19.3627 50.1467 18.9733 50.808 18.696C51.4693 18.4187 52.2 18.28 53 18.28C53.8 18.28 54.5307 18.4187 55.192 18.696C55.8533 18.9733 56.4187 19.3627 56.888 19.864C57.368 20.3653 57.736 20.9413 57.992 21.592C58.248 22.2427 58.376 22.9467 58.376 23.704C58.376 24.4507 58.248 25.1547 57.992 25.816C57.736 26.4667 57.368 27.0427 56.888 27.544C56.4187 28.0453 55.8533 28.4347 55.192 28.712C54.5307 28.9893 53.8 29.128 53 29.128ZM53 27.96C53.864 27.96 54.6053 27.7733 55.224 27.4C55.8533 27.016 56.3333 26.504 56.664 25.864C57.0053 25.2133 57.176 24.4933 57.176 23.704C57.176 22.904 57.0053 22.184 56.664 21.544C56.3333 20.904 55.8533 20.3973 55.224 20.024C54.6053 19.64 53.864 19.448 53 19.448C52.1467 19.448 51.4053 19.64 50.776 20.024C50.1467 20.3973 49.6613 20.904 49.32 21.544C48.9893 22.184 48.824 22.904 48.824 23.704C48.824 24.4933 48.9893 25.2133 49.32 25.864C49.6613 26.504 50.1467 27.016 50.776 27.4C51.4053 27.7733 52.1467 27.96 53 27.96ZM63.16 29.128C62.616 29.128 62.0987 29 61.608 28.744C61.1173 28.4773 60.7173 28.088 60.408 27.576C60.1093 27.0533 59.96 26.4133 59.96 25.656V21H61.16V25.624C61.16 26.3493 61.368 26.936 61.784 27.384C62.2107 27.8213 62.7493 28.04 63.4 28.04C63.848 28.04 64.2533 27.9387 64.616 27.736C64.9787 27.5227 65.2667 27.2347 65.48 26.872C65.704 26.5093 65.816 26.088 65.816 25.608V21H67.016V29H65.816V27.752C65.528 28.136 65.176 28.4613 64.76 28.728C64.344 28.9947 63.8107 29.128 63.16 29.128ZM69.1025 29V21H70.3025V22.968C70.3452 22.8293 70.4252 22.648 70.5425 22.424C70.6705 22.1893 70.8518 21.9547 71.0865 21.72C71.3212 21.4853 71.6145 21.288 71.9665 21.128C72.3292 20.9573 72.7558 20.872 73.2465 20.872H73.3265V22.072H73.1825C72.5852 22.072 72.0678 22.2373 71.6305 22.568C71.2038 22.888 70.8732 23.3093 70.6385 23.832C70.4145 24.344 70.3025 24.8933 70.3025 25.48V29H69.1025ZM81.3204 29L77.0324 18.408H78.3444L82.0084 27.64L85.6724 18.408H86.9844L82.6964 29H81.3204ZM88.0233 19.656V18.088H89.3193V19.656H88.0233ZM88.0713 29V21H89.2713V29H88.0713ZM94.2645 29.128C93.5285 29.128 92.9045 29.0053 92.3925 28.76C91.8912 28.5147 91.5072 28.1947 91.2405 27.8C90.9738 27.3947 90.8245 26.9573 90.7925 26.488H92.0405C92.0725 26.7547 92.1632 27.016 92.3125 27.272C92.4725 27.5173 92.7125 27.72 93.0325 27.88C93.3525 28.0293 93.7685 28.104 94.2805 28.104C94.4405 28.104 94.6378 28.088 94.8725 28.056C95.1072 28.024 95.3312 27.9653 95.5445 27.88C95.7685 27.7947 95.9552 27.6667 96.1045 27.496C96.2538 27.3253 96.3285 27.1067 96.3285 26.84C96.3285 26.5093 96.2005 26.2533 95.9445 26.072C95.6885 25.8907 95.3578 25.752 94.9525 25.656C94.5472 25.5493 94.1152 25.448 93.6565 25.352C93.2085 25.256 92.7818 25.1333 92.3765 24.984C91.9712 24.824 91.6405 24.6053 91.3845 24.328C91.1285 24.04 91.0005 23.6507 91.0005 23.16C91.0005 22.4347 91.2618 21.8747 91.7845 21.48C92.3178 21.0747 93.1018 20.872 94.1365 20.872C94.8405 20.872 95.4112 20.984 95.8485 21.208C96.2965 21.4213 96.6325 21.6987 96.8565 22.04C97.0912 22.3813 97.2298 22.7493 97.2725 23.144H96.0565C96.0138 22.8027 95.8432 22.5093 95.5445 22.264C95.2565 22.0187 94.7765 21.896 94.1045 21.896C92.8352 21.896 92.2005 22.28 92.2005 23.048C92.2005 23.368 92.3285 23.6133 92.5845 23.784C92.8405 23.9547 93.1712 24.0933 93.5765 24.2C93.9818 24.296 94.4085 24.392 94.8565 24.488C95.3152 24.5733 95.7472 24.696 96.1525 24.856C96.5578 25.016 96.8885 25.2453 97.1445 25.544C97.4005 25.832 97.5285 26.2267 97.5285 26.728C97.5285 27.5067 97.2298 28.104 96.6325 28.52C96.0458 28.9253 95.2565 29.128 94.2645 29.128ZM99.0233 19.656V18.088H100.319V19.656H99.0233ZM99.0713 29V21H100.271V29H99.0713ZM105.825 29.128C105.014 29.128 104.31 28.9467 103.713 28.584C103.115 28.2107 102.657 27.7093 102.337 27.08C102.017 26.4507 101.857 25.7573 101.857 25C101.857 24.232 102.017 23.5387 102.337 22.92C102.657 22.2907 103.115 21.7947 103.713 21.432C104.31 21.0587 105.014 20.872 105.825 20.872C106.646 20.872 107.35 21.0587 107.937 21.432C108.534 21.7947 108.993 22.2907 109.312 22.92C109.633 23.5387 109.793 24.232 109.793 25C109.793 25.7573 109.633 26.4507 109.312 27.08C108.993 27.7093 108.534 28.2107 107.937 28.584C107.35 28.9467 106.646 29.128 105.825 29.128ZM105.825 28.04C106.422 28.04 106.923 27.9013 107.329 27.624C107.745 27.3467 108.059 26.9787 108.273 26.52C108.486 26.0507 108.593 25.544 108.593 25C108.593 24.4453 108.486 23.9387 108.273 23.48C108.059 23.0213 107.745 22.6533 107.329 22.376C106.923 22.0987 106.422 21.96 105.825 21.96C105.238 21.96 104.737 22.0987 104.321 22.376C103.905 22.6533 103.59 23.0213 103.377 23.48C103.163 23.9387 103.057 24.4453 103.057 25C103.057 25.544 103.163 26.0507 103.377 26.52C103.59 26.9787 103.905 27.3467 104.321 27.624C104.737 27.9013 105.238 28.04 105.825 28.04ZM111.384 29V21H112.584V22.248C112.872 21.864 113.224 21.5387 113.64 21.272C114.056 21.0053 114.589 20.872 115.24 20.872C115.794 20.872 116.312 21.0053 116.792 21.272C117.282 21.528 117.677 21.9173 117.976 22.44C118.285 22.952 118.44 23.5867 118.44 24.344V29H117.24V24.376C117.24 23.6507 117.032 23.0693 116.616 22.632C116.2 22.184 115.661 21.96 115 21.96C114.552 21.96 114.146 22.0613 113.784 22.264C113.421 22.4667 113.128 22.7547 112.904 23.128C112.69 23.4907 112.584 23.912 112.584 24.392V29H111.384Z" fill="black"/>
<path d="M50.808 28.712L50.7113 28.9425L50.7113 28.9425L50.808 28.712ZM49.096 27.544L48.9135 27.7149L48.9154 27.7169L49.096 27.544ZM48.008 25.816L47.7749 25.9062L47.7754 25.9075L48.008 25.816ZM48.008 21.592L47.7754 21.5005L47.7754 21.5005L48.008 21.592ZM49.096 19.864L48.9154 19.6911L48.9135 19.6931L49.096 19.864ZM50.808 18.696L50.7113 18.4655L50.7113 18.4655L50.808 18.696ZM55.192 18.696L55.2887 18.4655L55.2887 18.4655L55.192 18.696ZM56.888 19.864L56.7055 20.0349L56.7074 20.0369L56.888 19.864ZM57.992 25.816L58.2246 25.9075L58.2251 25.9062L57.992 25.816ZM56.888 27.544L56.7074 27.3711L56.7055 27.3731L56.888 27.544ZM55.192 28.712L55.2887 28.9425L55.2887 28.9425L55.192 28.712ZM55.224 27.4L55.3532 27.614L55.3542 27.6134L55.224 27.4ZM56.664 25.864L56.4426 25.7479L56.4419 25.7492L56.664 25.864ZM56.664 21.544L56.4419 21.6588L56.4434 21.6616L56.664 21.544ZM55.224 20.024L55.0921 20.2365L55.0964 20.239L55.224 20.024ZM50.776 20.024L50.9036 20.239L50.9062 20.2374L50.776 20.024ZM49.32 21.544L49.0994 21.4263L49.0979 21.4292L49.32 21.544ZM49.32 25.864L49.0971 25.9773L49.0994 25.9816L49.32 25.864ZM50.776 27.4L50.6458 27.6134L50.6484 27.615L50.776 27.4ZM53 28.878C52.2294 28.878 51.532 28.7445 50.9047 28.4815L50.7113 28.9425C51.4066 29.2341 52.1706 29.378 53 29.378V28.878ZM50.9047 28.4815C50.2739 28.2169 49.7321 27.8468 49.2766 27.3711L48.9154 27.7169C49.4199 28.2438 50.0194 28.6524 50.7113 28.9425L50.9047 28.4815ZM49.2785 27.3731C48.8311 26.8953 48.4853 26.3463 48.2406 25.7245L47.7754 25.9075C48.0427 26.587 48.4222 27.1901 48.9135 27.7149L49.2785 27.3731ZM48.2411 25.7258C47.9969 25.0947 47.874 24.4215 47.874 23.704H47.374C47.374 24.4799 47.5071 25.2146 47.7749 25.9062L48.2411 25.7258ZM47.874 23.704C47.874 22.9754 47.997 22.3027 48.2406 21.6835L47.7754 21.5005C47.507 22.1826 47.374 22.918 47.374 23.704H47.874ZM48.2406 21.6835C48.4853 21.0617 48.8311 20.5127 49.2785 20.0349L48.9135 19.6931C48.4222 20.2179 48.0427 20.821 47.7754 21.5005L48.2406 21.6835ZM49.2766 20.0369C49.7321 19.5612 50.2739 19.1911 50.9047 18.9265L50.7113 18.4655C50.0194 18.7556 49.4199 19.1642 48.9154 19.6911L49.2766 20.0369ZM50.9047 18.9265C51.532 18.6635 52.2294 18.53 53 18.53V18.03C52.1706 18.03 51.4066 18.1739 50.7113 18.4655L50.9047 18.9265ZM53 18.53C53.7706 18.53 54.468 18.6635 55.0953 18.9265L55.2887 18.4655C54.5934 18.1739 53.8294 18.03 53 18.03V18.53ZM55.0953 18.9265C55.7256 19.1909 56.2613 19.5604 56.7055 20.0349L57.0705 19.6931C56.576 19.1649 55.981 18.7558 55.2887 18.4655L55.0953 18.9265ZM56.7074 20.0369C57.1648 20.5146 57.5152 21.0629 57.7594 21.6835L58.2246 21.5005C57.9568 20.8198 57.5712 20.2161 57.0686 19.6911L56.7074 20.0369ZM57.7594 21.6835C58.003 22.3027 58.126 22.9754 58.126 23.704H58.626C58.626 22.918 58.493 22.1826 58.2246 21.5005L57.7594 21.6835ZM58.126 23.704C58.126 24.4215 58.0031 25.0947 57.7589 25.7258L58.2251 25.9062C58.4929 25.2146 58.626 24.4799 58.626 23.704H58.126ZM57.7594 25.7245C57.5152 26.3451 57.1648 26.8934 56.7074 27.3711L57.0686 27.7169C57.5712 27.1919 57.9568 26.5882 58.2246 25.9075L57.7594 25.7245ZM56.7055 27.3731C56.2613 27.8476 55.7256 28.2171 55.0953 28.4815L55.2887 28.9425C55.981 28.6522 56.576 28.2431 57.0705 27.7149L56.7055 27.3731ZM55.0953 28.4815C54.468 28.7445 53.7706 28.878 53 28.878V29.378C53.8294 29.378 54.5934 29.2341 55.2887 28.9425L55.0953 28.4815ZM53 28.21C53.9006 28.21 54.6885 28.0151 55.3532 27.614L55.0948 27.186C54.5222 27.5315 53.8274 27.71 53 27.71V28.21ZM55.3542 27.6134C56.0217 27.2061 56.5339 26.6604 56.8861 25.9788L56.4419 25.7492C56.1328 26.3476 55.685 26.8259 55.0938 27.1866L55.3542 27.6134ZM56.8854 25.9801C57.2469 25.291 57.426 24.5307 57.426 23.704H56.926C56.926 24.456 56.7638 25.1357 56.4426 25.7479L56.8854 25.9801ZM57.426 23.704C57.426 22.8673 57.2472 22.1062 56.8846 21.4264L56.4434 21.6616C56.7635 22.2618 56.926 22.9407 56.926 23.704H57.426ZM56.8861 21.4292C56.5336 20.7469 56.0205 20.2058 55.3516 19.809L55.0964 20.239C55.6862 20.5888 56.1331 21.0611 56.4419 21.6588L56.8861 21.4292ZM55.3558 19.8116C54.6907 19.3988 53.9018 19.198 53 19.198V19.698C53.8262 19.698 54.5199 19.8812 55.0922 20.2364L55.3558 19.8116ZM53 19.198C52.1081 19.198 51.3202 19.3991 50.6458 19.8106L50.9062 20.2374C51.4905 19.8809 52.1853 19.698 53 19.698V19.198ZM50.6484 19.809C49.9801 20.2054 49.4625 20.7456 49.0994 21.4264L49.5406 21.6616C49.8602 21.0624 50.3132 20.5892 50.9036 20.239L50.6484 19.809ZM49.0979 21.4292C48.7469 22.1085 48.574 22.8686 48.574 23.704H49.074C49.074 22.9394 49.2317 22.2595 49.5421 21.6588L49.0979 21.4292ZM48.574 23.704C48.574 24.5294 48.7472 25.2887 49.0971 25.9773L49.5429 25.7507C49.2315 25.138 49.074 24.4572 49.074 23.704H48.574ZM49.0994 25.9816C49.4621 26.6617 49.979 27.2065 50.6458 27.6134L50.9062 27.1866C50.3144 26.8255 49.8605 26.3463 49.5406 25.7464L49.0994 25.9816ZM50.6484 27.615C51.3224 28.0148 52.1093 28.21 53 28.21V27.71C52.184 27.71 51.4883 27.5319 50.9036 27.185L50.6484 27.615ZM61.608 28.744L61.4886 28.9637L61.4924 28.9656L61.608 28.744ZM60.408 27.576L60.1909 27.7001L60.194 27.7053L60.408 27.576ZM59.96 21V20.75H59.71V21H59.96ZM61.16 21H61.41V20.75H61.16V21ZM61.784 27.384L61.6007 27.5542L61.6051 27.5586L61.784 27.384ZM64.616 27.736L64.738 27.9543L64.7428 27.9515L64.616 27.736ZM65.48 26.872L65.2673 26.7406L65.2645 26.7452L65.48 26.872ZM65.816 21V20.75H65.566V21H65.816ZM67.016 21H67.266V20.75H67.016V21ZM67.016 29V29.25H67.266V29H67.016ZM65.816 29H65.566V29.25H65.816V29ZM65.816 27.752H66.066V27.002L65.616 27.602L65.816 27.752ZM64.76 28.728L64.8949 28.9385L64.76 28.728ZM63.16 28.878C62.657 28.878 62.1793 28.7601 61.7236 28.5224L61.4924 28.9656C62.0181 29.2399 62.575 29.378 63.16 29.378V28.878ZM61.7274 28.5243C61.2785 28.2804 60.9101 27.9235 60.622 27.4467L60.194 27.7053C60.5246 28.2525 60.9562 28.6743 61.4886 28.9637L61.7274 28.5243ZM60.6251 27.452C60.3529 26.9756 60.21 26.3809 60.21 25.656H59.71C59.71 26.4458 59.8658 27.131 60.1909 27.7L60.6251 27.452ZM60.21 25.656V21H59.71V25.656H60.21ZM59.96 21.25H61.16V20.75H59.96V21.25ZM60.91 21V25.624H61.41V21H60.91ZM60.91 25.624C60.91 26.3999 61.1341 27.0515 61.6008 27.5541L61.9672 27.2139C61.6019 26.8205 61.41 26.2987 61.41 25.624H60.91ZM61.6051 27.5586C62.0821 28.0475 62.6868 28.29 63.4 28.29V27.79C62.8118 27.79 62.3393 27.5951 61.9629 27.2094L61.6051 27.5586ZM63.4 28.29C63.8873 28.29 64.3351 28.1793 64.738 27.9542L64.494 27.5178C64.1715 27.698 63.8087 27.79 63.4 27.79V28.29ZM64.7428 27.9515C65.1421 27.7166 65.4606 27.3981 65.6955 26.9988L65.2645 26.7452C65.0727 27.0713 64.8153 27.3287 64.4892 27.5205L64.7428 27.9515ZM65.6927 27.0034C65.9441 26.5964 66.066 26.1284 66.066 25.608H65.566C65.566 26.0476 65.4639 26.4223 65.2673 26.7406L65.6927 27.0034ZM66.066 25.608V21H65.566V25.608H66.066ZM65.816 21.25H67.016V20.75H65.816V21.25ZM66.766 21V29H67.266V21H66.766ZM67.016 28.75H65.816V29.25H67.016V28.75ZM66.066 29V27.752H65.566V29H66.066ZM65.616 27.602C65.3464 27.9614 65.0167 28.2665 64.6251 28.5175L64.8949 28.9385C65.3353 28.6562 65.7096 28.3106 66.016 27.902L65.616 27.602ZM64.6251 28.5175C64.2603 28.7514 63.7777 28.878 63.16 28.878V29.378C63.8436 29.378 64.4277 29.2379 64.8949 28.9385L64.6251 28.5175ZM69.1025 29H68.8525V29.25H69.1025V29ZM69.1025 21V20.75H68.8525V21H69.1025ZM70.3025 21H70.5525V20.75H70.3025V21ZM70.3025 22.968H70.0525L70.5414 23.0415L70.3025 22.968ZM70.5425 22.424L70.323 22.3043L70.321 22.308L70.5425 22.424ZM71.0865 21.72L71.2633 21.8968L71.2633 21.8968L71.0865 21.72ZM71.9665 21.128L72.07 21.3556L72.0729 21.3542L71.9665 21.128ZM73.3265 20.872H73.5765V20.622H73.3265V20.872ZM73.3265 22.072V22.322H73.5765V22.072H73.3265ZM71.6305 22.568L71.7805 22.768L71.7813 22.7674L71.6305 22.568ZM70.6385 23.832L70.4104 23.7296L70.4095 23.7318L70.6385 23.832ZM70.3025 29V29.25H70.5525V29H70.3025ZM69.3525 29V21H68.8525V29H69.3525ZM69.1025 21.25H70.3025V20.75H69.1025V21.25ZM70.0525 21V22.968H70.5525V21H70.0525ZM70.5414 23.0415C70.5775 22.9244 70.6493 22.7588 70.764 22.54L70.321 22.308C70.201 22.5372 70.1129 22.7342 70.0636 22.8945L70.5414 23.0415ZM70.762 22.5437C70.8762 22.3343 71.0416 22.1185 71.2633 21.8968L70.9097 21.5432C70.6621 21.7909 70.4648 22.0443 70.323 22.3043L70.762 22.5437ZM71.2633 21.8968C71.4736 21.6865 71.7408 21.5052 72.07 21.3556L71.863 20.9004C71.4882 21.0708 71.1688 21.2842 70.9097 21.5432L71.2633 21.8968ZM72.0729 21.3542C72.3957 21.2023 72.7846 21.122 73.2465 21.122V20.622C72.7271 20.622 72.2626 20.7123 71.8601 20.9018L72.0729 21.3542ZM73.2465 21.122H73.3265V20.622H73.2465V21.122ZM73.0765 20.872V22.072H73.5765V20.872H73.0765ZM73.3265 21.822H73.1825V22.322H73.3265V21.822ZM73.1825 21.822C72.5359 21.822 71.9644 22.0021 71.4797 22.3686L71.7813 22.7674C72.1713 22.4726 72.6344 22.322 73.1825 22.322V21.822ZM71.4805 22.368C71.0175 22.7153 70.6611 23.1713 70.4104 23.7296L70.8666 23.9344C71.0852 23.4474 71.3902 23.0607 71.7805 22.768L71.4805 22.368ZM70.4095 23.7318C70.171 24.277 70.0525 24.8606 70.0525 25.48H70.5525C70.5525 24.9261 70.658 24.411 70.8675 23.9322L70.4095 23.7318ZM70.0525 25.48V29H70.5525V25.48H70.0525ZM70.3025 28.75H69.1025V29.25H70.3025V28.75ZM81.3204 29L81.0886 29.0938L81.1519 29.25H81.3204V29ZM77.0324 18.408V18.158H76.6615L76.8006 18.5018L77.0324 18.408ZM78.3444 18.408L78.5767 18.3158L78.5141 18.158H78.3444V18.408ZM82.0084 27.64L81.776 27.7322L82.0084 28.3177L82.2407 27.7322L82.0084 27.64ZM85.6724 18.408V18.158H85.5026L85.44 18.3158L85.6724 18.408ZM86.9844 18.408L87.2161 18.5018L87.3553 18.158H86.9844V18.408ZM82.6964 29V29.25H82.8649L82.9281 29.0938L82.6964 29ZM81.5521 28.9062L77.2641 18.3142L76.8006 18.5018L81.0886 29.0938L81.5521 28.9062ZM77.0324 18.658H78.3444V18.158H77.0324V18.658ZM78.112 18.5002L81.776 27.7322L82.2407 27.5478L78.5767 18.3158L78.112 18.5002ZM82.2407 27.7322L85.9047 18.5002L85.44 18.3158L81.776 27.5478L82.2407 27.7322ZM85.6724 18.658H86.9844V18.158H85.6724V18.658ZM86.7526 18.3142L82.4646 28.9062L82.9281 29.0938L87.2161 18.5018L86.7526 18.3142ZM82.6964 28.75H81.3204V29.25H82.6964V28.75ZM88.0233 19.656H87.7733V19.906H88.0233V19.656ZM88.0233 18.088V17.838H87.7733V18.088H88.0233ZM89.3193 18.088H89.5693V17.838H89.3193V18.088ZM89.3193 19.656V19.906H89.5693V19.656H89.3193ZM88.0713 29H87.8213V29.25H88.0713V29ZM88.0713 21V20.75H87.8213V21H88.0713ZM89.2713 21H89.5213V20.75H89.2713V21ZM89.2713 29V29.25H89.5213V29H89.2713ZM88.2733 19.656V18.088H87.7733V19.656H88.2733ZM88.0233 18.338H89.3193V17.838H88.0233V18.338ZM89.0693 18.088V19.656H89.5693V18.088H89.0693ZM89.3193 19.406H88.0233V19.906H89.3193V19.406ZM88.3213 29V21H87.8213V29H88.3213ZM88.0713 21.25H89.2713V20.75H88.0713V21.25ZM89.0213 21V29H89.5213V21H89.0213ZM89.2713 28.75H88.0713V29.25H89.2713V28.75ZM92.3925 28.76L92.2826 28.9846L92.2845 28.9855L92.3925 28.76ZM91.2405 27.8L91.0316 27.9374L91.0334 27.94L91.2405 27.8ZM90.7925 26.488V26.238H90.5249L90.5431 26.505L90.7925 26.488ZM92.0405 26.488L92.2887 26.4582L92.2623 26.238H92.0405V26.488ZM92.3125 27.272L92.0963 27.3981L92.1031 27.4086L92.3125 27.272ZM93.0325 27.88L92.9207 28.1037L92.9268 28.1065L93.0325 27.88ZM94.8725 28.056L94.9063 28.3037L94.8725 28.056ZM95.5445 27.88L95.4555 27.6463L95.4517 27.6479L95.5445 27.88ZM95.9445 26.072L96.089 25.868L96.089 25.868L95.9445 26.072ZM94.9525 25.656L94.8889 25.8978L94.8949 25.8993L94.9525 25.656ZM93.6565 25.352L93.6041 25.5965L93.6053 25.5967L93.6565 25.352ZM92.3765 24.984L92.2847 25.2166L92.2901 25.2186L92.3765 24.984ZM91.3845 24.328L91.1976 24.4941L91.2008 24.4976L91.3845 24.328ZM91.7845 21.48L91.9352 21.6795L91.9358 21.679L91.7845 21.48ZM95.8485 21.208L95.7345 21.4306L95.741 21.4337L95.8485 21.208ZM96.8565 22.04L96.6474 22.1772L96.6505 22.1816L96.8565 22.04ZM97.2725 23.144V23.394H97.551L97.5211 23.1171L97.2725 23.144ZM96.0565 23.144L95.8084 23.175L95.8358 23.394H96.0565V23.144ZM95.5445 22.264L95.3824 22.4543L95.3858 22.4572L95.5445 22.264ZM92.5845 23.784L92.4458 23.992L92.4458 23.992L92.5845 23.784ZM93.5765 24.2L93.5129 24.4418L93.5189 24.4433L93.5765 24.2ZM94.8565 24.488L94.8041 24.7325L94.8108 24.7338L94.8565 24.488ZM96.1525 24.856L96.0607 25.0885L96.0607 25.0885L96.1525 24.856ZM97.1445 25.544L96.9547 25.7067L96.9576 25.7101L97.1445 25.544ZM96.6325 28.52L96.7746 28.7257L96.7754 28.7252L96.6325 28.52ZM94.2645 28.878C93.5552 28.878 92.9704 28.7597 92.5005 28.5345L92.2845 28.9855C92.8386 29.251 93.5018 29.378 94.2645 29.378V28.878ZM92.5024 28.5354C92.0335 28.306 91.6859 28.0127 91.4476 27.66L91.0334 27.94C91.3284 28.3766 91.7488 28.7233 92.2826 28.9846L92.5024 28.5354ZM91.4494 27.6626C91.2056 27.2921 91.0709 26.896 91.0419 26.471L90.5431 26.505C90.5781 27.0187 90.7421 27.4973 91.0316 27.9374L91.4494 27.6626ZM90.7925 26.738H92.0405V26.238H90.7925V26.738ZM91.7923 26.5178C91.8288 26.8217 91.9318 27.1155 92.0966 27.398L92.5284 27.146C92.3945 26.9165 92.3162 26.6876 92.2887 26.4582L91.7923 26.5178ZM92.1031 27.4086C92.2922 27.6985 92.5698 27.9281 92.9207 28.1036L93.1443 27.6564C92.8552 27.5119 92.6528 27.3362 92.5219 27.1354L92.1031 27.4086ZM92.9268 28.1065C93.2913 28.2767 93.7471 28.354 94.2805 28.354V27.854C93.7899 27.854 93.4137 27.782 93.1382 27.6535L92.9268 28.1065ZM94.2805 28.354C94.4558 28.354 94.6652 28.3366 94.9063 28.3037L94.8387 27.8083C94.6105 27.8394 94.4252 27.854 94.2805 27.854V28.354ZM94.9063 28.3037C95.1606 28.269 95.4045 28.2053 95.6373 28.1121L95.4517 27.6479C95.2579 27.7254 95.0538 27.779 94.8387 27.8083L94.9063 28.3037ZM95.6335 28.1136C95.8934 28.0146 96.1149 27.8638 96.2926 27.6606L95.9164 27.3314C95.7955 27.4695 95.6436 27.5747 95.4555 27.6464L95.6335 28.1136ZM96.2926 27.6606C96.4887 27.4366 96.5785 27.156 96.5785 26.84H96.0785C96.0785 27.0574 96.019 27.2141 95.9164 27.3314L96.2926 27.6606ZM96.5785 26.84C96.5785 26.4334 96.4153 26.0991 96.089 25.868L95.8 26.276C95.9857 26.4076 96.0785 26.5852 96.0785 26.84H96.5785ZM96.089 25.868C95.7998 25.6631 95.437 25.5138 95.0101 25.4127L94.8949 25.8993C95.2787 25.9902 95.5772 26.1182 95.8 26.276L96.089 25.868ZM95.0161 25.4142C94.6062 25.3064 94.1701 25.2041 93.7077 25.1073L93.6053 25.5967C94.0603 25.6919 94.4881 25.7923 94.8889 25.8978L95.0161 25.4142ZM93.7089 25.1075C93.2718 25.0139 92.8565 24.8944 92.4629 24.7494L92.2901 25.2186C92.7072 25.3722 93.1452 25.4981 93.6041 25.5965L93.7089 25.1075ZM92.4683 24.7515C92.0925 24.6031 91.795 24.4042 91.5682 24.1584L91.2008 24.4976C91.486 24.8065 91.8498 25.0449 92.2847 25.2165L92.4683 24.7515ZM91.5714 24.1619C91.3662 23.9311 91.2505 23.6067 91.2505 23.16H90.7505C90.7505 23.6946 90.8908 24.1489 91.1976 24.4941L91.5714 24.1619ZM91.2505 23.16C91.2505 22.5034 91.4824 22.0214 91.9352 21.6795L91.6338 21.2805C91.0413 21.728 90.7505 22.366 90.7505 23.16H91.2505ZM91.9358 21.679C92.4076 21.3204 93.1285 21.122 94.1365 21.122V20.622C93.0752 20.622 92.228 20.8289 91.6332 21.281L91.9358 21.679ZM94.1365 21.122C94.8169 21.122 95.3444 21.2307 95.7345 21.4305L95.9625 20.9855C95.4779 20.7373 94.8641 20.622 94.1365 20.622V21.122ZM95.741 21.4337C96.1566 21.6316 96.4535 21.8816 96.6475 22.1772L97.0655 21.9028C96.8115 21.5158 96.4364 21.211 95.956 20.9823L95.741 21.4337ZM96.6505 22.1816C96.8627 22.4904 96.9859 22.8192 97.0239 23.1709L97.5211 23.1171C97.4737 22.6795 97.3196 22.2723 97.0625 21.8984L96.6505 22.1816ZM97.2725 22.894H96.0565V23.394H97.2725V22.894ZM96.3046 23.113C96.253 22.7001 96.0447 22.3513 95.7032 22.0708L95.3858 22.4572C95.6416 22.6673 95.7747 22.9052 95.8084 23.175L96.3046 23.113ZM95.7066 22.0737C95.3496 21.7695 94.7945 21.646 94.1045 21.646V22.146C94.7585 22.146 95.1634 22.2678 95.3824 22.4543L95.7066 22.0737ZM94.1045 21.646C93.4528 21.646 92.9222 21.7431 92.5471 21.9701C92.1517 22.2093 91.9505 22.5803 91.9505 23.048H92.4505C92.4505 22.7477 92.5666 22.5427 92.8059 22.3979C93.0654 22.2409 93.4869 22.146 94.1045 22.146V21.646ZM91.9505 23.048C91.9505 23.4476 92.117 23.7728 92.4458 23.992L92.7232 23.576C92.54 23.4539 92.4505 23.2884 92.4505 23.048H91.9505ZM92.4458 23.992C92.7314 24.1824 93.0898 24.3304 93.5129 24.4418L93.6401 23.9582C93.2525 23.8562 92.9496 23.7269 92.7232 23.576L92.4458 23.992ZM93.5189 24.4433C93.9261 24.5397 94.3545 24.6361 94.8041 24.7325L94.9089 24.2435C94.4625 24.1479 94.0375 24.0523 93.6341 23.9567L93.5189 24.4433ZM94.8108 24.7338C95.2548 24.8164 95.6713 24.9348 96.0607 25.0885L96.2443 24.6235C95.8231 24.4572 95.3755 24.3303 94.9022 24.2422L94.8108 24.7338ZM96.0607 25.0885C96.4323 25.2352 96.7279 25.4422 96.9547 25.7067L97.3343 25.3813C97.0491 25.0485 96.6833 24.7968 96.2443 24.6235L96.0607 25.0885ZM96.9576 25.7101C97.162 25.94 97.2785 26.269 97.2785 26.728H97.7785C97.7785 26.1843 97.639 25.724 97.3314 25.3779L96.9576 25.7101ZM97.2785 26.728C97.2785 27.4316 97.0145 27.9493 96.4896 28.3148L96.7754 28.7252C97.4452 28.2587 97.7785 27.5817 97.7785 26.728H97.2785ZM96.4904 28.3143C95.9589 28.6815 95.225 28.878 94.2645 28.878V29.378C95.288 29.378 96.1327 29.1692 96.7746 28.7257L96.4904 28.3143ZM99.0233 19.656H98.7733V19.906H99.0233V19.656ZM99.0233 18.088V17.838H98.7733V18.088H99.0233ZM100.319 18.088H100.569V17.838H100.319V18.088ZM100.319 19.656V19.906H100.569V19.656H100.319ZM99.0713 29H98.8213V29.25H99.0713V29ZM99.0713 21V20.75H98.8213V21H99.0713ZM100.271 21H100.521V20.75H100.271V21ZM100.271 29V29.25H100.521V29H100.271ZM99.2733 19.656V18.088H98.7733V19.656H99.2733ZM99.0233 18.338H100.319V17.838H99.0233V18.338ZM100.069 18.088V19.656H100.569V18.088H100.069ZM100.319 19.406H99.0233V19.906H100.319V19.406ZM99.3213 29V21H98.8213V29H99.3213ZM99.0713 21.25H100.271V20.75H99.0713V21.25ZM100.021 21V29H100.521V21H100.021ZM100.271 28.75H99.0713V29.25H100.271V28.75ZM103.713 28.584L103.58 28.796L103.583 28.7977L103.713 28.584ZM102.337 22.92L102.559 23.0349L102.559 23.0333L102.337 22.92ZM103.713 21.432L103.842 21.6457L103.845 21.644L103.713 21.432ZM107.937 21.432L107.802 21.643L107.807 21.6457L107.937 21.432ZM109.312 22.92L109.09 23.0333L109.09 23.0349L109.312 22.92ZM109.312 27.08L109.09 26.9667L109.09 26.9667L109.312 27.08ZM107.937 28.584L108.068 28.7967L108.069 28.796L107.937 28.584ZM107.329 27.624L107.19 27.416L107.187 27.4177L107.329 27.624ZM108.273 26.52L108.499 26.6254L108.5 26.6235L108.273 26.52ZM108.273 23.48L108.499 23.3746L108.499 23.3746L108.273 23.48ZM107.329 22.376L107.187 22.5823L107.19 22.584L107.329 22.376ZM104.321 22.376L104.182 22.168L104.182 22.168L104.321 22.376ZM103.377 23.48L103.15 23.3746L103.15 23.3746L103.377 23.48ZM103.377 26.52L103.149 26.6235L103.15 26.6254L103.377 26.52ZM105.825 28.878C105.052 28.878 104.395 28.7056 103.842 28.3703L103.583 28.7977C104.225 29.1877 104.976 29.378 105.825 29.378V28.878ZM103.845 28.372C103.286 28.0228 102.859 27.5556 102.559 26.9667L102.114 27.1933C102.454 27.863 102.944 28.3985 103.58 28.796L103.845 28.372ZM102.559 26.9667C102.258 26.375 102.107 25.7209 102.107 25H101.607C101.607 25.7938 101.775 26.5264 102.114 27.1933L102.559 26.9667ZM102.107 25C102.107 24.2678 102.259 23.6145 102.559 23.0349L102.114 22.8051C101.774 23.4628 101.607 24.1962 101.607 25H102.107ZM102.559 23.0333C102.858 22.445 103.285 21.984 103.842 21.6457L103.583 21.2183C102.945 21.6054 102.455 22.1363 102.114 22.8067L102.559 23.0333ZM103.845 21.644C104.397 21.2991 105.053 21.122 105.825 21.122V20.622C104.974 20.622 104.223 20.8183 103.58 21.22L103.845 21.644ZM105.825 21.122C106.607 21.122 107.263 21.2994 107.802 21.6429L108.071 21.2211C107.437 20.8179 106.685 20.622 105.825 20.622V21.122ZM107.807 21.6457C108.364 21.984 108.791 22.445 109.09 23.0333L109.535 22.8067C109.194 22.1363 108.704 21.6054 108.066 21.2183L107.807 21.6457ZM109.09 23.0349C109.39 23.6145 109.543 24.2678 109.543 25H110.043C110.043 24.1962 109.875 23.4628 109.535 22.8051L109.09 23.0349ZM109.543 25C109.543 25.7209 109.391 26.375 109.09 26.9667L109.535 27.1933C109.874 26.5264 110.043 25.7938 110.043 25H109.543ZM109.09 26.9667C108.79 27.5556 108.363 28.0228 107.804 28.372L108.069 28.796C108.705 28.3985 109.195 27.863 109.535 27.1933L109.09 26.9667ZM107.805 28.3714C107.265 28.7053 106.608 28.878 105.825 28.878V29.378C106.683 29.378 107.435 29.188 108.068 28.7966L107.805 28.3714ZM105.825 28.29C106.461 28.29 107.014 28.1418 107.47 27.8303L107.187 27.4177C106.832 27.6609 106.382 27.79 105.825 27.79V28.29ZM107.467 27.832C107.922 27.5289 108.267 27.1252 108.499 26.6254L108.046 26.4146C107.852 26.8321 107.567 27.1644 107.19 27.416L107.467 27.832ZM108.5 26.6235C108.729 26.1198 108.843 25.5777 108.843 25H108.343C108.343 25.5103 108.243 25.9815 108.045 26.4165L108.5 26.6235ZM108.843 25C108.843 24.4125 108.729 23.8693 108.499 23.3746L108.046 23.5854C108.242 24.008 108.343 24.4782 108.343 25H108.843ZM108.499 23.3746C108.267 22.8748 107.922 22.4711 107.467 22.168L107.19 22.584C107.567 22.8356 107.852 23.1679 108.046 23.5854L108.499 23.3746ZM107.47 22.1697C107.014 21.8582 106.461 21.71 105.825 21.71V22.21C106.382 22.21 106.832 22.3391 107.187 22.5823L107.47 22.1697ZM105.825 21.71C105.197 21.71 104.646 21.8588 104.182 22.168L104.459 22.584C104.827 22.3385 105.278 22.21 105.825 22.21V21.71ZM104.182 22.168C103.727 22.4711 103.382 22.8748 103.15 23.3746L103.603 23.5854C103.797 23.1679 104.082 22.8356 104.459 22.584L104.182 22.168ZM103.15 23.3746C102.92 23.8693 102.807 24.4125 102.807 25H103.307C103.307 24.4782 103.407 24.008 103.603 23.5854L103.15 23.3746ZM102.807 25C102.807 25.5777 102.92 26.1198 103.149 26.6235L103.604 26.4165C103.406 25.9815 103.307 25.5103 103.307 25H102.807ZM103.15 26.6254C103.382 27.1252 103.727 27.5289 104.182 27.832L104.459 27.416C104.082 27.1644 103.797 26.8321 103.603 26.4146L103.15 26.6254ZM104.182 27.832C104.646 28.1412 105.197 28.29 105.825 28.29V27.79C105.278 27.79 104.827 27.6615 104.459 27.416L104.182 27.832ZM111.384 29H111.134V29.25H111.384V29ZM111.384 21V20.75H111.134V21H111.384ZM112.584 21H112.834V20.75H112.584V21ZM112.584 22.248H112.334V22.998L112.784 22.398L112.584 22.248ZM113.64 21.272L113.775 21.4825L113.775 21.4825L113.64 21.272ZM116.792 21.272L116.67 21.4906L116.676 21.4936L116.792 21.272ZM117.976 22.44L117.759 22.5641L117.762 22.5693L117.976 22.44ZM118.44 29V29.25H118.69V29H118.44ZM117.24 29H116.99V29.25H117.24V29ZM116.616 22.632L116.433 22.8021L116.435 22.8043L116.616 22.632ZM113.784 22.264L113.662 22.0458L113.662 22.0458L113.784 22.264ZM112.904 23.128L112.689 22.9994L112.688 23.0012L112.904 23.128ZM112.584 29V29.25H112.834V29H112.584ZM111.634 29V21H111.134V29H111.634ZM111.384 21.25H112.584V20.75H111.384V21.25ZM112.334 21V22.248H112.834V21H112.334ZM112.784 22.398C113.053 22.0386 113.383 21.7335 113.775 21.4825L113.505 21.0615C113.064 21.3438 112.69 21.6894 112.384 22.098L112.784 22.398ZM113.775 21.4825C114.139 21.2486 114.622 21.122 115.24 21.122V20.622C114.556 20.622 113.972 20.7621 113.505 21.0615L113.775 21.4825ZM115.24 21.122C115.752 21.122 116.228 21.2447 116.67 21.4905L116.913 21.0535C116.396 20.7659 115.836 20.622 115.24 20.622V21.122ZM116.676 21.4936C117.121 21.7256 117.482 22.0792 117.759 22.564L118.193 22.316C117.873 21.7555 117.444 21.3304 116.907 21.0504L116.676 21.4936ZM117.762 22.5693C118.042 23.0332 118.19 23.6203 118.19 24.344H118.69C118.69 23.5531 118.528 22.8708 118.19 22.3107L117.762 22.5693ZM118.19 24.344V29H118.69V24.344H118.19ZM118.44 28.75H117.24V29.25H118.44V28.75ZM117.49 29V24.376H116.99V29H117.49ZM117.49 24.376C117.49 23.6003 117.266 22.9526 116.797 22.4597L116.435 22.8043C116.798 23.1861 116.99 23.7011 116.99 24.376H117.49ZM116.799 22.4619C116.331 21.9585 115.724 21.71 115 21.71V22.21C115.598 22.21 116.068 22.4095 116.433 22.8021L116.799 22.4619ZM115 21.71C114.512 21.71 114.065 21.8206 113.662 22.0458L113.906 22.4822C114.228 22.302 114.591 22.21 115 22.21V21.71ZM113.662 22.0458C113.259 22.2708 112.935 22.5905 112.689 22.9994L113.118 23.2566C113.321 22.9188 113.583 22.6626 113.906 22.4822L113.662 22.0458ZM112.688 23.0012C112.449 23.4075 112.334 23.8738 112.334 24.392H112.834C112.834 23.9502 112.932 23.5738 113.119 23.2548L112.688 23.0012ZM112.334 24.392V29H112.834V24.392H112.334ZM112.584 28.75H111.384V29.25H112.584V28.75Z" fill="black"/>
</svg>
