<svg width="168" height="48" viewBox="0 0 168 48" fill="none" xmlns="http://www.w3.org/2000/svg">
<rect x="0.5" y="0.5" width="167" height="47" stroke="black"/>
<path d="M39.296 29V18.408H44.064C45.1947 18.408 46.0853 18.7173 46.736 19.336C47.3867 19.944 47.712 20.7707 47.712 21.816C47.712 22.8613 47.3867 23.6933 46.736 24.312C46.0853 24.92 45.1947 25.224 44.064 25.224H40.496V29H39.296ZM40.496 24.104H43.984C44.816 24.104 45.4453 23.9013 45.872 23.496C46.2987 23.0907 46.512 22.5307 46.512 21.816C46.512 21.112 46.2987 20.5573 45.872 20.152C45.4453 19.7467 44.816 19.544 43.984 19.544H40.496V24.104ZM52.2069 29.128C51.6629 29.128 51.1455 29 50.6549 28.744C50.1642 28.4773 49.7642 28.088 49.4549 27.576C49.1562 27.0533 49.0069 26.4133 49.0069 25.656V21H50.2069V25.624C50.2069 26.3493 50.4149 26.936 50.8309 27.384C51.2575 27.8213 51.7962 28.04 52.4469 28.04C52.8949 28.04 53.3002 27.9387 53.6629 27.736C54.0255 27.5227 54.3135 27.2347 54.5269 26.872C54.7509 26.5093 54.8629 26.088 54.8629 25.608V21H56.0629V29H54.8629V27.752C54.5749 28.136 54.2229 28.4613 53.8069 28.728C53.3909 28.9947 52.8575 29.128 52.2069 29.128ZM62.2134 29.128C61.552 29.128 60.9814 29 60.5014 28.744C60.032 28.488 59.648 28.1467 59.3494 27.72V29H58.1494V17.8H59.3494V22.296C59.648 21.8587 60.032 21.512 60.5014 21.256C60.9814 21 61.552 20.872 62.2134 20.872C62.992 20.872 63.6694 21.0587 64.2454 21.432C64.832 21.7947 65.2854 22.2907 65.6054 22.92C65.9254 23.5387 66.0854 24.232 66.0854 25C66.0854 25.7573 65.9254 26.4507 65.6054 27.08C65.2854 27.7093 64.832 28.2107 64.2454 28.584C63.6694 28.9467 62.992 29.128 62.2134 29.128ZM62.0534 28.04C62.6507 28.04 63.1574 27.9013 63.5734 27.624C64 27.3467 64.3254 26.9787 64.5494 26.52C64.7734 26.0507 64.8854 25.544 64.8854 25C64.8854 24.4453 64.7734 23.9387 64.5494 23.48C64.3254 23.0213 64 22.6533 63.5734 22.376C63.1574 22.0987 62.6507 21.96 62.0534 21.96C61.4667 21.96 60.9654 22.0987 60.5494 22.376C60.1334 22.6533 59.8187 23.0213 59.6054 23.48C59.392 23.9387 59.2854 24.4453 59.2854 25C59.2854 25.544 59.392 26.0507 59.6054 26.52C59.8187 26.9787 60.1334 27.3467 60.5494 27.624C60.9654 27.9013 61.4667 28.04 62.0534 28.04ZM67.665 29V17.8H68.865V29H67.665ZM70.8983 19.656V18.088H72.1943V19.656H70.8983ZM70.9463 29V21H72.1463V29H70.9463ZM77.6675 29.128C76.8675 29.128 76.1742 28.9467 75.5875 28.584C75.0008 28.2107 74.5422 27.7093 74.2115 27.08C73.8915 26.4507 73.7315 25.7573 73.7315 25C73.7315 24.232 73.8915 23.5387 74.2115 22.92C74.5422 22.2907 75.0008 21.7947 75.5875 21.432C76.1742 21.0587 76.8675 20.872 77.6675 20.872C78.6168 20.872 79.4222 21.1173 80.0835 21.608C80.7555 22.0987 81.2088 22.7333 81.4435 23.512H80.1475C79.9662 23.0533 79.6728 22.68 79.2675 22.392C78.8728 22.104 78.3928 21.96 77.8275 21.96C77.2408 21.96 76.7288 22.0987 76.2915 22.376C75.8542 22.6533 75.5182 23.0213 75.2835 23.48C75.0488 23.9387 74.9315 24.4453 74.9315 25C74.9315 25.544 75.0488 26.0507 75.2835 26.52C75.5182 26.9787 75.8542 27.3467 76.2915 27.624C76.7288 27.9013 77.2408 28.04 77.8275 28.04C78.3928 28.04 78.8728 27.896 79.2675 27.608C79.6728 27.32 79.9662 26.9467 80.1475 26.488H81.4435C81.2088 27.2667 80.7555 27.9013 80.0835 28.392C79.4222 28.8827 78.6168 29.128 77.6675 29.128ZM86.5929 29V18.408H94.3849V19.56H87.7929V23.112H93.6809V24.28H87.7929V27.848H94.3849V29H86.5929ZM97.9816 29L94.8456 21H96.1576L98.6856 27.72L101.198 21H102.51L99.3896 29H97.9816ZM107.03 29.128C106.219 29.128 105.51 28.9467 104.902 28.584C104.294 28.2107 103.819 27.7093 103.478 27.08C103.147 26.4507 102.982 25.7573 102.982 25C102.982 24.232 103.142 23.5387 103.462 22.92C103.782 22.2907 104.24 21.7947 104.838 21.432C105.435 21.0587 106.139 20.872 106.95 20.872C107.771 20.872 108.475 21.0587 109.062 21.432C109.659 21.7947 110.118 22.2907 110.438 22.92C110.758 23.5387 110.918 24.232 110.918 25V25.48H104.214C104.278 25.9493 104.427 26.3813 104.662 26.776C104.907 27.16 105.232 27.4693 105.638 27.704C106.043 27.928 106.512 28.04 107.046 28.04C107.611 28.04 108.086 27.9173 108.47 27.672C108.854 27.416 109.152 27.0907 109.366 26.696H110.678C110.4 27.4107 109.958 27.9973 109.35 28.456C108.752 28.904 107.979 29.128 107.03 29.128ZM104.23 24.36H109.67C109.563 23.6773 109.275 23.1067 108.806 22.648C108.336 22.1893 107.718 21.96 106.95 21.96C106.182 21.96 105.563 22.1893 105.094 22.648C104.635 23.1067 104.347 23.6773 104.23 24.36ZM112.384 29V21H113.584V22.248C113.872 21.864 114.224 21.5387 114.64 21.272C115.056 21.0053 115.589 20.872 116.24 20.872C116.794 20.872 117.312 21.0053 117.792 21.272C118.282 21.528 118.677 21.9173 118.976 22.44C119.285 22.952 119.44 23.5867 119.44 24.344V29H118.24V24.376C118.24 23.6507 118.032 23.0693 117.616 22.632C117.2 22.184 116.661 21.96 116 21.96C115.552 21.96 115.146 22.0613 114.784 22.264C114.421 22.4667 114.128 22.7547 113.904 23.128C113.69 23.4907 113.584 23.912 113.584 24.392V29H112.384ZM122.123 29V22.056H120.491V21H122.123V18.136H123.323V21H125.163V22.056H123.323V29H122.123Z" fill="black"/>
<path d="M39.296 29H39.046V29.25H39.296V29ZM39.296 18.408V18.158H39.046V18.408H39.296ZM46.736 19.336L46.5637 19.5172L46.5653 19.5187L46.736 19.336ZM46.736 24.312L46.9067 24.4947L46.9083 24.4932L46.736 24.312ZM40.496 25.224V24.974H40.246V25.224H40.496ZM40.496 29V29.25H40.746V29H40.496ZM40.496 24.104H40.246V24.354H40.496V24.104ZM45.872 23.496L46.0442 23.6772L46.0442 23.6772L45.872 23.496ZM45.872 20.152L45.6998 20.3332L45.872 20.152ZM40.496 19.544V19.294H40.246V19.544H40.496ZM39.546 29V18.408H39.046V29H39.546ZM39.296 18.658H44.064V18.158H39.296V18.658ZM44.064 18.658C45.1479 18.658 45.9708 18.9534 46.5637 19.5172L46.9083 19.1548C46.1999 18.4813 45.2414 18.158 44.064 18.158V18.658ZM46.5653 19.5187C47.1565 20.0711 47.462 20.8268 47.462 21.816H47.962C47.962 20.7145 47.6168 19.8169 46.9067 19.1533L46.5653 19.5187ZM47.462 21.816C47.462 22.8051 47.1565 23.5672 46.5637 24.1308L46.9083 24.4932C47.6168 23.8195 47.962 22.9176 47.962 21.816H47.462ZM46.5653 24.1293C45.9725 24.6833 45.1491 24.974 44.064 24.974V25.474C45.2403 25.474 46.1982 25.1567 46.9067 24.4947L46.5653 24.1293ZM44.064 24.974H40.496V25.474H44.064V24.974ZM40.246 25.224V29H40.746V25.224H40.246ZM40.496 28.75H39.296V29.25H40.496V28.75ZM40.496 24.354H43.984V23.854H40.496V24.354ZM43.984 24.354C44.8535 24.354 45.5548 24.1422 46.0442 23.6772L45.6998 23.3147C45.3359 23.6605 44.7785 23.854 43.984 23.854V24.354ZM46.0442 23.6772C46.5309 23.2148 46.762 22.5834 46.762 21.816H46.262C46.262 22.4779 46.0664 22.9665 45.6998 23.3148L46.0442 23.6772ZM46.762 21.816C46.762 21.058 46.5302 20.4324 46.0442 19.9707L45.6998 20.3332C46.0672 20.6822 46.262 21.166 46.262 21.816H46.762ZM46.0442 19.9707C45.5548 19.5058 44.8535 19.294 43.984 19.294V19.794C44.7785 19.794 45.3359 19.9875 45.6998 20.3332L46.0442 19.9707ZM43.984 19.294H40.496V19.794H43.984V19.294ZM40.246 19.544V24.104H40.746V19.544H40.246ZM50.6549 28.744L50.5355 28.9637L50.5392 28.9656L50.6549 28.744ZM49.4549 27.576L49.2378 27.7001L49.2409 27.7053L49.4549 27.576ZM49.0069 21V20.75H48.7569V21H49.0069ZM50.2069 21H50.4569V20.75H50.2069V21ZM50.8309 27.384L50.6476 27.5542L50.6519 27.5586L50.8309 27.384ZM53.6629 27.736L53.7849 27.9543L53.7896 27.9515L53.6629 27.736ZM54.5269 26.872L54.3141 26.7406L54.3114 26.7452L54.5269 26.872ZM54.8629 21V20.75H54.6129V21H54.8629ZM56.0629 21H56.3129V20.75H56.0629V21ZM56.0629 29V29.25H56.3129V29H56.0629ZM54.8629 29H54.6129V29.25H54.8629V29ZM54.8629 27.752H55.1129V27.002L54.6629 27.602L54.8629 27.752ZM53.8069 28.728L53.9418 28.9385L53.8069 28.728ZM52.2069 28.878C51.7039 28.878 51.2261 28.7601 50.7705 28.5224L50.5392 28.9656C51.065 29.2399 51.6219 29.378 52.2069 29.378V28.878ZM50.7743 28.5243C50.3254 28.2804 49.9569 27.9235 49.6689 27.4467L49.2409 27.7053C49.5715 28.2525 50.0031 28.6743 50.5355 28.9637L50.7743 28.5243ZM49.6719 27.452C49.3997 26.9756 49.2569 26.3809 49.2569 25.656H48.7569C48.7569 26.4458 48.9127 27.131 49.2378 27.7L49.6719 27.452ZM49.2569 25.656V21H48.7569V25.656H49.2569ZM49.0069 21.25H50.2069V20.75H49.0069V21.25ZM49.9569 21V25.624H50.4569V21H49.9569ZM49.9569 25.624C49.9569 26.3999 50.1809 27.0515 50.6477 27.5541L51.0141 27.2139C50.6488 26.8205 50.4569 26.2987 50.4569 25.624H49.9569ZM50.6519 27.5586C51.1289 28.0475 51.7337 28.29 52.4469 28.29V27.79C51.8587 27.79 51.3861 27.5951 51.0098 27.2094L50.6519 27.5586ZM52.4469 28.29C52.9341 28.29 53.382 28.1793 53.7848 27.9542L53.5409 27.5178C53.2184 27.698 52.8556 27.79 52.4469 27.79V28.29ZM53.7896 27.9515C54.1889 27.7166 54.5075 27.3981 54.7424 26.9988L54.3114 26.7452C54.1196 27.0713 53.8621 27.3287 53.5361 27.5205L53.7896 27.9515ZM54.7396 27.0034C54.9909 26.5964 55.1129 26.1284 55.1129 25.608H54.6129C54.6129 26.0476 54.5108 26.4223 54.3142 26.7406L54.7396 27.0034ZM55.1129 25.608V21H54.6129V25.608H55.1129ZM54.8629 21.25H56.0629V20.75H54.8629V21.25ZM55.8129 21V29H56.3129V21H55.8129ZM56.0629 28.75H54.8629V29.25H56.0629V28.75ZM55.1129 29V27.752H54.6129V29H55.1129ZM54.6629 27.602C54.3933 27.9614 54.0636 28.2665 53.672 28.5175L53.9418 28.9385C54.3822 28.6562 54.7564 28.3106 55.0629 27.902L54.6629 27.602ZM53.672 28.5175C53.3071 28.7514 52.8246 28.878 52.2069 28.878V29.378C52.8905 29.378 53.4746 29.2379 53.9418 28.9385L53.672 28.5175ZM60.5014 28.744L60.3817 28.9635L60.3837 28.9646L60.5014 28.744ZM59.3494 27.72L59.5542 27.5766L59.0994 26.9269V27.72H59.3494ZM59.3494 29V29.25H59.5994V29H59.3494ZM58.1494 29H57.8994V29.25H58.1494V29ZM58.1494 17.8V17.55H57.8994V17.8H58.1494ZM59.3494 17.8H59.5994V17.55H59.3494V17.8ZM59.3494 22.296H59.0994V23.1054L59.5558 22.437L59.3494 22.296ZM60.5014 21.256L60.3837 21.0354L60.3817 21.0365L60.5014 21.256ZM64.2454 21.432L64.1094 21.6418L64.1139 21.6446L64.2454 21.432ZM65.6054 22.92L65.3825 23.0333L65.3833 23.0349L65.6054 22.92ZM65.6054 27.08L65.3825 26.9667L65.3825 26.9667L65.6054 27.08ZM64.2454 28.584L64.3786 28.7956L64.3796 28.7949L64.2454 28.584ZM63.5734 27.624L63.4371 27.4144L63.4347 27.416L63.5734 27.624ZM64.5494 26.52L64.774 26.6297L64.775 26.6277L64.5494 26.52ZM64.5494 23.48L64.774 23.3703L64.774 23.3703L64.5494 23.48ZM63.5734 22.376L63.4347 22.584L63.4371 22.5856L63.5734 22.376ZM60.5494 22.376L60.4107 22.168L60.4107 22.168L60.5494 22.376ZM59.6054 23.48L59.3787 23.3746L59.3787 23.3746L59.6054 23.48ZM59.6054 26.52L59.3778 26.6235L59.3787 26.6254L59.6054 26.52ZM60.5494 27.624L60.4107 27.832L60.4107 27.832L60.5494 27.624ZM62.2134 28.878C61.5843 28.878 61.0558 28.7564 60.619 28.5234L60.3837 28.9646C60.907 29.2436 61.5198 29.378 62.2134 29.378V28.878ZM60.6211 28.5245C60.1847 28.2865 59.8301 27.9709 59.5542 27.5766L59.1446 27.8634C59.4659 28.3225 59.8794 28.6895 60.3817 28.9635L60.6211 28.5245ZM59.0994 27.72V29H59.5994V27.72H59.0994ZM59.3494 28.75H58.1494V29.25H59.3494V28.75ZM58.3994 29V17.8H57.8994V29H58.3994ZM58.1494 18.05H59.3494V17.55H58.1494V18.05ZM59.0994 17.8V22.296H59.5994V17.8H59.0994ZM59.5558 22.437C59.832 22.0326 60.1861 21.7127 60.6211 21.4755L60.3817 21.0365C59.878 21.3113 59.4641 21.6847 59.1429 22.155L59.5558 22.437ZM60.619 21.4766C61.0558 21.2436 61.5843 21.122 62.2134 21.122V20.622C61.5198 20.622 60.907 20.7564 60.3837 21.0354L60.619 21.4766ZM62.2134 21.122C62.9505 21.122 63.5792 21.2981 64.1094 21.6418L64.3813 21.2222C63.7596 20.8192 63.0336 20.622 62.2134 20.622V21.122ZM64.1139 21.6446C64.6606 21.9826 65.0828 22.4438 65.3825 23.0333L65.8282 22.8067C65.488 22.1375 65.0035 21.6067 64.3768 21.2194L64.1139 21.6446ZM65.3833 23.0349C65.6831 23.6145 65.8354 24.2678 65.8354 25H66.3354C66.3354 24.1962 66.1676 23.4628 65.8274 22.8051L65.3833 23.0349ZM65.8354 25C65.8354 25.7209 65.6834 26.375 65.3825 26.9667L65.8282 27.1933C66.1674 26.5264 66.3354 25.7938 66.3354 25H65.8354ZM65.3825 26.9667C65.0825 27.5568 64.6595 28.0242 64.1112 28.3731L64.3796 28.7949C65.0046 28.3972 65.4883 27.8619 65.8282 27.1933L65.3825 26.9667ZM64.1122 28.3724C63.5816 28.7065 62.9519 28.878 62.2134 28.878V29.378C63.0322 29.378 63.7572 29.1868 64.3786 28.7956L64.1122 28.3724ZM62.0534 28.29C62.6903 28.29 63.2475 28.1417 63.7121 27.832L63.4347 27.416C63.0672 27.661 62.6111 27.79 62.0534 27.79V28.29ZM63.7096 27.8336C64.1744 27.5315 64.5302 27.1289 64.774 26.6297L64.3247 26.4103C64.1205 26.8284 63.8257 27.1618 63.4371 27.4144L63.7096 27.8336ZM64.775 26.6277C65.0158 26.1232 65.1354 25.5795 65.1354 25H64.6354C64.6354 25.5085 64.531 25.9782 64.3238 26.4123L64.775 26.6277ZM65.1354 25C65.1354 24.4107 65.0161 23.866 64.774 23.3703L64.3247 23.5897C64.5306 24.0113 64.6354 24.48 64.6354 25H65.1354ZM64.774 23.3703C64.5302 22.8711 64.1744 22.4685 63.7096 22.1664L63.4371 22.5856C63.8257 22.8382 64.1205 23.1716 64.3247 23.5897L64.774 23.3703ZM63.7121 22.168C63.2475 21.8583 62.6903 21.71 62.0534 21.71V22.21C62.6111 22.21 63.0672 22.339 63.4347 22.584L63.7121 22.168ZM62.0534 21.71C61.4261 21.71 60.8745 21.8588 60.4107 22.168L60.6881 22.584C61.0563 22.3385 61.5073 22.21 62.0534 22.21V21.71ZM60.4107 22.168C59.956 22.4711 59.6111 22.8748 59.3787 23.3746L59.8321 23.5854C60.0263 23.1679 60.3107 22.8356 60.6881 22.584L60.4107 22.168ZM59.3787 23.3746C59.1486 23.8693 59.0354 24.4125 59.0354 25H59.5354C59.5354 24.4782 59.6355 24.008 59.8321 23.5854L59.3787 23.3746ZM59.0354 25C59.0354 25.5777 59.1489 26.1198 59.3778 26.6235L59.833 26.4165C59.6352 25.9815 59.5354 25.5103 59.5354 25H59.0354ZM59.3787 26.6254C59.6111 27.1252 59.956 27.5289 60.4107 27.832L60.6881 27.416C60.3107 27.1644 60.0263 26.8321 59.8321 26.4146L59.3787 26.6254ZM60.4107 27.832C60.8745 28.1412 61.4261 28.29 62.0534 28.29V27.79C61.5073 27.79 61.0563 27.6615 60.6881 27.416L60.4107 27.832ZM67.665 29H67.415V29.25H67.665V29ZM67.665 17.8V17.55H67.415V17.8H67.665ZM68.865 17.8H69.115V17.55H68.865V17.8ZM68.865 29V29.25H69.115V29H68.865ZM67.915 29V17.8H67.415V29H67.915ZM67.665 18.05H68.865V17.55H67.665V18.05ZM68.615 17.8V29H69.115V17.8H68.615ZM68.865 28.75H67.665V29.25H68.865V28.75ZM70.8983 19.656H70.6483V19.906H70.8983V19.656ZM70.8983 18.088V17.838H70.6483V18.088H70.8983ZM72.1943 18.088H72.4443V17.838H72.1943V18.088ZM72.1943 19.656V19.906H72.4443V19.656H72.1943ZM70.9463 29H70.6963V29.25H70.9463V29ZM70.9463 21V20.75H70.6963V21H70.9463ZM72.1463 21H72.3963V20.75H72.1463V21ZM72.1463 29V29.25H72.3963V29H72.1463ZM71.1483 19.656V18.088H70.6483V19.656H71.1483ZM70.8983 18.338H72.1943V17.838H70.8983V18.338ZM71.9443 18.088V19.656H72.4443V18.088H71.9443ZM72.1943 19.406H70.8983V19.906H72.1943V19.406ZM71.1963 29V21H70.6963V29H71.1963ZM70.9463 21.25H72.1463V20.75H70.9463V21.25ZM71.8963 21V29H72.3963V21H71.8963ZM72.1463 28.75H70.9463V29.25H72.1463V28.75ZM75.5875 28.584L75.4533 28.7949L75.456 28.7966L75.5875 28.584ZM74.2115 27.08L73.9886 27.1933L73.9902 27.1963L74.2115 27.08ZM74.2115 22.92L73.9902 22.8037L73.9894 22.8051L74.2115 22.92ZM75.5875 21.432L75.719 21.6447L75.7217 21.6429L75.5875 21.432ZM80.0835 21.608L79.9345 21.8088L79.9361 21.8099L80.0835 21.608ZM81.4435 23.512V23.762H81.7799L81.6829 23.4399L81.4435 23.512ZM80.1475 23.512L79.915 23.6039L79.9775 23.762H80.1475V23.512ZM79.2675 22.392L79.1201 22.594L79.1227 22.5958L79.2675 22.392ZM76.2915 22.376L76.1576 22.1649L76.1576 22.1649L76.2915 22.376ZM75.2835 23.48L75.0609 23.3661L75.0609 23.3661L75.2835 23.48ZM75.2835 26.52L75.0599 26.6318L75.0609 26.6339L75.2835 26.52ZM76.2915 27.624L76.1576 27.8351L76.1576 27.8351L76.2915 27.624ZM79.2675 27.608L79.1227 27.4042L79.1201 27.4061L79.2675 27.608ZM80.1475 26.488V26.238H79.9775L79.915 26.3961L80.1475 26.488ZM81.4435 26.488L81.6829 26.5601L81.7799 26.238H81.4435V26.488ZM80.0835 28.392L79.9361 28.1901L79.9345 28.1912L80.0835 28.392ZM77.6675 28.878C76.9064 28.878 76.2602 28.7059 75.719 28.3714L75.456 28.7966C76.0882 29.1874 76.8286 29.378 77.6675 29.378V28.878ZM75.7217 28.3731C75.1727 28.0237 74.7437 27.5554 74.4328 26.9637L73.9902 27.1963C74.3407 27.8633 74.829 28.3976 75.4533 28.7949L75.7217 28.3731ZM74.4343 26.9667C74.1335 26.375 73.9815 25.7209 73.9815 25H73.4815C73.4815 25.7938 73.6495 26.5264 73.9887 27.1933L74.4343 26.9667ZM73.9815 25C73.9815 24.2678 74.1337 23.6145 74.4336 23.0349L73.9894 22.8051C73.6493 23.4628 73.4815 24.1962 73.4815 25H73.9815ZM74.4328 23.0363C74.7434 22.4453 75.1715 21.9831 75.719 21.6446L75.456 21.2194C74.8301 21.6063 74.341 22.1361 73.9902 22.8037L74.4328 23.0363ZM75.7217 21.6429C76.2625 21.2988 76.9077 21.122 77.6675 21.122V20.622C76.8273 20.622 76.0858 20.8186 75.4533 21.2211L75.7217 21.6429ZM77.6675 21.122C78.5717 21.122 79.3227 21.3548 79.9345 21.8088L80.2325 21.4072C79.5217 20.8799 78.662 20.622 77.6675 20.622V21.122ZM79.9361 21.8099C80.5652 22.2693 80.9856 22.8589 81.2041 23.5841L81.6829 23.4399C81.4321 22.6078 80.9458 21.9281 80.2309 21.4061L79.9361 21.8099ZM81.4435 23.262H80.1475V23.762H81.4435V23.262ZM80.38 23.4201C80.1807 22.916 79.8567 22.504 79.4123 22.1882L79.1227 22.5958C79.4889 22.856 79.7516 23.1906 79.915 23.6039L80.38 23.4201ZM79.4149 22.1901C78.9709 21.8661 78.4372 21.71 77.8275 21.71V22.21C78.3485 22.21 78.7747 22.3419 79.1201 22.5939L79.4149 22.1901ZM77.8275 21.71C77.1999 21.71 76.6401 21.8589 76.1576 22.1649L76.4254 22.5871C76.8175 22.3384 77.2818 22.21 77.8275 22.21V21.71ZM76.1576 22.1649C75.6828 22.466 75.3161 22.8675 75.0609 23.3661L75.5061 23.5939C75.7203 23.1752 76.0256 22.8407 76.4254 22.5871L76.1576 22.1649ZM75.0609 23.3661C74.8069 23.8627 74.6815 24.4088 74.6815 25H75.1815C75.1815 24.4818 75.2908 24.0146 75.5061 23.5939L75.0609 23.3661ZM74.6815 25C74.6815 25.5813 74.8072 26.1265 75.0599 26.6318L75.5071 26.4082C75.2904 25.9749 75.1815 25.5067 75.1815 25H74.6815ZM75.0609 26.6339C75.3161 27.1325 75.6828 27.534 76.1576 27.8351L76.4254 27.4129C76.0256 27.1593 75.7203 26.8248 75.5061 26.4061L75.0609 26.6339ZM76.1576 27.8351C76.6401 28.1411 77.1999 28.29 77.8275 28.29V27.79C77.2818 27.79 76.8175 27.6616 76.4254 27.4129L76.1576 27.8351ZM77.8275 28.29C78.4372 28.29 78.9709 28.1339 79.4149 27.8099L79.1201 27.4061C78.7747 27.6581 78.3485 27.79 77.8275 27.79V28.29ZM79.4123 27.8118C79.8567 27.496 80.1807 27.084 80.38 26.5799L79.915 26.3961C79.7516 26.8094 79.4889 27.144 79.1227 27.4042L79.4123 27.8118ZM80.1475 26.738H81.4435V26.238H80.1475V26.738ZM81.2041 26.4159C80.9856 27.1411 80.5652 27.7307 79.9361 28.1901L80.2309 28.5939C80.9458 28.0719 81.4321 27.3922 81.6829 26.5601L81.2041 26.4159ZM79.9345 28.1912C79.3227 28.6452 78.5717 28.878 77.6675 28.878V29.378C78.662 29.378 79.5217 29.1201 80.2325 28.5928L79.9345 28.1912ZM86.5929 29H86.3429V29.25H86.5929V29ZM86.5929 18.408V18.158H86.3429V18.408H86.5929ZM94.3849 18.408H94.6349V18.158H94.3849V18.408ZM94.3849 19.56V19.81H94.6349V19.56H94.3849ZM87.7929 19.56V19.31H87.5429V19.56H87.7929ZM87.7929 23.112H87.5429V23.362H87.7929V23.112ZM93.6809 23.112H93.9309V22.862H93.6809V23.112ZM93.6809 24.28V24.53H93.9309V24.28H93.6809ZM87.7929 24.28V24.03H87.5429V24.28H87.7929ZM87.7929 27.848H87.5429V28.098H87.7929V27.848ZM94.3849 27.848H94.6349V27.598H94.3849V27.848ZM94.3849 29V29.25H94.6349V29H94.3849ZM86.8429 29V18.408H86.3429V29H86.8429ZM86.5929 18.658H94.3849V18.158H86.5929V18.658ZM94.1349 18.408V19.56H94.6349V18.408H94.1349ZM94.3849 19.31H87.7929V19.81H94.3849V19.31ZM87.5429 19.56V23.112H88.0429V19.56H87.5429ZM87.7929 23.362H93.6809V22.862H87.7929V23.362ZM93.4309 23.112V24.28H93.9309V23.112H93.4309ZM93.6809 24.03H87.7929V24.53H93.6809V24.03ZM87.5429 24.28V27.848H88.0429V24.28H87.5429ZM87.7929 28.098H94.3849V27.598H87.7929V28.098ZM94.1349 27.848V29H94.6349V27.848H94.1349ZM94.3849 28.75H86.5929V29.25H94.3849V28.75ZM97.9816 29L97.7489 29.0912L97.8111 29.25H97.9816V29ZM94.8456 21V20.75H94.4791L94.6129 21.0912L94.8456 21ZM96.1576 21L96.3916 20.912L96.3307 20.75H96.1576V21ZM98.6856 27.72L98.4516 27.808L98.6864 28.432L98.9198 27.8075L98.6856 27.72ZM101.198 21V20.75H101.024L100.963 20.9125L101.198 21ZM102.51 21L102.743 21.0908L102.875 20.75H102.51V21ZM99.3896 29V29.25H99.5605L99.6225 29.0908L99.3896 29ZM98.2144 28.9088L95.0784 20.9088L94.6129 21.0912L97.7489 29.0912L98.2144 28.9088ZM94.8456 21.25H96.1576V20.75H94.8456V21.25ZM95.9236 21.088L98.4516 27.808L98.9196 27.632L96.3916 20.912L95.9236 21.088ZM98.9198 27.8075L101.432 21.0875L100.963 20.9125L98.4515 27.6325L98.9198 27.8075ZM101.198 21.25H102.51V20.75H101.198V21.25ZM102.277 20.9092L99.1567 28.9092L99.6225 29.0908L102.743 21.0908L102.277 20.9092ZM99.3896 28.75H97.9816V29.25H99.3896V28.75ZM104.902 28.584L104.771 28.7971L104.773 28.7987L104.902 28.584ZM103.478 27.08L103.256 27.1963L103.258 27.1992L103.478 27.08ZM103.462 22.92L103.684 23.0349L103.684 23.0333L103.462 22.92ZM104.838 21.432L104.967 21.6457L104.97 21.644L104.838 21.432ZM109.062 21.432L108.927 21.643L108.932 21.6457L109.062 21.432ZM110.438 22.92L110.215 23.0333L110.215 23.0349L110.438 22.92ZM110.918 25.48V25.73H111.168V25.48H110.918ZM104.214 25.48V25.23H103.927L103.966 25.5138L104.214 25.48ZM104.662 26.776L104.447 26.9038L104.451 26.9106L104.662 26.776ZM105.638 27.704L105.512 27.9204L105.517 27.9228L105.638 27.704ZM108.47 27.672L108.604 27.8827L108.608 27.88L108.47 27.672ZM109.366 26.696V26.446H109.216L109.146 26.5771L109.366 26.696ZM110.678 26.696L110.911 26.7864L111.043 26.446H110.678V26.696ZM109.35 28.456L109.5 28.656L109.5 28.6556L109.35 28.456ZM104.23 24.36L103.983 24.3177L103.933 24.61H104.23V24.36ZM109.67 24.36V24.61H109.962L109.917 24.3214L109.67 24.36ZM108.806 22.648L108.98 22.4692L108.98 22.4692L108.806 22.648ZM105.094 22.648L104.919 22.4692L104.917 22.4712L105.094 22.648ZM107.03 28.878C106.257 28.878 105.593 28.7057 105.03 28.3693L104.773 28.7987C105.426 29.1877 106.18 29.378 107.03 29.378V28.878ZM105.032 28.371C104.462 28.0207 104.018 27.5517 103.697 26.9608L103.258 27.1992C103.62 27.8669 104.125 28.4007 104.771 28.797L105.032 28.371ZM103.699 26.9637C103.388 26.3726 103.232 25.7195 103.232 25H102.732C102.732 25.7951 102.905 26.5288 103.256 27.1963L103.699 26.9637ZM103.232 25C103.232 24.2678 103.384 23.6145 103.684 23.0349L103.239 22.8051C102.899 23.4628 102.732 24.1962 102.732 25H103.232ZM103.684 23.0333C103.983 22.445 104.41 21.984 104.967 21.6457L104.708 21.2183C104.07 21.6054 103.58 22.1363 103.239 22.8067L103.684 23.0333ZM104.97 21.644C105.522 21.2991 106.178 21.122 106.95 21.122V20.622C106.099 20.622 105.348 20.8183 104.705 21.22L104.97 21.644ZM106.95 21.122C107.732 21.122 108.388 21.2994 108.927 21.6429L109.196 21.2211C108.562 20.8179 107.81 20.622 106.95 20.622V21.122ZM108.932 21.6457C109.489 21.984 109.916 22.445 110.215 23.0333L110.66 22.8067C110.319 22.1363 109.829 21.6054 109.191 21.2183L108.932 21.6457ZM110.215 23.0349C110.515 23.6145 110.668 24.2678 110.668 25H111.168C111.168 24.1962 111 23.4628 110.66 22.8051L110.215 23.0349ZM110.668 25V25.48H111.168V25H110.668ZM110.918 25.23H104.214V25.73H110.918V25.23ZM103.966 25.5138C104.034 26.0153 104.194 26.4794 104.447 26.9038L104.876 26.6482C104.659 26.2833 104.521 25.8834 104.461 25.4462L103.966 25.5138ZM104.451 26.9106C104.718 27.3292 105.073 27.6662 105.512 27.9204L105.763 27.4876C105.391 27.2724 105.095 26.9908 104.872 26.6414L104.451 26.9106ZM105.517 27.9228C105.964 28.1702 106.476 28.29 107.046 28.29V27.79C106.548 27.79 106.121 27.6858 105.758 27.4852L105.517 27.9228ZM107.046 28.29C107.647 28.29 108.171 28.1592 108.604 27.8827L108.335 27.4613C108 27.6754 107.575 27.79 107.046 27.79V28.29ZM108.608 27.88C109.025 27.6021 109.352 27.2465 109.585 26.8149L109.146 26.5771C108.952 26.9348 108.682 27.2299 108.331 27.464L108.608 27.88ZM109.366 26.946H110.678V26.446H109.366V26.946ZM110.444 26.6056C110.184 27.2772 109.77 27.8259 109.199 28.2564L109.5 28.6556C110.145 28.1687 110.617 27.5442 110.911 26.7864L110.444 26.6056ZM109.2 28.256C108.656 28.6637 107.94 28.878 107.03 28.878V29.378C108.018 29.378 108.848 29.1443 109.5 28.656L109.2 28.256ZM104.23 24.61H109.67V24.11H104.23V24.61ZM109.917 24.3214C109.802 23.5884 109.49 22.9677 108.98 22.4692L108.631 22.8268C109.059 23.2457 109.324 23.7662 109.422 24.3986L109.917 24.3214ZM108.98 22.4692C108.456 21.9572 107.771 21.71 106.95 21.71V22.21C107.664 22.21 108.216 22.4215 108.631 22.8268L108.98 22.4692ZM106.95 21.71C106.128 21.71 105.443 21.9572 104.919 22.4692L105.268 22.8268C105.683 22.4215 106.235 22.21 106.95 22.21V21.71ZM104.917 22.4712C104.419 22.969 104.109 23.5877 103.983 24.3177L104.476 24.4023C104.585 23.767 104.851 23.2444 105.27 22.8248L104.917 22.4712ZM112.384 29H112.134V29.25H112.384V29ZM112.384 21V20.75H112.134V21H112.384ZM113.584 21H113.834V20.75H113.584V21ZM113.584 22.248H113.334V22.998L113.784 22.398L113.584 22.248ZM114.64 21.272L114.775 21.4825L114.775 21.4825L114.64 21.272ZM117.792 21.272L117.67 21.4906L117.676 21.4936L117.792 21.272ZM118.976 22.44L118.759 22.5641L118.762 22.5693L118.976 22.44ZM119.44 29V29.25H119.69V29H119.44ZM118.24 29H117.99V29.25H118.24V29ZM117.616 22.632L117.433 22.8021L117.435 22.8043L117.616 22.632ZM114.784 22.264L114.662 22.0458L114.662 22.0458L114.784 22.264ZM113.904 23.128L113.689 22.9994L113.688 23.0012L113.904 23.128ZM113.584 29V29.25H113.834V29H113.584ZM112.634 29V21H112.134V29H112.634ZM112.384 21.25H113.584V20.75H112.384V21.25ZM113.334 21V22.248H113.834V21H113.334ZM113.784 22.398C114.053 22.0386 114.383 21.7335 114.775 21.4825L114.505 21.0615C114.064 21.3438 113.69 21.6894 113.384 22.098L113.784 22.398ZM114.775 21.4825C115.139 21.2486 115.622 21.122 116.24 21.122V20.622C115.556 20.622 114.972 20.7621 114.505 21.0615L114.775 21.4825ZM116.24 21.122C116.752 21.122 117.228 21.2447 117.67 21.4905L117.913 21.0535C117.396 20.7659 116.836 20.622 116.24 20.622V21.122ZM117.676 21.4936C118.121 21.7256 118.482 22.0792 118.759 22.564L119.193 22.316C118.873 21.7555 118.444 21.3304 117.907 21.0504L117.676 21.4936ZM118.762 22.5693C119.042 23.0332 119.19 23.6203 119.19 24.344H119.69C119.69 23.5531 119.528 22.8708 119.19 22.3107L118.762 22.5693ZM119.19 24.344V29H119.69V24.344H119.19ZM119.44 28.75H118.24V29.25H119.44V28.75ZM118.49 29V24.376H117.99V29H118.49ZM118.49 24.376C118.49 23.6003 118.266 22.9526 117.797 22.4597L117.435 22.8043C117.798 23.1861 117.99 23.7011 117.99 24.376H118.49ZM117.799 22.4619C117.331 21.9585 116.724 21.71 116 21.71V22.21C116.598 22.21 117.068 22.4095 117.433 22.8021L117.799 22.4619ZM116 21.71C115.512 21.71 115.065 21.8206 114.662 22.0458L114.906 22.4822C115.228 22.302 115.591 22.21 116 22.21V21.71ZM114.662 22.0458C114.259 22.2708 113.935 22.5905 113.689 22.9994L114.118 23.2566C114.321 22.9188 114.583 22.6626 114.906 22.4822L114.662 22.0458ZM113.688 23.0012C113.449 23.4075 113.334 23.8738 113.334 24.392H113.834C113.834 23.9502 113.932 23.5738 114.119 23.2548L113.688 23.0012ZM113.334 24.392V29H113.834V24.392H113.334ZM113.584 28.75H112.384V29.25H113.584V28.75ZM122.123 29H121.873V29.25H122.123V29ZM122.123 22.056H122.373V21.806H122.123V22.056ZM120.491 22.056H120.241V22.306H120.491V22.056ZM120.491 21V20.75H120.241V21H120.491ZM122.123 21V21.25H122.373V21H122.123ZM122.123 18.136V17.886H121.873V18.136H122.123ZM123.323 18.136H123.573V17.886H123.323V18.136ZM123.323 21H123.073V21.25H123.323V21ZM125.163 21H125.413V20.75H125.163V21ZM125.163 22.056V22.306H125.413V22.056H125.163ZM123.323 22.056V21.806H123.073V22.056H123.323ZM123.323 29V29.25H123.573V29H123.323ZM122.373 29V22.056H121.873V29H122.373ZM122.123 21.806H120.491V22.306H122.123V21.806ZM120.741 22.056V21H120.241V22.056H120.741ZM120.491 21.25H122.123V20.75H120.491V21.25ZM122.373 21V18.136H121.873V21H122.373ZM122.123 18.386H123.323V17.886H122.123V18.386ZM123.073 18.136V21H123.573V18.136H123.073ZM123.323 21.25H125.163V20.75H123.323V21.25ZM124.913 21V22.056H125.413V21H124.913ZM125.163 21.806H123.323V22.306H125.163V21.806ZM123.073 22.056V29H123.573V22.056H123.073ZM123.323 28.75H122.123V29.25H123.323V28.75Z" fill="black"/>
</svg>
