<svg width="112" height="112" viewBox="0 0 112 112" fill="none" xmlns="http://www.w3.org/2000/svg">
<g clip-path="url(#clip0_4998_8311)">
<path d="M16.7958 39C7.51994 39 0 46.3872 0 55.4997C0 64.6131 7.51994 72 16.7958 72C26.0721 72 33.5916 64.6131 33.5916 55.4997C33.5916 46.3878 26.0725 39.0008 16.7956 39.0008L16.7958 39ZM24.4983 62.7973C24.1966 63.2834 23.552 63.4357 23.0588 63.1395C19.1147 60.7714 14.1504 60.2365 8.30393 61.5485C7.74055 61.6754 7.17897 61.3284 7.05062 60.7752C6.92165 60.2217 7.27323 59.67 7.83802 59.544C14.236 58.107 19.724 58.7255 24.1511 61.383C24.6445 61.6805 24.8009 62.313 24.4981 62.7977L24.4983 62.7973ZM26.554 58.3052C26.1742 58.9107 25.3683 59.1006 24.7528 58.7288C20.2391 56.0031 13.3563 55.2136 8.01633 56.806C7.32377 57.0115 6.59232 56.6281 6.38213 55.9489C6.17354 55.2686 6.56405 54.5514 7.25539 54.3445C13.3551 52.5263 20.938 53.407 26.1226 56.5369C26.7384 56.9093 26.9329 57.7013 26.5538 58.3054L26.554 58.3052ZM26.7305 53.6269C21.3165 50.4683 12.3862 50.1779 7.21786 51.7189C6.38794 51.9662 5.51027 51.5059 5.25877 50.6906C5.00726 49.8749 5.47538 49.0133 6.30591 48.7654C12.2388 46.9961 22.1015 47.3379 28.3338 50.9725C29.0803 51.4078 29.3252 52.3549 28.8828 53.0873C28.4415 53.8206 27.4748 54.0624 26.7307 53.6269H26.7305ZM45.6958 54.2322C42.7959 53.5528 42.2796 53.076 42.2796 52.0741C42.2796 51.1276 43.1868 50.4906 44.5358 50.4906C45.8434 50.4906 47.1401 50.9743 48.4995 51.9701C48.5406 52.0003 48.5922 52.0123 48.6429 52.0044C48.6937 51.9969 48.7386 51.9695 48.7683 51.9283L50.1843 49.9675C50.2424 49.8867 50.2266 49.7754 50.1481 49.7137C48.5302 48.4383 46.7083 47.8183 44.5787 47.8183C41.4475 47.8183 39.2604 49.6643 39.2604 52.3055C39.2604 55.1378 41.1471 56.1406 44.4074 56.9148C47.1824 57.5427 47.6507 58.0688 47.6507 59.0092C47.6507 60.0513 46.7037 60.6991 45.1796 60.6991C43.4868 60.6991 42.1062 60.139 40.5616 58.825C40.5233 58.7925 40.4708 58.7777 40.4222 58.7805C40.3711 58.7846 40.3243 58.8078 40.2919 58.8463L38.7042 60.7025C38.6376 60.7795 38.646 60.8946 38.7231 60.9612C40.5201 62.5372 42.7303 63.3697 45.1154 63.3697C48.4895 63.3697 50.6698 61.5586 50.6698 58.7554C50.6758 56.3891 49.2338 55.0789 45.7019 54.2348L45.6958 54.2322ZM58.3033 51.4226C56.8408 51.4226 55.6412 51.9884 54.652 53.1479V51.8428C54.652 51.7398 54.567 51.6558 54.4623 51.6558H51.8656C51.7607 51.6558 51.6758 51.7398 51.6758 51.8428V66.3446C51.6758 66.4477 51.7607 66.5316 51.8656 66.5316H54.4623C54.567 66.5316 54.652 66.4477 54.652 66.3446V61.767C55.6414 62.8578 56.8412 63.3908 58.3033 63.3908C61.0207 63.3908 63.7716 61.3357 63.7716 57.4074C63.7757 53.478 61.0239 51.4224 58.3063 51.4224L58.3033 51.4226ZM60.7522 57.4074C60.7522 59.4078 59.4978 60.8038 57.7018 60.8038C55.9262 60.8038 54.5868 59.3444 54.5868 57.4074C54.5868 55.4706 55.9262 54.0109 57.7018 54.0109C59.4687 54.0107 60.7524 55.4388 60.7524 57.4071L60.7522 57.4074ZM70.8225 51.4226C67.3228 51.4226 64.5811 54.0699 64.5811 57.4501C64.5811 60.7935 67.304 63.413 70.7795 63.413C74.2916 63.413 77.0417 60.7746 77.0417 57.4073C77.0417 54.0517 74.3101 51.4229 70.8223 51.4229L70.8225 51.4226ZM70.8225 60.8237C68.961 60.8237 67.5577 59.3544 67.5577 57.4064C67.5577 55.45 68.9125 54.0304 70.7795 54.0304C72.653 54.0304 74.0658 55.4997 74.0658 57.4491C74.0658 59.405 72.7019 60.8237 70.8226 60.8237H70.8225ZM84.5149 51.6558H81.6575V48.7859C81.6575 48.683 81.5729 48.5991 81.468 48.5991H78.8717C78.7666 48.5991 78.6814 48.683 78.6814 48.7859V51.6558H77.4328C77.3283 51.6558 77.2437 51.7398 77.2437 51.8428V54.0352C77.2437 54.138 77.3283 54.2222 77.4328 54.2222H78.6814V59.8949C78.6814 62.1873 79.8428 63.3496 82.1334 63.3496C83.0649 63.3496 83.8376 63.1606 84.5659 62.755C84.625 62.7224 84.6617 62.6598 84.6617 62.5932V60.5055C84.6617 60.441 84.6276 60.3801 84.5715 60.3465C84.5149 60.3116 84.4445 60.3098 84.3866 60.338C83.8864 60.5853 83.4028 60.6993 82.8623 60.6993C82.0292 60.6993 81.6575 60.3277 81.6575 59.4949V54.2232H84.5149C84.6198 54.2232 84.7043 54.1392 84.7043 54.0362V51.844C84.7083 51.741 84.624 51.657 84.5178 51.657L84.5149 51.6558ZM94.4709 51.6671V51.3146C94.4709 50.2776 94.8757 49.8152 95.7834 49.8152C96.3247 49.8152 96.7596 49.9208 97.2465 50.0804C97.3065 50.0989 97.3691 50.0896 97.4178 50.0544C97.468 50.0191 97.4963 49.9626 97.4963 49.9027V47.7531C97.4963 47.6709 97.4425 47.5982 97.3619 47.5739C96.8474 47.4236 96.1892 47.2693 95.2036 47.2693C92.8053 47.2693 91.5375 48.5961 91.5375 51.1049V51.6448H90.29C90.1853 51.6448 90.0994 51.7287 90.0994 51.8316V54.0352C90.0994 54.138 90.1853 54.2221 90.29 54.2221H91.5375V62.9721C91.5375 63.0751 91.6221 63.159 91.7268 63.159H94.3235C94.4284 63.159 94.5139 63.0751 94.5139 62.9721V54.2228H96.9383L100.652 62.9705C100.231 63.8896 99.8159 64.0725 99.25 64.0725C98.7925 64.0725 98.3107 63.9383 97.8181 63.6735C97.7718 63.6485 97.7169 63.6443 97.6669 63.6595C97.6174 63.6767 97.5757 63.7129 97.5546 63.7602L96.6745 65.657C96.6326 65.7467 96.6685 65.8519 96.7564 65.8984C97.6751 66.3872 98.5045 66.5958 99.5296 66.5958C101.447 66.5958 102.507 65.7185 103.441 63.358L107.946 51.9224C107.968 51.8649 107.962 51.7999 107.926 51.7488C107.89 51.6982 107.833 51.6677 107.77 51.6677H105.066C104.985 51.6677 104.913 51.7183 104.886 51.793L102.117 59.5634L99.0841 51.7878C99.0565 51.7155 98.9854 51.6676 98.9068 51.6676H94.4703L94.4709 51.6671ZM88.6987 51.6558H86.102C85.9971 51.6558 85.9117 51.7398 85.9117 51.8428V62.9721C85.9117 63.0751 85.9971 63.159 86.102 63.159H88.6987C88.8034 63.159 88.889 63.0751 88.889 62.9721V51.8436C88.8891 51.819 88.8842 51.7947 88.8746 51.7719C88.8651 51.7492 88.851 51.7286 88.8333 51.7112C88.8156 51.6938 88.7946 51.68 88.7715 51.6707C88.7483 51.6613 88.7235 51.6565 88.6985 51.6566L88.6987 51.6558ZM87.4151 46.5884C86.3864 46.5884 85.5517 47.4065 85.5517 48.4171C85.5517 49.4282 86.3866 50.2473 87.4151 50.2473C88.4434 50.2473 89.2773 49.4282 89.2773 48.4171C89.2773 47.4067 88.443 46.5884 87.4161 46.5884H87.4151ZM110.163 55.2341C109.135 55.2341 108.336 54.4233 108.336 53.4388C108.336 52.4542 109.146 51.6342 110.173 51.6342C111.2 51.6342 112 52.4447 112 53.4285C112 54.4131 111.19 55.2341 110.163 55.2341H110.163ZM110.173 51.8127C109.237 51.8127 108.529 52.5437 108.529 53.4388C108.529 54.3335 109.232 55.0546 110.164 55.0546C111.099 55.0546 111.808 54.3242 111.808 53.4285C111.808 52.5338 111.104 51.8127 110.174 51.8127H110.173ZM110.578 53.6131L111.095 54.324H110.659L110.194 53.6719H109.794V54.324H109.429V52.4396H110.284C110.73 52.4396 111.023 52.6636 111.023 53.0408C111.025 53.3497 110.843 53.5385 110.58 53.6131L110.578 53.6131ZM110.269 52.763H109.794V53.359H110.269C110.507 53.359 110.649 53.2449 110.649 53.0607C110.649 52.8668 110.506 52.763 110.27 52.763L110.269 52.763Z" fill="#BDBDBD"/>
</g>
<defs>
<clipPath id="clip0_4998_8311">
<rect width="112" height="112" fill="white"/>
</clipPath>
</defs>
</svg>
