<svg width="168" height="48" viewBox="0 0 168 48" fill="none" xmlns="http://www.w3.org/2000/svg">
<rect x="0.5" y="0.5" width="167" height="47" stroke="white"/>
<path d="M52.088 29.128C51.0427 29.128 50.1947 28.9893 49.544 28.712C48.8933 28.424 48.4027 28.0293 48.072 27.528C47.752 27.0267 47.5653 26.4613 47.512 25.832H48.76C48.792 26.344 48.9627 26.76 49.272 27.08C49.5813 27.3893 49.9867 27.6187 50.488 27.768C51 27.9173 51.56 27.992 52.168 27.992C53.064 27.992 53.7733 27.8373 54.296 27.528C54.8187 27.208 55.08 26.7387 55.08 26.12C55.08 25.7467 54.9467 25.448 54.68 25.224C54.424 24.9893 54.0773 24.7973 53.64 24.648C53.2133 24.4987 52.744 24.3653 52.232 24.248C51.72 24.12 51.2027 23.9867 50.68 23.848C50.168 23.7093 49.6933 23.5333 49.256 23.32C48.8293 23.1067 48.4827 22.8347 48.216 22.504C47.96 22.1627 47.832 21.7307 47.832 21.208C47.832 20.344 48.1627 19.64 48.824 19.096C49.496 18.552 50.4933 18.28 51.816 18.28C52.7547 18.28 53.528 18.424 54.136 18.712C54.744 18.9893 55.1973 19.3573 55.496 19.816C55.8053 20.2747 55.976 20.7707 56.008 21.304H54.776C54.712 20.7707 54.4453 20.3227 53.976 19.96C53.5067 19.5867 52.7867 19.4 51.816 19.4C51.2187 19.4 50.7333 19.4587 50.36 19.576C49.9867 19.6933 49.6987 19.848 49.496 20.04C49.304 20.2213 49.1707 20.4133 49.096 20.616C49.032 20.8187 49 21.0107 49 21.192C49 21.544 49.128 21.832 49.384 22.056C49.6507 22.2693 49.9973 22.4507 50.424 22.6C50.8613 22.7387 51.3413 22.8667 51.864 22.984C52.3867 23.1013 52.904 23.2347 53.416 23.384C53.9387 23.5227 54.4133 23.704 54.84 23.928C55.2773 24.1413 55.624 24.4187 55.88 24.76C56.1467 25.1013 56.28 25.5387 56.28 26.072C56.28 27.0533 55.9067 27.8107 55.16 28.344C54.4133 28.8667 53.3893 29.128 52.088 29.128ZM61.0038 29.128C60.4598 29.128 59.9424 29 59.4518 28.744C58.9611 28.4773 58.5611 28.088 58.2518 27.576C57.9531 27.0533 57.8038 26.4133 57.8038 25.656V21H59.0038V25.624C59.0038 26.3493 59.2118 26.936 59.6278 27.384C60.0544 27.8213 60.5931 28.04 61.2438 28.04C61.6918 28.04 62.0971 27.9387 62.4598 27.736C62.8224 27.5227 63.1104 27.2347 63.3238 26.872C63.5478 26.5093 63.6598 26.088 63.6598 25.608V21H64.8598V29H63.6598V27.752C63.3718 28.136 63.0198 28.4613 62.6038 28.728C62.1878 28.9947 61.6544 29.128 61.0038 29.128ZM71.0103 29.128C70.3489 29.128 69.7783 29 69.2983 28.744C68.8289 28.488 68.4449 28.1467 68.1463 27.72V29H66.9463V17.8H68.1463V22.296C68.4449 21.8587 68.8289 21.512 69.2983 21.256C69.7783 21 70.3489 20.872 71.0103 20.872C71.7889 20.872 72.4663 21.0587 73.0423 21.432C73.6289 21.7947 74.0823 22.2907 74.4023 22.92C74.7223 23.5387 74.8823 24.232 74.8823 25C74.8823 25.7573 74.7223 26.4507 74.4023 27.08C74.0823 27.7093 73.6289 28.2107 73.0423 28.584C72.4663 28.9467 71.7889 29.128 71.0103 29.128ZM70.8503 28.04C71.4476 28.04 71.9543 27.9013 72.3703 27.624C72.7969 27.3467 73.1223 26.9787 73.3463 26.52C73.5703 26.0507 73.6823 25.544 73.6823 25C73.6823 24.4453 73.5703 23.9387 73.3463 23.48C73.1223 23.0213 72.7969 22.6533 72.3703 22.376C71.9543 22.0987 71.4476 21.96 70.8503 21.96C70.2636 21.96 69.7623 22.0987 69.3463 22.376C68.9303 22.6533 68.6156 23.0213 68.4023 23.48C68.1889 23.9387 68.0823 24.4453 68.0823 25C68.0823 25.544 68.1889 26.0507 68.4023 26.52C68.6156 26.9787 68.9303 27.3467 69.3463 27.624C69.7623 27.9013 70.2636 28.04 70.8503 28.04ZM79.3739 29.128C78.6379 29.128 78.0139 29.0053 77.5019 28.76C77.0005 28.5147 76.6165 28.1947 76.3499 27.8C76.0832 27.3947 75.9339 26.9573 75.9019 26.488H77.1499C77.1819 26.7547 77.2725 27.016 77.4219 27.272C77.5819 27.5173 77.8219 27.72 78.1419 27.88C78.4619 28.0293 78.8779 28.104 79.3899 28.104C79.5499 28.104 79.7472 28.088 79.9819 28.056C80.2165 28.024 80.4405 27.9653 80.6539 27.88C80.8779 27.7947 81.0645 27.6667 81.2139 27.496C81.3632 27.3253 81.4379 27.1067 81.4379 26.84C81.4379 26.5093 81.3099 26.2533 81.0539 26.072C80.7979 25.8907 80.4672 25.752 80.0619 25.656C79.6565 25.5493 79.2245 25.448 78.7659 25.352C78.3179 25.256 77.8912 25.1333 77.4859 24.984C77.0805 24.824 76.7499 24.6053 76.4939 24.328C76.2379 24.04 76.1099 23.6507 76.1099 23.16C76.1099 22.4347 76.3712 21.8747 76.8939 21.48C77.4272 21.0747 78.2112 20.872 79.2459 20.872C79.9499 20.872 80.5205 20.984 80.9579 21.208C81.4059 21.4213 81.7419 21.6987 81.9659 22.04C82.2005 22.3813 82.3392 22.7493 82.3819 23.144H81.1659C81.1232 22.8027 80.9525 22.5093 80.6539 22.264C80.3659 22.0187 79.8859 21.896 79.2139 21.896C77.9445 21.896 77.3099 22.28 77.3099 23.048C77.3099 23.368 77.4379 23.6133 77.6939 23.784C77.9499 23.9547 78.2805 24.0933 78.6859 24.2C79.0912 24.296 79.5179 24.392 79.9659 24.488C80.4245 24.5733 80.8565 24.696 81.2619 24.856C81.6672 25.016 81.9979 25.2453 82.2539 25.544C82.5099 25.832 82.6379 26.2267 82.6379 26.728C82.6379 27.5067 82.3392 28.104 81.7419 28.52C81.1552 28.9253 80.3659 29.128 79.3739 29.128ZM87.6206 29.128C86.8206 29.128 86.1273 28.9467 85.5406 28.584C84.954 28.2107 84.4953 27.7093 84.1646 27.08C83.8446 26.4507 83.6846 25.7573 83.6846 25C83.6846 24.232 83.8446 23.5387 84.1646 22.92C84.4953 22.2907 84.954 21.7947 85.5406 21.432C86.1273 21.0587 86.8206 20.872 87.6206 20.872C88.57 20.872 89.3753 21.1173 90.0366 21.608C90.7086 22.0987 91.162 22.7333 91.3966 23.512H90.1006C89.9193 23.0533 89.626 22.68 89.2206 22.392C88.826 22.104 88.346 21.96 87.7806 21.96C87.194 21.96 86.682 22.0987 86.2446 22.376C85.8073 22.6533 85.4713 23.0213 85.2366 23.48C85.002 23.9387 84.8846 24.4453 84.8846 25C84.8846 25.544 85.002 26.0507 85.2366 26.52C85.4713 26.9787 85.8073 27.3467 86.2446 27.624C86.682 27.9013 87.194 28.04 87.7806 28.04C88.346 28.04 88.826 27.896 89.2206 27.608C89.626 27.32 89.9193 26.9467 90.1006 26.488H91.3966C91.162 27.2667 90.7086 27.9013 90.0366 28.392C89.3753 28.8827 88.57 29.128 87.6206 29.128ZM92.8838 29V21H94.0838V22.968C94.1264 22.8293 94.2064 22.648 94.3238 22.424C94.4518 22.1893 94.6331 21.9547 94.8678 21.72C95.1024 21.4853 95.3958 21.288 95.7478 21.128C96.1104 20.9573 96.5371 20.872 97.0278 20.872H97.1078V22.072H96.9638C96.3664 22.072 95.8491 22.2373 95.4118 22.568C94.9851 22.888 94.6544 23.3093 94.4198 23.832C94.1958 24.344 94.0838 24.8933 94.0838 25.48V29H92.8838ZM98.3514 19.656V18.088H99.6474V19.656H98.3514ZM98.3994 29V21H99.5994V29H98.3994ZM105.745 29.128C105.083 29.128 104.513 29 104.033 28.744C103.563 28.488 103.179 28.1467 102.881 27.72V29H101.681V17.8H102.881V22.296C103.179 21.8587 103.563 21.512 104.033 21.256C104.513 21 105.083 20.872 105.745 20.872C106.523 20.872 107.201 21.0587 107.777 21.432C108.363 21.7947 108.817 22.2907 109.137 22.92C109.457 23.5387 109.617 24.232 109.617 25C109.617 25.7573 109.457 26.4507 109.137 27.08C108.817 27.7093 108.363 28.2107 107.777 28.584C107.201 28.9467 106.523 29.128 105.745 29.128ZM105.585 28.04C106.182 28.04 106.689 27.9013 107.105 27.624C107.531 27.3467 107.857 26.9787 108.081 26.52C108.305 26.0507 108.417 25.544 108.417 25C108.417 24.4453 108.305 23.9387 108.081 23.48C107.857 23.0213 107.531 22.6533 107.105 22.376C106.689 22.0987 106.182 21.96 105.585 21.96C104.998 21.96 104.497 22.0987 104.081 22.376C103.665 22.6533 103.35 23.0213 103.137 23.48C102.923 23.9387 102.817 24.4453 102.817 25C102.817 25.544 102.923 26.0507 103.137 26.52C103.35 26.9787 103.665 27.3467 104.081 27.624C104.497 27.9013 104.998 28.04 105.585 28.04ZM114.748 29.128C113.938 29.128 113.228 28.9467 112.62 28.584C112.012 28.2107 111.538 27.7093 111.196 27.08C110.866 26.4507 110.7 25.7573 110.7 25C110.7 24.232 110.86 23.5387 111.18 22.92C111.5 22.2907 111.959 21.7947 112.556 21.432C113.154 21.0587 113.858 20.872 114.668 20.872C115.49 20.872 116.194 21.0587 116.78 21.432C117.378 21.7947 117.836 22.2907 118.156 22.92C118.476 23.5387 118.636 24.232 118.636 25V25.48H111.932C111.996 25.9493 112.146 26.3813 112.38 26.776C112.626 27.16 112.951 27.4693 113.356 27.704C113.762 27.928 114.231 28.04 114.764 28.04C115.33 28.04 115.804 27.9173 116.188 27.672C116.572 27.416 116.871 27.0907 117.084 26.696H118.396C118.119 27.4107 117.676 27.9973 117.068 28.456C116.471 28.904 115.698 29.128 114.748 29.128ZM111.948 24.36H117.388C117.282 23.6773 116.994 23.1067 116.524 22.648C116.055 22.1893 115.436 21.96 114.668 21.96C113.9 21.96 113.282 22.1893 112.812 22.648C112.354 23.1067 112.066 23.6773 111.948 24.36Z" fill="white"/>
<path d="M49.544 28.712L49.4428 28.9406L49.446 28.942L49.544 28.712ZM48.072 27.528L47.8612 27.6625L47.8633 27.6656L48.072 27.528ZM47.512 25.832V25.582H47.2399L47.2629 25.8531L47.512 25.832ZM48.76 25.832L49.0095 25.8164L48.9949 25.582H48.76V25.832ZM49.272 27.08L49.0922 27.2538L49.0952 27.2568L49.272 27.08ZM50.488 27.768L50.4166 28.0076L50.418 28.008L50.488 27.768ZM54.296 27.528L54.4233 27.7432L54.4265 27.7412L54.296 27.528ZM54.68 25.224L54.5109 25.4085L54.5192 25.4154L54.68 25.224ZM53.64 24.648L53.5574 24.884L53.5592 24.8846L53.64 24.648ZM52.232 24.248L52.1714 24.4906L52.1762 24.4917L52.232 24.248ZM50.68 23.848L50.6146 24.0893L50.6159 24.0896L50.68 23.848ZM49.256 23.32L49.1442 23.5436L49.1464 23.5447L49.256 23.32ZM48.216 22.504L48.0159 22.6541L48.0214 22.6609L48.216 22.504ZM48.824 19.096L48.6667 18.9017L48.6652 18.9029L48.824 19.096ZM54.136 18.712L54.029 18.938L54.0322 18.9395L54.136 18.712ZM55.496 19.816L55.2865 19.9524L55.2887 19.9558L55.496 19.816ZM56.008 21.304V21.554H56.2735L56.2576 21.289L56.008 21.304ZM54.776 21.304L54.5278 21.3338L54.5542 21.554H54.776V21.304ZM53.976 19.96L53.8204 20.1557L53.8231 20.1578L53.976 19.96ZM50.36 19.576L50.285 19.3375L50.285 19.3375L50.36 19.576ZM49.496 20.04L49.6677 20.2218L49.6679 20.2215L49.496 20.04ZM49.096 20.616L48.8612 20.5295L48.8576 20.5407L49.096 20.616ZM49.384 22.056L49.2192 22.2443L49.2278 22.2512L49.384 22.056ZM50.424 22.6L50.3414 22.8361L50.3484 22.8383L50.424 22.6ZM53.416 23.384L53.346 23.6241L53.3519 23.6256L53.416 23.384ZM54.84 23.928L54.7237 24.1494L54.7304 24.1527L54.84 23.928ZM55.88 24.76L55.68 24.91L55.683 24.9139L55.88 24.76ZM55.16 28.344L55.3034 28.5488L55.3053 28.5474L55.16 28.344ZM52.088 28.878C51.0617 28.878 50.2506 28.7414 49.642 28.482L49.446 28.942C50.1388 29.2373 51.0237 29.378 52.088 29.378V28.878ZM49.6452 28.4834C49.0301 28.2111 48.5804 27.8448 48.2807 27.3904L47.8633 27.6656C48.2249 28.2139 48.7566 28.6369 49.4428 28.9406L49.6452 28.4834ZM48.2827 27.3935C47.9859 26.9284 47.8112 26.4024 47.7611 25.8109L47.2629 25.8531C47.3194 26.5202 47.5181 27.1249 47.8613 27.6625L48.2827 27.3935ZM47.512 26.082H48.76V25.582H47.512V26.082ZM48.5105 25.8476C48.5456 26.4093 48.7354 26.8846 49.0923 27.2538L49.4517 26.9062C49.19 26.6354 49.0384 26.2787 49.0095 25.8164L48.5105 25.8476ZM49.0952 27.2568C49.4392 27.6007 49.8833 27.8487 50.4166 28.0076L50.5594 27.5284C50.0901 27.3886 49.7235 27.1779 49.4488 26.9032L49.0952 27.2568ZM50.418 28.008C50.9557 28.1648 51.5396 28.242 52.168 28.242V27.742C51.5804 27.742 51.0443 27.6698 50.558 27.528L50.418 28.008ZM52.168 28.242C53.0889 28.242 53.848 28.0836 54.4233 27.7431L54.1687 27.3129C53.6987 27.591 53.0391 27.742 52.168 27.742V28.242ZM54.4265 27.7412C55.0243 27.3752 55.33 26.8247 55.33 26.12H54.83C54.83 26.6527 54.6131 27.0408 54.1655 27.3148L54.4265 27.7412ZM55.33 26.12C55.33 25.6789 55.1685 25.3078 54.8408 25.0326L54.5192 25.4154C54.7248 25.5882 54.83 25.8145 54.83 26.12H55.33ZM54.8489 25.0397C54.5605 24.7754 54.1805 24.5684 53.7208 24.4114L53.5592 24.8846C53.9741 25.0263 54.2875 25.2033 54.5111 25.4083L54.8489 25.0397ZM53.7226 24.412C53.2859 24.2592 52.8075 24.1234 52.2878 24.0043L52.1762 24.4917C52.6805 24.6073 53.1408 24.7381 53.5574 24.884L53.7226 24.412ZM52.2926 24.0055C51.7818 23.8778 51.2656 23.7447 50.7441 23.6064L50.6159 24.0896C51.1397 24.2286 51.6582 24.3622 52.1714 24.4905L52.2926 24.0055ZM50.7454 23.6067C50.2472 23.4718 49.7875 23.3011 49.3656 23.0953L49.1464 23.5447C49.5991 23.7655 50.0888 23.9469 50.6146 24.0893L50.7454 23.6067ZM49.3678 23.0964C48.9692 22.8971 48.6521 22.6466 48.4106 22.3471L48.0214 22.6609C48.3132 23.0228 48.6894 23.3162 49.1442 23.5436L49.3678 23.0964ZM48.416 22.354C48.1992 22.0649 48.082 21.689 48.082 21.208H47.582C47.582 21.7723 47.7208 22.2604 48.016 22.654L48.416 22.354ZM48.082 21.208C48.082 20.418 48.3798 19.7851 48.9828 19.2891L48.6652 18.9029C47.9455 19.4949 47.582 20.27 47.582 21.208H48.082ZM48.9813 19.2903C49.5906 18.7971 50.5217 18.53 51.816 18.53V18.03C50.4649 18.03 49.4014 18.3069 48.6667 18.9017L48.9813 19.2903ZM51.816 18.53C52.7314 18.53 53.4649 18.6708 54.029 18.9379L54.243 18.4861C53.5911 18.1772 52.778 18.03 51.816 18.03V18.53ZM54.0322 18.9395C54.6067 19.2015 55.0189 19.5415 55.2865 19.9524L55.7055 19.6796C55.3757 19.1732 54.8813 18.7772 54.2398 18.4845L54.0322 18.9395ZM55.2887 19.9558C55.574 20.3788 55.7292 20.8319 55.7584 21.319L56.2576 21.289C56.2228 20.7094 56.0367 20.1706 55.7033 19.6762L55.2887 19.9558ZM56.008 21.054H54.776V21.554H56.008V21.054ZM55.0242 21.2742C54.9514 20.6671 54.6451 20.1611 54.1289 19.7622L53.8231 20.1578C54.2455 20.4842 54.4726 20.8742 54.5278 21.3338L55.0242 21.2742ZM54.1316 19.7643C53.598 19.3399 52.8107 19.15 51.816 19.15V19.65C52.7626 19.65 53.4153 19.8334 53.8204 20.1557L54.1316 19.7643ZM51.816 19.15C51.2051 19.15 50.6918 19.2097 50.285 19.3375L50.435 19.8145C50.7748 19.7077 51.2322 19.65 51.816 19.65V19.15ZM50.285 19.3375C49.8891 19.4619 49.5631 19.6321 49.3241 19.8585L49.6679 20.2215C49.8342 20.0639 50.0842 19.9247 50.435 19.8145L50.285 19.3375ZM49.3243 19.8582C49.1104 20.0603 48.9521 20.2835 48.8614 20.5296L49.3306 20.7024C49.3893 20.5431 49.4976 20.3824 49.6677 20.2218L49.3243 19.8582ZM48.8576 20.5407C48.7872 20.7637 48.75 20.9812 48.75 21.192H49.25C49.25 21.0402 49.2768 20.8737 49.3344 20.6913L48.8576 20.5407ZM48.75 21.192C48.75 21.6132 48.907 21.9708 49.2194 22.2441L49.5486 21.8679C49.349 21.6932 49.25 21.4748 49.25 21.192H48.75ZM49.2278 22.2512C49.5224 22.4869 49.8962 22.6801 50.3414 22.836L50.5066 22.364C50.0985 22.2212 49.779 22.0518 49.5402 21.8608L49.2278 22.2512ZM50.3484 22.8383C50.7936 22.9795 51.2807 23.1093 51.8092 23.2279L51.9188 22.7401C51.402 22.6241 50.929 22.4979 50.4996 22.3617L50.3484 22.8383ZM51.8092 23.2279C52.3268 23.3441 52.8391 23.4761 53.346 23.624L53.486 23.144C52.9689 22.9932 52.4465 22.8585 51.9188 22.7401L51.8092 23.2279ZM53.3519 23.6256C53.8586 23.7601 54.3155 23.935 54.7238 24.1493L54.9562 23.7067C54.5111 23.473 54.0187 23.2852 53.4801 23.1424L53.3519 23.6256ZM54.7304 24.1527C55.1371 24.3511 55.4509 24.6046 55.68 24.91L56.08 24.61C55.7971 24.2328 55.4175 23.9316 54.9496 23.7033L54.7304 24.1527ZM55.683 24.9139C55.908 25.2019 56.03 25.5812 56.03 26.072H56.53C56.53 25.4961 56.3854 25.0008 56.077 24.6061L55.683 24.9139ZM56.03 26.072C56.03 26.9792 55.6905 27.6579 55.0147 28.1406L55.3053 28.5474C56.1229 27.9635 56.53 27.1275 56.53 26.072H56.03ZM55.0166 28.1392C54.3265 28.6223 53.3591 28.878 52.088 28.878V29.378C53.4195 29.378 54.5002 29.111 55.3034 28.5488L55.0166 28.1392ZM59.4518 28.744L59.3324 28.9637L59.3361 28.9656L59.4518 28.744ZM58.2518 27.576L58.0346 27.7001L58.0378 27.7053L58.2518 27.576ZM57.8038 21V20.75H57.5538V21H57.8038ZM59.0038 21H59.2538V20.75H59.0038V21ZM59.6278 27.384L59.4445 27.5542L59.4488 27.5586L59.6278 27.384ZM62.4598 27.736L62.5817 27.9543L62.5865 27.9515L62.4598 27.736ZM63.3238 26.872L63.111 26.7406L63.1083 26.7452L63.3238 26.872ZM63.6598 21V20.75H63.4098V21H63.6598ZM64.8598 21H65.1098V20.75H64.8598V21ZM64.8598 29V29.25H65.1098V29H64.8598ZM63.6598 29H63.4098V29.25H63.6598V29ZM63.6598 27.752H63.9098V27.002L63.4598 27.602L63.6598 27.752ZM62.6038 28.728L62.7387 28.9385L62.6038 28.728ZM61.0038 28.878C60.5007 28.878 60.023 28.7601 59.5674 28.5224L59.3361 28.9656C59.8618 29.2399 60.4188 29.378 61.0038 29.378V28.878ZM59.5711 28.5243C59.1222 28.2804 58.7538 27.9235 58.4657 27.4467L58.0378 27.7053C58.3684 28.2525 58.7999 28.6743 59.3324 28.9637L59.5711 28.5243ZM58.4688 27.452C58.1966 26.9756 58.0538 26.3809 58.0538 25.656H57.5538C57.5538 26.4458 57.7095 27.131 58.0347 27.7L58.4688 27.452ZM58.0538 25.656V21H57.5538V25.656H58.0538ZM57.8038 21.25H59.0038V20.75H57.8038V21.25ZM58.7538 21V25.624H59.2538V21H58.7538ZM58.7538 25.624C58.7538 26.3999 58.9778 27.0515 59.4446 27.5541L59.8109 27.2139C59.4457 26.8205 59.2538 26.2987 59.2538 25.624H58.7538ZM59.4488 27.5586C59.9258 28.0475 60.5306 28.29 61.2438 28.29V27.79C60.6556 27.79 60.183 27.5951 59.8067 27.2094L59.4488 27.5586ZM61.2438 28.29C61.731 28.29 62.1789 28.1793 62.5817 27.9542L62.3378 27.5178C62.0153 27.698 61.6525 27.79 61.2438 27.79V28.29ZM62.5865 27.9515C62.9858 27.7166 63.3043 27.3981 63.5392 26.9988L63.1083 26.7452C62.9165 27.0713 62.659 27.3287 62.333 27.5205L62.5865 27.9515ZM63.5365 27.0034C63.7878 26.5964 63.9098 26.1284 63.9098 25.608H63.4098C63.4098 26.0476 63.3077 26.4223 63.1111 26.7406L63.5365 27.0034ZM63.9098 25.608V21H63.4098V25.608H63.9098ZM63.6598 21.25H64.8598V20.75H63.6598V21.25ZM64.6098 21V29H65.1098V21H64.6098ZM64.8598 28.75H63.6598V29.25H64.8598V28.75ZM63.9098 29V27.752H63.4098V29H63.9098ZM63.4598 27.602C63.1902 27.9614 62.8605 28.2665 62.4688 28.5175L62.7387 28.9385C63.179 28.6562 63.5533 28.3106 63.8598 27.902L63.4598 27.602ZM62.4688 28.5175C62.104 28.7514 61.6214 28.878 61.0038 28.878V29.378C61.6874 29.378 62.2715 29.2379 62.7387 28.9385L62.4688 28.5175ZM69.2983 28.744L69.1785 28.9635L69.1806 28.9646L69.2983 28.744ZM68.1463 27.72L68.3511 27.5766L67.8963 26.9269V27.72H68.1463ZM68.1463 29V29.25H68.3963V29H68.1463ZM66.9463 29H66.6963V29.25H66.9463V29ZM66.9463 17.8V17.55H66.6963V17.8H66.9463ZM68.1463 17.8H68.3963V17.55H68.1463V17.8ZM68.1463 22.296H67.8963V23.1054L68.3527 22.437L68.1463 22.296ZM69.2983 21.256L69.1806 21.0354L69.1785 21.0365L69.2983 21.256ZM73.0423 21.432L72.9062 21.6418L72.9108 21.6446L73.0423 21.432ZM74.4023 22.92L74.1794 23.0333L74.1802 23.0349L74.4023 22.92ZM74.4023 27.08L74.1794 26.9667L74.1794 26.9667L74.4023 27.08ZM73.0423 28.584L73.1755 28.7956L73.1765 28.7949L73.0423 28.584ZM72.3703 27.624L72.234 27.4144L72.2316 27.416L72.3703 27.624ZM73.3463 26.52L73.5709 26.6297L73.5719 26.6277L73.3463 26.52ZM73.3463 23.48L73.5709 23.3703L73.5709 23.3703L73.3463 23.48ZM72.3703 22.376L72.2316 22.584L72.234 22.5856L72.3703 22.376ZM69.3463 22.376L69.2076 22.168L69.2076 22.168L69.3463 22.376ZM68.4023 23.48L68.1756 23.3746L68.1756 23.3746L68.4023 23.48ZM68.4023 26.52L68.1746 26.6235L68.1756 26.6254L68.4023 26.52ZM69.3463 27.624L69.2076 27.832L69.2076 27.832L69.3463 27.624ZM71.0103 28.878C70.3812 28.878 69.8527 28.7564 69.4159 28.5234L69.1806 28.9646C69.7038 29.2436 70.3166 29.378 71.0103 29.378V28.878ZM69.418 28.5245C68.9816 28.2865 68.627 27.9709 68.3511 27.5766L67.9414 27.8634C68.2628 28.3225 68.6763 28.6895 69.1785 28.9635L69.418 28.5245ZM67.8963 27.72V29H68.3963V27.72H67.8963ZM68.1463 28.75H66.9463V29.25H68.1463V28.75ZM67.1963 29V17.8H66.6963V29H67.1963ZM66.9463 18.05H68.1463V17.55H66.9463V18.05ZM67.8963 17.8V22.296H68.3963V17.8H67.8963ZM68.3527 22.437C68.6288 22.0326 68.983 21.7127 69.418 21.4755L69.1785 21.0365C68.6748 21.3113 68.261 21.6847 67.9398 22.155L68.3527 22.437ZM69.4159 21.4766C69.8527 21.2436 70.3812 21.122 71.0103 21.122V20.622C70.3166 20.622 69.7038 20.7564 69.1806 21.0354L69.4159 21.4766ZM71.0103 21.122C71.7473 21.122 72.376 21.2981 72.9063 21.6418L73.1782 21.2222C72.5565 20.8192 71.8305 20.622 71.0103 20.622V21.122ZM72.9108 21.6446C73.4575 21.9826 73.8797 22.4438 74.1794 23.0333L74.6251 22.8067C74.2848 22.1375 73.8003 21.6067 73.1737 21.2194L72.9108 21.6446ZM74.1802 23.0349C74.48 23.6145 74.6323 24.2678 74.6323 25H75.1323C75.1323 24.1962 74.9645 23.4628 74.6243 22.8051L74.1802 23.0349ZM74.6323 25C74.6323 25.7209 74.4803 26.375 74.1794 26.9667L74.6251 27.1933C74.9642 26.5264 75.1323 25.7938 75.1323 25H74.6323ZM74.1794 26.9667C73.8794 27.5568 73.4564 28.0242 72.908 28.3731L73.1765 28.7949C73.8015 28.3972 74.2851 27.8619 74.6251 27.1933L74.1794 26.9667ZM72.909 28.3724C72.3784 28.7065 71.7487 28.878 71.0103 28.878V29.378C71.8291 29.378 72.5541 29.1868 73.1755 28.7956L72.909 28.3724ZM70.8503 28.29C71.4872 28.29 72.0444 28.1417 72.5089 27.832L72.2316 27.416C71.8641 27.661 71.408 27.79 70.8503 27.79V28.29ZM72.5065 27.8336C72.9713 27.5315 73.3271 27.1289 73.5709 26.6297L73.1216 26.4103C72.9174 26.8284 72.6226 27.1618 72.234 27.4144L72.5065 27.8336ZM73.5719 26.6277C73.8127 26.1232 73.9323 25.5795 73.9323 25H73.4323C73.4323 25.5085 73.3278 25.9782 73.1206 26.4123L73.5719 26.6277ZM73.9323 25C73.9323 24.4107 73.813 23.866 73.5709 23.3703L73.1216 23.5897C73.3275 24.0113 73.4323 24.48 73.4323 25H73.9323ZM73.5709 23.3703C73.3271 22.8711 72.9713 22.4685 72.5065 22.1664L72.234 22.5856C72.6226 22.8382 72.9174 23.1716 73.1216 23.5897L73.5709 23.3703ZM72.5089 22.168C72.0444 21.8583 71.4872 21.71 70.8503 21.71V22.21C71.408 22.21 71.8641 22.339 72.2316 22.584L72.5089 22.168ZM70.8503 21.71C70.223 21.71 69.6714 21.8588 69.2076 22.168L69.4849 22.584C69.8531 22.3385 70.3042 22.21 70.8503 22.21V21.71ZM69.2076 22.168C68.7529 22.4711 68.408 22.8748 68.1756 23.3746L68.6289 23.5854C68.8231 23.1679 69.1076 22.8356 69.4849 22.584L69.2076 22.168ZM68.1756 23.3746C67.9454 23.8693 67.8323 24.4125 67.8323 25H68.3323C68.3323 24.4782 68.4324 24.008 68.6289 23.5854L68.1756 23.3746ZM67.8323 25C67.8323 25.5777 67.9457 26.1198 68.1747 26.6235L68.6298 26.4165C68.4321 25.9815 68.3323 25.5103 68.3323 25H67.8323ZM68.1756 26.6254C68.408 27.1252 68.7529 27.5289 69.2076 27.832L69.4849 27.416C69.1076 27.1644 68.8231 26.8321 68.6289 26.4146L68.1756 26.6254ZM69.2076 27.832C69.6714 28.1412 70.223 28.29 70.8503 28.29V27.79C70.3042 27.79 69.8531 27.6615 69.4849 27.416L69.2076 27.832ZM77.5019 28.76L77.392 28.9846L77.3938 28.9855L77.5019 28.76ZM76.3499 27.8L76.141 27.9374L76.1427 27.94L76.3499 27.8ZM75.9019 26.488V26.238H75.6342L75.6525 26.505L75.9019 26.488ZM77.1499 26.488L77.3981 26.4582L77.3717 26.238H77.1499V26.488ZM77.4219 27.272L77.2057 27.3981L77.2125 27.4086L77.4219 27.272ZM78.1419 27.88L78.03 28.1037L78.0362 28.1065L78.1419 27.88ZM79.9819 28.056L80.0157 28.3037L79.9819 28.056ZM80.6539 27.88L80.5649 27.6463L80.561 27.6479L80.6539 27.88ZM81.0539 26.072L81.1984 25.868L81.1984 25.868L81.0539 26.072ZM80.0619 25.656L79.9982 25.8978L80.0043 25.8993L80.0619 25.656ZM78.7659 25.352L78.7135 25.5965L78.7147 25.5967L78.7659 25.352ZM77.4859 24.984L77.3941 25.2166L77.3994 25.2186L77.4859 24.984ZM76.4939 24.328L76.307 24.4941L76.3102 24.4976L76.4939 24.328ZM76.8939 21.48L77.0445 21.6795L77.0451 21.679L76.8939 21.48ZM80.9579 21.208L80.8439 21.4306L80.8504 21.4337L80.9579 21.208ZM81.9659 22.04L81.7568 22.1772L81.7599 22.1816L81.9659 22.04ZM82.3819 23.144V23.394H82.6604L82.6304 23.1171L82.3819 23.144ZM81.1659 23.144L80.9178 23.175L80.9452 23.394H81.1659V23.144ZM80.6539 22.264L80.4917 22.4543L80.4952 22.4572L80.6539 22.264ZM77.6939 23.784L77.5552 23.992L77.5552 23.992L77.6939 23.784ZM78.6859 24.2L78.6222 24.4418L78.6283 24.4433L78.6859 24.2ZM79.9659 24.488L79.9135 24.7325L79.9201 24.7338L79.9659 24.488ZM81.2619 24.856L81.1701 25.0885L81.1701 25.0885L81.2619 24.856ZM82.2539 25.544L82.064 25.7067L82.067 25.7101L82.2539 25.544ZM81.7419 28.52L81.884 28.7257L81.8847 28.7252L81.7419 28.52ZM79.3739 28.878C78.6646 28.878 78.0797 28.7597 77.6099 28.5345L77.3938 28.9855C77.948 29.251 78.6111 29.378 79.3739 29.378V28.878ZM77.6118 28.5354C77.1429 28.306 76.7953 28.0127 76.557 27.66L76.1427 27.94C76.4378 28.3766 76.8582 28.7233 77.392 28.9846L77.6118 28.5354ZM76.5587 27.6626C76.315 27.2921 76.1803 26.896 76.1513 26.471L75.6525 26.505C75.6875 27.0187 75.8515 27.4973 76.141 27.9374L76.5587 27.6626ZM75.9019 26.738H77.1499V26.238H75.9019V26.738ZM76.9017 26.5178C76.9381 26.8217 77.0412 27.1155 77.2059 27.398L77.6378 27.146C77.5039 26.9165 77.4256 26.6876 77.3981 26.4582L76.9017 26.5178ZM77.2125 27.4086C77.4015 27.6985 77.6792 27.9281 78.0301 28.1036L78.2537 27.6564C77.9646 27.5119 77.7622 27.3362 77.6313 27.1354L77.2125 27.4086ZM78.0362 28.1065C78.4007 28.2767 78.8565 28.354 79.3899 28.354V27.854C78.8992 27.854 78.5231 27.782 78.2476 27.6535L78.0362 28.1065ZM79.3899 28.354C79.5651 28.354 79.7746 28.3366 80.0157 28.3037L79.9481 27.8083C79.7199 27.8394 79.5346 27.854 79.3899 27.854V28.354ZM80.0157 28.3037C80.2699 28.269 80.5138 28.2053 80.7467 28.1121L80.561 27.6479C80.3673 27.7254 80.1631 27.779 79.9481 27.8083L80.0157 28.3037ZM80.7429 28.1136C81.0028 28.0146 81.2242 27.8638 81.402 27.6606L81.0257 27.3314C80.9048 27.4695 80.7529 27.5747 80.5649 27.6464L80.7429 28.1136ZM81.402 27.6606C81.5981 27.4366 81.6879 27.156 81.6879 26.84H81.1879C81.1879 27.0574 81.1284 27.2141 81.0257 27.3314L81.402 27.6606ZM81.6879 26.84C81.6879 26.4334 81.5247 26.0991 81.1984 25.868L80.9094 26.276C81.0951 26.4076 81.1879 26.5852 81.1879 26.84H81.6879ZM81.1984 25.868C80.9092 25.6631 80.5464 25.5138 80.1195 25.4127L80.0043 25.8993C80.388 25.9902 80.6866 26.1182 80.9094 26.276L81.1984 25.868ZM80.1255 25.4142C79.7156 25.3064 79.2794 25.2041 78.8171 25.1073L78.7147 25.5967C79.1696 25.6919 79.5975 25.7923 79.9983 25.8978L80.1255 25.4142ZM78.8183 25.1075C78.3811 25.0139 77.9659 24.8944 77.5723 24.7494L77.3994 25.2186C77.8165 25.3722 78.2546 25.4981 78.7135 25.5965L78.8183 25.1075ZM77.5777 24.7515C77.2019 24.6031 76.9044 24.4042 76.6776 24.1584L76.3102 24.4976C76.5954 24.8065 76.9592 25.0449 77.3941 25.2165L77.5777 24.7515ZM76.6807 24.1619C76.4756 23.9311 76.3599 23.6067 76.3599 23.16H75.8599C75.8599 23.6946 76.0002 24.1489 76.307 24.4941L76.6807 24.1619ZM76.3599 23.16C76.3599 22.5034 76.5918 22.0214 77.0445 21.6795L76.7432 21.2805C76.1506 21.728 75.8599 22.366 75.8599 23.16H76.3599ZM77.0451 21.679C77.517 21.3204 78.2379 21.122 79.2459 21.122V20.622C78.1846 20.622 77.3374 20.8289 76.7426 21.281L77.0451 21.679ZM79.2459 21.122C79.9262 21.122 80.4538 21.2307 80.8439 21.4305L81.0718 20.9855C80.5873 20.7373 79.9735 20.622 79.2459 20.622V21.122ZM80.8504 21.4337C81.266 21.6316 81.5629 21.8816 81.7569 22.1772L82.1749 21.9028C81.9209 21.5158 81.5458 21.211 81.0654 20.9823L80.8504 21.4337ZM81.7599 22.1816C81.9721 22.4904 82.0953 22.8192 82.1333 23.1709L82.6304 23.1171C82.5831 22.6795 82.429 22.2723 82.1719 21.8984L81.7599 22.1816ZM82.3819 22.894H81.1659V23.394H82.3819V22.894ZM81.4139 23.113C81.3623 22.7001 81.1541 22.3513 80.8126 22.0708L80.4952 22.4572C80.751 22.6673 80.8841 22.9052 80.9178 23.175L81.4139 23.113ZM80.816 22.0737C80.4589 21.7695 79.9038 21.646 79.2139 21.646V22.146C79.8679 22.146 80.2728 22.2678 80.4918 22.4543L80.816 22.0737ZM79.2139 21.646C78.5621 21.646 78.0316 21.7431 77.6565 21.9701C77.2611 22.2093 77.0599 22.5803 77.0599 23.048H77.5599C77.5599 22.7477 77.676 22.5427 77.9153 22.3979C78.1748 22.2409 78.5963 22.146 79.2139 22.146V21.646ZM77.0599 23.048C77.0599 23.4476 77.2264 23.7728 77.5552 23.992L77.8326 23.576C77.6494 23.4539 77.5599 23.2884 77.5599 23.048H77.0599ZM77.5552 23.992C77.8408 24.1824 78.1992 24.3304 78.6223 24.4418L78.7495 23.9582C78.3619 23.8562 78.0589 23.7269 77.8326 23.576L77.5552 23.992ZM78.6283 24.4433C79.0355 24.5397 79.4639 24.6361 79.9135 24.7325L80.0183 24.2435C79.5718 24.1479 79.1469 24.0523 78.7435 23.9567L78.6283 24.4433ZM79.9201 24.7338C80.3642 24.8164 80.7807 24.9348 81.1701 25.0885L81.3537 24.6235C80.9324 24.4572 80.4849 24.3303 80.0116 24.2422L79.9201 24.7338ZM81.1701 25.0885C81.5417 25.2352 81.8373 25.4422 82.0641 25.7067L82.4437 25.3813C82.1584 25.0485 81.7927 24.7968 81.3537 24.6235L81.1701 25.0885ZM82.067 25.7101C82.2713 25.94 82.3879 26.269 82.3879 26.728H82.8879C82.8879 26.1843 82.7484 25.724 82.4407 25.3779L82.067 25.7101ZM82.3879 26.728C82.3879 27.4316 82.1239 27.9493 81.599 28.3148L81.8847 28.7252C82.5545 28.2587 82.8879 27.5817 82.8879 26.728H82.3879ZM81.5998 28.3143C81.0683 28.6815 80.3343 28.878 79.3739 28.878V29.378C80.3974 29.378 81.2421 29.1692 81.884 28.7257L81.5998 28.3143ZM85.5406 28.584L85.4064 28.7949L85.4092 28.7966L85.5406 28.584ZM84.1646 27.08L83.9418 27.1933L83.9433 27.1963L84.1646 27.08ZM84.1646 22.92L83.9433 22.8037L83.9426 22.8051L84.1646 22.92ZM85.5406 21.432L85.6721 21.6447L85.6748 21.6429L85.5406 21.432ZM90.0366 21.608L89.8877 21.8088L89.8892 21.8099L90.0366 21.608ZM91.3966 23.512V23.762H91.7331L91.636 23.4399L91.3966 23.512ZM90.1006 23.512L89.8681 23.6039L89.9306 23.762H90.1006V23.512ZM89.2206 22.392L89.0732 22.594L89.0758 22.5958L89.2206 22.392ZM86.2446 22.376L86.1107 22.1649L86.1107 22.1649L86.2446 22.376ZM85.2366 23.48L85.0141 23.3661L85.0141 23.3661L85.2366 23.48ZM85.2366 26.52L85.013 26.6318L85.0141 26.6339L85.2366 26.52ZM86.2446 27.624L86.1107 27.8351L86.1107 27.8351L86.2446 27.624ZM89.2206 27.608L89.0758 27.4042L89.0733 27.4061L89.2206 27.608ZM90.1006 26.488V26.238H89.9306L89.8681 26.3961L90.1006 26.488ZM91.3966 26.488L91.636 26.5601L91.7331 26.238H91.3966V26.488ZM90.0366 28.392L89.8892 28.1901L89.8877 28.1912L90.0366 28.392ZM87.6206 28.878C86.8595 28.878 86.2133 28.7059 85.6721 28.3714L85.4092 28.7966C86.0413 29.1874 86.7817 29.378 87.6206 29.378V28.878ZM85.6748 28.3731C85.1258 28.0237 84.6968 27.5554 84.3859 26.9637L83.9433 27.1963C84.2938 27.8633 84.7821 28.3976 85.4064 28.7949L85.6748 28.3731ZM84.3875 26.9667C84.0866 26.375 83.9346 25.7209 83.9346 25H83.4346C83.4346 25.7938 83.6026 26.5264 83.9418 27.1933L84.3875 26.9667ZM83.9346 25C83.9346 24.2678 84.0869 23.6145 84.3867 23.0349L83.9426 22.8051C83.6024 23.4628 83.4346 24.1962 83.4346 25H83.9346ZM84.3859 23.0363C84.6965 22.4453 85.1247 21.9831 85.6721 21.6446L85.4092 21.2194C84.7833 21.6063 84.2941 22.1361 83.9433 22.8037L84.3859 23.0363ZM85.6748 21.6429C86.2156 21.2988 86.8609 21.122 87.6206 21.122V20.622C86.7804 20.622 86.0389 20.8186 85.4064 21.2211L85.6748 21.6429ZM87.6206 21.122C88.5248 21.122 89.2758 21.3548 89.8877 21.8088L90.1856 21.4072C89.4748 20.8799 88.6151 20.622 87.6206 20.622V21.122ZM89.8892 21.8099C90.5183 22.2693 90.9387 22.8589 91.1573 23.5841L91.636 23.4399C91.3852 22.6078 90.8989 21.9281 90.184 21.4061L89.8892 21.8099ZM91.3966 23.262H90.1006V23.762H91.3966V23.262ZM90.3331 23.4201C90.1338 22.916 89.8099 22.504 89.3654 22.1882L89.0758 22.5958C89.4421 22.856 89.7047 23.1906 89.8681 23.6039L90.3331 23.4201ZM89.368 22.1901C88.9241 21.8661 88.3903 21.71 87.7806 21.71V22.21C88.3016 22.21 88.7279 22.3419 89.0733 22.5939L89.368 22.1901ZM87.7806 21.71C87.153 21.71 86.5932 21.8589 86.1107 22.1649L86.3785 22.5871C86.7707 22.3384 87.2349 22.21 87.7806 22.21V21.71ZM86.1107 22.1649C85.6359 22.466 85.2692 22.8675 85.0141 23.3661L85.4592 23.5939C85.6734 23.1752 85.9787 22.8407 86.3785 22.5871L86.1107 22.1649ZM85.0141 23.3661C84.76 23.8627 84.6346 24.4088 84.6346 25H85.1346C85.1346 24.4818 85.2439 24.0146 85.4592 23.5939L85.0141 23.3661ZM84.6346 25C84.6346 25.5813 84.7603 26.1265 85.013 26.6318L85.4602 26.4082C85.2436 25.9749 85.1346 25.5067 85.1346 25H84.6346ZM85.0141 26.6339C85.2692 27.1325 85.6359 27.534 86.1107 27.8351L86.3785 27.4129C85.9787 27.1593 85.6734 26.8248 85.4592 26.4061L85.0141 26.6339ZM86.1107 27.8351C86.5932 28.1411 87.153 28.29 87.7806 28.29V27.79C87.2349 27.79 86.7707 27.6616 86.3785 27.4129L86.1107 27.8351ZM87.7806 28.29C88.3903 28.29 88.9241 28.1339 89.368 27.8099L89.0733 27.4061C88.7279 27.6581 88.3016 27.79 87.7806 27.79V28.29ZM89.3654 27.8118C89.8099 27.496 90.1338 27.084 90.3331 26.5799L89.8681 26.3961C89.7047 26.8094 89.4421 27.144 89.0758 27.4042L89.3654 27.8118ZM90.1006 26.738H91.3966V26.238H90.1006V26.738ZM91.1573 26.4159C90.9387 27.1411 90.5183 27.7307 89.8892 28.1901L90.184 28.5939C90.8989 28.0719 91.3852 27.3922 91.636 26.5601L91.1573 26.4159ZM89.8877 28.1912C89.2758 28.6452 88.5248 28.878 87.6206 28.878V29.378C88.6151 29.378 89.4748 29.1201 90.1856 28.5928L89.8877 28.1912ZM92.8838 29H92.6338V29.25H92.8838V29ZM92.8838 21V20.75H92.6338V21H92.8838ZM94.0838 21H94.3338V20.75H94.0838V21ZM94.0838 22.968H93.8338L94.3227 23.0415L94.0838 22.968ZM94.3238 22.424L94.1042 22.3043L94.1023 22.308L94.3238 22.424ZM94.8678 21.72L95.0445 21.8968L95.0445 21.8968L94.8678 21.72ZM95.7478 21.128L95.8512 21.3556L95.8542 21.3542L95.7478 21.128ZM97.1078 20.872H97.3578V20.622H97.1078V20.872ZM97.1078 22.072V22.322H97.3578V22.072H97.1078ZM95.4118 22.568L95.5618 22.768L95.5625 22.7674L95.4118 22.568ZM94.4198 23.832L94.1917 23.7296L94.1907 23.7318L94.4198 23.832ZM94.0838 29V29.25H94.3338V29H94.0838ZM93.1338 29V21H92.6338V29H93.1338ZM92.8838 21.25H94.0838V20.75H92.8838V21.25ZM93.8338 21V22.968H94.3338V21H93.8338ZM94.3227 23.0415C94.3587 22.9244 94.4306 22.7588 94.5452 22.54L94.1023 22.308C93.9822 22.5372 93.8941 22.7342 93.8448 22.8945L94.3227 23.0415ZM94.5432 22.5437C94.6574 22.3343 94.8229 22.1185 95.0445 21.8968L94.691 21.5432C94.4433 21.7909 94.2461 22.0443 94.1043 22.3043L94.5432 22.5437ZM95.0445 21.8968C95.2548 21.6865 95.5221 21.5052 95.8512 21.3556L95.6443 20.9004C95.2694 21.0708 94.95 21.2842 94.691 21.5432L95.0445 21.8968ZM95.8542 21.3542C96.177 21.2023 96.5658 21.122 97.0278 21.122V20.622C96.5084 20.622 96.0439 20.7123 95.6413 20.9018L95.8542 21.3542ZM97.0278 21.122H97.1078V20.622H97.0278V21.122ZM96.8578 20.872V22.072H97.3578V20.872H96.8578ZM97.1078 21.822H96.9638V22.322H97.1078V21.822ZM96.9638 21.822C96.3172 21.822 95.7457 22.0021 95.261 22.3686L95.5625 22.7674C95.9525 22.4726 96.4157 22.322 96.9638 22.322V21.822ZM95.2618 22.368C94.7987 22.7153 94.4424 23.1713 94.1917 23.7296L94.6478 23.9344C94.8665 23.4474 95.1714 23.0607 95.5618 22.768L95.2618 22.368ZM94.1907 23.7318C93.9522 24.277 93.8338 24.8606 93.8338 25.48H94.3338C94.3338 24.9261 94.4393 24.411 94.6488 23.9322L94.1907 23.7318ZM93.8338 25.48V29H94.3338V25.48H93.8338ZM94.0838 28.75H92.8838V29.25H94.0838V28.75ZM98.3514 19.656H98.1014V19.906H98.3514V19.656ZM98.3514 18.088V17.838H98.1014V18.088H98.3514ZM99.6474 18.088H99.8974V17.838H99.6474V18.088ZM99.6474 19.656V19.906H99.8974V19.656H99.6474ZM98.3994 29H98.1494V29.25H98.3994V29ZM98.3994 21V20.75H98.1494V21H98.3994ZM99.5994 21H99.8494V20.75H99.5994V21ZM99.5994 29V29.25H99.8494V29H99.5994ZM98.6014 19.656V18.088H98.1014V19.656H98.6014ZM98.3514 18.338H99.6474V17.838H98.3514V18.338ZM99.3974 18.088V19.656H99.8974V18.088H99.3974ZM99.6474 19.406H98.3514V19.906H99.6474V19.406ZM98.6494 29V21H98.1494V29H98.6494ZM98.3994 21.25H99.5994V20.75H98.3994V21.25ZM99.3494 21V29H99.8494V21H99.3494ZM99.5994 28.75H98.3994V29.25H99.5994V28.75ZM104.033 28.744L103.913 28.9635L103.915 28.9646L104.033 28.744ZM102.881 27.72L103.085 27.5766L102.631 26.9269V27.72H102.881ZM102.881 29V29.25H103.131V29H102.881ZM101.681 29H101.431V29.25H101.681V29ZM101.681 17.8V17.55H101.431V17.8H101.681ZM102.881 17.8H103.131V17.55H102.881V17.8ZM102.881 22.296H102.631V23.1054L103.087 22.437L102.881 22.296ZM104.033 21.256L103.915 21.0354L103.913 21.0365L104.033 21.256ZM107.777 21.432L107.641 21.6418L107.645 21.6446L107.777 21.432ZM109.137 22.92L108.914 23.0333L108.915 23.0349L109.137 22.92ZM109.137 27.08L108.914 26.9667L108.914 26.9667L109.137 27.08ZM107.777 28.584L107.91 28.7956L107.911 28.7949L107.777 28.584ZM107.105 27.624L106.968 27.4144L106.966 27.416L107.105 27.624ZM108.081 26.52L108.305 26.6297L108.306 26.6277L108.081 26.52ZM108.081 23.48L108.305 23.3703L108.305 23.3703L108.081 23.48ZM107.105 22.376L106.966 22.584L106.968 22.5856L107.105 22.376ZM104.081 22.376L103.942 22.168L103.942 22.168L104.081 22.376ZM103.137 23.48L102.91 23.3746L102.91 23.3746L103.137 23.48ZM103.137 26.52L102.909 26.6235L102.91 26.6254L103.137 26.52ZM104.081 27.624L103.942 27.832L103.942 27.832L104.081 27.624ZM105.745 28.878C105.116 28.878 104.587 28.7564 104.15 28.5234L103.915 28.9646C104.438 29.2436 105.051 29.378 105.745 29.378V28.878ZM104.152 28.5245C103.716 28.2865 103.361 27.9709 103.085 27.5766L102.676 27.8634C102.997 28.3225 103.411 28.6895 103.913 28.9635L104.152 28.5245ZM102.631 27.72V29H103.131V27.72H102.631ZM102.881 28.75H101.681V29.25H102.881V28.75ZM101.931 29V17.8H101.431V29H101.931ZM101.681 18.05H102.881V17.55H101.681V18.05ZM102.631 17.8V22.296H103.131V17.8H102.631ZM103.087 22.437C103.363 22.0326 103.717 21.7127 104.152 21.4755L103.913 21.0365C103.409 21.3113 102.995 21.6847 102.674 22.155L103.087 22.437ZM104.15 21.4766C104.587 21.2436 105.116 21.122 105.745 21.122V20.622C105.051 20.622 104.438 20.7564 103.915 21.0354L104.15 21.4766ZM105.745 21.122C106.482 21.122 107.11 21.2981 107.641 21.6418L107.913 21.2222C107.291 20.8192 106.565 20.622 105.745 20.622V21.122ZM107.645 21.6446C108.192 21.9826 108.614 22.4438 108.914 23.0333L109.359 22.8067C109.019 22.1375 108.535 21.6067 107.908 21.2194L107.645 21.6446ZM108.915 23.0349C109.214 23.6145 109.367 24.2678 109.367 25H109.867C109.867 24.1962 109.699 23.4628 109.359 22.8051L108.915 23.0349ZM109.367 25C109.367 25.7209 109.215 26.375 108.914 26.9667L109.359 27.1933C109.699 26.5264 109.867 25.7938 109.867 25H109.367ZM108.914 26.9667C108.614 27.5568 108.191 28.0242 107.642 28.3731L107.911 28.7949C108.536 28.3972 109.02 27.8619 109.359 27.1933L108.914 26.9667ZM107.643 28.3724C107.113 28.7065 106.483 28.878 105.745 28.878V29.378C106.563 29.378 107.288 29.1868 107.91 28.7956L107.643 28.3724ZM105.585 28.29C106.222 28.29 106.779 28.1417 107.243 27.832L106.966 27.416C106.598 27.661 106.142 27.79 105.585 27.79V28.29ZM107.241 27.8336C107.706 27.5315 108.061 27.1289 108.305 26.6297L107.856 26.4103C107.652 26.8284 107.357 27.1618 106.968 27.4144L107.241 27.8336ZM108.306 26.6277C108.547 26.1232 108.667 25.5795 108.667 25H108.167C108.167 25.5085 108.062 25.9782 107.855 26.4123L108.306 26.6277ZM108.667 25C108.667 24.4107 108.547 23.866 108.305 23.3703L107.856 23.5897C108.062 24.0113 108.167 24.48 108.167 25H108.667ZM108.305 23.3703C108.061 22.8711 107.706 22.4685 107.241 22.1664L106.968 22.5856C107.357 22.8382 107.652 23.1716 107.856 23.5897L108.305 23.3703ZM107.243 22.168C106.779 21.8583 106.222 21.71 105.585 21.71V22.21C106.142 22.21 106.598 22.339 106.966 22.584L107.243 22.168ZM105.585 21.71C104.957 21.71 104.406 21.8588 103.942 22.168L104.219 22.584C104.588 22.3385 105.039 22.21 105.585 22.21V21.71ZM103.942 22.168C103.487 22.4711 103.142 22.8748 102.91 23.3746L103.363 23.5854C103.558 23.1679 103.842 22.8356 104.219 22.584L103.942 22.168ZM102.91 23.3746C102.68 23.8693 102.567 24.4125 102.567 25H103.067C103.067 24.4782 103.167 24.008 103.363 23.5854L102.91 23.3746ZM102.567 25C102.567 25.5777 102.68 26.1198 102.909 26.6235L103.364 26.4165C103.166 25.9815 103.067 25.5103 103.067 25H102.567ZM102.91 26.6254C103.142 27.1252 103.487 27.5289 103.942 27.832L104.219 27.416C103.842 27.1644 103.558 26.8321 103.363 26.4146L102.91 26.6254ZM103.942 27.832C104.406 28.1412 104.957 28.29 105.585 28.29V27.79C105.039 27.79 104.588 27.6615 104.219 27.416L103.942 27.832ZM112.62 28.584L112.489 28.7971L112.492 28.7987L112.62 28.584ZM111.196 27.08L110.975 27.1963L110.976 27.1992L111.196 27.08ZM111.18 22.92L111.402 23.0349L111.403 23.0333L111.18 22.92ZM112.556 21.432L112.686 21.6457L112.689 21.644L112.556 21.432ZM116.78 21.432L116.646 21.643L116.651 21.6457L116.78 21.432ZM118.156 22.92L117.933 23.0333L117.934 23.0349L118.156 22.92ZM118.636 25.48V25.73H118.886V25.48H118.636ZM111.932 25.48V25.23H111.646L111.685 25.5138L111.932 25.48ZM112.38 26.776L112.165 26.9038L112.17 26.9106L112.38 26.776ZM113.356 27.704L113.231 27.9204L113.235 27.9228L113.356 27.704ZM116.188 27.672L116.323 27.8827L116.327 27.88L116.188 27.672ZM117.084 26.696V26.446H116.935L116.864 26.5771L117.084 26.696ZM118.396 26.696L118.629 26.7864L118.761 26.446H118.396V26.696ZM117.068 28.456L117.218 28.656L117.219 28.6556L117.068 28.456ZM111.948 24.36L111.702 24.3177L111.652 24.61H111.948V24.36ZM117.388 24.36V24.61H117.68L117.635 24.3214L117.388 24.36ZM116.524 22.648L116.699 22.4692L116.699 22.4692L116.524 22.648ZM112.812 22.648L112.638 22.4692L112.635 22.4712L112.812 22.648ZM114.748 28.878C113.976 28.878 113.312 28.7057 112.748 28.3693L112.492 28.7987C113.144 29.1877 113.899 29.378 114.748 29.378V28.878ZM112.751 28.371C112.181 28.0207 111.737 27.5517 111.416 26.9608L110.976 27.1992C111.339 27.8669 111.844 28.4007 112.489 28.797L112.751 28.371ZM111.418 26.9637C111.107 26.3726 110.95 25.7195 110.95 25H110.45C110.45 25.7951 110.624 26.5288 110.975 27.1963L111.418 26.9637ZM110.95 25C110.95 24.2678 111.102 23.6145 111.402 23.0349L110.958 22.8051C110.618 23.4628 110.45 24.1962 110.45 25H110.95ZM111.403 23.0333C111.702 22.445 112.129 21.984 112.686 21.6457L112.427 21.2183C111.789 21.6054 111.298 22.1363 110.957 22.8067L111.403 23.0333ZM112.689 21.644C113.241 21.2991 113.897 21.122 114.668 21.122V20.622C113.818 20.622 113.067 20.8183 112.424 21.22L112.689 21.644ZM114.668 21.122C115.451 21.122 116.106 21.2994 116.646 21.6429L116.914 21.2211C116.281 20.8179 115.528 20.622 114.668 20.622V21.122ZM116.651 21.6457C117.208 21.984 117.634 22.445 117.933 23.0333L118.379 22.8067C118.038 22.1363 117.548 21.6054 116.91 21.2183L116.651 21.6457ZM117.934 23.0349C118.234 23.6145 118.386 24.2678 118.386 25H118.886C118.886 24.1962 118.718 23.4628 118.378 22.8051L117.934 23.0349ZM118.386 25V25.48H118.886V25H118.386ZM118.636 25.23H111.932V25.73H118.636V25.23ZM111.685 25.5138C111.753 26.0153 111.913 26.4794 112.165 26.9038L112.595 26.6482C112.378 26.2833 112.24 25.8834 112.18 25.4462L111.685 25.5138ZM112.17 26.9106C112.437 27.3292 112.792 27.6662 113.231 27.9204L113.482 27.4876C113.11 27.2724 112.814 26.9908 112.591 26.6414L112.17 26.9106ZM113.235 27.9228C113.683 28.1702 114.195 28.29 114.764 28.29V27.79C114.267 27.79 113.84 27.6858 113.477 27.4852L113.235 27.9228ZM114.764 28.29C115.366 28.29 115.89 28.1592 116.323 27.8827L116.054 27.4613C115.719 27.6754 115.293 27.79 114.764 27.79V28.29ZM116.327 27.88C116.744 27.6021 117.071 27.2465 117.304 26.8149L116.864 26.5771C116.671 26.9348 116.401 27.2299 116.05 27.464L116.327 27.88ZM117.084 26.946H118.396V26.446H117.084V26.946ZM118.163 26.6056C117.903 27.2772 117.488 27.8259 116.918 28.2564L117.219 28.6556C117.864 28.1687 118.335 27.5442 118.629 26.7864L118.163 26.6056ZM116.918 28.256C116.375 28.6637 115.658 28.878 114.748 28.878V29.378C115.737 29.378 116.567 29.1443 117.218 28.656L116.918 28.256ZM111.948 24.61H117.388V24.11H111.948V24.61ZM117.635 24.3214C117.521 23.5884 117.209 22.9677 116.699 22.4692L116.35 22.8268C116.778 23.2457 117.042 23.7662 117.141 24.3986L117.635 24.3214ZM116.699 22.4692C116.175 21.9572 115.49 21.71 114.668 21.71V22.21C115.383 22.21 115.935 22.4215 116.35 22.8268L116.699 22.4692ZM114.668 21.71C113.847 21.71 113.161 21.9572 112.638 22.4692L112.987 22.8268C113.402 22.4215 113.954 22.21 114.668 22.21V21.71ZM112.635 22.4712C112.138 22.969 111.827 23.5877 111.702 24.3177L112.195 24.4023C112.304 23.767 112.569 23.2444 112.989 22.8248L112.635 22.4712Z" fill="white"/>
</svg>
