<svg width="112" height="112" viewBox="0 0 112 112" fill="none" xmlns="http://www.w3.org/2000/svg">
<g clip-path="url(#clip0_4998_8306)">
<path d="M49.7499 70.5H42.0797L46.8735 41.5179H54.5445L49.7499 70.5ZM35.627 41.5179L28.3146 61.452L27.4493 57.1594L27.4501 57.1609L24.8692 44.1274C24.8692 44.1274 24.5571 41.5179 21.2307 41.5179H9.14185L9 42.0086C9 42.0086 12.6968 42.7653 17.0233 45.3213L23.6871 70.5007H31.6788L43.882 41.5179H35.627ZM95.9571 70.5H103L96.8594 41.5171H90.6936C87.8464 41.5171 87.1529 43.677 87.1529 43.677L75.7134 70.5H83.709L85.308 66.195H95.0587L95.9571 70.5ZM87.517 60.248L91.5471 49.4022L93.8144 60.248H87.517ZM76.3131 48.4874L77.4077 42.2637C77.4077 42.2637 74.0301 41 70.509 41C66.7027 41 57.6636 42.6366 57.6636 50.5945C57.6636 58.0819 68.2725 58.175 68.2725 62.1078C68.2725 66.0407 58.7566 65.336 55.6162 62.856L54.4759 69.3634C54.4759 69.3634 57.9008 71 63.1335 71C68.3678 71 76.2642 68.3339 76.2642 61.0775C76.2642 53.5421 65.56 52.8405 65.56 49.5642C65.5608 46.2872 73.0308 46.7082 76.3131 48.4874Z" fill="#BDBDBD"/>
<path opacity="0.2" d="M27.3718 57.1834L24.7838 43.8982C24.7838 43.8982 24.4709 41.2383 21.1354 41.2383H9.01333L8.87109 41.7385C8.87109 41.7385 14.6974 42.946 20.2859 47.47C25.6294 51.7941 27.3718 57.1834 27.3718 57.1834Z" fill="black"/>
</g>
<defs>
<clipPath id="clip0_4998_8306">
<rect width="112" height="112" fill="white"/>
</clipPath>
</defs>
</svg>
